<svg fill="none" xmlns="http://www.w3.org/2000/svg" viewBox="0 0 24 18">
  <g clip-path="url(#clip0_461_1300)">
    <path d="M0 0h24v18H0V0Z" fill="#006" />
    <path
      fill-rule="evenodd"
      clip-rule="evenodd"
      d="m11.243 14.718-1.639.142.225 1.628L8.7 15.299l-1.129 1.189.225-1.628-1.638-.142 1.413-.836-.91-1.37 1.537.582.502-1.564.506 1.564 1.538-.581-.911 1.369 1.41.836Zm7.005 1.5-.398-.593.668.252.217-.68.218.68.667-.252-.393.593.614.364-.712.063.098.71-.488-.522-.495.521.098-.709-.713-.06.619-.367Zm-.004-10.579-.394-.592.668.25.217-.678.218.679.667-.251-.393.592.614.368-.712.06.098.708-.488-.517-.495.514.098-.705-.713-.06.615-.368ZM14.28 9.937l-.393-.593.667.251.217-.678.222.678.667-.25-.397.592.615.363-.713.064.102.709-.495-.521-.488.52.094-.708-.713-.06.615-.367Zm7.496-1.058-.4-.592.667.25.217-.678.221.679.668-.251-.394.592.611.364-.712.064.098.705-.488-.518-.495.518.098-.705-.713-.064.622-.364ZM20.326 12l-.387.244.109-.446-.349-.293.454-.037.172-.42.177.423.453.034-.348.293.108.446"
      fill="#fff"
    />
    <path d="M0 0h12v9H0V0Z" fill="#006" />
    <path
      d="m1.406 0 4.575 3.394L10.537 0H12v1.163L7.5 4.518 12 7.856V9h-1.5L6 5.644 1.519 9H0V7.875l4.481-3.338L0 1.2V0h1.406Z"
      fill="#fff"
    />
    <path
      d="M7.95 5.269 12 8.25V9L6.919 5.269H7.95Zm-3.45.375.112.656-3.6 2.7H0l4.5-3.356ZM12 0v.056L7.331 3.581l.038-.825L11.063 0H12ZM0 0l4.481 3.3H3.356L0 .788V0Z"
      fill="#C8102E"
    />
    <path d="M4.519 0v9h3V0h-3ZM0 3v3h12V3H0Z" fill="#fff" />
    <path d="M0 3.619v1.8h12v-1.8H0ZM5.119 0v9h1.8V0h-1.8Z" fill="#C8102E" />
  </g>
  <defs>
    <clipPath id="clip0_461_1300">
      <path fill="#fff" d="M0 0h24v18H0z" />
    </clipPath>
  </defs>
</svg>
