<svg fill="none" xmlns="http://www.w3.org/2000/svg" viewBox="0 0 24 18">
  <path d="M0 0h24v18H0V0Z" fill="#012169" />
  <path
    d="m2.813 0 9.15 6.787L21.075 0H24v2.325l-9 6.712 9 6.675V18h-3l-9-6.713L3.037 18H0v-2.25l8.963-6.675L0 2.4V0h2.813Z"
    fill="#fff"
  />
  <path
    d="M15.9 10.537 24 16.5V18l-10.162-7.463H15.9Zm-6.9.75.225 1.313-7.2 5.4H0l9-6.713ZM24 0v.113l-9.338 7.05.075-1.65L22.126 0H24ZM0 0l8.963 6.6h-2.25L0 1.575V0Z"
    fill="#C8102E"
  />
  <path d="M9.037 0v18h6V0h-6ZM0 6v6h24V6H0Z" fill="#fff" />
  <path d="M0 7.237v3.6h24v-3.6H0ZM10.238 0v18h3.6V0h-3.6Z" fill="#C8102E" />
</svg>
