<svg xmlns="http://www.w3.org/2000/svg" width="102" height="32" fill="none"><path fill="#175CFF" fill-rule="evenodd" d="M3.261 14.246v6.16l8.147 4.925 8.154-4.926v-8.094l-6.952 4.187a2.281 2.281 0 0 1-2.404 0L.746 10.79c-.995-.607-.995-2.13 0-2.727l9.46-5.72a2.273 2.273 0 0 1 2.403 0l6.953 4.205-3.202 1.927-4.952-2.983L9.09 6.9 4.9 9.443l2.206 1.329 4.3 2.62 8.791-5.295c.497-.291 1.176-.255 1.673.008.54.291.945.863.945 1.566v11.27a2.402 2.402 0 0 1-1.168 2.094l-9.04 5.463a2.274 2.274 0 0 1-2.402 0l-9.039-5.462c-.738-.45-1.16-1.207-1.16-2.094v-8.648l3.254 1.952Z" clip-rule="evenodd"/><path fill="#0A083B" fill-rule="evenodd" d="M44.006 18.675c0-2.073-1.12-3.374-3.522-3.85l-2.06-.39c-1.393-.278-1.923-.756-1.923-1.613 0-.954.872-1.579 2.248-1.579 1.428 0 2.496.547 2.496 1.873h2.549c0-2.922-2.463-4.024-5.01-4.024-3.114 0-4.942 1.726-4.942 3.963 0 1.987 1.29 3.252 3.616 3.695l2.053.399c1.264.241 1.802.684 1.802 1.595 0 1.049-.974 1.708-2.42 1.708-1.829 0-2.717-.772-2.717-1.847H33.55c0 2.437 2.026 4.05 5.343 4.05 2.872 0 5.112-1.432 5.112-3.98Zm53.538-5.905c-1.393 0-2.514.563-3.001 1.413V8.71h-2.548v13.78h2.368l.146-1.284c.47.823 1.607 1.466 3.035 1.466 2.59 0 4.454-1.778 4.454-4.952 0-3.044-1.753-4.953-4.454-4.953v.002Zm-.556 7.613c-1.377 0-2.41-.989-2.41-2.662 0-1.647 1.033-2.671 2.41-2.662 1.393.008 2.402 1.015 2.402 2.662 0 1.648-1.009 2.662-2.402 2.662Zm-15.817-2.662c0 2.974 2.044 4.952 4.926 4.952 2.872 0 4.915-1.978 4.915-4.952 0-2.957-2.043-4.969-4.916-4.969-2.88 0-4.925 2.012-4.925 4.969Zm2.59-.018c0-1.708.924-2.774 2.336-2.774 1.41 0 2.333 1.066 2.333 2.774 0 1.691-.923 2.784-2.334 2.784-1.41 0-2.334-1.093-2.334-2.784Zm-5.213-2.055c1.281-.537 1.666-1.76 1.666-2.809 0-2.204-1.522-3.556-4.395-3.556h-5.521v13.206h5.9c2.735 0 4.454-1.378 4.454-3.701 0-1.414-.728-2.663-2.103-3.141l-.001.001Zm-.976-2.496c0 .935-.615 1.672-1.847 1.672h-2.837v-3.287h2.744c1.343 0 1.941.694 1.941 1.614l-.001.001Zm-1.607 7.084h-3.079v-3.34h3.13c1.172 0 1.915.626 1.915 1.709 0 1.059-.718 1.63-1.966 1.63ZM64.62 12.77c-1.444 0-2.563.657-3.034 1.482l-.145-1.301h-2.37v13.207h2.532v-4.882c.487.85 1.642 1.413 3.017 1.413 2.72 0 4.456-1.925 4.456-4.951 0-3.192-1.882-4.968-4.456-4.968Zm-.555 7.63c-1.376 0-2.41-.988-2.41-2.645 0-1.664 1.032-2.697 2.41-2.697 1.394.017 2.402 1.033 2.402 2.68 0 1.674-1.008 2.663-2.402 2.663Zm-8.865-8.914h2.566v-2.48h-2.566v2.48Zm.035 11.004h2.531v-9.538h-2.531v9.538Zm-5.036-9.72c-1.334 0-2.275.493-2.787 1.248V8.71h-2.53v13.78h2.53v-5.083c0-1.396.743-2.3 2.087-2.317 1.264-.033 2.009.773 2.009 2.385v5.013h2.53v-5.394c0-3.39-2.078-4.327-3.839-4.327v.002Z" clip-rule="evenodd"/></svg>