<svg xmlns="http://www.w3.org/2000/svg" width="32" height="32" fill="none"><path fill="#1AB4D7" d="M16 32c8.837 0 16-7.163 16-16S24.837 0 16 0 0 7.163 0 16s7.163 16 16 16Z"/><path fill="#fff" d="m7.66 15.954 2.73-2.738a.489.489 0 1 0-.696-.687l-2.729 2.727-2.74-2.731a.49.49 0 1 0-.688.695l2.73 2.73-2.728 2.734a.488.488 0 0 0 .34.84c.131 0 .254-.052.346-.144l2.736-2.732 2.726 2.722a.488.488 0 1 0 .701-.68L7.66 15.953ZM23.892 15.953a.89.89 0 0 0 1.777 0 .89.89 0 0 0-1.777 0Z"/><path fill="#fff" d="M22.205 15.953a2.578 2.578 0 0 1 2.575-2.574 2.578 2.578 0 0 1 2.574 2.574 2.577 2.577 0 0 1-2.574 2.574 2.577 2.577 0 0 1-2.575-2.574Zm-1.013 0a3.591 3.591 0 0 0 3.588 3.587 3.592 3.592 0 0 0 3.588-3.587 3.592 3.592 0 0 0-3.588-3.587 3.592 3.592 0 0 0-3.588 3.587ZM20.938 12.427h-.15c-.452 0-.888.142-1.252.422a.49.49 0 0 0-.478-.384.484.484 0 0 0-.485.485l.002 6.042a.49.49 0 0 0 .978 0v-3.716c0-1.238.114-1.738 1.174-1.87.099-.013.205-.011.206-.011.29-.01.496-.21.496-.48a.49.49 0 0 0-.49-.488ZM11.544 15.363l.002-.041a2.592 2.592 0 0 1 5.033.04h-5.035Zm6.037-.093c-.21-.998-.757-1.818-1.59-2.344a3.616 3.616 0 0 0-3.997.106 3.628 3.628 0 0 0-1.405 3.81 3.616 3.616 0 0 0 3.045 2.68c.433.053.855.028 1.291-.085a3.534 3.534 0 0 0 1.072-.458c.347-.223.637-.517.918-.87l.017-.018c.195-.242.159-.585-.055-.75-.181-.138-.484-.194-.723.111a3.279 3.279 0 0 1-.171.224c-.19.21-.426.413-.708.57a2.574 2.574 0 0 1-1.202.304c-1.423-.016-2.185-1.01-2.456-1.718a2.585 2.585 0 0 1-.109-.412.94.94 0 0 1-.006-.075h5.106c.7-.015 1.077-.51.973-1.075Z"/></svg>