<svg xmlns="http://www.w3.org/2000/svg" width="66" height="32" fill="none"><path fill="#163300" d="M36.711 8.47h4.062l-2.044 14.577h-4.062L36.711 8.47Zm-5.12 0-2.741 8.397-1.196-8.397h-2.84l-3.589 8.372-.448-8.37H16.84l1.37 14.575h3.265l4.036-9.218 1.42 9.218h3.215L35.453 8.47h-3.862Zm34.098 8.472h-9.643c.05 1.894 1.184 3.14 2.853 3.14 1.26 0 2.255-.673 3.028-1.957l3.255 1.48c-1.119 2.205-3.476 3.641-6.382 3.641-3.962 0-6.59-2.666-6.59-6.952 0-4.71 3.089-8.048 7.45-8.048 3.837 0 6.254 2.591 6.254 6.628 0 .673-.075 1.345-.225 2.068Zm-3.612-2.79c0-1.695-.948-2.766-2.467-2.766-1.57 0-2.866 1.12-3.215 2.765h5.682ZM4.145 12.862 0 17.708h7.402l.832-2.284H5.063L7 13.182l.006-.059-1.26-2.17h5.67L7.021 23.048h3.008L15.336 8.47H1.625l2.52 4.392v.001Zm43.23-1.477c1.432 0 2.688.77 3.784 2.09l.576-4.109c-1.02-.69-2.404-1.12-4.235-1.12-3.638 0-5.681 2.13-5.681 4.833 0 1.875 1.047 3.021 2.766 3.762l.822.374c1.532.654 1.944.978 1.944 1.67 0 .716-.692 1.17-1.744 1.17-1.739.007-3.146-.884-4.205-2.404l-.588 4.187c1.207.92 2.754 1.407 4.792 1.407 3.458 0 5.581-1.994 5.581-4.76 0-1.88-.834-3.089-2.94-4.036l-.896-.423c-1.247-.555-1.67-.86-1.67-1.47 0-.66.58-1.171 1.694-1.171Z"/></svg>