<svg width="328" height="83" viewBox="0 0 328 83" fill="none" xmlns="http://www.w3.org/2000/svg">
<path d="M35.3278 19.4565H37.533L37.1677 17.7457V7.54652H35.0583V12.1984C34.4237 11.4631 33.551 11.0318 32.5205 11.0318C30.4107 11.0318 28.7773 12.7739 28.7773 15.332C28.7773 17.8898 30.4107 19.6323 32.5205 19.6323C33.5673 19.6323 34.4711 19.1846 35.106 18.4169L35.3278 19.4561V19.4565ZM77.0267 13.318C77.455 13.318 77.8514 13.4294 78.216 13.685L79.2155 11.4314C78.7551 11.1432 78.216 11.0158 77.6929 11.0158C76.7411 11.0158 75.9481 11.4461 75.441 12.2468L75.2185 11.2066H73.0453L73.3943 12.8213V19.4551H75.5027V14.1964C75.7883 13.6526 76.3278 13.3173 77.0257 13.3173V13.318H77.0267ZM83.2118 17.4101C81.9915 17.4101 81.0867 16.5951 81.0867 15.3317C81.0867 14.053 81.9915 13.254 83.2118 13.254C84.4495 13.254 85.338 14.053 85.338 15.3317C85.338 16.5951 84.4495 17.4101 83.2122 17.4101H83.2118ZM30.823 15.3317C30.823 14.053 31.7271 13.254 32.9482 13.254C34.1859 13.254 35.0739 14.053 35.0739 15.3317C35.0739 16.5951 34.1859 17.4101 32.9488 17.4101C31.7278 17.4101 30.823 16.5951 30.823 15.3317ZM92.5547 17.4101C91.3336 17.4101 90.4296 16.5951 90.4296 15.3317C90.4296 14.053 91.3336 13.254 92.5547 13.254C93.7917 13.254 94.6798 14.053 94.6798 15.3317C94.6798 16.5951 93.7917 17.4101 92.5547 17.4101ZM42.6556 13.1258C43.7499 13.1258 44.4638 13.6373 44.6856 14.5804H40.6256C40.8634 13.6373 41.577 13.1258 42.6553 13.1258H42.6556ZM67.89 13.1258C68.9849 13.1258 69.6989 13.6373 69.9207 14.5804H65.8607C66.0985 13.6373 66.8121 13.1258 67.8904 13.1258H67.89ZM57.5971 19.4565H60.9913L63.1964 11.2076H60.8965L59.2792 17.8898L57.6612 11.2076H55.3926L57.5978 19.4561L57.5971 19.4565ZM52.1565 19.4565H54.265V11.2072H52.1565V19.4565ZM42.9789 19.6093C44.1532 19.6093 45.3108 19.289 46.2783 18.6658L45.4696 16.8436C44.708 17.2433 43.8676 17.4832 43.0109 17.4832C41.901 17.4832 41.1237 17.0515 40.7904 16.2521H46.722C46.7854 15.9485 46.8177 15.645 46.8177 15.277C46.8177 12.7192 45.0573 11.0087 42.6936 11.0087C40.315 11.0087 38.5702 12.7352 38.5702 15.309C38.5702 17.9305 40.299 19.6093 42.9795 19.6093H42.9789ZM96.7261 15.3317C96.7261 12.7739 94.9497 11.0314 92.5547 11.0314C90.1593 11.0314 88.3832 12.7739 88.3832 15.3317C88.3832 17.8898 90.1593 19.632 92.5543 19.632C94.9497 19.632 96.7258 17.8898 96.7258 15.3317H96.7261ZM68.1763 19.632C69.3493 19.632 70.5072 19.3124 71.4757 18.6888L70.666 16.8656C69.9047 17.2653 69.064 17.5048 68.2073 17.5048C67.0974 17.5048 66.3201 17.0738 65.9868 16.2738H71.9191C71.9825 15.9702 72.0138 15.6666 72.0138 15.299C72.0138 12.7412 70.253 11.0308 67.8897 11.0308C65.511 11.0308 63.7663 12.7569 63.7663 15.331C63.7663 17.9526 65.4954 19.6313 68.1759 19.6313V19.632H68.1763ZM83.2122 19.632C85.6075 19.632 87.3833 17.8898 87.3833 15.3317C87.3833 12.7739 85.6072 11.0314 83.2118 11.0314C80.8165 11.0314 79.0404 12.7739 79.0404 15.3317C79.0404 17.8898 80.8168 19.632 83.2115 19.632H83.2122ZM48.1595 19.4561H50.2686V7.54618H48.1592V19.4561H48.1595ZM53.2188 10.0716C53.9641 10.0716 54.5352 9.49581 54.5352 8.72851C54.5352 7.9612 53.9647 7.38572 53.2191 7.38572C52.4578 7.38572 51.8867 7.9612 51.8867 8.72851C51.8867 9.49581 52.4581 10.0713 53.2194 10.0713L53.2188 10.0716ZM16.9791 0.0389078L15.7715 11.4691L13.7114 1.83241L7.25267 3.19822L9.31172 12.8343L-6.10352e-05 14.8026L1.64465 22.5L18.0197 25.9609L21.7645 17.5966L23.5466 0.725815L16.9785 0.0385742L16.9791 0.0392414V0.0389078ZM11.8048 16.6204C11.4672 16.928 11.0208 16.8997 10.5471 16.7429C10.0744 16.5867 9.86419 16.0179 10.0433 15.3304C10.1768 14.8199 10.805 14.7432 11.1192 14.7379C11.2387 14.7359 11.3561 14.7599 11.4645 14.8086C11.6867 14.9087 12.063 15.1222 12.1394 15.4478C12.2495 15.9175 12.1434 16.3118 11.8058 16.6194H11.8051V16.6201L11.8048 16.6204ZM16.5454 17.1509C16.3002 17.5746 15.6564 17.6306 15.0228 17.3224C14.5958 17.1142 14.5991 16.5844 14.6459 16.2615C14.6706 16.0853 14.7421 15.919 14.8527 15.7797C15.0052 15.5876 15.2597 15.337 15.5539 15.3294C16.0323 15.3167 16.444 15.5302 16.6765 15.9165C16.9101 16.3015 16.7933 16.7262 16.5474 17.1509H16.5454Z" fill="#00CCBC"/>
<path fill-rule="evenodd" clip-rule="evenodd" d="M128.793 11.4993C128.821 11.6729 128.91 11.8308 129.043 11.9448C129.177 12.0588 129.346 12.1215 129.522 12.1217C129.532 12.1217 129.543 12.1187 129.553 12.1174H140.091C140.497 12.1174 140.826 11.7878 140.829 11.3804H140.83V0.776941C140.83 0.77396 140.83 0.772469 140.83 0.769488C140.83 0.766176 140.83 0.763526 140.83 0.760545V0.750276H140.829C140.824 0.55751 140.744 0.374377 140.606 0.240051C140.468 0.105724 140.283 0.0308692 140.091 0.0314981L139.943 0.0447474C133.991 0.477671 129.237 5.23502 128.793 11.1994V11.4992V11.4993Z" fill="#8D468A"/>
<path fill-rule="evenodd" clip-rule="evenodd" d="M154.599 11.3807C154.598 11.5764 154.519 11.7637 154.381 11.9017C154.243 12.0398 154.056 12.1174 153.86 12.1177H143.323C142.884 12.1218 142.553 11.7898 142.553 11.3807C142.553 11.3646 142.552 11.3575 142.553 11.3409C142.936 5.30702 147.715 0.481432 153.712 0.0448656L153.86 0.0316162C154.261 0.0316162 154.588 0.350595 154.598 0.750394C154.599 0.7653 154.599 4.30868 154.599 11.381L154.599 11.3807Z" fill="#73247E"/>
<path fill-rule="evenodd" clip-rule="evenodd" d="M128.793 14.5228C128.817 14.3454 128.904 14.1829 129.039 14.0651C129.173 13.9474 129.345 13.8825 129.524 13.8825H129.526V13.8812H140.061C140.072 13.8812 140.082 13.8782 140.093 13.8782C140.19 13.8781 140.286 13.8972 140.376 13.9343C140.465 13.9715 140.547 14.0259 140.615 14.0946C140.684 14.1633 140.738 14.2449 140.775 14.3346C140.812 14.4244 140.832 14.5206 140.832 14.6178C140.832 14.6339 140.833 14.6427 140.832 14.6589L140.831 14.6647C140.449 20.6932 135.669 25.5187 129.672 25.9553L129.524 25.9669C129.347 25.9676 129.174 25.9037 129.04 25.787C128.905 25.6702 128.818 25.5086 128.793 25.3319V14.5228H128.793Z" fill="#8D468A"/>
<path fill-rule="evenodd" clip-rule="evenodd" d="M154.598 25.2393V25.2481H154.597C154.592 25.4409 154.512 25.6242 154.374 25.7586C154.236 25.8929 154.051 25.9677 153.859 25.9669L153.711 25.9553C147.714 25.5187 142.934 20.6931 142.552 14.6647L142.551 14.6589C142.551 14.6427 142.552 14.634 142.552 14.6178C142.552 14.2087 142.882 13.8782 143.29 13.8782C143.301 13.8782 143.311 13.8812 143.322 13.8812H153.857V13.8825H153.859C154.054 13.8826 154.241 13.96 154.379 14.0977C154.517 14.2355 154.596 14.4224 154.597 14.6178H154.598V25.2216C154.598 25.2246 154.599 25.2276 154.599 25.2306C154.599 25.2334 154.598 25.2364 154.598 25.2393Z" fill="#73247E"/>
<path fill-rule="evenodd" clip-rule="evenodd" d="M160.429 3.42282V5.9551H164.573V7.85473H160.429V12.1127H158.07V1.5159H165.045V3.42282H160.429ZM172.61 4.23766V12.1127H170.484L170.418 11.283C170.167 11.5985 169.864 11.8398 169.511 12.0072C169.157 12.1745 168.754 12.2583 168.298 12.2583C167.481 12.2583 166.84 12.0203 166.375 11.5448C165.911 11.0695 165.678 10.3319 165.678 9.3322V4.23782H167.943V9.34694C167.943 9.71064 168.036 9.98126 168.223 10.1585C168.409 10.3353 168.666 10.424 168.995 10.424C169.639 10.424 170.087 10.2007 170.338 9.75436V4.23766H172.61ZM180.143 4.80572C180.576 5.28104 180.792 6.05977 180.792 7.14175V12.1127H178.52V7.12718C178.52 6.67123 178.425 6.35706 178.234 6.18482C178.043 6.01257 177.744 5.92645 177.337 5.92645C176.8 5.92645 176.398 6.14474 176.132 6.58147V12.1127H173.875V4.23766H175.994L176.074 5.14756C176.345 4.80307 176.67 4.54107 177.05 4.36154C177.43 4.18201 177.853 4.09224 178.317 4.09224C179.101 4.09224 179.71 4.33007 180.143 4.80556V4.80572ZM188.96 0.933594V12.1127H186.92L186.811 11.2611C186.298 11.9259 185.642 12.2582 184.844 12.2582C184.205 12.2582 183.656 12.0872 183.196 11.7452C182.737 11.4032 182.387 10.9314 182.147 10.3297C181.908 9.72819 181.788 9.04154 181.788 8.2701V8.11724C181.788 7.31664 181.908 6.6131 182.147 6.00661C182.387 5.40012 182.736 4.92944 183.196 4.59456C183.656 4.26001 184.21 4.09241 184.858 4.09241C185.594 4.09241 186.203 4.37396 186.687 4.93672V0.933594H188.959H188.96ZM186.191 10.2313C186.401 10.1028 186.567 9.91716 186.688 9.67453V6.67604C186.451 6.1762 186.032 5.92629 185.432 5.92629C184.953 5.92629 184.603 6.12287 184.383 6.51588C184.163 6.90889 184.053 7.44268 184.053 8.11707V8.26994C184.053 8.92975 184.159 9.45377 184.372 9.84197C184.585 10.23 184.934 10.4241 185.418 10.4241C185.722 10.4241 185.98 10.3599 186.191 10.2312V10.2313ZM192.467 1.36668C192.699 1.58248 192.815 1.86271 192.815 2.20719C192.815 2.5467 192.699 2.82461 192.467 3.04057C192.235 3.25654 191.93 3.36452 191.553 3.36452C191.175 3.36452 190.872 3.25654 190.642 3.04057C190.412 2.82461 190.297 2.54704 190.297 2.20719C190.297 1.86271 190.412 1.58248 190.642 1.36668C190.872 1.15072 191.175 1.04274 191.553 1.04274C191.93 1.04274 192.235 1.15039 192.467 1.36652L192.467 1.36668ZM190.428 12.1127H192.7V4.23766H190.428V12.1127ZM200.384 4.80572C200.817 5.28104 201.034 6.05977 201.034 7.14175V12.1127H198.762V7.12718C198.762 6.67123 198.666 6.35706 198.475 6.18482C198.284 6.01257 197.985 5.92645 197.578 5.92645C197.042 5.92645 196.64 6.14474 196.374 6.58147V12.1127H194.117V4.23766H196.236L196.316 5.14756C196.587 4.80307 196.912 4.54107 197.292 4.36154C197.672 4.18201 198.094 4.09224 198.559 4.09224C199.343 4.09224 199.951 4.33007 200.384 4.80556L200.384 4.80572ZM209.354 4.23766V11.8146C209.354 12.528 209.193 13.1406 208.871 13.6523C208.549 14.1641 208.097 14.5525 207.513 14.8169C206.93 15.0813 206.252 15.2136 205.478 15.2136C204.941 15.2136 204.397 15.1093 203.848 14.9006C203.299 14.6919 202.867 14.3988 202.552 14.0202L203.532 12.63C203.76 12.8828 204.037 13.087 204.345 13.2305C204.66 13.3784 205.005 13.4524 205.383 13.4524C205.925 13.4524 206.345 13.3093 206.642 13.023C206.94 12.7368 207.089 12.3315 207.089 11.8074V11.4437C206.6 11.9869 205.983 12.2588 205.238 12.2588C204.594 12.2588 204.032 12.0876 203.55 11.7454C203.069 11.4034 202.699 10.9292 202.44 10.3228C202.181 9.7161 202.052 9.0321 202.052 8.27027V8.1174C202.052 7.32161 202.181 6.62055 202.44 6.01406C202.699 5.40757 203.07 4.9359 203.554 4.59837C204.038 4.26117 204.604 4.09257 205.252 4.09257C206.094 4.09257 206.75 4.38125 207.219 4.95875L207.306 4.23832H209.353L209.354 4.23766ZM207.089 9.79825V6.55215C206.828 6.1348 206.407 5.92612 205.826 5.92612C205.337 5.92612 204.964 6.129 204.705 6.53394C204.446 6.9392 204.317 7.46686 204.317 8.11724V8.26994C204.317 8.90557 204.444 9.42346 204.698 9.82375C204.952 10.2239 205.323 10.4241 205.812 10.4241C206.393 10.4241 206.818 10.2154 207.089 9.79808V9.79825ZM165.894 23.073C165.541 23.6334 165.046 24.0688 164.41 24.3793C163.774 24.6899 163.03 24.8452 162.178 24.8452C161.269 24.8452 160.482 24.6375 159.819 24.2228C159.156 23.808 158.648 23.2147 158.295 22.4433C157.942 21.6718 157.765 20.7596 157.765 19.7068V19.0953C157.765 18.0519 157.947 17.1424 158.31 16.366C158.673 15.5897 159.187 14.993 159.852 14.5756C160.517 14.1583 161.293 13.9496 162.178 13.9496C163.054 13.9496 163.804 14.1111 164.428 14.4337C165.053 14.7563 165.538 15.2028 165.884 15.7729C166.23 16.3431 166.437 16.9994 166.504 17.7417H164.153C164.114 17.1111 163.945 16.644 163.644 16.3406C163.344 16.0375 162.856 15.8858 162.178 15.8858C161.486 15.8858 160.976 16.1406 160.647 16.65C160.318 17.1596 160.153 17.97 160.153 19.0809V19.707C160.153 20.4638 160.22 21.075 160.353 21.541C160.486 22.0067 160.7 22.3512 160.995 22.5744C161.29 22.7977 161.685 22.909 162.178 22.909C162.812 22.909 163.288 22.7638 163.605 22.4726C163.922 22.1814 164.099 21.7326 164.138 21.1261H166.49C166.446 21.8636 166.248 22.5123 165.894 23.073ZM169.678 13.9536C169.91 14.1694 170.026 14.4496 170.026 14.7941C170.026 15.1336 169.91 15.4115 169.678 15.6275C169.446 15.8434 169.141 15.9514 168.763 15.9514C168.386 15.9514 168.082 15.8434 167.852 15.6275C167.623 15.4115 167.508 15.1339 167.508 14.7941C167.508 14.4496 167.623 14.1694 167.852 13.9536C168.082 13.7376 168.386 13.6296 168.763 13.6296C169.141 13.6296 169.446 13.7373 169.678 13.9534V13.9536ZM167.638 24.6996H169.91V16.8246H167.638V24.6996H167.638ZM175.972 16.7666L175.944 18.9643C175.571 18.9257 175.31 18.9064 175.16 18.9064C174.763 18.9064 174.44 18.9693 174.191 19.0955C173.941 19.2217 173.759 19.4108 173.643 19.6632V24.6996H171.378V16.8246H173.505L173.577 17.7928C173.776 17.4337 174.021 17.1584 174.314 16.9667C174.607 16.775 174.939 16.6791 175.312 16.6791C175.583 16.6791 175.803 16.7083 175.972 16.7666H175.972ZM183.334 21.9194C183.334 22.4872 183.189 22.993 182.899 23.4368C182.608 23.8807 182.214 24.2268 181.716 24.4741C181.217 24.7215 180.661 24.8451 180.046 24.8451C179.257 24.8451 178.588 24.6728 178.039 24.3283C177.49 23.9839 177.079 23.5122 176.805 22.9128C176.532 22.3138 176.395 21.6284 176.395 20.857V20.6748C176.395 19.9035 176.532 19.2171 176.805 18.6154C177.079 18.0137 177.489 17.5405 178.036 17.196C178.582 16.8516 179.25 16.6793 180.039 16.6793C180.687 16.6793 181.259 16.8043 181.755 17.0541C182.251 17.3042 182.639 17.6656 182.917 18.1386C183.195 18.6117 183.334 19.1709 183.334 19.8163H181.207C181.202 19.4329 181.095 19.12 180.884 18.8772C180.674 18.6348 180.375 18.5134 179.988 18.5134C179.475 18.5134 179.126 18.7063 178.939 19.092C178.753 19.4779 178.66 20.0054 178.66 20.675V20.8572C178.66 21.5412 178.753 22.0711 178.939 22.4471C179.126 22.823 179.48 23.0113 180.003 23.0113C180.366 23.0113 180.656 22.913 180.874 22.7165C181.091 22.52 181.203 22.2545 181.207 21.9196H183.334L183.334 21.9194ZM184.41 24.6996H186.682V13.5205H184.41V24.6996H184.41ZM195.111 21.5046H190.182C190.27 21.9704 190.47 22.3379 190.785 22.6072C191.099 22.8765 191.501 23.0113 191.99 23.0113C192.367 23.0113 192.715 22.9434 193.035 22.8073C193.354 22.6715 193.628 22.4605 193.855 22.1742L194.922 23.4477C194.646 23.8409 194.242 24.1722 193.71 24.4415C193.178 24.7107 192.556 24.8456 191.845 24.8456C191.036 24.8456 190.332 24.6743 189.732 24.3321C189.132 23.9901 188.673 23.5281 188.353 22.9459C188.034 22.3636 187.874 21.723 187.874 21.0244V20.7479C187.874 19.9666 188.022 19.2689 188.317 18.6553C188.612 18.0415 189.039 17.5589 189.598 17.207C190.157 16.8552 190.824 16.6793 191.598 16.6793C192.338 16.6793 192.972 16.8358 193.5 17.1488C194.027 17.4618 194.427 17.9082 194.701 18.488C194.974 19.0677 195.111 19.7507 195.111 20.5367V21.5047L195.111 21.5046ZM192.89 19.8161C192.89 19.4087 192.78 19.0894 192.559 18.8588C192.339 18.6286 192.014 18.5132 191.583 18.5132C190.814 18.5132 190.349 19.0084 190.19 19.9979H192.89V19.8163V19.8161Z" fill="#2A2A2A"/>
<path d="M251.916 0.00231934H252.679C255.327 0.0598927 257.932 1.125 259.803 3.01053C259.112 3.7158 258.407 4.39229 257.731 5.09756C256.68 4.1476 255.413 3.41354 254.032 3.15446C251.988 2.72266 249.786 3.11128 248.073 4.27714C246.202 5.50058 244.935 7.57322 244.661 9.78979C244.359 11.9776 244.978 14.2805 246.403 15.9789C247.77 17.6342 249.857 18.6705 252.016 18.7424C254.032 18.8576 256.133 18.2387 257.601 16.8281C258.753 15.835 259.285 14.3237 259.458 12.8556C257.069 12.8556 254.679 12.87 252.29 12.8556V9.89054H262.351C262.869 13.0715 262.121 16.6554 259.703 18.9296C258.09 20.5416 255.859 21.4916 253.585 21.6787C251.383 21.8946 249.109 21.4772 247.152 20.4121C244.805 19.1599 242.934 17.044 242.013 14.554C241.149 12.2654 241.135 9.67465 241.941 7.37171C242.675 5.27028 244.086 3.41354 245.899 2.11814C247.641 0.837133 249.757 0.131859 251.916 0.00231934Z" fill="#3780FF"/>
<path d="M309.633 0.750366H312.713V21.3041C311.691 21.3041 310.655 21.3185 309.633 21.2897C309.647 14.4528 309.633 7.6016 309.633 0.750366Z" fill="#38B137"/>
<path d="M269.204 7.87621C271.104 7.51638 273.162 7.91939 274.731 9.05647C276.156 10.064 277.149 11.6473 277.452 13.3745C277.84 15.3751 277.351 17.5629 276.055 19.1462C274.659 20.9166 272.371 21.8665 270.14 21.7226C268.096 21.6074 266.11 20.5855 264.901 18.9159C263.533 17.0735 263.202 14.5403 263.951 12.3813C264.699 10.064 266.815 8.29362 269.204 7.87621ZM269.636 10.6109C268.859 10.8124 268.139 11.2586 267.621 11.8919C266.225 13.5616 266.311 16.2819 267.851 17.8364C268.729 18.7288 270.053 19.1462 271.277 18.9015C272.414 18.7 273.407 17.9371 273.954 16.9296C274.904 15.2168 274.631 12.8563 273.177 11.5177C272.241 10.6541 270.874 10.2943 269.636 10.6109Z" fill="#FA3913"/>
<path d="M284.458 7.87471C286.632 7.4573 289.007 8.06182 290.633 9.58752C293.281 11.9624 293.569 16.41 291.31 19.1447C289.942 20.8719 287.726 21.8218 285.538 21.7211C283.451 21.6635 281.393 20.6272 280.155 18.9144C278.759 17.0289 278.456 14.4381 279.248 12.2359C280.04 9.99053 282.112 8.27772 284.458 7.87471ZM284.89 10.6094C284.113 10.8109 283.393 11.2571 282.875 11.8761C281.493 13.5169 281.551 16.1941 283.033 17.7629C283.911 18.6985 285.279 19.1591 286.545 18.9C287.668 18.6841 288.676 17.9356 289.222 16.9281C290.158 15.2009 289.885 12.8404 288.416 11.5018C287.481 10.6382 286.114 10.2928 284.89 10.6094Z" fill="#FCBD06"/>
<path d="M297.401 8.7101C299.056 7.67377 301.259 7.38591 303.043 8.2783C303.605 8.52298 304.065 8.94039 304.511 9.3578C304.526 8.96918 304.511 8.56616 304.526 8.16315C305.49 8.17754 306.455 8.16315 307.433 8.17754V20.8725C307.419 22.7868 306.929 24.8163 305.548 26.2125C304.036 27.7525 301.719 28.2275 299.632 27.9109C297.401 27.5798 295.458 25.9534 294.595 23.8951C295.458 23.4777 296.365 23.1467 297.257 22.758C297.761 23.9383 298.783 24.9458 300.064 25.1761C301.345 25.4064 302.827 25.0898 303.662 24.0247C304.555 22.9308 304.555 21.4339 304.511 20.0953C303.849 20.743 303.087 21.3187 302.165 21.5346C300.165 22.0959 297.963 21.4051 296.422 20.0521C294.868 18.6991 293.947 16.6121 294.033 14.5394C294.076 12.1933 295.401 9.93354 297.401 8.7101ZM300.381 10.5525C299.503 10.6964 298.682 11.1858 298.121 11.8622C296.768 13.4743 296.768 16.0507 298.135 17.634C298.912 18.5696 300.165 19.0877 301.374 18.9582C302.511 18.843 303.561 18.1234 304.123 17.1302C305.073 15.4462 304.914 13.1577 303.633 11.6895C302.842 10.7827 301.575 10.3366 300.381 10.5525Z" fill="#3780FF"/>
<path d="M316.411 9.4441C318.139 7.83205 320.801 7.28511 323.018 8.13431C325.12 8.92594 326.458 10.9266 327.135 12.9849C324.011 14.2803 320.902 15.5613 317.779 16.8567C318.211 17.6771 318.873 18.4255 319.765 18.7278C321.017 19.174 322.514 19.0157 323.565 18.1808C323.982 17.8642 324.313 17.4468 324.63 17.0438C325.422 17.5763 326.213 18.0945 327.005 18.627C325.882 20.3111 323.997 21.4913 321.967 21.6784C319.722 21.9519 317.333 21.0883 315.879 19.3323C313.49 16.5688 313.72 11.9341 316.411 9.4441ZM317.952 12.1069C317.462 12.8121 317.261 13.6757 317.275 14.5249C319.362 13.6613 321.449 12.7977 323.536 11.9198C323.191 11.1137 322.356 10.6244 321.507 10.4948C320.139 10.2501 318.714 10.9842 317.952 12.1069Z" fill="#FA3913"/>
<path fill-rule="evenodd" clip-rule="evenodd" d="M10.0958 63.4436V65.2178C10.0958 65.3334 10.0186 65.4104 9.903 65.4104H2.29256V69.036H8.57381C8.68944 69.036 8.76626 69.1133 8.76626 69.2289V71.0031C8.76626 71.1188 8.68944 71.1959 8.57381 71.1959H2.29256V76.5567C2.29256 76.6725 2.2159 76.7495 2.10011 76.7495H0.192452C0.0769808 76.7493 0 76.6724 0 76.5566V63.4438C0 63.3281 0.0769808 63.2508 0.192452 63.2508H9.903C10.0186 63.2508 10.0958 63.3281 10.0958 63.4438V63.4436ZM21.588 71.0413C20.885 69.0937 20.1049 67.146 19.3048 65.3718H18.8523C18.0526 67.146 17.2628 69.0937 16.5596 71.0413H21.588ZM25.6246 76.7493H23.5245C23.4088 76.7493 23.332 76.6913 23.3031 76.5757C23.0089 75.4139 22.6747 74.2626 22.301 73.1239H15.8563C15.4711 74.3004 15.1336 75.4667 14.8638 76.5757C14.8352 76.6913 14.758 76.7493 14.6426 76.7493H12.6194C12.4846 76.7493 12.4074 76.6722 12.4461 76.5373C13.6598 72.2369 15.5094 67.4932 17.3782 63.5015C17.4651 63.3181 17.571 63.2508 17.7541 63.2508H20.4898C20.6728 63.2508 20.7789 63.3181 20.8656 63.5015C22.7539 67.4835 24.5747 72.2369 25.7979 76.5373C25.8366 76.6722 25.7594 76.7493 25.6246 76.7493ZM29.073 70.1158C29.073 65.9312 31.828 63 35.7585 63H36.0473C38.5138 63 40.4213 64.2535 41.4325 66.0662C41.4999 66.1818 41.4805 66.2784 41.3651 66.3361L39.6696 67.1749C39.5541 67.2328 39.4094 67.2328 39.3324 67.0883C38.6198 65.854 37.5502 65.1984 35.9704 65.1984H35.6814C33.2056 65.1984 31.5006 67.1654 31.5006 70.0194C31.5006 72.8828 33.1768 74.8018 35.6814 74.8018H35.9704C37.5889 74.8018 38.533 74.2521 39.2554 73.4132C39.3518 73.3071 39.4577 73.2881 39.5734 73.3458L41.3169 74.1943C41.3843 74.2327 41.4131 74.2809 41.4131 74.3291C41.4131 74.3776 41.394 74.4161 41.3555 74.4738C40.2864 76.0357 38.3595 77 36.009 77H35.72C31.722 77 29.073 74.2521 29.073 70.1158ZM56.7782 74.7825V76.5566C56.7782 76.6724 56.7011 76.7493 56.5855 76.7493H46.4704C46.3548 76.7493 46.2777 76.6724 46.2777 76.5566V63.4438C46.2777 63.3281 46.3548 63.2508 46.4704 63.2508H56.4119C56.5279 63.2508 56.6049 63.3281 56.6049 63.4438V65.218C56.6049 65.3336 56.5279 65.4106 56.4119 65.4106H48.5704V68.9202H54.9477C55.0633 68.9202 55.1405 68.9973 55.1405 69.1131V70.8679C55.1405 70.9836 55.0633 71.0609 54.9477 71.0609H48.5704V74.5897H56.5855C56.7011 74.5897 56.7782 74.6667 56.7782 74.7827V74.7825ZM71.8444 72.8443C71.8444 71.591 71.0159 71.0219 69.1952 71.0219H64.6579V74.6473H69.1952C71.045 74.6473 71.8444 74.1073 71.8444 72.8443ZM68.5498 65.3524H64.6578V68.9778H68.5498C70.2934 68.9778 71.093 68.409 71.093 67.1652C71.093 65.9213 70.2934 65.3524 68.5498 65.3524ZM74.195 73.0466C74.195 75.4089 72.3839 76.7493 69.1857 76.7493H62.5578C62.4422 76.7493 62.3651 76.672 62.3651 76.5566V63.4438C62.3651 63.3276 62.4422 63.2507 62.5578 63.2507H68.598C71.7095 63.2507 73.405 64.4849 73.405 66.7412C73.405 68.2259 72.6536 69.1998 71.1316 69.6529C73.2701 70.1061 74.195 71.3885 74.195 73.0468V73.0466ZM85.4559 74.8018C88.2207 74.8018 89.9642 72.9022 89.9642 70C89.9642 67.098 88.2207 65.1982 85.4559 65.1982H85.1668C82.402 65.1982 80.6585 67.098 80.6585 70C80.6585 72.9022 82.402 74.8018 85.1668 74.8018H85.4559ZM78.231 70C78.231 65.9312 80.9282 63.0002 85.1668 63.0002H85.4559C89.6947 63.0002 92.392 65.9312 92.392 70C92.392 74.0688 89.6945 77 85.4558 77H85.1668C80.9281 77 78.231 74.0688 78.231 70.0002V70ZM103.528 74.8018C106.293 74.8018 108.036 72.9022 108.036 70C108.036 67.098 106.293 65.1982 103.528 65.1982H103.239C100.474 65.1982 98.7305 67.098 98.7305 70C98.7305 72.9022 100.474 74.8018 103.239 74.8018H103.528ZM96.3028 70C96.3028 65.9312 99.0003 63.0002 103.239 63.0002H103.528C107.767 63.0002 110.464 65.9312 110.464 70C110.464 74.0688 107.767 77 103.528 77H103.239C99.0003 77 96.3028 74.0688 96.3028 70.0002V70ZM127.081 76.7493H124.596C124.432 76.7493 124.364 76.7107 124.258 76.5855C122.515 74.5318 120.453 72.4877 118.7 70.9834H117.583V76.5566C117.583 76.6724 117.506 76.7493 117.39 76.7493H115.482C115.367 76.7493 115.29 76.6724 115.29 76.5566V63.4438C115.29 63.3281 115.367 63.2508 115.482 63.2508H117.39C117.506 63.2508 117.583 63.3281 117.583 63.4438V68.7661H118.719C120.598 67.069 122.332 65.2371 123.748 63.3956C123.844 63.2701 123.921 63.2508 124.037 63.2508H126.387C126.503 63.2508 126.561 63.3087 126.561 63.386C126.561 63.4245 126.542 63.4727 126.493 63.5306C124.422 66.0856 122.37 68.1781 120.472 69.7978C122.89 71.8479 125.136 74.0922 127.187 76.5084C127.293 76.6339 127.235 76.7495 127.081 76.7495" fill="#687B81"/>
<path d="M169.133 77.8744L169.139 77.8857C169.136 77.8785 169.132 77.8716 169.128 77.8651L169.133 77.8744Z" fill="#193864"/>
<path d="M161.234 82.9994C161.762 82.9994 162.268 82.7896 162.642 82.4161C163.015 82.0426 163.225 81.536 163.225 81.0079V66.8934L169.124 77.8547C168.973 77.5663 168.895 77.2453 168.896 76.9197C168.898 76.5942 168.98 76.274 169.134 75.9874L169.532 75.2499L161.632 60.5716V81.0109C161.632 81.1166 161.59 81.218 161.516 81.2927C161.441 81.3675 161.339 81.4095 161.234 81.4095C161.128 81.4095 161.027 81.3675 160.952 81.2927C160.877 81.218 160.835 81.1166 160.835 81.0109V58.9909C160.835 58.9024 160.865 58.8165 160.92 58.7467C160.974 58.677 161.05 58.6273 161.136 58.6057C161.222 58.584 161.313 58.5915 161.394 58.6271C161.475 58.6626 161.542 58.7241 161.584 58.802L169.984 74.4139L170.888 72.7325L162.987 58.047C162.777 57.6567 162.442 57.3477 162.036 57.169C161.631 56.9904 161.177 56.9522 160.747 57.0605C160.317 57.1689 159.936 57.4176 159.663 57.7673C159.39 58.117 159.242 58.5476 159.242 58.9909V81.0079C159.242 81.536 159.452 82.0426 159.825 82.4161C160.199 82.7896 160.706 82.9994 161.234 82.9994Z" fill="#00CDBE"/>
<path d="M193.06 65.6558H191.486C191.29 65.6558 191.167 65.816 191.13 65.9998L189.963 71.3089L188.795 65.9998C188.758 65.816 188.636 65.6558 188.439 65.6558H186.866C186.774 65.6552 186.684 65.6909 186.618 65.7552C186.551 65.8195 186.512 65.9073 186.51 65.9998V74.0246C186.512 74.1172 186.551 74.2052 186.618 74.2695C186.684 74.3339 186.773 74.3695 186.866 74.3687H187.53C187.622 74.3692 187.711 74.3335 187.778 74.2692C187.845 74.2049 187.883 74.1171 187.886 74.0246V67.4378L189.385 74.0246C189.422 74.2095 189.545 74.3687 189.741 74.3687H190.184C190.38 74.3687 190.503 74.2095 190.54 74.0246L192.04 67.4378V74.0246C192.042 74.1172 192.081 74.2052 192.147 74.2695C192.214 74.3339 192.303 74.3695 192.396 74.3687H193.06C193.152 74.3692 193.241 74.3335 193.308 74.2692C193.374 74.2049 193.413 74.1171 193.416 74.0246V65.9998C193.413 65.9074 193.374 65.8197 193.308 65.7555C193.241 65.6912 193.152 65.6555 193.06 65.6558Z" fill="#00CDBE"/>
<path d="M198.243 65.8766C198.229 65.813 198.194 65.756 198.143 65.7156C198.092 65.6751 198.029 65.6536 197.964 65.6548H196.32C196.255 65.6529 196.19 65.674 196.139 65.7146C196.087 65.7551 196.051 65.8124 196.038 65.8766L194.182 73.9003C194.165 73.9678 194.152 74.0365 194.145 74.1058C194.145 74.1405 194.153 74.1748 194.167 74.2067C194.181 74.2385 194.201 74.2673 194.226 74.2913C194.251 74.3152 194.281 74.334 194.313 74.3464C194.346 74.3588 194.38 74.3647 194.415 74.3636H195.325C195.472 74.3636 195.558 74.2413 195.595 74.0934L195.964 72.5446H198.326L198.683 74.0975C198.72 74.2454 198.806 74.3677 198.953 74.3677H199.863C199.897 74.3688 199.932 74.3629 199.964 74.3505C199.997 74.3381 200.027 74.3194 200.052 74.2954C200.077 74.2714 200.097 74.2426 200.111 74.2108C200.125 74.1789 200.132 74.1446 200.133 74.1099C200.125 74.0406 200.113 73.972 200.096 73.9044L198.243 65.8766ZM196.24 71.2761L197.142 67.1913L198.034 71.2761H196.24Z" fill="#00CDBE"/>
<path d="M204.656 69.9811C205.455 69.8949 205.713 69.2683 205.713 68.4816V67.249C205.713 66.4007 205.097 65.6509 204.153 65.6509H201.154C201.061 65.6506 200.972 65.6863 200.906 65.7506C200.839 65.8148 200.8 65.9025 200.797 65.995V74.0197C200.8 74.1122 200.839 74.2001 200.905 74.2644C200.972 74.3287 201.061 74.3643 201.154 74.3638H201.953C202.045 74.3643 202.134 74.3287 202.201 74.2644C202.268 74.2001 202.306 74.1122 202.309 74.0197V70.6303H203.509C204.001 70.6303 204.357 70.9497 204.357 71.4417V74.0217C204.36 74.1143 204.399 74.2021 204.465 74.2664C204.532 74.3307 204.621 74.3664 204.714 74.3658H205.513C205.605 74.3664 205.694 74.3307 205.761 74.2664C205.828 74.2021 205.866 74.1143 205.869 74.0217V71.6871C205.871 70.8655 205.639 70.0797 204.656 69.9811ZM204.324 68.5678C204.324 69.0588 204.005 69.3793 203.513 69.3793H202.309V66.9142H203.509C204.001 66.9142 204.32 67.2336 204.32 67.7123L204.324 68.5678Z" fill="#00CDBE"/>
<path d="M209.795 69.6009L211.651 66.1231C211.693 66.0431 211.718 65.9553 211.724 65.8653C211.724 65.6804 211.54 65.6599 211.355 65.6599H210.52C210.323 65.6599 210.238 65.8201 210.139 66.004L208.333 69.2609V65.9998C208.33 65.9073 208.291 65.8195 208.224 65.7552C208.158 65.6909 208.069 65.6552 207.976 65.6558H207.177C207.085 65.6555 206.996 65.6912 206.929 65.7555C206.862 65.8197 206.824 65.9074 206.821 65.9998V74.0246C206.823 74.1171 206.862 74.2049 206.929 74.2692C206.995 74.3335 207.084 74.3692 207.177 74.3687H207.976C208.069 74.3695 208.158 74.3339 208.225 74.2695C208.291 74.2052 208.33 74.1172 208.333 74.0246V70.1288L210.323 74.0123C210.409 74.1848 210.557 74.3687 210.741 74.3687H211.651C211.872 74.3687 212.007 74.2577 212.007 74.0862C212.012 74.0187 212 73.9511 211.97 73.89L209.795 69.6009Z" fill="#00CDBE"/>
<path d="M216.809 73.0663H214.118V70.4246H216.378C216.47 70.4219 216.558 70.3831 216.622 70.3165C216.687 70.2499 216.722 70.1608 216.722 70.0682V69.4899C216.722 69.3973 216.687 69.3082 216.622 69.2416C216.558 69.175 216.47 69.1362 216.378 69.1335H214.118V66.9633H216.747C216.84 66.9606 216.928 66.9218 216.992 66.8552C217.056 66.7886 217.092 66.6994 217.091 66.6069V66.0122C217.092 65.9196 217.056 65.8305 216.992 65.7638C216.928 65.6972 216.84 65.6584 216.747 65.6558H212.958C212.866 65.6554 212.777 65.6912 212.71 65.7555C212.644 65.8197 212.605 65.9074 212.602 65.9998V74.0246C212.605 74.1171 212.643 74.2049 212.71 74.2692C212.777 74.3335 212.866 74.3692 212.958 74.3687H216.805C216.897 74.3662 216.985 74.3275 217.05 74.2609C217.114 74.1942 217.15 74.1049 217.149 74.0122V73.4227C217.15 73.3307 217.115 73.242 217.051 73.1755C216.988 73.1089 216.901 73.0698 216.809 73.0663Z" fill="#00CDBE"/>
<path d="M222.536 65.6558H218.222C218.129 65.6584 218.041 65.6972 217.977 65.7638C217.913 65.8305 217.877 65.9196 217.878 66.0122V66.5904C217.877 66.683 217.913 66.7721 217.977 66.8387C218.041 66.9053 218.129 66.9441 218.222 66.9468H219.623V74.0246C219.625 74.1172 219.664 74.2052 219.731 74.2695C219.797 74.3339 219.886 74.3695 219.979 74.3686H220.777C220.87 74.3695 220.959 74.3339 221.026 74.2695C221.092 74.2052 221.131 74.1172 221.134 74.0246V66.9468H222.535C222.627 66.9441 222.715 66.9053 222.779 66.8387C222.844 66.7721 222.879 66.683 222.879 66.5904V66.0122C222.879 65.9198 222.844 65.8308 222.78 65.7642C222.716 65.6976 222.628 65.6587 222.536 65.6558Z" fill="#00CDBE"/>
<path d="M182.534 81.0079V58.9909C182.534 58.5476 182.385 58.117 182.113 57.7673C181.84 57.4176 181.459 57.1689 181.029 57.0605C180.599 56.9522 180.145 56.9904 179.739 57.169C179.334 57.3477 178.999 57.6567 178.789 58.047L169.134 75.9874C169.007 76.218 168.926 76.4716 168.897 76.7335C168.868 76.9954 168.892 77.2605 168.966 77.5133C169.04 77.7661 169.164 78.0016 169.33 78.2062C169.496 78.4109 169.701 78.5805 169.933 78.7054C170.165 78.8302 170.42 78.9077 170.682 78.9335C170.944 78.9592 171.209 78.9327 171.461 78.8554C171.713 78.7781 171.947 78.6515 172.15 78.4831C172.352 78.3147 172.52 78.1077 172.642 77.8742L178.552 66.8934V81.0079C178.552 81.536 178.761 82.0426 179.135 82.4161C179.508 82.7896 180.015 82.9994 180.543 82.9994C181.071 82.9994 181.578 82.7896 181.951 82.4161C182.325 82.0426 182.535 81.536 182.535 81.0079H182.534ZM180.145 81.0079V60.5686L171.239 77.1193C171.215 77.1676 171.182 77.2106 171.142 77.2458C171.101 77.2811 171.054 77.3077 171.003 77.3243C170.952 77.3408 170.898 77.3468 170.844 77.342C170.791 77.3371 170.739 77.3215 170.692 77.2961C170.644 77.2707 170.603 77.236 170.569 77.1941C170.536 77.1521 170.511 77.1039 170.496 77.0521C170.482 77.0004 170.478 76.9463 170.485 76.8931C170.492 76.8398 170.51 76.7885 170.537 76.7423L180.195 58.802C180.237 58.7241 180.304 58.6626 180.385 58.6271C180.466 58.5915 180.557 58.584 180.643 58.6057C180.729 58.6273 180.805 58.677 180.859 58.7467C180.914 58.8165 180.943 58.9024 180.944 58.9909V81.0079C180.946 81.0618 180.938 81.1158 180.919 81.1665C180.901 81.2171 180.872 81.2635 180.835 81.3026C180.797 81.3418 180.753 81.373 180.703 81.3943C180.653 81.4156 180.6 81.4266 180.546 81.4266C180.492 81.4266 180.438 81.4156 180.389 81.3943C180.339 81.373 180.294 81.3418 180.257 81.3026C180.22 81.2635 180.191 81.2171 180.172 81.1665C180.153 81.1158 180.145 81.0618 180.148 81.0079H180.145Z" fill="#061163"/>
<path d="M225.422 74.0087C225.422 74.1019 225.387 74.1915 225.322 74.2585C225.257 74.3255 225.169 74.3645 225.076 74.3672H224.254C224.161 74.3678 224.071 74.3319 224.004 74.2672C223.937 74.2025 223.898 74.1141 223.896 74.0211V65.9419C223.898 65.8482 223.937 65.7592 224.005 65.6944C224.073 65.6295 224.163 65.5941 224.257 65.5958H228.068C228.161 65.5984 228.249 65.6375 228.314 65.7044C228.379 65.7714 228.414 65.8611 228.414 65.9542V66.552C228.414 66.6452 228.379 66.735 228.314 66.8021C228.249 66.8693 228.161 66.9085 228.068 66.9115H225.422V69.1012H227.698C227.791 69.1037 227.88 69.1426 227.945 69.2096C228.01 69.2766 228.046 69.3664 228.045 69.4597V70.041C228.046 70.1343 228.01 70.2241 227.945 70.2912C227.88 70.3582 227.791 70.3971 227.698 70.3995H225.422V74.0087Z" fill="#061163"/>
<path d="M229.145 65.9423C229.148 65.8492 229.187 65.7607 229.254 65.6959C229.321 65.6312 229.41 65.5954 229.504 65.5962H230.308C230.401 65.5954 230.491 65.6312 230.558 65.6959C230.625 65.7607 230.664 65.8492 230.666 65.9423V74.0215C230.664 74.1146 230.625 74.2029 230.558 74.2676C230.491 74.3323 230.401 74.3682 230.308 74.3676H229.504C229.411 74.3682 229.321 74.3323 229.254 74.2676C229.187 74.2029 229.148 74.1146 229.145 74.0215V65.9423Z" fill="#061163"/>
<path d="M235.915 65.9547C235.917 65.8611 235.957 65.7723 236.024 65.7075C236.092 65.6427 236.182 65.6071 236.275 65.6085H237.08C237.173 65.6077 237.263 65.6435 237.33 65.7082C237.397 65.773 237.436 65.8615 237.438 65.9547V74.0215C237.435 74.1146 237.396 74.2029 237.329 74.2676C237.262 74.3323 237.173 74.3682 237.08 74.3676H236.065C235.817 74.3676 235.743 74.1941 235.669 74.0215L233.257 68.5409V74.0215C233.254 74.1145 233.215 74.2027 233.148 74.2673C233.081 74.332 232.991 74.3679 232.898 74.3676H232.094C232.001 74.3682 231.911 74.3324 231.844 74.2677C231.777 74.203 231.738 74.1147 231.735 74.0215V65.9423C231.737 65.8491 231.777 65.7606 231.844 65.6959C231.911 65.6311 232.001 65.5954 232.094 65.5962H233.108C233.355 65.5962 233.43 65.7688 233.504 65.9423L235.917 71.4229L235.915 65.9547Z" fill="#061163"/>
<path d="M241.89 65.595C241.956 65.593 242.021 65.6143 242.073 65.655C242.125 65.6957 242.161 65.7533 242.175 65.8179L244.043 73.896C244.06 73.9652 244.073 74.0356 244.08 74.1066C244.079 74.1415 244.072 74.176 244.058 74.2081C244.043 74.2401 244.023 74.269 243.998 74.2932C243.973 74.3174 243.943 74.3363 243.91 74.3488C243.877 74.3614 243.843 74.3674 243.808 74.3664H242.893C242.744 74.3664 242.657 74.2421 242.62 74.0942L242.249 72.5351H239.87L239.499 74.0942C239.462 74.2421 239.376 74.3664 239.227 74.3664H238.312C238.277 74.3675 238.242 74.3616 238.209 74.3491C238.176 74.3366 238.146 74.3177 238.121 74.2935C238.096 74.2693 238.076 74.2403 238.062 74.2082C238.048 74.1761 238.04 74.1416 238.039 74.1066C238.047 74.0356 238.059 73.9652 238.076 73.896L239.945 65.8179C239.958 65.7532 239.994 65.6955 240.047 65.6547C240.099 65.614 240.163 65.5928 240.229 65.595H241.89ZM241.061 67.1356L240.158 71.244H241.964L241.061 67.1356Z" fill="#061163"/>
<path d="M248.867 65.9547C248.87 65.8615 248.909 65.773 248.976 65.7082C249.043 65.6435 249.133 65.6077 249.226 65.6085H250.03C250.123 65.6077 250.213 65.6435 250.28 65.7082C250.347 65.773 250.386 65.8615 250.389 65.9547V74.0215C250.386 74.1146 250.347 74.2029 250.28 74.2676C250.213 74.3323 250.123 74.3682 250.03 74.3676H249.015C248.768 74.3676 248.694 74.1941 248.62 74.0215L246.207 68.5409V74.0215C246.204 74.1145 246.165 74.2027 246.098 74.2673C246.031 74.332 245.942 74.3679 245.849 74.3676H245.045C244.951 74.3682 244.862 74.3324 244.794 74.2677C244.727 74.203 244.688 74.1147 244.685 74.0215V65.9423C244.688 65.8491 244.727 65.7606 244.794 65.6959C244.861 65.6311 244.951 65.5954 245.045 65.5962H246.058C246.306 65.5962 246.381 65.7688 246.455 65.9423L248.867 71.4229V65.9547Z" fill="#061163"/>
<path d="M254.931 67.7371C254.931 67.0931 254.52 66.6361 253.891 66.6361C253.263 66.6361 252.853 67.1055 252.853 67.7371V72.2019C252.853 72.8449 253.264 73.303 253.891 73.303C254.519 73.303 254.931 72.8326 254.931 72.2019V71.9965C254.933 71.9033 254.973 71.815 255.04 71.7503C255.107 71.6856 255.197 71.6498 255.29 71.6504H256.081C256.174 71.6498 256.264 71.6856 256.331 71.7503C256.398 71.815 256.437 71.9033 256.44 71.9965V72.2019C256.44 73.7487 255.311 74.6146 253.891 74.6146C252.472 74.6146 251.343 73.7498 251.343 72.2019V67.7371C251.343 66.1903 252.473 65.3245 253.891 65.3245C255.31 65.3245 256.44 66.1903 256.44 67.7371V67.9425C256.438 68.0359 256.399 68.1245 256.331 68.1894C256.264 68.2543 256.174 68.2903 256.081 68.2897H255.29C255.197 68.2903 255.107 68.2543 255.04 68.1894C254.972 68.1245 254.933 68.0359 254.931 67.9425V67.7371Z" fill="#061163"/>
<path d="M257.664 74.3676C257.57 74.3682 257.481 74.3324 257.413 74.2677C257.346 74.203 257.307 74.1147 257.304 74.0215V65.9423C257.307 65.8491 257.346 65.7606 257.413 65.6959C257.48 65.6311 257.57 65.5954 257.664 65.5962H261.473C261.566 65.5986 261.655 65.6375 261.72 65.7045C261.785 65.7716 261.821 65.8614 261.82 65.9547V66.5524C261.821 66.6458 261.785 66.7357 261.72 66.8029C261.655 66.8701 261.566 66.9092 261.473 66.9119H258.826V69.1017H261.102C261.195 69.1041 261.284 69.143 261.349 69.2101C261.413 69.2772 261.449 69.367 261.448 69.4602V70.0415C261.449 70.1347 261.413 70.2245 261.349 70.2916C261.284 70.3586 261.195 70.3975 261.102 70.4H258.826V73.0601H261.54C261.633 73.0631 261.721 73.1022 261.786 73.1691C261.85 73.2361 261.886 73.3256 261.886 73.4186V74.0133C261.886 74.1063 261.85 74.1958 261.786 74.2628C261.721 74.3297 261.633 74.3688 261.54 74.3718L257.664 74.3676Z" fill="#061163"/>
</svg>
