<svg  viewBox="0 0 470 240" fill="none" xmlns="http://www.w3.org/2000/svg">
<path d="M96 151C139.509 131.556 151.256 102.919 185.193 102.919C227.614 102.919 237.318 135.037 282.493 135.037C327.669 135.037 343.93 46 413 46" stroke="#1A65BA" stroke-width="2"/>
<mask id="mask0_65_86" style="mask-type:alpha" maskUnits="userSpaceOnUse" x="96" y="46" width="317" height="148">
<path opacity="0.3" d="M185.193 102.919C151.256 102.919 139.509 131.556 96 151V194H413V46C343.93 46 327.669 135.037 282.493 135.037C237.318 135.037 227.614 102.919 185.193 102.919Z" fill="#1A65BA"/>
</mask>
<g mask="url(#mask0_65_86)">
<g filter="url(#filter0_f_65_86)">
<path d="M284.5 139C320.5 141.339 330 84 368 62L319.5 17.5001L86.5934 10L135 125C151.5 132.5 158.5 105.051 188.5 107C218.5 108.949 242.168 136.25 284.5 139Z" fill="#1A65BA"/>
</g>
</g>
<path d="M96 204C139.593 184.556 151.363 155.919 185.366 155.919C227.869 155.919 237.591 188.037 282.854 188.037C343 188.037 356 99 414 99" stroke="#00A3D7" stroke-width="2"/>
<rect x="91" y="144" width="11" height="11" rx="5.5" fill="#1A65BA"/>
<rect x="91" y="197" width="11" height="11" rx="5.5" fill="#00A3D7"/>
<path d="M40.1477 138V126.364H44.5113C45.4053 126.364 46.1553 126.519 46.7613 126.83C47.3712 127.14 47.8314 127.576 48.142 128.136C48.4564 128.693 48.6136 129.343 48.6136 130.085C48.6136 130.831 48.4545 131.479 48.1363 132.028C47.8219 132.574 47.3579 132.996 46.7443 133.295C46.1307 133.591 45.3769 133.739 44.4829 133.739H41.375V131.989H44.1988C44.7216 131.989 45.1496 131.917 45.4829 131.773C45.8163 131.625 46.0625 131.411 46.2216 131.131C46.3844 130.847 46.4659 130.498 46.4659 130.085C46.4659 129.672 46.3844 129.32 46.2216 129.028C46.0587 128.733 45.8106 128.509 45.4772 128.358C45.1439 128.203 44.714 128.125 44.1875 128.125H42.2557V138H40.1477ZM46.1591 132.727L49.0397 138H46.6875L43.8579 132.727H46.1591Z" fill="#1A65BA"/>
<path d="M53.8817 138.17C53.0067 138.17 52.251 137.989 51.6146 137.625C50.9821 137.258 50.4953 136.739 50.1544 136.068C49.8135 135.394 49.643 134.6 49.643 133.688C49.643 132.79 49.8135 132.002 50.1544 131.324C50.4991 130.642 50.9802 130.112 51.5976 129.733C52.215 129.35 52.9404 129.159 53.7737 129.159C54.3116 129.159 54.8192 129.246 55.2965 129.42C55.7775 129.591 56.2018 129.856 56.5692 130.216C56.9404 130.576 57.2321 131.034 57.4442 131.591C57.6563 132.144 57.7624 132.803 57.7624 133.568V134.199H50.609V132.813H55.7908C55.787 132.419 55.7018 132.068 55.5351 131.761C55.3684 131.451 55.1355 131.206 54.8362 131.028C54.5408 130.85 54.1961 130.761 53.8021 130.761C53.3817 130.761 53.0124 130.864 52.6942 131.068C52.376 131.269 52.1279 131.534 51.9499 131.864C51.7756 132.189 51.6866 132.547 51.6828 132.938V134.148C51.6828 134.655 51.7756 135.091 51.9612 135.455C52.1468 135.814 52.4063 136.091 52.7396 136.284C53.073 136.473 53.4631 136.568 53.9101 136.568C54.2093 136.568 54.4802 136.527 54.7226 136.443C54.965 136.356 55.1752 136.229 55.3533 136.063C55.5313 135.896 55.6658 135.689 55.7567 135.443L57.6771 135.659C57.5559 136.167 57.3249 136.61 56.984 136.989C56.6468 137.364 56.215 137.655 55.6885 137.864C55.162 138.068 54.5597 138.17 53.8817 138.17Z" fill="#1A65BA"/>
<path d="M66.7279 129.273L63.6199 138H61.3472L58.2392 129.273H60.4324L62.4381 135.756H62.529L64.5404 129.273H66.7279Z" fill="#1A65BA"/>
<path d="M71.3979 138.17C70.5229 138.17 69.7673 137.989 69.1309 137.625C68.4983 137.258 68.0116 136.739 67.6707 136.068C67.3298 135.394 67.1593 134.6 67.1593 133.688C67.1593 132.79 67.3298 132.002 67.6707 131.324C68.0154 130.642 68.4964 130.112 69.1138 129.733C69.7313 129.35 70.4566 129.159 71.29 129.159C71.8279 129.159 72.3354 129.246 72.8127 129.42C73.2938 129.591 73.718 129.856 74.0854 130.216C74.4566 130.576 74.7483 131.034 74.9604 131.591C75.1726 132.144 75.2786 132.803 75.2786 133.568V134.199H68.1252V132.813H73.307C73.3032 132.419 73.218 132.068 73.0513 131.761C72.8847 131.451 72.6517 131.206 72.3525 131.028C72.057 130.85 71.7123 130.761 71.3184 130.761C70.8979 130.761 70.5286 130.864 70.2104 131.068C69.8923 131.269 69.6441 131.534 69.4661 131.864C69.2919 132.189 69.2029 132.547 69.1991 132.938V134.148C69.1991 134.655 69.2919 135.091 69.4775 135.455C69.6631 135.814 69.9226 136.091 70.2559 136.284C70.5892 136.473 70.9794 136.568 71.4263 136.568C71.7256 136.568 71.9964 136.527 72.2388 136.443C72.4813 136.356 72.6915 136.229 72.8695 136.063C73.0476 135.896 73.182 135.689 73.2729 135.443L75.1934 135.659C75.0722 136.167 74.8411 136.61 74.5002 136.989C74.1631 137.364 73.7313 137.655 73.2048 137.864C72.6782 138.068 72.076 138.17 71.3979 138.17Z" fill="#1A65BA"/>
<path d="M78.7555 132.886V138H76.6987V129.273H78.6646V130.756H78.7669C78.9676 130.267 79.2877 129.879 79.7271 129.591C80.1703 129.303 80.7176 129.159 81.3691 129.159C81.9714 129.159 82.496 129.288 82.943 129.545C83.3938 129.803 83.7422 130.176 83.9884 130.665C84.2384 131.153 84.3616 131.746 84.3578 132.443V138H82.3009V132.761C82.3009 132.178 82.1494 131.722 81.8464 131.392C81.5472 131.063 81.1324 130.898 80.6021 130.898C80.2422 130.898 79.9222 130.977 79.6419 131.136C79.3653 131.292 79.1475 131.517 78.9884 131.813C78.8331 132.108 78.7555 132.466 78.7555 132.886Z" fill="#1A65BA"/>
<path d="M91.6912 134.33V129.273H93.748V138H91.7537V136.449H91.6628C91.4658 136.938 91.1419 137.337 90.6912 137.648C90.2442 137.958 89.6931 138.114 89.0378 138.114C88.4658 138.114 87.9601 137.987 87.5207 137.733C87.0851 137.475 86.7442 137.102 86.498 136.614C86.2518 136.121 86.1287 135.527 86.1287 134.83V129.273H88.1855V134.511C88.1855 135.064 88.337 135.504 88.64 135.83C88.9431 136.155 89.3408 136.318 89.8332 136.318C90.1363 136.318 90.4298 136.244 90.7139 136.097C90.998 135.949 91.2309 135.729 91.4128 135.438C91.5984 135.142 91.6912 134.773 91.6912 134.33Z" fill="#1A65BA"/>
<path d="M99.4067 138.17C98.5317 138.17 97.776 137.989 97.1396 137.625C96.5071 137.258 96.0203 136.739 95.6794 136.068C95.3385 135.394 95.168 134.6 95.168 133.688C95.168 132.79 95.3385 132.002 95.6794 131.324C96.0241 130.642 96.5052 130.112 97.1226 129.733C97.74 129.35 98.4654 129.159 99.2987 129.159C99.8366 129.159 100.344 129.246 100.821 129.42C101.303 129.591 101.727 129.856 102.094 130.216C102.465 130.576 102.757 131.034 102.969 131.591C103.181 132.144 103.287 132.803 103.287 133.568V134.199H96.134V132.813H101.316C101.312 132.419 101.227 132.068 101.06 131.761C100.893 131.451 100.66 131.206 100.361 131.028C100.066 130.85 99.7211 130.761 99.3271 130.761C98.9067 130.761 98.5374 130.864 98.2192 131.068C97.901 131.269 97.6529 131.534 97.4749 131.864C97.3006 132.189 97.2116 132.547 97.2078 132.938V134.148C97.2078 134.655 97.3006 135.091 97.4862 135.455C97.6718 135.814 97.9313 136.091 98.2646 136.284C98.598 136.473 98.9881 136.568 99.4351 136.568C99.7343 136.568 100.005 136.527 100.248 136.443C100.49 136.356 100.7 136.229 100.878 136.063C101.056 135.896 101.191 135.689 101.282 135.443L103.202 135.659C103.081 136.167 102.85 136.61 102.509 136.989C102.172 137.364 101.74 137.655 101.214 137.864C100.687 138.068 100.085 138.17 99.4067 138.17Z" fill="#1A65BA"/>
<path d="M11.1477 191V179.364H15.5113C16.4053 179.364 17.1553 179.519 17.7613 179.83C18.3712 180.14 18.8314 180.576 19.142 181.136C19.4564 181.693 19.6136 182.343 19.6136 183.085C19.6136 183.831 19.4545 184.479 19.1363 185.028C18.8219 185.574 18.3579 185.996 17.7443 186.295C17.1307 186.591 16.3769 186.739 15.4829 186.739H12.375V184.989H15.1988C15.7216 184.989 16.1496 184.917 16.4829 184.773C16.8163 184.625 17.0625 184.411 17.2216 184.131C17.3844 183.847 17.4659 183.498 17.4659 183.085C17.4659 182.672 17.3844 182.32 17.2216 182.028C17.0587 181.733 16.8106 181.509 16.4773 181.358C16.1439 181.203 15.714 181.125 15.1875 181.125H13.2557V191H11.1477ZM17.1591 185.727L20.0398 191H17.6875L14.8579 185.727H17.1591Z" fill="#00A3D7"/>
<path d="M24.8817 191.17C24.0067 191.17 23.251 190.989 22.6146 190.625C21.9821 190.258 21.4953 189.739 21.1544 189.068C20.8135 188.394 20.643 187.6 20.643 186.688C20.643 185.79 20.8135 185.002 21.1544 184.324C21.4991 183.642 21.9802 183.112 22.5976 182.733C23.215 182.35 23.9404 182.159 24.7737 182.159C25.3116 182.159 25.8192 182.246 26.2965 182.42C26.7775 182.591 27.2018 182.856 27.5692 183.216C27.9404 183.576 28.2321 184.034 28.4442 184.591C28.6563 185.144 28.7624 185.803 28.7624 186.568V187.199H21.609V185.813H26.7908C26.787 185.419 26.7018 185.068 26.5351 184.761C26.3684 184.451 26.1355 184.206 25.8362 184.028C25.5408 183.85 25.1961 183.761 24.8021 183.761C24.3817 183.761 24.0124 183.864 23.6942 184.068C23.376 184.269 23.1279 184.534 22.9499 184.864C22.7756 185.189 22.6866 185.547 22.6828 185.938V187.148C22.6828 187.655 22.7756 188.091 22.9612 188.455C23.1468 188.814 23.4063 189.091 23.7396 189.284C24.073 189.473 24.4631 189.568 24.9101 189.568C25.2093 189.568 25.4802 189.527 25.7226 189.443C25.965 189.356 26.1752 189.229 26.3533 189.063C26.5313 188.896 26.6658 188.689 26.7567 188.443L28.6771 188.659C28.5559 189.167 28.3249 189.61 27.984 189.989C27.6468 190.364 27.215 190.655 26.6885 190.864C26.162 191.068 25.5597 191.17 24.8817 191.17Z" fill="#00A3D7"/>
<path d="M30.1824 194.273V182.273H32.2051V183.716H32.3245C32.4305 183.504 32.5801 183.278 32.7733 183.04C32.9665 182.797 33.2279 182.591 33.5574 182.42C33.887 182.246 34.3074 182.159 34.8188 182.159C35.493 182.159 36.101 182.331 36.6426 182.676C37.1881 183.017 37.6199 183.523 37.9381 184.193C38.2601 184.86 38.4211 185.678 38.4211 186.648C38.4211 187.606 38.2639 188.42 37.9495 189.091C37.6351 189.761 37.207 190.273 36.6654 190.625C36.1237 190.977 35.5101 191.153 34.8245 191.153C34.3245 191.153 33.9097 191.07 33.5801 190.903C33.2506 190.737 32.9855 190.536 32.7847 190.301C32.5877 190.063 32.4343 189.837 32.3245 189.625H32.2392V194.273H30.1824ZM32.1995 186.636C32.1995 187.201 32.279 187.695 32.4381 188.119C32.601 188.544 32.8339 188.875 33.137 189.114C33.4438 189.348 33.815 189.466 34.2506 189.466C34.7051 189.466 35.0858 189.345 35.3926 189.102C35.6995 188.856 35.9305 188.521 36.0858 188.097C36.2449 187.669 36.3245 187.182 36.3245 186.636C36.3245 186.095 36.2468 185.614 36.0915 185.193C35.9362 184.773 35.7051 184.443 35.3983 184.205C35.0915 183.966 34.7089 183.847 34.2506 183.847C33.8112 183.847 33.4381 183.962 33.1313 184.193C32.8245 184.424 32.5915 184.748 32.4324 185.165C32.2771 185.581 32.1995 186.072 32.1995 186.636Z" fill="#00A3D7"/>
<path d="M43.7261 191.17C42.8511 191.17 42.0954 190.989 41.459 190.625C40.8264 190.258 40.3397 189.739 39.9988 189.068C39.6579 188.394 39.4874 187.6 39.4874 186.688C39.4874 185.79 39.6579 185.002 39.9988 184.324C40.3435 183.642 40.8245 183.112 41.442 182.733C42.0594 182.35 42.7848 182.159 43.6181 182.159C44.156 182.159 44.6636 182.246 45.1408 182.42C45.6219 182.591 46.0461 182.856 46.4136 183.216C46.7848 183.576 47.0764 184.034 47.2886 184.591C47.5007 185.144 47.6067 185.803 47.6067 186.568V187.199H40.4533V185.813H45.6352C45.6314 185.419 45.5461 185.068 45.3795 184.761C45.2128 184.451 44.9798 184.206 44.6806 184.028C44.3851 183.85 44.0405 183.761 43.6465 183.761C43.2261 183.761 42.8567 183.864 42.5386 184.068C42.2204 184.269 41.9723 184.534 41.7942 184.864C41.62 185.189 41.531 185.547 41.5272 185.938V187.148C41.5272 187.655 41.62 188.091 41.8056 188.455C41.9912 188.814 42.2507 189.091 42.584 189.284C42.9173 189.473 43.3075 189.568 43.7545 189.568C44.0537 189.568 44.3245 189.527 44.567 189.443C44.8094 189.356 45.0196 189.229 45.1977 189.063C45.3757 188.896 45.5101 188.689 45.6011 188.443L47.5215 188.659C47.4003 189.167 47.1692 189.61 46.8283 189.989C46.4912 190.364 46.0594 190.655 45.5329 190.864C45.0064 191.068 44.4041 191.17 43.7261 191.17Z" fill="#00A3D7"/>
<path d="M50.0552 194.273C49.7749 194.273 49.5154 194.25 49.2768 194.205C49.0419 194.163 48.8544 194.114 48.7143 194.057L49.1916 192.455C49.4908 192.542 49.7579 192.583 49.9927 192.58C50.2276 192.576 50.434 192.502 50.612 192.358C50.7938 192.218 50.9473 191.983 51.0723 191.653L51.2484 191.182L48.0836 182.273H50.2654L52.2768 188.864H52.3677L54.3848 182.273H56.5723L53.0779 192.057C52.9151 192.519 52.6991 192.915 52.4302 193.244C52.1613 193.578 51.8317 193.831 51.4416 194.006C51.0552 194.184 50.5931 194.273 50.0552 194.273Z" fill="#00A3D7"/>
<path d="M57.6755 191V182.273H59.6415V183.756H59.7437C59.9255 183.256 60.2267 182.866 60.6471 182.585C61.0676 182.301 61.5695 182.159 62.1528 182.159C62.7437 182.159 63.2418 182.303 63.6471 182.591C64.0562 182.875 64.3441 183.263 64.5108 183.756H64.6017C64.7949 183.271 65.1206 182.884 65.579 182.597C66.0411 182.305 66.5884 182.159 67.221 182.159C68.024 182.159 68.6793 182.413 69.1869 182.92C69.6945 183.428 69.9483 184.169 69.9483 185.142V191H67.8858V185.46C67.8858 184.919 67.7418 184.523 67.454 184.273C67.1661 184.019 66.8138 183.892 66.3971 183.892C65.9009 183.892 65.5127 184.047 65.2324 184.358C64.9558 184.665 64.8176 185.064 64.8176 185.557V191H62.8005V185.375C62.8005 184.924 62.6642 184.564 62.3915 184.295C62.1225 184.027 61.7702 183.892 61.3346 183.892C61.0392 183.892 60.7702 183.968 60.5278 184.119C60.2854 184.267 60.0922 184.477 59.9483 184.75C59.8043 185.019 59.7324 185.333 59.7324 185.693V191H57.6755Z" fill="#00A3D7"/>
<path d="M75.5786 191.17C74.7036 191.17 73.9479 190.989 73.3115 190.625C72.6789 190.258 72.1922 189.739 71.8513 189.068C71.5104 188.394 71.3399 187.6 71.3399 186.688C71.3399 185.79 71.5104 185.002 71.8513 184.324C72.196 183.642 72.677 183.112 73.2945 182.733C73.9119 182.35 74.6373 182.159 75.4706 182.159C76.0085 182.159 76.5161 182.246 76.9933 182.42C77.4744 182.591 77.8986 182.856 78.2661 183.216C78.6373 183.576 78.9289 184.034 79.1411 184.591C79.3532 185.144 79.4592 185.803 79.4592 186.568V187.199H72.3058V185.813H77.4876C77.4839 185.419 77.3986 185.068 77.232 184.761C77.0653 184.451 76.8323 184.206 76.5331 184.028C76.2376 183.85 75.893 183.761 75.499 183.761C75.0786 183.761 74.7092 183.864 74.3911 184.068C74.0729 184.269 73.8248 184.534 73.6467 184.864C73.4725 185.189 73.3835 185.547 73.3797 185.938V187.148C73.3797 187.655 73.4725 188.091 73.6581 188.455C73.8437 188.814 74.1032 189.091 74.4365 189.284C74.7698 189.473 75.16 189.568 75.607 189.568C75.9062 189.568 76.177 189.527 76.4195 189.443C76.6619 189.356 76.8721 189.229 77.0501 189.063C77.2282 188.896 77.3627 188.689 77.4536 188.443L79.374 188.659C79.2528 189.167 79.0217 189.61 78.6808 189.989C78.3437 190.364 77.9119 190.655 77.3854 190.864C76.8589 191.068 76.2566 191.17 75.5786 191.17Z" fill="#00A3D7"/>
<path d="M82.9361 185.886V191H80.8793V182.273H82.8452V183.756H82.9475C83.1482 183.267 83.4683 182.879 83.9077 182.591C84.3509 182.303 84.8982 182.159 85.5498 182.159C86.152 182.159 86.6766 182.288 87.1236 182.545C87.5744 182.803 87.9229 183.176 88.1691 183.665C88.4191 184.153 88.5422 184.746 88.5384 185.443V191H86.4816V185.761C86.4816 185.178 86.3301 184.722 86.027 184.392C85.7278 184.063 85.313 183.898 84.7827 183.898C84.4229 183.898 84.1028 183.977 83.8225 184.136C83.546 184.292 83.3282 184.517 83.1691 184.813C83.0138 185.108 82.9361 185.466 82.9361 185.886Z" fill="#00A3D7"/>
<path d="M94.6673 182.273V183.864H89.6502V182.273H94.6673ZM90.8888 180.182H92.9457V188.375C92.9457 188.652 92.9873 188.864 93.0707 189.011C93.1578 189.155 93.2714 189.254 93.4116 189.307C93.5517 189.36 93.707 189.386 93.8775 189.386C94.0063 189.386 94.1237 189.377 94.2298 189.358C94.3396 189.339 94.4229 189.322 94.4798 189.307L94.8263 190.915C94.7165 190.953 94.5593 190.994 94.3548 191.04C94.154 191.085 93.9078 191.112 93.6161 191.119C93.101 191.134 92.6369 191.057 92.2241 190.886C91.8112 190.712 91.4835 190.443 91.2411 190.08C91.0025 189.716 90.8851 189.261 90.8888 188.716V180.182Z" fill="#00A3D7"/>
<path d="M102.84 184.58L100.965 184.784C100.912 184.595 100.819 184.417 100.687 184.25C100.558 184.083 100.384 183.949 100.164 183.847C99.9443 183.744 99.6754 183.693 99.3572 183.693C98.9292 183.693 98.5693 183.786 98.2776 183.972C97.9898 184.157 97.8477 184.398 97.8515 184.693C97.8477 184.947 97.9405 185.153 98.1299 185.313C98.3231 185.472 98.6413 185.602 99.0845 185.705L100.573 186.023C101.399 186.201 102.013 186.483 102.414 186.869C102.819 187.256 103.024 187.761 103.028 188.386C103.024 188.936 102.863 189.42 102.545 189.841C102.23 190.258 101.793 190.583 101.232 190.818C100.672 191.053 100.028 191.17 99.3004 191.17C98.2322 191.17 97.3723 190.947 96.7208 190.5C96.0693 190.049 95.6811 189.422 95.5561 188.619L97.5617 188.426C97.6527 188.82 97.8458 189.117 98.1413 189.318C98.4367 189.519 98.8212 189.619 99.2947 189.619C99.7833 189.619 100.175 189.519 100.471 189.318C100.77 189.117 100.92 188.869 100.92 188.574C100.92 188.324 100.823 188.117 100.63 187.955C100.441 187.792 100.145 187.667 99.7436 187.58L98.2549 187.267C97.4178 187.093 96.7985 186.799 96.397 186.386C95.9955 185.97 95.7966 185.443 95.8004 184.807C95.7966 184.269 95.9424 183.803 96.2379 183.409C96.5371 183.011 96.9519 182.705 97.4822 182.489C98.0163 182.269 98.6318 182.159 99.3288 182.159C100.352 182.159 101.156 182.377 101.744 182.813C102.334 183.248 102.7 183.837 102.84 184.58Z" fill="#00A3D7"/>
<defs>
<filter id="filter0_f_65_86" x="26.5934" y="-50" width="401.407" height="249.069" filterUnits="userSpaceOnUse" color-interpolation-filters="sRGB">
<feFlood flood-opacity="0" result="BackgroundImageFix"/>
<feBlend mode="normal" in="SourceGraphic" in2="BackgroundImageFix" result="shape"/>
<feGaussianBlur stdDeviation="30" result="effect1_foregroundBlur_65_86"/>
</filter>
</defs>
</svg>
