<svg viewBox="0 0 470 240" fill="none" xmlns="http://www.w3.org/2000/svg"><mask id="mask0_63_1172" style="mask-type:alpha" maskUnits="userSpaceOnUse" x="137" y="48" width="194" height="110"><path d="M331 48c-58 46.4-153.333 62-194 63v47h194V48Z" fill="#fff"/></mask><g opacity=".3" filter="url(#filter0_f_63_1172)" mask="url(#mask0_63_1172)"><path d="M144.432 90.873 137 71.231c49.168-24.144 151.733-66.662 168.656-43.582 16.923 23.08-2.605 41.303-9.656 47.851-15.627 9.003-47.172 29-86.964 34.402-39.791 5.402-59.649-10.435-64.604-19.029Z" fill="#1A65BA"/></g><path d="M136.975 110a1 1 0 0 0 .05 2l-.05-2Zm195.019-61.89a1 1 0 0 0-.884-1.104l-8.945-.994a1 1 0 0 0-.22 1.988l7.951.883-.884 7.951a1 1 0 0 0 1.988.221l.994-8.945ZM137.025 112c20.418-.502 54.498-4.665 90.737-14.51 36.232-9.843 74.712-25.389 103.863-48.71l-1.25-1.56c-28.849 23.079-67.036 38.533-103.137 48.34-36.094 9.805-70.014 13.942-90.263 14.44l.05 2Z" fill="#1A65BA"/><path d="m219.705 178.364 3.028 9.159h.119l3.023-9.159h2.318L224.091 190h-2.602l-4.097-11.636h2.313ZM238.741 182.29h-2.125a2.646 2.646 0 0 0-.335-.926 2.508 2.508 0 0 0-.608-.694 2.55 2.55 0 0 0-.83-.426 3.245 3.245 0 0 0-.994-.147c-.633 0-1.193.159-1.682.477-.488.314-.871.776-1.147 1.386-.277.606-.415 1.347-.415 2.222 0 .89.138 1.64.415 2.25.28.606.662 1.064 1.147 1.375.489.307 1.048.46 1.676.46.349 0 .675-.045.978-.136.306-.095.581-.233.824-.415a2.53 2.53 0 0 0 .971-1.58l2.125.012a4.57 4.57 0 0 1-.517 1.557 4.609 4.609 0 0 1-1.028 1.284 4.755 4.755 0 0 1-1.489.863 5.542 5.542 0 0 1-1.892.307c-1.023 0-1.936-.237-2.739-.71-.803-.474-1.435-1.157-1.897-2.051-.463-.894-.694-1.966-.694-3.216 0-1.254.233-2.326.699-3.216.466-.894 1.101-1.578 1.904-2.051.803-.474 1.712-.71 2.727-.71.648 0 1.25.09 1.807.272a4.625 4.625 0 0 1 1.488.801c.436.349.794.777 1.074 1.285a4.77 4.77 0 0 1 .557 1.727ZM247.158 183.58l-1.875.204a1.52 1.52 0 0 0-.278-.534 1.376 1.376 0 0 0-.523-.403c-.22-.103-.488-.154-.807-.154-.428 0-.788.093-1.079.279-.288.185-.43.426-.426.721a.757.757 0 0 0 .278.62c.193.159.511.289.955.392l1.488.318c.826.178 1.44.46 1.841.846.405.387.61.892.614 1.517a2.377 2.377 0 0 1-.483 1.455c-.315.417-.752.742-1.313.977-.56.235-1.204.352-1.931.352-1.069 0-1.928-.223-2.58-.67-.652-.451-1.04-1.078-1.165-1.881l2.006-.193c.091.394.284.691.579.892.296.201.68.301 1.154.301.488 0 .881-.1 1.176-.301.299-.201.449-.449.449-.744a.774.774 0 0 0-.29-.619c-.189-.163-.485-.288-.886-.375l-1.489-.313c-.837-.174-1.456-.468-1.858-.881-.401-.416-.6-.943-.596-1.579-.004-.538.142-1.004.437-1.398.299-.398.714-.704 1.244-.92.534-.22 1.15-.33 1.847-.33 1.023 0 1.828.218 2.415.654.591.435.956 1.024 1.096 1.767ZM105.148 190v-11.636h4.363c.894 0 1.644.166 2.25.5.61.333 1.07.791 1.381 1.375.314.579.472 1.238.472 1.977 0 .746-.158 1.409-.472 1.989a3.365 3.365 0 0 1-1.392 1.369c-.614.329-1.369.494-2.267.494h-2.892v-1.733h2.608c.523 0 .951-.091 1.284-.272.333-.182.58-.432.739-.75.162-.319.244-.684.244-1.097 0-.413-.082-.777-.244-1.091a1.662 1.662 0 0 0-.745-.733c-.333-.178-.763-.267-1.289-.267h-1.932V190h-2.108ZM117.389 190.176a3.647 3.647 0 0 1-1.495-.295 2.44 2.44 0 0 1-1.045-.887c-.254-.39-.381-.871-.381-1.443 0-.492.091-.899.273-1.221.182-.322.43-.58.744-.773a3.785 3.785 0 0 1 1.063-.438 8.628 8.628 0 0 1 1.233-.221c.511-.053.926-.101 1.244-.142.318-.046.549-.114.693-.205.148-.095.222-.24.222-.437v-.034c0-.428-.127-.76-.381-.995s-.619-.352-1.096-.352c-.504 0-.904.11-1.199.33a1.629 1.629 0 0 0-.591.778l-1.921-.273c.152-.53.402-.973.75-1.329.349-.36.775-.629 1.279-.807a4.884 4.884 0 0 1 1.67-.273c.421 0 .839.049 1.256.148.417.098.797.261 1.142.489.345.223.621.528.83.914.212.387.318.87.318 1.449V190h-1.978v-1.199h-.068c-.125.243-.301.47-.528.682a2.557 2.557 0 0 1-.847.506c-.337.125-.733.187-1.187.187Zm.534-1.511c.413 0 .771-.082 1.074-.244a1.81 1.81 0 0 0 .699-.66c.166-.272.25-.57.25-.892v-1.028a.99.99 0 0 1-.33.148 4.739 4.739 0 0 1-.511.119c-.19.034-.377.064-.563.091l-.483.068a3.6 3.6 0 0 0-.824.205 1.364 1.364 0 0 0-.573.397c-.141.167-.211.383-.211.648 0 .379.139.665.415.858.277.193.629.29 1.057.29ZM123.745 190v-8.727h1.994v1.454h.091c.159-.503.432-.892.818-1.164a2.253 2.253 0 0 1 1.336-.415c.113 0 .24.005.38.017.144.007.264.021.358.04v1.892a2.114 2.114 0 0 0-.415-.08 3.88 3.88 0 0 0-.539-.04c-.375 0-.712.082-1.012.245-.295.159-.528.38-.699.664a1.88 1.88 0 0 0-.255.983V190h-2.057ZM134.595 181.273v1.591h-5.017v-1.591h5.017Zm-3.778-2.091h2.057v8.193c0 .277.041.489.125.636a.676.676 0 0 0 .341.296c.14.053.295.079.466.079.128 0 .246-.009.352-.028.11-.019.193-.036.25-.051l.346 1.608a4.662 4.662 0 0 1-.471.125 3.86 3.86 0 0 1-.739.079 3.332 3.332 0 0 1-1.392-.233 2.169 2.169 0 0 1-.983-.806c-.238-.364-.356-.819-.352-1.364v-8.534ZM138.052 184.886V190h-2.056v-8.727h1.965v1.483h.103c.201-.489.521-.877.96-1.165.443-.288.991-.432 1.642-.432.602 0 1.127.129 1.574.387.451.257.799.63 1.045 1.119.25.488.373 1.081.37 1.778V190h-2.057v-5.239c0-.583-.152-1.039-.455-1.369-.299-.329-.714-.494-1.244-.494-.36 0-.68.079-.96.238a1.655 1.655 0 0 0-.654.677c-.155.295-.233.653-.233 1.073ZM149.289 190.171c-.875 0-1.63-.182-2.267-.546a3.692 3.692 0 0 1-1.46-1.557c-.341-.674-.511-1.468-.511-2.38 0-.898.17-1.686.511-2.364a3.872 3.872 0 0 1 1.443-1.591c.618-.383 1.343-.574 2.176-.574.538 0 1.046.087 1.523.262.481.17.905.435 1.273.795.371.36.663.818.875 1.375.212.553.318 1.212.318 1.977v.631h-7.154v-1.386h5.182a2.214 2.214 0 0 0-.255-1.052c-.167-.31-.4-.555-.699-.733a1.966 1.966 0 0 0-1.034-.267c-.421 0-.79.103-1.108.307a2.117 2.117 0 0 0-.745.796 2.29 2.29 0 0 0-.267 1.074v1.21c0 .507.093.943.279 1.307.185.359.445.636.778.829.334.19.724.284 1.171.284.299 0 .57-.041.812-.125.243-.087.453-.214.631-.38.178-.167.312-.374.403-.62l1.921.216a3.003 3.003 0 0 1-.694 1.33 3.38 3.38 0 0 1-1.295.875c-.526.204-1.129.307-1.807.307ZM154.59 190v-8.727h1.994v1.454h.091c.159-.503.432-.892.818-1.164a2.253 2.253 0 0 1 1.336-.415c.113 0 .24.005.38.017.144.007.264.021.358.04v1.892a2.114 2.114 0 0 0-.415-.08 3.88 3.88 0 0 0-.539-.04c-.375 0-.712.082-1.012.245-.295.159-.528.38-.699.664a1.88 1.88 0 0 0-.255.983V190h-2.057ZM167.511 183.58l-1.875.204a1.504 1.504 0 0 0-.278-.534 1.376 1.376 0 0 0-.523-.403c-.219-.103-.488-.154-.807-.154-.428 0-.787.093-1.079.279-.288.185-.43.426-.426.721a.757.757 0 0 0 .278.62c.193.159.512.289.955.392l1.488.318c.826.178 1.44.46 1.841.846.406.387.61.892.614 1.517a2.375 2.375 0 0 1-.483 1.455c-.314.417-.752.742-1.313.977-.56.235-1.204.353-1.931.353-1.069 0-1.928-.224-2.58-.671-.651-.451-1.04-1.078-1.165-1.881l2.006-.193c.091.394.284.691.58.892.295.201.679.301 1.153.301.489 0 .881-.1 1.176-.301.299-.201.449-.449.449-.744a.774.774 0 0 0-.29-.619c-.189-.163-.485-.288-.886-.375l-1.489-.313c-.837-.174-1.456-.468-1.858-.881-.401-.416-.6-.943-.596-1.579-.004-.538.142-1.004.437-1.398.299-.398.714-.704 1.244-.92.535-.22 1.15-.33 1.847-.33 1.023 0 1.828.218 2.415.654.591.435.956 1.024 1.096 1.767ZM298.642 190h-2.25l4.097-11.636h2.602L307.193 190h-2.25l-3.108-9.25h-.091l-3.102 9.25Zm.074-4.562h6.136v1.693h-6.136v-1.693ZM311.845 193.455c-.739 0-1.373-.101-1.904-.302-.53-.197-.956-.462-1.278-.795a2.752 2.752 0 0 1-.67-1.108l1.852-.449c.083.171.204.339.363.506.16.17.374.31.642.42.273.114.616.171 1.029.171.583 0 1.066-.142 1.449-.426.382-.281.574-.743.574-1.387v-1.653h-.103c-.106.212-.261.43-.466.653a2.37 2.37 0 0 1-.801.563c-.329.151-.744.227-1.244.227-.67 0-1.278-.157-1.824-.472-.542-.318-.973-.791-1.295-1.42-.319-.633-.478-1.424-.478-2.375 0-.958.159-1.767.478-2.426.322-.663.755-1.165 1.301-1.506a3.34 3.34 0 0 1 1.824-.517c.511 0 .931.087 1.261.261.333.171.598.377.795.62.197.238.347.464.449.676h.114v-1.443h2.028v8.869c0 .746-.178 1.364-.534 1.852-.356.489-.843.854-1.46 1.097-.617.242-1.318.364-2.102.364Zm.017-5.194c.435 0 .807-.106 1.113-.318.307-.212.54-.517.699-.915.159-.397.239-.875.239-1.431 0-.55-.08-1.031-.239-1.444-.155-.412-.386-.733-.693-.96-.303-.231-.676-.346-1.119-.346-.459 0-.841.119-1.148.358-.307.238-.538.566-.693.983a3.984 3.984 0 0 0-.233 1.409c0 .534.078 1.001.233 1.403.159.398.392.708.699.932.31.22.691.329 1.142.329ZM321.593 190.17c-.875 0-1.631-.181-2.267-.545a3.686 3.686 0 0 1-1.46-1.557c-.341-.674-.512-1.468-.512-2.38 0-.898.171-1.686.512-2.364a3.858 3.858 0 0 1 1.443-1.591c.617-.383 1.343-.574 2.176-.574.538 0 1.045.087 1.523.261.481.171.905.436 1.272.796.372.36.663.818.875 1.375.213.553.319 1.212.319 1.977v.631h-7.154v-1.386h5.182a2.215 2.215 0 0 0-.256-1.052 1.858 1.858 0 0 0-.698-.733 1.97 1.97 0 0 0-1.035-.267c-.42 0-.789.103-1.108.307a2.114 2.114 0 0 0-.744.796 2.29 2.29 0 0 0-.267 1.074v1.21c0 .507.093.943.279 1.307.185.359.445.636.778.829.333.189.723.284 1.17.284.3 0 .57-.041.813-.125.242-.087.453-.214.631-.38.178-.167.312-.374.403-.62l1.92.216a2.991 2.991 0 0 1-.693 1.33 3.388 3.388 0 0 1-1.295.875c-.527.204-1.129.306-1.807.306ZM328.951 184.886V190h-2.057v-8.727h1.966v1.483h.102c.201-.489.521-.877.96-1.165.443-.288.991-.432 1.642-.432.602 0 1.127.129 1.574.386a2.6 2.6 0 0 1 1.045 1.12c.25.488.374 1.081.37 1.778V190h-2.057v-5.239c0-.583-.152-1.039-.455-1.369-.299-.329-.714-.494-1.244-.494-.36 0-.68.079-.96.238a1.662 1.662 0 0 0-.654.677c-.155.295-.232.653-.232 1.073ZM340.131 190.17c-.872 0-1.62-.191-2.245-.573a3.832 3.832 0 0 1-1.437-1.586c-.334-.678-.5-1.458-.5-2.341 0-.886.17-1.668.511-2.346a3.819 3.819 0 0 1 1.443-1.591c.625-.383 1.364-.574 2.216-.574.708 0 1.335.131 1.881.392.549.258.987.623 1.312 1.097.326.469.512 1.019.557 1.647h-1.966a1.88 1.88 0 0 0-.568-1.051c-.295-.284-.691-.426-1.187-.426-.421 0-.79.114-1.108.341-.319.224-.567.546-.745.966-.174.42-.261.924-.261 1.511 0 .595.087 1.106.261 1.534.175.425.419.752.733.983.318.228.692.341 1.12.341.303 0 .573-.056.812-.17.242-.118.445-.286.608-.506.163-.22.275-.487.335-.801h1.966a3.43 3.43 0 0 1-.545 1.642 3.235 3.235 0 0 1-1.284 1.114c-.542.265-1.178.397-1.909.397ZM345.238 190v-8.727h2.057V190h-2.057Zm1.034-9.966a1.2 1.2 0 0 1-.841-.324 1.042 1.042 0 0 1-.352-.79c0-.31.117-.573.352-.789.235-.22.515-.33.841-.33.33 0 .61.11.841.33.235.216.352.479.352.789 0 .307-.117.571-.352.79a1.186 1.186 0 0 1-.841.324ZM352.954 190.17c-.875 0-1.631-.181-2.267-.545a3.689 3.689 0 0 1-1.461-1.557c-.341-.674-.511-1.468-.511-2.38 0-.898.17-1.686.511-2.364a3.872 3.872 0 0 1 1.443-1.591c.618-.383 1.343-.574 2.177-.574.538 0 1.045.087 1.522.261.481.171.906.436 1.273.796.371.36.663.818.875 1.375.212.553.318 1.212.318 1.977v.631h-7.153v-1.386h5.182a2.215 2.215 0 0 0-.256-1.052c-.167-.31-.4-.555-.699-.733a1.963 1.963 0 0 0-1.034-.267c-.42 0-.79.103-1.108.307a2.114 2.114 0 0 0-.744.796 2.29 2.29 0 0 0-.267 1.074v1.21c0 .507.093.943.278 1.307.186.359.445.636.779.829.333.189.723.284 1.17.284.299 0 .57-.041.812-.125.243-.087.453-.214.631-.38.178-.167.313-.374.404-.62l1.92.216a2.991 2.991 0 0 1-.693 1.33 3.385 3.385 0 0 1-1.296.875c-.526.204-1.128.306-1.806.306ZM365.152 183.58l-1.875.204a1.52 1.52 0 0 0-.278-.534 1.376 1.376 0 0 0-.523-.403c-.22-.103-.489-.154-.807-.154-.428 0-.788.093-1.079.279-.288.185-.43.426-.427.721a.758.758 0 0 0 .279.62c.193.159.511.289.954.392l1.489.318c.826.178 1.439.46 1.841.846.405.387.61.892.614 1.517a2.377 2.377 0 0 1-.483 1.455c-.315.417-.752.742-1.313.977-.561.235-1.204.352-1.932.352-1.068 0-1.928-.223-2.579-.67-.652-.451-1.04-1.078-1.165-1.881l2.006-.193c.091.394.284.691.579.892.296.201.68.301 1.154.301.488 0 .88-.1 1.176-.301.299-.201.449-.449.449-.744a.774.774 0 0 0-.29-.619c-.19-.163-.485-.288-.887-.375l-1.488-.313c-.837-.174-1.457-.468-1.858-.881-.402-.416-.601-.943-.597-1.579-.004-.538.142-1.004.438-1.398.299-.398.714-.704 1.244-.92.534-.22 1.15-.33 1.847-.33 1.022 0 1.827.218 2.414.654.591.435.957 1.024 1.097 1.767Z" fill="#051734"/><path d="M216 131h-69.5c-5.523 0-10 4.477-10 10v29M254 131h67c5.523 0 10 4.477 10 10v29M234.5 150v20" stroke="#C7C7C7" stroke-width="2" stroke-linecap="round" stroke-dasharray="1 6"/><g filter="url(#filter1_ddd_63_1172)"><rect x="219" y="115" width="32" height="32" rx="16" fill="#fff"/><path opacity=".3" d="M235 120.333c-5.88 0-10.667 4.787-10.667 10.667a10.6 10.6 0 0 0 2.187 6.44c1.907-2.32 6.533-3.107 8.48-3.107s6.573.787 8.48 3.107a10.6 10.6 0 0 0 2.187-6.44c0-5.88-4.787-10.667-10.667-10.667Zm0 12a4.655 4.655 0 0 1-4.667-4.666A4.655 4.655 0 0 1 235 123a4.655 4.655 0 0 1 4.667 4.667 4.655 4.655 0 0 1-4.667 4.666Z" fill="#00A3D7"/><path d="M235 117.667c-7.36 0-13.333 5.973-13.333 13.333s5.973 13.333 13.333 13.333 13.333-5.973 13.333-13.333-5.973-13.333-13.333-13.333Zm-6.573 21.706C229 138.173 232.493 137 235 137c2.507 0 6.013 1.173 6.573 2.373a10.523 10.523 0 0 1-6.573 2.294c-2.48 0-4.76-.854-6.573-2.294Zm15.053-1.933c-1.907-2.32-6.533-3.107-8.48-3.107s-6.573.787-8.48 3.107a10.6 10.6 0 0 1-2.187-6.44c0-5.88 4.787-10.667 10.667-10.667s10.667 4.787 10.667 10.667a10.6 10.6 0 0 1-2.187 6.44ZM235 123a4.655 4.655 0 0 0-4.667 4.667 4.655 4.655 0 0 0 4.667 4.666 4.655 4.655 0 0 0 4.667-4.666A4.655 4.655 0 0 0 235 123Zm0 6.667c-1.107 0-2-.894-2-2 0-1.107.893-2 2-2s2 .893 2 2c0 1.106-.893 2-2 2Z" fill="#00A3D7"/></g><defs><filter id="filter0_f_63_1172" x="107" y="-9" width="235.376" height="150" filterUnits="userSpaceOnUse" color-interpolation-filters="sRGB"><feFlood flood-opacity="0" result="BackgroundImageFix"/><feBlend in="SourceGraphic" in2="BackgroundImageFix" result="shape"/><feGaussianBlur stdDeviation="15" result="effect1_foregroundBlur_63_1172"/></filter><filter id="filter1_ddd_63_1172" x="186" y="99" width="98" height="98" filterUnits="userSpaceOnUse" color-interpolation-filters="sRGB"><feFlood flood-opacity="0" result="BackgroundImageFix"/><feColorMatrix in="SourceAlpha" values="0 0 0 0 0 0 0 0 0 0 0 0 0 0 0 0 0 0 127 0" result="hardAlpha"/><feOffset dy="1.079"/><feGaussianBlur stdDeviation="3.573"/><feColorMatrix values="0 0 0 0 0.0196078 0 0 0 0 0.0941176 0 0 0 0 0.25098 0 0 0 0.0377807 0"/><feBlend in2="BackgroundImageFix" result="effect1_dropShadow_63_1172"/><feColorMatrix in="SourceAlpha" values="0 0 0 0 0 0 0 0 0 0 0 0 0 0 0 0 0 0 127 0" result="hardAlpha"/><feOffset dy="3.8"/><feGaussianBlur stdDeviation="6.725"/><feColorMatrix values="0 0 0 0 0.0196078 0 0 0 0 0.0941176 0 0 0 0 0.25098 0 0 0 0.0522616 0"/><feBlend in2="effect1_dropShadow_63_1172" result="effect2_dropShadow_63_1172"/><feColorMatrix in="SourceAlpha" values="0 0 0 0 0 0 0 0 0 0 0 0 0 0 0 0 0 0 127 0" result="hardAlpha"/><feOffset dy="17"/><feGaussianBlur stdDeviation="16.5"/><feColorMatrix values="0 0 0 0 0.0196078 0 0 0 0 0.0941176 0 0 0 0 0.25098 0 0 0 0.07 0"/><feBlend in2="effect2_dropShadow_63_1172" result="effect3_dropShadow_63_1172"/><feBlend in="SourceGraphic" in2="effect3_dropShadow_63_1172" result="shape"/></filter></defs></svg>