<svg viewBox="0 0 470 240" fill="none" xmlns="http://www.w3.org/2000/svg">
  <g clip-path="url(#clip0_65_16)">
    <rect x="292" y="74" width="146" height="92.079" rx="8" fill="#051734" />
    <path fill="#051734" d="M292 74h146v92H292z" />
    <ellipse cx="436.898" cy="171.611" rx="58.898" ry="39.611" fill="#003EDB" />
    <path
      d="M423.326 145.468h-1.522c-.475 0-.831.131-1.035.596l-2.926 6.635h2.068s.343-.89.42-1.084h2.52c.064.253.24 1.084.24 1.084h1.829l-1.594-7.231Zm-2.426 4.67c.158-.42.773-2.028.773-2.028s.171-.425.266-.687l.131.623s.384 1.721.461 2.092H420.9ZM415.218 147.473c-.004.339.42.564 1.111.899 1.134.515 1.663 1.142 1.654 1.964-.014 1.5-1.36 2.471-3.433 2.471-.881-.009-1.734-.19-2.195-.384l.28-1.621.253.117c.646.267 1.066.379 1.856.379.565 0 1.17-.221 1.174-.704.005-.321-.252-.547-1.02-.903-.75-.344-1.739-.922-1.73-1.961.009-1.404 1.382-2.389 3.329-2.389.763 0 1.377.158 1.77.303l-.266 1.567-.177-.081a3.613 3.613 0 0 0-1.476-.28c-.768 0-1.13.325-1.13.623ZM412.355 145.463l-1.238 7.231h-1.964l1.233-7.231h1.969ZM405.277 149.185c-.655-1.671-2.226-3.063-4.607-3.641l.028-.149h3.057c.416.014.745.149.863.587l.659 3.203Z"
      fill="#fff"
    />
    <path
      d="m409.586 145.468-3.107 7.217h-2.082l-1.766-6.025c1.269.813 2.348 2.1 2.728 2.994l.207.746 1.934-4.932h2.086ZM309.376 97.45c-2.402 0-4.103 1.712-4.103 4.036s1.701 4.037 4.103 4.037c2.402 0 4.103-1.713 4.103-4.037s-1.701-4.036-4.103-4.036Zm0 1.779c1.268 0 2.168.923 2.168 2.257 0 1.335-.9 2.258-2.168 2.258-1.268 0-2.168-.923-2.168-2.258 0-1.334.9-2.257 2.168-2.257ZM319.33 99.993a.07.07 0 0 0-.069-.07h-1.597a.07.07 0 0 0-.069.07v2.894c0 .695-.378 1.012-.895 1.012-.523 0-.895-.317-.895-1.012v-2.894a.07.07 0 0 0-.069-.07h-1.602a.07.07 0 0 0-.069.07v3.044c0 1.713 1.178 2.486 2.635 2.486 1.451 0 2.63-.773 2.63-2.48v-3.05ZM325.114 99.993a.07.07 0 0 0-.069-.07h-2.414a.07.07 0 0 1-.069-.068v-1.452a.07.07 0 0 0-.069-.07h-1.602a.07.07 0 0 0-.069.07v1.452a.07.07 0 0 1-.069.069h-.879a.07.07 0 0 0-.07.069v1.402a.07.07 0 0 0 .07.069h.879a.07.07 0 0 1 .069.069v1.749c0 1.368.661 2.241 2.124 2.241.471 0 1.11-.19 1.287-.245a.068.068 0 0 0 .047-.065v-1.289c0-.161-.175-.26-.32-.192-.201.095-.419.167-.625.167-.439 0-.773-.211-.773-.839v-1.527a.07.07 0 0 1 .069-.069h2.414a.07.07 0 0 0 .069-.069v-1.402Z"
      fill="#fff"
    />
    <path
      d="M328.274 99.993c0-.038-.03-.07-.069-.07h-1.39a.07.07 0 0 1-.07-.068v-.315c0-.472.189-.69.573-.69.309 0 .551.091.793.21a.07.07 0 0 0 .091-.026l.692-1.175a.069.069 0 0 0-.019-.09c-.421-.305-.972-.542-1.79-.542-1.274 0-2.08.806-2.08 2.274v5.808a.07.07 0 0 0 .069.069h1.602a.069.069 0 0 0 .069-.069v-3.776a.07.07 0 0 1 .07-.069h1.39a.069.069 0 0 0 .069-.069v-1.402ZM334.038 99.993a.07.07 0 0 0-.069-.07h-1.597a.07.07 0 0 0-.069.07v2.894c0 .695-.378 1.012-.895 1.012-.523 0-.895-.317-.895-1.012v-2.894a.07.07 0 0 0-.069-.07h-1.602a.07.07 0 0 0-.07.07v3.044c0 1.713 1.179 2.486 2.636 2.486 1.451 0 2.63-.773 2.63-2.48v-3.05ZM338.058 99.774c-.635 0-1.135.199-1.481.63-.044.054-.142.025-.142-.045v-.366a.07.07 0 0 0-.07-.07h-1.529a.07.07 0 0 0-.069.07v5.316a.07.07 0 0 0 .069.069h1.602a.07.07 0 0 0 .069-.069v-2.866c0-.707.4-1.035.884-1.035.539 0 .862.362.862 1.007v2.894a.07.07 0 0 0 .069.069h1.602a.07.07 0 0 0 .069-.069v-3.511c0-1.263-.845-2.024-1.935-2.024ZM343.074 99.774c-1.462 0-2.541 1.267-2.541 2.869 0 1.612 1.079 2.88 2.535 2.88.647 0 1.111-.234 1.436-.579.046-.048.132-.017.132.049v.316a.07.07 0 0 0 .069.069h1.541a.07.07 0 0 0 .069-.069v-7.868a.07.07 0 0 0-.069-.07h-1.596a.07.07 0 0 0-.069.07v2.814c0 .065-.083.096-.13.05-.321-.318-.768-.531-1.377-.531Zm.411 1.623c.684 0 1.168.528 1.168 1.251 0 .723-.484 1.251-1.168 1.251-.695 0-1.162-.539-1.162-1.251 0-.711.467-1.251 1.162-1.251Z"
      fill="#fff"
    />
    <rect
      x="347.096"
      y="103.449"
      width="2.074"
      height="2.074"
      rx="1.037"
      fill="#00A3D7"
    />
    <ellipse cx="305.688" cy="48.077" rx="58.898" ry="39.611" fill="#FF766B" />
    <path
      d="m306.826 119.915-1.426-5.211h1.075l.649 2.635.381 1.643h.052l.389-1.643.657-2.635h1.022l-1.425 5.211h-1.374ZM312.228 115.465c-.224 0-.383-.047-.478-.142a.482.482 0 0 1-.134-.343v-.179c0-.135.045-.249.134-.344.095-.094.254-.142.478-.142.224 0 .381.048.471.142a.47.47 0 0 1 .141.344v.179a.468.468 0 0 1-.141.343c-.09.095-.247.142-.471.142Zm-1.747 3.696h1.269v-2.344h-1.269v-.755h2.225v3.099h1.18v.754h-3.405v-.754ZM314.786 119.161h.956v-2.344h-.956v-.755h1.911v1.053h.06a2.12 2.12 0 0 1 .142-.388c.065-.129.144-.241.239-.336.099-.1.219-.179.358-.239.14-.06.306-.09.5-.09h.419v.896h-.792c-.289 0-.515.085-.679.254a.892.892 0 0 0-.247.65v1.299h1.337v.754h-3.248v-.754ZM321.204 119.915c-.368 0-.64-.097-.814-.291-.174-.194-.261-.446-.261-.754v-2.053h-1.12v-.755h.761c.155 0 .264-.029.329-.089.065-.065.097-.177.097-.336v-.933h.888v1.358h1.568v.755h-1.568v2.344h1.568v.754h-1.448ZM326.143 119.235h-.037c-.085.21-.216.391-.396.545-.174.15-.418.224-.731.224-.379 0-.687-.124-.926-.373-.234-.254-.351-.615-.351-1.082v-2.487h.956v2.352c0 .558.241.836.724.836.094 0 .186-.012.276-.037a.732.732 0 0 0 .246-.112.575.575 0 0 0 .172-.194.511.511 0 0 0 .067-.269v-2.576h.956v3.853h-.956v-.68ZM331.314 119.915c-.234 0-.415-.057-.545-.172a.789.789 0 0 1-.224-.493h-.037a.977.977 0 0 1-.411.56c-.204.13-.455.194-.754.194-.388 0-.697-.102-.925-.306-.229-.204-.344-.487-.344-.851 0-.776.57-1.164 1.71-1.164h.679v-.254c0-.244-.06-.428-.179-.553-.119-.124-.314-.186-.582-.186-.244 0-.441.047-.59.141a1.353 1.353 0 0 0-.381.366l-.545-.463c.12-.214.311-.393.575-.537.269-.149.615-.224 1.038-.224.507 0 .903.119 1.187.358.288.234.433.585.433 1.053v1.814h.455v.717h-.56Zm-1.65-.568a.973.973 0 0 0 .568-.156.516.516 0 0 0 .231-.441v-.515h-.657c-.522 0-.784.164-.784.493v.149c0 .154.058.271.172.351.114.08.271.119.47.119ZM332.67 119.161h1.225v-4.017h-1.225v-.754h2.18v4.771h1.232v.754h-3.412v-.754ZM343.475 120.004c-.294 0-.557-.047-.791-.141a1.674 1.674 0 0 1-.598-.404 1.866 1.866 0 0 1-.373-.634 2.579 2.579 0 0 1-.127-.836c0-.309.042-.588.127-.837.09-.248.214-.46.373-.634.165-.174.361-.309.59-.403a2.09 2.09 0 0 1 .792-.142c.408 0 .736.084.985.254.249.169.438.393.567.672l-.739.403a.963.963 0 0 0-.298-.396c-.125-.104-.296-.157-.515-.157-.284 0-.503.082-.657.247-.15.164-.224.388-.224.672v.642c0 .278.074.502.224.672.154.164.378.246.671.246.229 0 .411-.052.545-.157.14-.104.252-.244.336-.418l.717.426a1.636 1.636 0 0 1-.59.672c-.258.169-.597.253-1.015.253ZM349.221 119.915c-.234 0-.416-.057-.545-.172a.784.784 0 0 1-.224-.493h-.037a.977.977 0 0 1-.411.56c-.204.13-.456.194-.754.194-.388 0-.697-.102-.926-.306-.229-.204-.343-.487-.343-.851 0-.776.57-1.164 1.709-1.164h.68v-.254c0-.244-.06-.428-.179-.553-.12-.124-.314-.186-.583-.186-.244 0-.44.047-.59.141a1.336 1.336 0 0 0-.38.366l-.545-.463c.119-.214.311-.393.574-.537.269-.149.615-.224 1.038-.224.508 0 .904.119 1.187.358.289.234.433.585.433 1.053v1.814h.456v.717h-.56Zm-1.65-.568a.968.968 0 0 0 .567-.156.514.514 0 0 0 .232-.441v-.515h-.657c-.523 0-.784.164-.784.493v.149a.4.4 0 0 0 .172.351c.114.08.271.119.47.119ZM350.599 119.161h.956v-2.344h-.956v-.755h1.911v1.053h.06a2.12 2.12 0 0 1 .142-.388c.065-.129.144-.241.239-.336.099-.1.219-.179.358-.239.14-.06.306-.09.5-.09h.419v.896h-.792c-.289 0-.515.085-.679.254a.892.892 0 0 0-.247.65v1.299h1.337v.754h-3.248v-.754ZM357.525 119.235h-.053a1.398 1.398 0 0 1-.433.56c-.179.14-.418.209-.716.209-.219 0-.421-.039-.605-.119a1.286 1.286 0 0 1-.463-.373 1.853 1.853 0 0 1-.299-.635 3.404 3.404 0 0 1-.104-.888c0-.677.134-1.182.403-1.516.269-.333.625-.5 1.068-.5.298 0 .537.07.716.209.184.139.329.326.433.56h.053v-2.352h.955v5.525h-.955v-.68Zm-.799.008c.109 0 .211-.013.306-.037a.867.867 0 0 0 .254-.12.558.558 0 0 0 .171-.201.614.614 0 0 0 .068-.292v-1.209a.568.568 0 0 0-.068-.284.48.48 0 0 0-.171-.201.672.672 0 0 0-.254-.12 1.01 1.01 0 0 0-.306-.045c-.279 0-.496.085-.65.254-.149.169-.224.401-.224.695v.612c0 .293.075.525.224.694.154.169.371.254.65.254ZM364.858 119.586l-.672-.455.873-1.165-1.336-.455.246-.747 1.322.463v-1.411h.836v1.411l1.321-.463.247.747-1.337.455.874 1.165-.672.455-.851-1.164-.851 1.164ZM369.334 119.586l-.672-.455.874-1.165-1.336-.455.246-.747 1.321.463v-1.411h.837v1.411l1.321-.463.246.747-1.336.455.873 1.165-.671.455-.852-1.164-.851 1.164ZM373.811 119.586l-.672-.455.874-1.165-1.337-.455.247-.747 1.321.463v-1.411h.836v1.411l1.322-.463.246.747-1.336.455.873 1.165-.672.455-.851-1.164-.851 1.164ZM378.288 119.586l-.672-.455.873-1.165-1.336-.455.246-.747 1.322.463v-1.411h.836v1.411l1.321-.463.247.747-1.337.455.874 1.165-.672.455-.851-1.164-.851 1.164ZM389.958 119.915h-3.673v-.911l1.673-1.426c.278-.239.485-.455.619-.649.135-.2.202-.411.202-.635v-.075c0-.249-.07-.438-.209-.567-.14-.13-.334-.194-.583-.194-.273 0-.482.074-.627.224a1.308 1.308 0 0 0-.313.552l-.851-.321c.054-.169.132-.331.231-.485.105-.159.232-.299.381-.418.154-.12.336-.214.545-.284.209-.075.448-.112.717-.112.278 0 .525.04.739.12.219.074.403.181.552.321.149.134.261.296.336.485.08.189.12.396.12.62 0 .214-.035.41-.105.589-.065.18-.157.351-.276.515-.12.16-.261.314-.426.463a7.77 7.77 0 0 1-.522.448l-1.135.919h2.605v.821ZM392.36 116.809c.313 0 .542-.062.686-.187a.584.584 0 0 0 .224-.47v-.052c0-.214-.072-.381-.216-.5-.139-.12-.334-.18-.582-.18a1.18 1.18 0 0 0-.628.165 1.448 1.448 0 0 0-.462.463l-.635-.568c.09-.119.189-.231.299-.336a1.75 1.75 0 0 1 .38-.276c.145-.08.304-.142.478-.187.174-.045.373-.067.597-.067.264 0 .506.032.725.097.224.06.413.149.567.269.159.119.281.264.366.433.089.164.134.351.134.56a1.12 1.12 0 0 1-.306.799 1.124 1.124 0 0 1-.321.246 1.44 1.44 0 0 1-.388.142v.037c.154.03.298.08.433.15.134.064.251.149.351.253.099.105.179.232.239.381.059.145.089.309.089.493a1.376 1.376 0 0 1-.545 1.112 1.86 1.86 0 0 1-.619.314 2.87 2.87 0 0 1-.807.104c-.249 0-.47-.027-.664-.082a1.883 1.883 0 0 1-.904-.515 3.24 3.24 0 0 1-.291-.366l.724-.56c.125.209.272.381.441.516.174.134.411.201.709.201.299 0 .528-.067.687-.201.164-.14.246-.331.246-.575v-.06c0-.239-.087-.421-.261-.545-.174-.129-.42-.194-.739-.194h-.523v-.814h.516ZM397.426 119.915v-1.008h-2.412v-.836l2.128-3.367h1.217v3.441h.702v.762h-.702v1.008h-.933Zm-1.613-1.77h1.613v-2.486h-.06l-1.553 2.486ZM403.149 115.555h-2.389l-.127 1.747h.06c.06-.11.125-.209.194-.299.07-.094.15-.174.239-.239.095-.064.199-.114.314-.149.119-.035.256-.052.41-.052.219 0 .426.037.62.112a1.43 1.43 0 0 1 .844.836c.084.204.127.435.127.694 0 .259-.045.498-.135.717a1.573 1.573 0 0 1-.381.575 1.72 1.72 0 0 1-.612.373c-.239.09-.515.134-.828.134a2.41 2.41 0 0 1-.657-.082 1.789 1.789 0 0 1-.501-.209 1.888 1.888 0 0 1-.38-.306 2.543 2.543 0 0 1-.284-.366l.709-.56c.06.1.125.195.194.284.075.085.157.159.247.224.089.065.189.117.298.157.115.035.244.052.388.052.299 0 .526-.079.68-.239.159-.164.239-.388.239-.672v-.059c0-.274-.08-.488-.239-.642-.159-.155-.383-.232-.672-.232-.219 0-.398.042-.538.127-.134.08-.243.167-.328.261l-.799-.112.194-2.926h3.113v.851ZM305.808 146.741h1.204l1.612 3.934h.064l1.612-3.934h1.203v5.43h-.944v-3.731h-.05l-1.501 3.715h-.705l-1.5-3.723h-.051v3.739h-.944v-5.43ZM313.129 153.698a1.973 1.973 0 0 1-.626-.101l.223-.748c.139.041.264.06.373.059a.46.46 0 0 0 .289-.104.727.727 0 0 0 .215-.329l.082-.22-1.476-4.157h1.018l.938 3.076h.043l.941-3.076h1.02l-1.63 4.566c-.076.215-.177.4-.302.554-.126.155-.28.274-.462.355-.18.083-.396.125-.646.125ZM320.462 152.25c-.407 0-.756-.089-1.047-.268a1.785 1.785 0 0 1-.671-.739 2.444 2.444 0 0 1-.233-1.093c0-.413.079-.778.238-1.095.159-.318.384-.565.674-.742.291-.179.636-.268 1.034-.268.33 0 .623.061.877.183.256.12.461.291.613.512.152.219.238.475.259.769h-.917a.877.877 0 0 0-.265-.491c-.138-.132-.323-.199-.554-.199a.866.866 0 0 0-.517.159 1.029 1.029 0 0 0-.348.451 1.843 1.843 0 0 0-.121.705c0 .278.04.517.121.716.082.198.196.351.343.459a.873.873 0 0 0 .522.159.871.871 0 0 0 .379-.08.753.753 0 0 0 .284-.236.9.9 0 0 0 .156-.373h.917a1.597 1.597 0 0 1-.254.766 1.508 1.508 0 0 1-.599.519c-.253.124-.55.186-.891.186ZM324.166 152.253c-.258 0-.49-.046-.697-.138a1.14 1.14 0 0 1-.488-.414 1.211 1.211 0 0 1-.177-.673c0-.23.042-.42.127-.57.085-.15.2-.271.347-.361a1.76 1.76 0 0 1 .496-.204 3.97 3.97 0 0 1 .575-.103c.239-.025.432-.047.581-.067a.865.865 0 0 0 .323-.095c.069-.044.104-.112.104-.204v-.016c0-.2-.059-.354-.178-.464-.118-.11-.289-.164-.512-.164-.235 0-.421.051-.559.153a.768.768 0 0 0-.276.364l-.896-.128a1.43 1.43 0 0 1 .35-.62c.163-.168.362-.293.597-.377.235-.084.495-.127.779-.127.196 0 .392.023.586.069.194.046.372.122.533.228.161.104.29.247.387.427.099.18.148.406.148.676v2.726h-.922v-.56h-.032a1.17 1.17 0 0 1-.642.554 1.575 1.575 0 0 1-.554.088Zm.25-.705c.192 0 .359-.038.501-.114a.85.85 0 0 0 .326-.308.78.78 0 0 0 .116-.416v-.48a.441.441 0 0 1-.153.069c-.071.021-.151.04-.239.055-.088.016-.176.03-.262.043l-.226.032a1.66 1.66 0 0 0-.384.095.633.633 0 0 0-.268.186.453.453 0 0 0-.098.302c0 .177.064.31.193.4.129.09.294.136.494.136ZM327.282 152.171v-4.073h.93v.679h.043c.074-.235.201-.416.381-.544a1.05 1.05 0 0 1 .623-.193 2.37 2.37 0 0 1 .345.026v.883a1.057 1.057 0 0 0-.194-.037 1.82 1.82 0 0 0-.251-.018.97.97 0 0 0-.472.114.824.824 0 0 0-.326.31.867.867 0 0 0-.12.458v2.395h-.959ZM331.585 152.242c-.32 0-.606-.082-.859-.246a1.679 1.679 0 0 1-.599-.716c-.147-.313-.22-.693-.22-1.14 0-.453.074-.835.223-1.146.15-.312.352-.548.607-.708.254-.16.538-.241.851-.241.238 0 .435.041.588.122.154.08.276.176.366.289.09.112.16.217.21.316h.039v-2.031h.963v5.43h-.944v-.642h-.058c-.05.099-.121.204-.215.315-.094.11-.217.204-.371.281a1.281 1.281 0 0 1-.581.117Zm.268-.787a.83.83 0 0 0 .52-.165c.143-.111.251-.266.326-.464a1.97 1.97 0 0 0 .111-.692c0-.263-.037-.492-.111-.686a.983.983 0 0 0-.324-.454.839.839 0 0 0-.522-.161.845.845 0 0 0-.536.167 1.006 1.006 0 0 0-.323.461 1.923 1.923 0 0 0-.109.673c0 .255.036.482.109.682.074.198.183.354.326.469.145.113.323.17.533.17ZM353.387 152.274c-.436 0-.811-.111-1.124-.331-.311-.223-.55-.544-.718-.963-.166-.421-.249-.927-.249-1.519.001-.592.085-1.096.251-1.511.168-.417.408-.736.719-.955.313-.219.687-.328 1.121-.328.435 0 .809.109 1.122.328.313.219.552.538.718.955.168.417.252.921.252 1.511 0 .594-.084 1.101-.252 1.522-.166.419-.405.739-.718.96-.311.22-.685.331-1.122.331Zm0-.83c.34 0 .608-.167.804-.501.198-.336.297-.83.297-1.482 0-.431-.045-.794-.136-1.087-.09-.293-.217-.514-.381-.663a.838.838 0 0 0-.584-.225c-.337 0-.604.168-.8.504-.196.334-.295.824-.297 1.471-.002.433.041.797.13 1.092.09.295.217.518.381.668.165.149.36.223.586.223ZM356.36 152.171v-.711l1.885-1.848c.18-.182.331-.344.451-.485.12-.141.21-.278.27-.411.06-.133.09-.274.09-.424a.798.798 0 0 0-.116-.44.784.784 0 0 0-.321-.287 1.037 1.037 0 0 0-.464-.1.954.954 0 0 0-.469.111.76.76 0 0 0-.313.31.99.99 0 0 0-.109.48h-.936c0-.345.079-.644.236-.899.158-.254.374-.451.65-.591.277-.14.595-.209.954-.209.364 0 .684.068.96.204.276.136.49.322.642.559.153.237.23.507.23.811 0 .204-.039.403-.116.6a2.566 2.566 0 0 1-.411.652c-.195.238-.468.527-.82.867l-.935.952v.037h2.364v.822h-3.722ZM363.224 146.486l-1.75 6.501h-.84l1.75-6.501h.84ZM365.775 152.245c-.382 0-.721-.066-1.018-.196a1.692 1.692 0 0 1-.7-.547 1.404 1.404 0 0 1-.273-.808h.996a.66.66 0 0 0 .146.384.874.874 0 0 0 .353.252c.147.06.311.09.493.09.194 0 .367-.033.517-.101a.845.845 0 0 0 .353-.286.708.708 0 0 0 .124-.421.726.726 0 0 0-.127-.435.845.845 0 0 0-.376-.294 1.469 1.469 0 0 0-.589-.107h-.48v-.758h.48c.189 0 .354-.032.496-.098a.792.792 0 0 0 .336-.276.71.71 0 0 0 .12-.416.726.726 0 0 0-.104-.4.701.701 0 0 0-.294-.268.961.961 0 0 0-.443-.095c-.166 0-.32.03-.461.09a.847.847 0 0 0-.342.257.645.645 0 0 0-.138.392h-.946c.007-.304.094-.571.262-.8.17-.232.396-.412.679-.541.283-.131.6-.196.952-.196.362 0 .677.068.943.204.269.134.477.315.623.543.147.228.221.48.221.756.001.306-.089.562-.271.769-.18.206-.417.342-.71.405v.043c.381.053.674.194.877.424.205.228.307.512.305.851 0 .304-.087.576-.26.817a1.723 1.723 0 0 1-.71.562 2.485 2.485 0 0 1-1.034.204ZM370.696 152.274c-.437 0-.811-.111-1.124-.331-.311-.223-.551-.544-.719-.963-.166-.421-.249-.927-.249-1.519.002-.592.086-1.096.252-1.511.168-.417.408-.736.719-.955.312-.219.686-.328 1.121-.328.435 0 .809.109 1.122.328.312.219.552.538.718.955.168.417.252.921.252 1.511 0 .594-.084 1.101-.252 1.522-.166.419-.406.739-.718.96-.312.22-.685.331-1.122.331Zm0-.83c.339 0 .607-.167.803-.501.198-.336.297-.83.297-1.482 0-.431-.045-.794-.135-1.087-.09-.293-.217-.514-.382-.663a.834.834 0 0 0-.583-.225c-.338 0-.604.168-.801.504-.196.334-.295.824-.297 1.471-.001.433.042.797.13 1.092.091.295.218.518.382.668.165.149.36.223.586.223ZM308.624 141.875h-.438a.923.923 0 0 0-.37-.573.977.977 0 0 0-.302-.148 1.206 1.206 0 0 0-.346-.05c-.22 0-.418.056-.596.167-.177.11-.318.274-.422.489-.104.216-.156.48-.156.794 0 .313.052.578.156.793.104.216.245.379.422.49.178.111.376.166.596.166.12 0 .235-.016.346-.049a.998.998 0 0 0 .302-.147.945.945 0 0 0 .234-.242.953.953 0 0 0 .136-.332h.438a1.46 1.46 0 0 1-.18.496 1.358 1.358 0 0 1-.762.605c-.16.053-.332.079-.514.079-.309 0-.584-.075-.824-.226a1.549 1.549 0 0 1-.567-.643c-.138-.278-.207-.608-.207-.99s.069-.712.207-.99c.137-.278.327-.493.567-.643.24-.151.515-.227.824-.227.182 0 .354.027.514.08.161.053.307.131.437.233.129.102.238.225.325.371.087.145.147.311.18.497ZM310.075 144.427c-.172 0-.328-.032-.469-.097a.812.812 0 0 1-.334-.284.808.808 0 0 1-.123-.453c0-.155.03-.282.091-.378a.655.655 0 0 1 .246-.23c.103-.055.216-.097.34-.124.124-.028.25-.05.376-.067.165-.021.299-.037.401-.048a.601.601 0 0 0 .226-.058c.049-.027.073-.074.073-.141v-.014c0-.175-.048-.31-.143-.407-.095-.097-.238-.145-.43-.145-.199 0-.355.044-.468.131a.774.774 0 0 0-.239.279l-.396-.141a.955.955 0 0 1 .283-.386 1.07 1.07 0 0 1 .389-.194c.141-.038.28-.056.417-.056.087 0 .187.01.301.031.114.02.224.062.33.126a.733.733 0 0 1 .267.288c.071.128.106.3.106.516v1.789h-.417v-.368h-.021a.811.811 0 0 1-.405.361c-.11.047-.243.07-.401.07Zm.063-.374a.825.825 0 0 0 .417-.098.653.653 0 0 0 .347-.574v-.382c-.018.021-.057.041-.117.059a2.11 2.11 0 0 1-.205.044c-.076.012-.151.022-.224.032a8.3 8.3 0 0 0-.175.021c-.109.014-.21.037-.304.069a.517.517 0 0 0-.226.139.355.355 0 0 0-.085.251c0 .145.053.255.161.329.108.073.245.11.411.11ZM312.08 144.364v-2.715h.403v.41h.029a.654.654 0 0 1 .268-.327.79.79 0 0 1 .439-.126l.115.002c.046.001.08.003.104.006v.424a1.028 1.028 0 0 0-.097-.016.99.99 0 0 0-.158-.013.739.739 0 0 0-.353.083.607.607 0 0 0-.332.554v1.718h-.418ZM314.875 144.42c-.226 0-.426-.057-.599-.171a1.157 1.157 0 0 1-.407-.488 1.76 1.76 0 0 1-.147-.748c0-.285.049-.532.147-.742a1.14 1.14 0 0 1 .408-.486c.175-.114.376-.171.605-.171.177 0 .316.029.419.088a.743.743 0 0 1 .237.198c.055.073.098.133.129.18h.035v-1.336h.417v3.62h-.403v-.417h-.049a3.085 3.085 0 0 1-.131.187.784.784 0 0 1-.242.2.88.88 0 0 1-.419.086Zm.056-.374a.687.687 0 0 0 .425-.131.829.829 0 0 0 .263-.366c.06-.157.09-.338.09-.543 0-.202-.029-.38-.088-.532a.774.774 0 0 0-.262-.357.695.695 0 0 0-.428-.129.705.705 0 0 0-.441.136.819.819 0 0 0-.264.366 1.447 1.447 0 0 0-.086.516c0 .194.029.369.088.527.06.157.148.282.265.375a.69.69 0 0 0 .438.138ZM318.397 144.364v-3.62h.439v1.612h1.93v-1.612h.438v3.62h-.438v-1.619h-1.93v1.619h-.439ZM323.128 144.42a1.18 1.18 0 0 1-.645-.175 1.181 1.181 0 0 1-.431-.489 1.652 1.652 0 0 1-.154-.736c0-.282.051-.529.154-.74.103-.211.247-.375.431-.492.185-.116.4-.174.645-.174s.46.058.644.174c.185.117.328.281.431.492.103.211.155.458.155.74 0 .281-.052.526-.155.736a1.174 1.174 0 0 1-.431.489 1.175 1.175 0 0 1-.644.175Zm0-.374a.717.717 0 0 0 .46-.144.847.847 0 0 0 .267-.376 1.46 1.46 0 0 0 .086-.506c0-.181-.029-.35-.086-.507a.86.86 0 0 0-.267-.38.717.717 0 0 0-.46-.145.712.712 0 0 0-.459.145.844.844 0 0 0-.267.38 1.452 1.452 0 0 0-.087.507c0 .182.029.35.087.506a.832.832 0 0 0 .267.376c.12.096.273.144.459.144ZM325.412 140.744v3.62h-.417v-3.62h.417ZM327.201 144.42c-.226 0-.426-.057-.599-.171a1.155 1.155 0 0 1-.406-.488 1.76 1.76 0 0 1-.147-.748c0-.285.049-.532.147-.742.097-.21.234-.372.408-.486.174-.114.376-.171.604-.171a.84.84 0 0 1 .419.088.722.722 0 0 1 .237.198c.056.073.099.133.129.18h.036v-1.336h.417v3.62h-.403v-.417h-.05a2.38 2.38 0 0 1-.131.187.773.773 0 0 1-.242.2.877.877 0 0 1-.419.086Zm.057-.374a.684.684 0 0 0 .424-.131.821.821 0 0 0 .263-.366c.061-.157.091-.338.091-.543 0-.202-.03-.38-.089-.532a.779.779 0 0 0-.261-.357.697.697 0 0 0-.428-.129.707.707 0 0 0-.442.136.817.817 0 0 0-.263.366 1.447 1.447 0 0 0-.087.516c0 .194.029.369.088.527a.867.867 0 0 0 .266.375.689.689 0 0 0 .438.138ZM330.406 144.42c-.262 0-.487-.057-.677-.173a1.164 1.164 0 0 1-.437-.488 1.663 1.663 0 0 1-.152-.731c0-.279.051-.524.152-.736.103-.213.245-.379.428-.498.184-.12.398-.18.643-.18.142 0 .281.023.419.07.138.047.264.124.377.23a1.1 1.1 0 0 1 .27.417c.067.173.101.387.101.64v.177h-2.093v-.361h1.669a.893.893 0 0 0-.092-.41.697.697 0 0 0-.651-.389.744.744 0 0 0-.431.124.804.804 0 0 0-.277.318.934.934 0 0 0-.098.421v.24c0 .205.036.379.106.522a.768.768 0 0 0 .299.323c.127.073.275.11.444.11a.925.925 0 0 0 .297-.046.636.636 0 0 0 .231-.142.64.64 0 0 0 .151-.237l.403.114a.907.907 0 0 1-.214.36 1.03 1.03 0 0 1-.372.24 1.362 1.362 0 0 1-.496.085ZM332.164 144.364v-2.715h.403v.41h.029a.654.654 0 0 1 .268-.327.79.79 0 0 1 .439-.126l.115.002c.046.001.08.003.104.006v.424a1.028 1.028 0 0 0-.097-.016.99.99 0 0 0-.158-.013.742.742 0 0 0-.353.083.607.607 0 0 0-.332.554v1.718h-.418ZM351.336 144.364v-3.62h2.185v.389h-1.746v1.223h1.633v.389h-1.633v1.23h1.774v.389h-2.213ZM354.565 141.649l.651 1.11.65-1.11h.481l-.877 1.357.877 1.358h-.481l-.65-1.054-.651 1.054h-.48l.862-1.358-.862-1.357h.48ZM356.942 145.382v-3.733h.403v.431h.05c.03-.047.073-.107.127-.18a.743.743 0 0 1 .237-.198.853.853 0 0 1 .421-.088c.228 0 .43.057.604.171.174.114.31.276.408.486.098.21.147.457.147.742 0 .288-.049.537-.147.748-.098.21-.233.372-.406.488a1.064 1.064 0 0 1-.599.171.877.877 0 0 1-.419-.086.773.773 0 0 1-.242-.2 2.38 2.38 0 0 1-.131-.187h-.036v1.435h-.417Zm.41-2.376c0 .205.03.386.09.543a.83.83 0 0 0 .264.366.684.684 0 0 0 .424.131c.174 0 .32-.046.437-.138a.849.849 0 0 0 .265-.375c.06-.158.09-.333.09-.527 0-.191-.03-.363-.089-.516a.795.795 0 0 0-.263-.366.7.7 0 0 0-.44-.136.697.697 0 0 0-.428.129.779.779 0 0 0-.261.357c-.059.152-.089.33-.089.532ZM359.975 144.364v-2.715h.417v2.715h-.417Zm.212-3.168a.294.294 0 0 1-.21-.083.265.265 0 0 1-.087-.199c0-.078.029-.145.087-.2a.294.294 0 0 1 .21-.083c.082 0 .151.027.209.083a.263.263 0 0 1 .088.2.263.263 0 0 1-.088.199.288.288 0 0 1-.209.083ZM361.156 144.364v-2.715h.403v.41h.029a.654.654 0 0 1 .268-.327.79.79 0 0 1 .439-.126l.115.002c.046.001.08.003.104.006v.424a1.028 1.028 0 0 0-.097-.016.99.99 0 0 0-.158-.013.742.742 0 0 0-.353.083.607.607 0 0 0-.332.554v1.718h-.418ZM363.36 145.382a.892.892 0 0 1-.304-.05l.106-.367a.8.8 0 0 0 .268.028.323.323 0 0 0 .207-.104.847.847 0 0 0 .168-.299l.078-.212-1.004-2.729h.452l.75 2.163h.028l.749-2.163h.453l-1.152 3.111c-.052.14-.117.256-.193.348a.732.732 0 0 1-.606.274ZM368.435 144.364h-1.117v-3.62h1.166c.352 0 .652.072.902.217.25.144.441.351.574.621.133.268.2.59.2.965 0 .377-.067.701-.201.974-.135.271-.33.479-.587.625-.257.145-.569.218-.937.218Zm-.679-.389h.651c.299 0 .547-.058.744-.173.197-.116.343-.28.44-.493.097-.214.145-.468.145-.762a1.83 1.83 0 0 0-.143-.755 1.058 1.058 0 0 0-.428-.488c-.19-.114-.426-.171-.709-.171h-.7v2.842ZM371.638 144.427c-.172 0-.328-.032-.469-.097a.812.812 0 0 1-.334-.284.808.808 0 0 1-.123-.453c0-.155.03-.282.091-.378a.655.655 0 0 1 .246-.23c.103-.055.216-.097.339-.124.125-.028.251-.05.377-.067.165-.021.299-.037.401-.048a.601.601 0 0 0 .226-.058c.049-.027.073-.074.073-.141v-.014c0-.175-.048-.31-.143-.407-.095-.097-.238-.145-.43-.145-.199 0-.355.044-.468.131a.774.774 0 0 0-.239.279l-.396-.141a.955.955 0 0 1 .283-.386 1.07 1.07 0 0 1 .389-.194c.141-.038.28-.056.417-.056.087 0 .187.01.301.031.114.02.224.062.33.126a.733.733 0 0 1 .267.288c.071.128.106.3.106.516v1.789h-.417v-.368h-.021a.822.822 0 0 1-.405.361c-.11.047-.243.07-.401.07Zm.063-.374a.825.825 0 0 0 .417-.098.644.644 0 0 0 .258-.251.637.637 0 0 0 .089-.323v-.382c-.018.021-.057.041-.117.059a2.11 2.11 0 0 1-.205.044c-.076.012-.151.022-.224.032a8.3 8.3 0 0 0-.175.021c-.109.014-.21.037-.304.069a.517.517 0 0 0-.226.139.355.355 0 0 0-.085.251c0 .145.053.255.16.329.109.073.246.11.412.11ZM374.824 141.649v.353h-1.407v-.353h1.407Zm-.997-.651h.417v2.588a.53.53 0 0 0 .052.265c.035.058.08.097.134.117a.7.7 0 0 0 .288.021l.071-.014.085.375a.895.895 0 0 1-.119.031.86.86 0 0 1-.193.018.835.835 0 0 1-.346-.076.692.692 0 0 1-.279-.231.668.668 0 0 1-.11-.393v-2.701ZM376.561 144.42a1.27 1.27 0 0 1-.677-.173 1.164 1.164 0 0 1-.437-.488 1.663 1.663 0 0 1-.152-.731c0-.279.051-.524.152-.736.103-.213.245-.379.428-.498.184-.12.398-.18.643-.18.142 0 .281.023.419.07a1.046 1.046 0 0 1 .647.647c.067.173.101.387.101.64v.177h-2.093v-.361h1.669a.893.893 0 0 0-.092-.41.697.697 0 0 0-.651-.389.744.744 0 0 0-.431.124.814.814 0 0 0-.278.318.946.946 0 0 0-.097.421v.24c0 .205.036.379.106.522a.768.768 0 0 0 .299.323c.127.073.275.11.444.11a.925.925 0 0 0 .297-.046.636.636 0 0 0 .231-.142.625.625 0 0 0 .15-.237l.403.114a.884.884 0 0 1-.214.36c-.1.103-.223.183-.371.24a1.365 1.365 0 0 1-.496.085Z"
      fill="#fff"
    />
  </g>
  <rect
    x="89.5"
    y="12.5"
    width="99"
    height="63"
    rx="9.5"
    fill="#F2F6FA"
    stroke="#D4E1ED"
  />
  <rect x="101" y="42" width="76" height="8" rx="4" fill="#D7E0EA" />
  <rect x="101" y="58" width="76" height="8" rx="4" fill="#D7E0EA" />
  <rect
    x="31.5"
    y="88.5"
    width="99"
    height="63"
    rx="9.5"
    fill="#F2F6FA"
    stroke="#D4E1ED"
  />
  <rect x="43" y="118" width="76" height="8" rx="4" fill="#D7E0EA" />
  <rect x="43" y="134" width="76" height="8" rx="4" fill="#D7E0EA" />
  <rect
    x="143.5"
    y="88.5"
    width="99"
    height="63"
    rx="9.5"
    fill="#F2F6FA"
    stroke="#D4E1ED"
  />
  <rect x="155" y="118" width="76" height="8" rx="4" fill="#D7E0EA" />
  <rect x="155" y="134" width="76" height="8" rx="4" fill="#D7E0EA" />
  <rect
    x="31.5"
    y="164.5"
    width="99"
    height="63"
    rx="9.5"
    fill="#F2F6FA"
    stroke="#D4E1ED"
  />
  <rect x="43" y="194" width="76" height="8" rx="4" fill="#D7E0EA" />
  <rect x="43" y="210" width="76" height="8" rx="4" fill="#D7E0EA" />
  <rect
    x="89.5"
    y="12.5"
    width="99"
    height="63"
    rx="9.5"
    fill="#F2F6FA"
    stroke="#D4E1ED"
  />
  <rect x="101" y="42" width="76" height="8" rx="4" fill="#D7E0EA" />
  <rect x="101" y="58" width="76" height="8" rx="4" fill="#D7E0EA" />
  <rect
    x="31.5"
    y="88.5"
    width="99"
    height="63"
    rx="9.5"
    fill="#F2F6FA"
    stroke="#D4E1ED"
  />
  <rect x="43" y="118" width="76" height="8" rx="4" fill="#D7E0EA" />
  <rect x="43" y="134" width="76" height="8" rx="4" fill="#D7E0EA" />
  <rect
    x="143.5"
    y="88.5"
    width="99"
    height="63"
    rx="9.5"
    fill="#F2F6FA"
    stroke="#D4E1ED"
  />
  <rect x="155" y="118" width="76" height="8" rx="4" fill="#D7E0EA" />
  <rect x="155" y="134" width="76" height="8" rx="4" fill="#D7E0EA" />
  <rect
    x="31.5"
    y="164.5"
    width="99"
    height="63"
    rx="9.5"
    fill="#F2F6FA"
    stroke="#D4E1ED"
  />
  <rect x="43" y="194" width="76" height="8" rx="4" fill="#D7E0EA" />
  <rect x="43" y="210" width="76" height="8" rx="4" fill="#D7E0EA" />
  <rect
    x="143.5"
    y="164.5"
    width="99"
    height="63"
    rx="9.5"
    fill="#F2F6FA"
    stroke="#D4E1ED"
  />
  <path
    d="M103.4 32.096a2.16 2.16 0 0 1-.944-.192 1.792 1.792 0 0 1-.664-.568 2.632 2.632 0 0 1-.384-.904 5.633 5.633 0 0 1-.12-1.224c0-.453.04-.859.12-1.216a2.63 2.63 0 0 1 .384-.912c.176-.245.397-.432.664-.56.267-.133.581-.2.944-.2.725 0 1.259.253 1.6.76.341.507.512 1.216.512 2.128 0 .912-.171 1.621-.512 2.128-.341.507-.875.76-1.6.76Zm0-.856a.98.98 0 0 0 .472-.104.817.817 0 0 0 .304-.312c.08-.133.136-.296.168-.488a3.57 3.57 0 0 0 .056-.656v-.952c0-.48-.075-.859-.224-1.136-.144-.277-.403-.416-.776-.416s-.635.139-.784.416c-.144.277-.216.656-.216 1.136v.96c0 .48.072.859.216 1.136.149.277.411.416.784.416ZM106.397 31.192h1.264V28.68h-1.344v-.808h1.344V27.2c0-.165.021-.315.064-.448a.91.91 0 0 1 .216-.352.932.932 0 0 1 .36-.232c.149-.059.323-.088.52-.088h1.392v.808h-1.528v.984h1.528v.808h-1.528v2.512h1.344V32h-3.632v-.808ZM111.194 31.192h1.264V28.68h-1.344v-.808h1.344V27.2c0-.165.021-.315.064-.448a.91.91 0 0 1 .216-.352.932.932 0 0 1 .36-.232c.149-.059.323-.088.52-.088h1.392v.808h-1.528v.984h1.528v.808h-1.528v2.512h1.344V32h-3.632v-.808ZM117.887 32.096c-.331 0-.624-.05-.88-.152a1.775 1.775 0 0 1-.648-.432 1.895 1.895 0 0 1-.392-.672 2.764 2.764 0 0 1-.136-.896c0-.336.045-.637.136-.904a1.99 1.99 0 0 1 .4-.68c.17-.187.376-.33.616-.432.245-.101.52-.152.824-.152.298 0 .568.05.808.152.24.096.442.235.608.416.17.181.301.4.392.656.09.256.136.539.136.848v.336h-2.896v.104c0 .299.093.541.28.728.186.181.448.272.784.272.256 0 .474-.05.656-.152.186-.107.341-.245.464-.416l.584.584c-.15.219-.368.405-.656.56-.283.155-.643.232-1.08.232Zm-.072-3.568c-.288 0-.52.09-.696.272-.176.181-.264.421-.264.72v.056h1.872v-.072c0-.299-.083-.536-.248-.712-.16-.176-.382-.264-.664-.264ZM120.788 31.192h1.024V28.68h-1.024v-.808h2.048V29h.064c.037-.144.088-.283.152-.416.069-.139.154-.259.256-.36.106-.107.234-.192.384-.256.149-.064.328-.096.536-.096h.448v.96h-.848c-.31 0-.552.09-.728.272a.958.958 0 0 0-.264.696v1.392h1.432V32h-3.48v-.808ZM45.4 108.096a2.16 2.16 0 0 1-.944-.192 1.794 1.794 0 0 1-.664-.568 2.643 2.643 0 0 1-.384-.904 5.628 5.628 0 0 1-.12-1.224c0-.453.04-.859.12-1.216.085-.363.213-.667.384-.912.176-.245.397-.432.664-.56.267-.133.581-.2.944-.2.725 0 1.259.253 1.6.76.341.507.512 1.216.512 2.128 0 .912-.17 1.621-.512 2.128-.341.507-.875.76-1.6.76Zm0-.856a.984.984 0 0 0 .472-.104.819.819 0 0 0 .304-.312c.08-.133.136-.296.168-.488a3.54 3.54 0 0 0 .056-.656v-.952c0-.48-.075-.859-.224-1.136-.144-.277-.403-.416-.776-.416s-.635.139-.784.416c-.144.277-.216.656-.216 1.136v.96c0 .48.072.859.216 1.136.15.277.41.416.784.416ZM48.397 107.192h1.264v-2.512h-1.344v-.808h1.344v-.672c0-.165.021-.315.064-.448a.908.908 0 0 1 .216-.352.933.933 0 0 1 .36-.232c.15-.059.323-.088.52-.088h1.392v.808h-1.528v.984h1.528v.808h-1.528v2.512h1.344V108h-3.632v-.808ZM53.194 107.192h1.264v-2.512h-1.344v-.808h1.344v-.672c0-.165.021-.315.064-.448a.908.908 0 0 1 .216-.352.933.933 0 0 1 .36-.232 1.41 1.41 0 0 1 .52-.088h1.392v.808h-1.528v.984h1.528v.808h-1.528v2.512h1.344V108h-3.632v-.808ZM59.887 108.096c-.331 0-.624-.051-.88-.152a1.765 1.765 0 0 1-.648-.432 1.915 1.915 0 0 1-.392-.672 2.772 2.772 0 0 1-.136-.896 2.8 2.8 0 0 1 .136-.904c.096-.267.229-.493.4-.68.17-.187.376-.331.616-.432.245-.101.52-.152.824-.152.298 0 .568.051.808.152.24.096.442.235.608.416.17.181.301.4.392.656.09.256.136.539.136.848v.336h-2.896v.104c0 .299.093.541.28.728.186.181.448.272.784.272.256 0 .474-.051.656-.152a1.45 1.45 0 0 0 .464-.416l.584.584c-.15.219-.368.405-.656.56-.283.155-.643.232-1.08.232Zm-.072-3.568c-.288 0-.52.091-.696.272-.176.181-.264.421-.264.72v.056h1.872v-.072c0-.299-.083-.536-.248-.712-.16-.176-.382-.264-.664-.264ZM62.788 107.192h1.024v-2.512h-1.024v-.808h2.048V105h.064c.037-.144.088-.283.152-.416a1.36 1.36 0 0 1 .256-.36c.106-.107.234-.192.384-.256.149-.064.328-.096.536-.096h.448v.96h-.848c-.31 0-.552.091-.728.272a.957.957 0 0 0-.264.696v1.392h1.432V108h-3.48v-.808ZM157.4 108.096a2.16 2.16 0 0 1-.944-.192 1.791 1.791 0 0 1-.664-.568 2.631 2.631 0 0 1-.384-.904 5.628 5.628 0 0 1-.12-1.224c0-.453.04-.859.12-1.216.085-.363.213-.667.384-.912.176-.245.397-.432.664-.56.267-.133.581-.2.944-.2.725 0 1.259.253 1.6.76.341.507.512 1.216.512 2.128 0 .912-.171 1.621-.512 2.128-.341.507-.875.76-1.6.76Zm0-.856a.983.983 0 0 0 .472-.104.821.821 0 0 0 .304-.312c.08-.133.136-.296.168-.488.037-.197.056-.416.056-.656v-.952c0-.48-.075-.859-.224-1.136-.144-.277-.403-.416-.776-.416s-.635.139-.784.416c-.144.277-.216.656-.216 1.136v.96c0 .48.072.859.216 1.136.149.277.411.416.784.416ZM160.397 107.192h1.264v-2.512h-1.344v-.808h1.344v-.672c0-.165.021-.315.064-.448a.908.908 0 0 1 .216-.352.933.933 0 0 1 .36-.232 1.41 1.41 0 0 1 .52-.088h1.392v.808h-1.528v.984h1.528v.808h-1.528v2.512h1.344V108h-3.632v-.808ZM165.194 107.192h1.264v-2.512h-1.344v-.808h1.344v-.672c0-.165.021-.315.064-.448a.908.908 0 0 1 .216-.352.933.933 0 0 1 .36-.232 1.41 1.41 0 0 1 .52-.088h1.392v.808h-1.528v.984h1.528v.808h-1.528v2.512h1.344V108h-3.632v-.808ZM171.887 108.096c-.331 0-.624-.051-.88-.152a1.765 1.765 0 0 1-.648-.432 1.9 1.9 0 0 1-.392-.672 2.764 2.764 0 0 1-.136-.896c0-.336.045-.637.136-.904a1.99 1.99 0 0 1 .4-.68c.17-.187.376-.331.616-.432.245-.101.52-.152.824-.152.298 0 .568.051.808.152.24.096.442.235.608.416.17.181.301.4.392.656.09.256.136.539.136.848v.336h-2.896v.104c0 .299.093.541.28.728.186.181.448.272.784.272.256 0 .474-.051.656-.152a1.46 1.46 0 0 0 .464-.416l.584.584c-.15.219-.368.405-.656.56-.283.155-.643.232-1.08.232Zm-.072-3.568c-.288 0-.52.091-.696.272-.176.181-.264.421-.264.72v.056h1.872v-.072c0-.299-.083-.536-.248-.712-.16-.176-.382-.264-.664-.264ZM174.788 107.192h1.024v-2.512h-1.024v-.808h2.048V105h.064a2.25 2.25 0 0 1 .152-.416c.069-.139.154-.259.256-.36a1.19 1.19 0 0 1 .384-.256c.149-.064.328-.096.536-.096h.448v.96h-.848c-.31 0-.552.091-.728.272a.957.957 0 0 0-.264.696v1.392h1.432V108h-3.48v-.808ZM45.4 184.096a2.16 2.16 0 0 1-.944-.192 1.794 1.794 0 0 1-.664-.568 2.643 2.643 0 0 1-.384-.904 5.628 5.628 0 0 1-.12-1.224c0-.453.04-.859.12-1.216.085-.363.213-.667.384-.912.176-.245.397-.432.664-.56.267-.133.581-.2.944-.2.725 0 1.259.253 1.6.76.341.507.512 1.216.512 2.128 0 .912-.17 1.621-.512 2.128-.341.507-.875.76-1.6.76Zm0-.856a.984.984 0 0 0 .472-.104.819.819 0 0 0 .304-.312c.08-.133.136-.296.168-.488a3.54 3.54 0 0 0 .056-.656v-.952c0-.48-.075-.859-.224-1.136-.144-.277-.403-.416-.776-.416s-.635.139-.784.416c-.144.277-.216.656-.216 1.136v.96c0 .48.072.859.216 1.136.15.277.41.416.784.416ZM48.397 183.192h1.264v-2.512h-1.344v-.808h1.344v-.672c0-.165.021-.315.064-.448a.908.908 0 0 1 .216-.352.933.933 0 0 1 .36-.232c.15-.059.323-.088.52-.088h1.392v.808h-1.528v.984h1.528v.808h-1.528v2.512h1.344V184h-3.632v-.808ZM53.194 183.192h1.264v-2.512h-1.344v-.808h1.344v-.672c0-.165.021-.315.064-.448a.908.908 0 0 1 .216-.352.933.933 0 0 1 .36-.232 1.41 1.41 0 0 1 .52-.088h1.392v.808h-1.528v.984h1.528v.808h-1.528v2.512h1.344V184h-3.632v-.808ZM59.887 184.096c-.331 0-.624-.051-.88-.152a1.765 1.765 0 0 1-.648-.432 1.915 1.915 0 0 1-.392-.672 2.772 2.772 0 0 1-.136-.896 2.8 2.8 0 0 1 .136-.904c.096-.267.229-.493.4-.68.17-.187.376-.331.616-.432.245-.101.52-.152.824-.152.298 0 .568.051.808.152.24.096.442.235.608.416.17.181.301.4.392.656.09.256.136.539.136.848v.336h-2.896v.104c0 .299.093.541.28.728.186.181.448.272.784.272.256 0 .474-.051.656-.152a1.45 1.45 0 0 0 .464-.416l.584.584c-.15.219-.368.405-.656.56-.283.155-.643.232-1.08.232Zm-.072-3.568c-.288 0-.52.091-.696.272-.176.181-.264.421-.264.72v.056h1.872v-.072c0-.299-.083-.536-.248-.712-.16-.176-.382-.264-.664-.264ZM62.788 183.192h1.024v-2.512h-1.024v-.808h2.048V181h.064c.037-.144.088-.283.152-.416a1.36 1.36 0 0 1 .256-.36c.106-.107.234-.192.384-.256.149-.064.328-.096.536-.096h.448v.96h-.848c-.31 0-.552.091-.728.272a.957.957 0 0 0-.264.696v1.392h1.432V184h-3.48v-.808ZM157.4 184.096a2.16 2.16 0 0 1-.944-.192 1.791 1.791 0 0 1-.664-.568 2.631 2.631 0 0 1-.384-.904 5.628 5.628 0 0 1-.12-1.224c0-.453.04-.859.12-1.216.085-.363.213-.667.384-.912.176-.245.397-.432.664-.56.267-.133.581-.2.944-.2.725 0 1.259.253 1.6.76.341.507.512 1.216.512 2.128 0 .912-.171 1.621-.512 2.128-.341.507-.875.76-1.6.76Zm0-.856a.983.983 0 0 0 .472-.104.821.821 0 0 0 .304-.312c.08-.133.136-.296.168-.488.037-.197.056-.416.056-.656v-.952c0-.48-.075-.859-.224-1.136-.144-.277-.403-.416-.776-.416s-.635.139-.784.416c-.144.277-.216.656-.216 1.136v.96c0 .48.072.859.216 1.136.149.277.411.416.784.416ZM160.397 183.192h1.264v-2.512h-1.344v-.808h1.344v-.672c0-.165.021-.315.064-.448a.908.908 0 0 1 .216-.352.933.933 0 0 1 .36-.232 1.41 1.41 0 0 1 .52-.088h1.392v.808h-1.528v.984h1.528v.808h-1.528v2.512h1.344V184h-3.632v-.808ZM165.194 183.192h1.264v-2.512h-1.344v-.808h1.344v-.672c0-.165.021-.315.064-.448a.908.908 0 0 1 .216-.352.933.933 0 0 1 .36-.232 1.41 1.41 0 0 1 .52-.088h1.392v.808h-1.528v.984h1.528v.808h-1.528v2.512h1.344V184h-3.632v-.808ZM171.887 184.096c-.331 0-.624-.051-.88-.152a1.765 1.765 0 0 1-.648-.432 1.9 1.9 0 0 1-.392-.672 2.764 2.764 0 0 1-.136-.896c0-.336.045-.637.136-.904a1.99 1.99 0 0 1 .4-.68c.17-.187.376-.331.616-.432.245-.101.52-.152.824-.152.298 0 .568.051.808.152.24.096.442.235.608.416.17.181.301.4.392.656.09.256.136.539.136.848v.336h-2.896v.104c0 .299.093.541.28.728.186.181.448.272.784.272.256 0 .474-.051.656-.152a1.46 1.46 0 0 0 .464-.416l.584.584c-.15.219-.368.405-.656.56-.283.155-.643.232-1.08.232Zm-.072-3.568c-.288 0-.52.091-.696.272-.176.181-.264.421-.264.72v.056h1.872v-.072c0-.299-.083-.536-.248-.712-.16-.176-.382-.264-.664-.264ZM174.788 183.192h1.024v-2.512h-1.024v-.808h2.048V181h.064a2.25 2.25 0 0 1 .152-.416c.069-.139.154-.259.256-.36a1.19 1.19 0 0 1 .384-.256c.149-.064.328-.096.536-.096h.448v.96h-.848c-.31 0-.552.091-.728.272a.957.957 0 0 0-.264.696v1.392h1.432V184h-3.48v-.808Z"
    fill="#000"
  />
  <rect x="155" y="194" width="76" height="8" rx="4" fill="#D7E0EA" />
  <rect x="155" y="210" width="76" height="8" rx="4" fill="#D7E0EA" />
  <path
    d="M194 43.5h60.5c5.523 0 10 4.477 10 10v60c0 5.523 4.477 10 10 10H288"
    stroke="#C7C7C7"
    stroke-width="2"
    stroke-linecap="round"
    stroke-dasharray="1 6"
  />
  <g filter="url(#filter0_ddd_65_16)">
    <rect x="169" y="49" width="32" height="32" rx="16" fill="#1ABA5A" />
  </g>
  <path
    d="m182 69.2-4.2-4.2-1.4 1.4L182 72l12-12-1.4-1.4L182 69.2Z"
    fill="#fff"
  />
  <defs>
    <clipPath id="clip0_65_16">
      <rect x="292" y="74" width="146" height="92.079" rx="8" fill="#fff" />
    </clipPath>
    <filter
      id="filter0_ddd_65_16"
      x="136"
      y="33"
      width="98"
      height="98"
      filterUnits="userSpaceOnUse"
      color-interpolation-filters="sRGB"
    >
      <feFlood flood-opacity="0" result="BackgroundImageFix" />
      <feColorMatrix
        in="SourceAlpha"
        values="0 0 0 0 0 0 0 0 0 0 0 0 0 0 0 0 0 0 127 0"
        result="hardAlpha"
      />
      <feOffset dy="1.079" />
      <feGaussianBlur stdDeviation="3.573" />
      <feColorMatrix
        values="0 0 0 0 0.0196078 0 0 0 0 0.0941176 0 0 0 0 0.25098 0 0 0 0.0377807 0"
      />
      <feBlend in2="BackgroundImageFix" result="effect1_dropShadow_65_16" />
      <feColorMatrix
        in="SourceAlpha"
        values="0 0 0 0 0 0 0 0 0 0 0 0 0 0 0 0 0 0 127 0"
        result="hardAlpha"
      />
      <feOffset dy="3.8" />
      <feGaussianBlur stdDeviation="6.725" />
      <feColorMatrix
        values="0 0 0 0 0.0196078 0 0 0 0 0.0941176 0 0 0 0 0.25098 0 0 0 0.0522616 0"
      />
      <feBlend
        in2="effect1_dropShadow_65_16"
        result="effect2_dropShadow_65_16"
      />
      <feColorMatrix
        in="SourceAlpha"
        values="0 0 0 0 0 0 0 0 0 0 0 0 0 0 0 0 0 0 127 0"
        result="hardAlpha"
      />
      <feOffset dy="17" />
      <feGaussianBlur stdDeviation="16.5" />
      <feColorMatrix
        values="0 0 0 0 0.0196078 0 0 0 0 0.0941176 0 0 0 0 0.25098 0 0 0 0.07 0"
      />
      <feBlend
        in2="effect2_dropShadow_65_16"
        result="effect3_dropShadow_65_16"
      />
      <feBlend
        in="SourceGraphic"
        in2="effect3_dropShadow_65_16"
        result="shape"
      />
    </filter>
  </defs>
</svg>
