<svg fill="none" xmlns="http://www.w3.org/2000/svg" viewBox="0 0 470 240">
  <path
    d="M96 151c43.509-19.444 55.256-48.081 89.193-48.081 42.421 0 52.125 32.118 97.3 32.118C327.669 135.037 343.93 46 413 46"
    stroke="#003EDB"
    stroke-width="2"
  />
  <mask
    id="mask0_70_20"
    style="mask-type: alpha"
    maskUnits="userSpaceOnUse"
    x="96"
    y="46"
    width="317"
    height="148"
  >
    <path
      opacity=".3"
      d="M185.193 102.919c-33.937 0-45.684 28.637-89.193 48.081v43h317V46c-69.07 0-85.331 89.037-130.507 89.037-45.175 0-54.879-32.118-97.3-32.118Z"
      fill="#003EDB"
    />
  </mask>
  <g filter="url(#filter0_f_70_20)" mask="url(#mask0_70_20)">
    <path
      d="M284.5 139c36 2.339 45.5-55 83.5-77l-48.5-44.5L86.593 10 135 125c16.5 7.5 23.5-19.949 53.5-18 30 1.949 53.668 29.25 96 32Z"
      fill="#003EDB"
    />
  </g>
  <path
    d="M96 204c43.593-19.444 56.497-22.5 90.5-22.5 42.503 0 49.237 11 94.5 11 60.146 0 74-46 132-46"
    stroke="#00A3D7"
    stroke-width="2"
  />
  <rect x="91" y="144" width="11" height="11" rx="5.5" fill="#003EDB" />
  <rect x="91" y="197" width="11" height="11" rx="5.5" fill="#00A3D7" />
  <path
    d="M41.148 140v-11.636h4.363c.894 0 1.644.155 2.25.466.61.31 1.07.746 1.381 1.306.314.557.472 1.207.472 1.949 0 .746-.16 1.394-.478 1.943-.314.546-.778.968-1.392 1.267-.613.296-1.367.444-2.261.444h-3.108v-1.75h2.824c.523 0 .95-.072 1.284-.216a1.53 1.53 0 0 0 .739-.642c.162-.284.244-.633.244-1.046 0-.413-.082-.765-.244-1.057a1.553 1.553 0 0 0-.745-.67c-.333-.155-.763-.233-1.29-.233h-1.931V140h-2.108Zm6.011-5.273L50.04 140h-2.352l-2.83-5.273h2.302ZM54.882 140.17c-.875 0-1.631-.181-2.267-.545a3.69 3.69 0 0 1-1.46-1.557c-.342-.674-.512-1.468-.512-2.38 0-.898.17-1.686.511-2.364a3.868 3.868 0 0 1 1.444-1.591c.617-.383 1.342-.574 2.176-.574.538 0 1.045.087 1.523.261.48.171.905.436 1.272.796.371.36.663.818.875 1.375.212.553.318 1.212.318 1.977v.631H51.61v-1.386h5.182a2.216 2.216 0 0 0-.256-1.052c-.167-.31-.4-.555-.699-.733a1.965 1.965 0 0 0-1.034-.267c-.42 0-.79.103-1.108.307a2.114 2.114 0 0 0-.744.796 2.284 2.284 0 0 0-.267 1.074v1.21c0 .507.093.943.278 1.307.186.359.445.636.779.829.333.189.723.284 1.17.284.3 0 .57-.041.813-.125a1.81 1.81 0 0 0 .63-.38c.178-.167.313-.374.404-.62l1.92.216a2.994 2.994 0 0 1-.693 1.33 3.388 3.388 0 0 1-1.296.875c-.526.204-1.128.306-1.806.306ZM67.728 131.273 64.62 140h-2.273l-3.108-8.727h2.193l2.006 6.483h.091l2.011-6.483h2.188ZM72.398 140.17c-.875 0-1.63-.181-2.267-.545a3.689 3.689 0 0 1-1.46-1.557c-.341-.674-.512-1.468-.512-2.38 0-.898.17-1.686.512-2.364a3.867 3.867 0 0 1 1.443-1.591c.617-.383 1.343-.574 2.176-.574a4.41 4.41 0 0 1 1.523.261c.48.171.905.436 1.272.796.372.36.663.818.875 1.375.213.553.319 1.212.319 1.977v.631h-7.154v-1.386h5.182a2.216 2.216 0 0 0-.256-1.052c-.166-.31-.4-.555-.698-.733a1.965 1.965 0 0 0-1.035-.267c-.42 0-.79.103-1.108.307a2.114 2.114 0 0 0-.744.796 2.285 2.285 0 0 0-.267 1.074v1.21c0 .507.093.943.279 1.307.185.359.445.636.778.829.333.189.723.284 1.17.284.3 0 .57-.041.813-.125.242-.087.453-.214.63-.38.179-.167.313-.374.404-.62l1.92.216a2.994 2.994 0 0 1-.693 1.33 3.387 3.387 0 0 1-1.295.875c-.527.204-1.129.306-1.807.306ZM79.755 134.886V140H77.7v-8.727h1.966v1.483h.102c.2-.489.52-.877.96-1.165.443-.288.99-.432 1.642-.432.602 0 1.127.129 1.574.386.45.258.8.631 1.045 1.12.25.488.374 1.081.37 1.778V140H83.3v-5.239c0-.583-.152-1.039-.455-1.369-.299-.329-.714-.494-1.244-.494-.36 0-.68.079-.96.238a1.657 1.657 0 0 0-.654.677c-.155.295-.233.653-.233 1.073ZM92.691 136.33v-5.057h2.057V140h-1.994v-1.551h-.091c-.197.489-.521.888-.972 1.199-.447.31-.998.466-1.653.466-.572 0-1.078-.127-1.517-.381a2.651 2.651 0 0 1-1.023-1.119c-.246-.493-.37-1.087-.37-1.784v-5.557h2.058v5.238c0 .553.151.993.454 1.319.303.325.7.488 1.193.488.303 0 .597-.074.88-.221.285-.148.518-.368.7-.659.185-.296.278-.665.278-1.108ZM100.407 140.17c-.875 0-1.631-.181-2.267-.545a3.69 3.69 0 0 1-1.46-1.557c-.342-.674-.512-1.468-.512-2.38 0-.898.17-1.686.511-2.364a3.868 3.868 0 0 1 1.444-1.591c.617-.383 1.342-.574 2.176-.574.538 0 1.045.087 1.522.261.482.171.906.436 1.273.796.371.36.663.818.875 1.375.212.553.318 1.212.318 1.977v.631h-7.153v-1.386h5.182a2.215 2.215 0 0 0-.256-1.052c-.167-.31-.4-.555-.699-.733a1.963 1.963 0 0 0-1.034-.267c-.42 0-.79.103-1.108.307a2.114 2.114 0 0 0-.744.796 2.284 2.284 0 0 0-.267 1.074v1.21c0 .507.093.943.278 1.307.186.359.445.636.779.829.333.189.723.284 1.17.284.299 0 .57-.041.813-.125a1.81 1.81 0 0 0 .63-.38c.178-.167.313-.374.404-.62l1.92.216a2.991 2.991 0 0 1-.693 1.33 3.388 3.388 0 0 1-1.295.875c-.527.204-1.129.306-1.807.306Z"
    fill="#003EDB"
  />
  <path
    d="M12.148 193v-11.636h4.363c.894 0 1.644.155 2.25.466.61.31 1.07.746 1.381 1.306.314.557.472 1.207.472 1.949 0 .746-.16 1.394-.478 1.943-.314.546-.778.968-1.392 1.267-.613.296-1.367.444-2.261.444h-3.108v-1.75h2.824c.523 0 .95-.072 1.284-.216a1.53 1.53 0 0 0 .739-.642c.162-.284.244-.633.244-1.046 0-.413-.082-.765-.244-1.057a1.553 1.553 0 0 0-.745-.67c-.333-.155-.763-.233-1.29-.233h-1.931V193h-2.108Zm6.011-5.273L21.04 193h-2.352l-2.83-5.273h2.302ZM25.882 193.17c-.875 0-1.631-.181-2.267-.545a3.69 3.69 0 0 1-1.46-1.557c-.341-.674-.512-1.468-.512-2.38 0-.898.17-1.686.511-2.364a3.868 3.868 0 0 1 1.444-1.591c.617-.383 1.342-.574 2.176-.574.538 0 1.045.087 1.523.261.48.171.905.436 1.272.796.371.36.663.818.875 1.375.212.553.318 1.212.318 1.977v.631H22.61v-1.386h5.182a2.216 2.216 0 0 0-.256-1.052c-.167-.31-.4-.555-.699-.733a1.965 1.965 0 0 0-1.034-.267c-.42 0-.79.103-1.108.307a2.114 2.114 0 0 0-.744.796 2.284 2.284 0 0 0-.267 1.074v1.21c0 .507.093.943.278 1.307.186.359.445.636.779.829.333.189.723.284 1.17.284.3 0 .57-.041.813-.125a1.81 1.81 0 0 0 .63-.38c.178-.167.313-.374.404-.62l1.92.216a2.994 2.994 0 0 1-.693 1.33 3.388 3.388 0 0 1-1.296.875c-.526.204-1.128.306-1.806.306ZM31.182 196.273v-12h2.023v1.443h.12c.105-.212.255-.438.448-.676.194-.243.455-.449.784-.62.33-.174.75-.261 1.262-.261.674 0 1.282.172 1.824.517.545.341.977.847 1.295 1.517.322.667.483 1.485.483 2.455 0 .958-.157 1.772-.471 2.443-.315.67-.743 1.182-1.285 1.534a3.304 3.304 0 0 1-1.84.528c-.5 0-.915-.083-1.245-.25a2.52 2.52 0 0 1-.795-.602 3.875 3.875 0 0 1-.46-.676h-.086v4.648h-2.057Zm2.018-7.637c0 .565.079 1.059.238 1.483.163.425.396.756.699.995.307.234.678.352 1.114.352.454 0 .835-.121 1.142-.364.306-.246.538-.581.693-1.005.159-.428.239-.915.239-1.461 0-.541-.078-1.022-.233-1.443-.156-.42-.387-.75-.694-.988-.306-.239-.69-.358-1.147-.358-.44 0-.813.115-1.12.346-.306.231-.54.555-.699.972-.155.416-.233.907-.233 1.471ZM43.374 193.176a3.64 3.64 0 0 1-1.495-.295 2.443 2.443 0 0 1-1.045-.887c-.254-.39-.38-.871-.38-1.443 0-.492.09-.899.272-1.221.182-.322.43-.58.744-.773a3.775 3.775 0 0 1 1.063-.438 8.615 8.615 0 0 1 1.233-.221 51.61 51.61 0 0 0 1.244-.142c.318-.046.55-.114.693-.205.148-.095.222-.24.222-.437v-.034c0-.428-.127-.76-.38-.995-.255-.235-.62-.352-1.097-.352-.504 0-.904.11-1.2.33a1.631 1.631 0 0 0-.59.778l-1.92-.273c.15-.53.4-.973.75-1.329a3.26 3.26 0 0 1 1.278-.807 4.886 4.886 0 0 1 1.67-.273c.42 0 .84.049 1.256.148.417.098.797.261 1.142.488.345.224.621.529.83.915.212.387.318.87.318 1.449V193h-1.977v-1.199h-.069c-.125.243-.3.47-.528.682a2.551 2.551 0 0 1-.847.506c-.337.125-.733.187-1.187.187Zm.534-1.511c.413 0 .77-.082 1.074-.245a1.8 1.8 0 0 0 .699-.659c.166-.272.25-.57.25-.892v-1.028a.978.978 0 0 1-.33.148 4.758 4.758 0 0 1-.511.119c-.19.034-.377.064-.563.091l-.483.068c-.307.042-.581.11-.824.205a1.366 1.366 0 0 0-.573.397c-.14.167-.21.383-.21.648 0 .379.138.665.414.858.277.193.629.29 1.057.29ZM50.696 196.273c-.28 0-.54-.023-.779-.068a2.893 2.893 0 0 1-.562-.148l.477-1.602c.3.087.566.128.801.125a.984.984 0 0 0 .62-.222c.181-.14.335-.375.46-.705l.176-.471-3.165-8.909h2.182l2.011 6.591h.091l2.017-6.591h2.188l-3.494 9.784a3.91 3.91 0 0 1-.648 1.187 2.635 2.635 0 0 1-.989.762c-.386.178-.848.267-1.386.267ZM58.316 193v-8.727h1.966v1.483h.102c.182-.5.483-.89.904-1.171.42-.284.922-.426 1.505-.426.591 0 1.09.144 1.495.432.409.284.697.672.863 1.165h.091a2.38 2.38 0 0 1 .978-1.159c.462-.292 1.009-.438 1.642-.438.803 0 1.458.254 1.966.761.507.508.76 1.249.76 2.222V193h-2.062v-5.54c0-.541-.144-.937-.431-1.187a1.54 1.54 0 0 0-1.057-.381c-.496 0-.885.155-1.165.466-.276.307-.415.706-.415 1.199V193h-2.017v-5.625c0-.451-.136-.811-.409-1.08-.269-.268-.621-.403-1.057-.403-.295 0-.564.076-.807.227a1.586 1.586 0 0 0-.58.631 1.97 1.97 0 0 0-.215.943V193h-2.057ZM76.22 193.17c-.876 0-1.632-.181-2.268-.545a3.69 3.69 0 0 1-1.46-1.557c-.341-.674-.511-1.468-.511-2.38 0-.898.17-1.686.51-2.364a3.868 3.868 0 0 1 1.444-1.591c.617-.383 1.343-.574 2.176-.574.538 0 1.046.087 1.523.261.481.171.905.436 1.273.796.37.36.663.818.875 1.375.212.553.318 1.212.318 1.977v.631h-7.153v-1.386h5.181a2.216 2.216 0 0 0-.255-1.052c-.167-.31-.4-.555-.7-.733a1.965 1.965 0 0 0-1.033-.267c-.42 0-.79.103-1.108.307a2.114 2.114 0 0 0-.745.796 2.284 2.284 0 0 0-.267 1.074v1.21c0 .507.093.943.279 1.307.185.359.445.636.778.829.334.189.724.284 1.17.284.3 0 .57-.041.813-.125a1.81 1.81 0 0 0 .63-.38c.179-.167.313-.374.404-.62l1.92.216a2.994 2.994 0 0 1-.692 1.33 3.388 3.388 0 0 1-1.296.875c-.526.204-1.129.306-1.807.306ZM83.577 187.886V193H81.52v-8.727h1.966v1.483h.102c.2-.489.52-.877.96-1.165.444-.288.99-.432 1.642-.432.603 0 1.127.129 1.574.386.451.258.8.631 1.046 1.12.25.488.373 1.081.369 1.778V193h-2.057v-5.239c0-.583-.151-1.039-.454-1.369-.3-.329-.714-.494-1.245-.494-.36 0-.68.079-.96.238a1.658 1.658 0 0 0-.653.677c-.156.295-.233.653-.233 1.073ZM95.308 184.273v1.591H90.29v-1.591h5.017Zm-3.779-2.091h2.057v8.193c0 .277.042.489.125.636.087.144.201.243.341.296.14.053.296.079.466.079.129 0 .246-.009.352-.028.11-.019.194-.036.25-.051l.347 1.608c-.11.038-.267.079-.472.125-.2.045-.447.072-.738.079a3.348 3.348 0 0 1-1.392-.233 2.167 2.167 0 0 1-.983-.806c-.239-.364-.356-.819-.353-1.364v-8.534ZM103.481 186.58l-1.875.204a1.507 1.507 0 0 0-.279-.534 1.372 1.372 0 0 0-.522-.403c-.22-.103-.489-.154-.807-.154-.428 0-.788.093-1.08.279-.288.185-.43.426-.426.721-.004.254.09.46.278.62.194.159.512.289.955.392l1.489.318c.825.178 1.439.46 1.841.846.405.387.609.892.613 1.517a2.377 2.377 0 0 1-.483 1.455c-.314.417-.752.742-1.312.977-.561.235-1.205.352-1.932.352-1.068 0-1.928-.223-2.58-.67-.651-.451-1.04-1.078-1.164-1.881l2.005-.193c.091.394.285.691.58.892.295.201.68.301 1.153.301.489 0 .881-.1 1.176-.301.3-.201.449-.449.449-.744a.773.773 0 0 0-.289-.619c-.19-.163-.485-.288-.887-.375l-1.489-.313c-.837-.174-1.456-.468-1.857-.881-.402-.416-.6-.943-.597-1.579-.004-.538.142-1.004.438-1.398.299-.398.713-.704 1.244-.92.534-.22 1.15-.33 1.846-.33 1.023 0 1.828.218 2.415.654.591.435.957 1.024 1.097 1.767Z"
    fill="#00A3D7"
  />
  <defs>
    <filter
      id="filter0_f_70_20"
      x="26.593"
      y="-50"
      width="401.407"
      height="249.069"
      filterUnits="userSpaceOnUse"
      color-interpolation-filters="sRGB"
    >
      <feFlood flood-opacity="0" result="BackgroundImageFix" />
      <feBlend in="SourceGraphic" in2="BackgroundImageFix" result="shape" />
      <feGaussianBlur stdDeviation="30" result="effect1_foregroundBlur_70_20" />
    </filter>
  </defs>
</svg>
