<svg viewBox="0 0 470 240" fill="none" xmlns="http://www.w3.org/2000/svg">
  <g clip-path="url(#clip0_66_20)">
    <rect x="218" y="96" width="123.783" height="78" rx="7" fill="#E6E8EB" />
    <ellipse cx="340.848" cy="178.757" rx="49.935" ry="33.583" fill="#E8F0F8" />
    <ellipse cx="229.605" cy="74.022" rx="49.935" ry="33.583" fill="#FFF1F0" />
  </g>
  <g clip-path="url(#clip1_66_20)">
    <rect x="226" y="80" width="136.478" height="86" rx="8" fill="#B4B9C2" />
    <ellipse cx="361.448" cy="171.245" rx="55.057" ry="37.028" fill="#BAD1EA" />
    <ellipse cx="238.795" cy="55.767" rx="55.057" ry="37.028" fill="#FFD6D3" />
  </g>
  <g clip-path="url(#clip2_66_20)">
    <rect x="234" y="66" width="146" height="92.079" rx="8" fill="#051734" />
    <ellipse cx="378.898" cy="163.611" rx="58.898" ry="39.611" fill="#003EDB" />
    <path
      d="m248.826 111.915-1.426-5.211h1.075l.649 2.635.381 1.643h.052l.389-1.643.657-2.635h1.022l-1.426 5.211h-1.373ZM254.228 107.465c-.224 0-.383-.047-.478-.142a.482.482 0 0 1-.134-.343v-.179c0-.135.045-.249.134-.344.095-.094.254-.142.478-.142.224 0 .381.048.47.142a.467.467 0 0 1 .142.344v.179a.465.465 0 0 1-.142.343c-.089.095-.246.142-.47.142Zm-1.747 3.696h1.269v-2.345h-1.269v-.754h2.225v3.099h1.179v.754h-3.404v-.754ZM256.786 111.161h.956v-2.345h-.956v-.754h1.911v1.053h.06a2.12 2.12 0 0 1 .142-.388c.064-.13.144-.242.239-.336.099-.1.219-.179.358-.239.139-.06.306-.09.5-.09h.418v.896h-.791c-.289 0-.515.085-.679.254a.892.892 0 0 0-.247.65v1.299h1.337v.754h-3.248v-.754ZM263.204 111.915c-.369 0-.64-.097-.814-.291-.174-.195-.261-.446-.261-.754v-2.054h-1.12v-.754h.761c.155 0 .264-.03.329-.089.064-.065.097-.177.097-.336v-.933h.888v1.358h1.568v.754h-1.568v2.345h1.568v.754h-1.448ZM268.143 111.235h-.037a1.416 1.416 0 0 1-.396.545c-.174.15-.418.224-.731.224-.379 0-.687-.124-.926-.373-.234-.254-.351-.615-.351-1.083v-2.486h.956v2.352c0 .558.241.836.724.836.094 0 .186-.012.276-.037a.732.732 0 0 0 .246-.112.575.575 0 0 0 .172-.194.511.511 0 0 0 .067-.269v-2.576h.956v3.853h-.956v-.68ZM273.314 111.915c-.234 0-.415-.057-.545-.172a.789.789 0 0 1-.224-.493h-.037a.977.977 0 0 1-.411.56c-.204.13-.455.194-.754.194-.388 0-.697-.102-.926-.306-.229-.204-.343-.488-.343-.851 0-.776.57-1.165 1.71-1.165h.679v-.253c0-.244-.06-.428-.179-.553-.12-.124-.314-.187-.582-.187-.244 0-.441.048-.59.142-.15.095-.277.217-.381.366l-.545-.463c.119-.214.311-.393.575-.537.269-.15.615-.224 1.038-.224.507 0 .903.119 1.187.358.288.234.433.585.433 1.053v1.814h.455v.717h-.56Zm-1.65-.568a.973.973 0 0 0 .568-.156.516.516 0 0 0 .231-.441v-.515h-.657c-.523 0-.784.164-.784.493v.149a.4.4 0 0 0 .172.351c.114.08.271.119.47.119ZM274.67 111.161h1.224v-4.017h-1.224v-.754h2.18v4.771h1.232v.754h-3.412v-.754ZM285.475 112.004a2.09 2.09 0 0 1-.792-.142 1.655 1.655 0 0 1-.597-.403 1.866 1.866 0 0 1-.373-.634 2.579 2.579 0 0 1-.127-.836c0-.309.042-.588.127-.837.09-.249.214-.46.373-.634.164-.174.361-.309.59-.403.234-.095.498-.142.791-.142.409 0 .737.084.986.254.249.169.438.393.567.672l-.739.403a.965.965 0 0 0-.298-.396c-.125-.105-.297-.157-.516-.157-.283 0-.502.082-.657.247-.149.164-.224.388-.224.672v.642c0 .278.075.502.224.672.155.164.379.246.672.246.229 0 .411-.052.545-.157.14-.104.252-.244.336-.418l.717.426a1.627 1.627 0 0 1-.59.671c-.259.17-.597.254-1.015.254ZM291.221 111.915c-.234 0-.416-.057-.545-.172a.784.784 0 0 1-.224-.493h-.038a.971.971 0 0 1-.41.56c-.204.13-.456.194-.754.194-.389 0-.697-.102-.926-.306-.229-.204-.344-.488-.344-.851 0-.776.57-1.165 1.71-1.165h.68v-.253c0-.244-.06-.428-.18-.553-.119-.124-.313-.187-.582-.187-.244 0-.44.048-.59.142a1.353 1.353 0 0 0-.381.366l-.545-.463c.12-.214.312-.393.575-.537.269-.15.615-.224 1.038-.224.508 0 .903.119 1.187.358.289.234.433.585.433 1.053v1.814h.456v.717h-.56Zm-1.65-.568a.968.968 0 0 0 .567-.156.517.517 0 0 0 .232-.441v-.515h-.657c-.523 0-.784.164-.784.493v.149c0 .154.057.271.171.351.115.08.272.119.471.119ZM292.599 111.161h.956v-2.345h-.956v-.754h1.911v1.053h.06a2.12 2.12 0 0 1 .142-.388c.065-.13.144-.242.239-.336.099-.1.219-.179.358-.239.139-.06.306-.09.5-.09h.418v.896h-.791c-.289 0-.515.085-.679.254a.892.892 0 0 0-.247.65v1.299h1.337v.754h-3.248v-.754ZM299.524 111.235h-.052a1.398 1.398 0 0 1-.433.56c-.179.14-.418.209-.717.209-.219 0-.42-.039-.604-.119a1.277 1.277 0 0 1-.463-.373 1.835 1.835 0 0 1-.299-.635 3.362 3.362 0 0 1-.104-.888c0-.677.134-1.183.403-1.516.269-.334.624-.5 1.067-.5.299 0 .538.069.717.209.184.139.329.326.433.56h.052v-2.352h.956v5.525h-.956v-.68Zm-.798.008c.109 0 .211-.013.306-.038a.841.841 0 0 0 .254-.119.607.607 0 0 0 .238-.493v-1.209a.568.568 0 0 0-.067-.284.48.48 0 0 0-.171-.201.672.672 0 0 0-.254-.12 1.01 1.01 0 0 0-.306-.045c-.279 0-.496.085-.65.254-.149.169-.224.401-.224.694v.613c0 .293.075.525.224.694.154.169.371.254.65.254ZM306.858 111.586l-.672-.455.873-1.165-1.336-.455.246-.747 1.322.463v-1.411h.836v1.411l1.321-.463.247.747-1.337.455.874 1.165-.672.455-.851-1.164-.851 1.164ZM311.334 111.586l-.672-.455.874-1.165-1.337-.455.247-.747 1.321.463v-1.411h.836v1.411l1.322-.463.246.747-1.336.455.873 1.165-.672.455-.851-1.164-.851 1.164ZM315.811 111.586l-.672-.455.873-1.165-1.336-.455.246-.747 1.322.463v-1.411h.836v1.411l1.322-.463.246.747-1.337.455.874 1.165-.672.455-.851-1.164-.851 1.164ZM320.287 111.586l-.671-.455.873-1.165-1.336-.455.246-.747 1.321.463v-1.411h.837v1.411l1.321-.463.247.747-1.337.455.874 1.165-.672.455-.851-1.164-.852 1.164ZM331.958 111.915h-3.673v-.911l1.672-1.426a3.61 3.61 0 0 0 .62-.65c.135-.199.202-.41.202-.634v-.075c0-.249-.07-.438-.209-.567-.14-.13-.334-.194-.583-.194-.273 0-.482.074-.627.224a1.308 1.308 0 0 0-.313.552l-.851-.321c.054-.169.131-.331.231-.485.104-.16.231-.299.381-.418.154-.12.336-.214.545-.284.209-.075.448-.112.716-.112.279 0 .526.04.74.119.219.075.403.182.552.321.149.135.261.297.336.486.08.189.119.395.119.619 0 .214-.034.411-.104.59a2.09 2.09 0 0 1-.276.515c-.12.16-.262.314-.426.463a7.77 7.77 0 0 1-.522.448l-1.135.918h2.605v.822ZM334.359 108.809c.314 0 .543-.062.687-.187a.584.584 0 0 0 .224-.47v-.052a.616.616 0 0 0-.216-.501c-.14-.119-.334-.179-.583-.179-.239 0-.448.055-.627.165a1.467 1.467 0 0 0-.463.462l-.634-.567c.089-.119.189-.231.298-.336.115-.109.242-.202.381-.276.145-.08.304-.142.478-.187.174-.045.373-.067.597-.067.264 0 .505.032.724.097.224.06.414.149.568.269.159.119.281.264.366.433.089.164.134.351.134.56a1.12 1.12 0 0 1-.306.799c-.09.099-.197.181-.321.246-.12.065-.249.112-.388.142v.037c.154.03.298.08.433.149.134.065.251.15.351.254.099.105.179.232.239.381.059.144.089.309.089.493a1.376 1.376 0 0 1-.545 1.112 1.855 1.855 0 0 1-.62.314 2.895 2.895 0 0 1-.806.104c-.249 0-.47-.027-.664-.082a1.915 1.915 0 0 1-.515-.209 1.815 1.815 0 0 1-.389-.306 3.24 3.24 0 0 1-.291-.366l.724-.56c.125.209.272.381.441.515.174.135.41.202.709.202s.528-.067.687-.202c.164-.139.246-.331.246-.574v-.06c0-.239-.087-.421-.261-.545-.174-.13-.421-.194-.739-.194h-.523v-.814h.515ZM339.426 111.915v-1.008h-2.412v-.836l2.128-3.367h1.217v3.441h.702v.762h-.702v1.008h-.933Zm-1.613-1.77h1.613v-2.486h-.06l-1.553 2.486ZM345.149 107.555h-2.389l-.127 1.747h.06a2.2 2.2 0 0 1 .194-.299c.07-.095.149-.174.239-.239.095-.065.199-.114.314-.149.119-.035.256-.052.41-.052.219 0 .426.037.62.112a1.43 1.43 0 0 1 .844.836c.084.204.126.435.126.694 0 .259-.044.498-.134.717-.085.219-.211.41-.381.575a1.72 1.72 0 0 1-.612.373c-.239.09-.515.134-.829.134a2.42 2.42 0 0 1-.657-.082 1.825 1.825 0 0 1-.881-.515 2.608 2.608 0 0 1-.283-.366l.709-.56c.06.1.124.194.194.284.075.085.157.159.246.224.09.065.19.117.299.157.115.035.244.052.388.052.299 0 .525-.08.68-.239.159-.164.239-.388.239-.672v-.06c0-.273-.08-.487-.239-.642-.16-.154-.384-.231-.672-.231-.219 0-.398.042-.538.127a1.37 1.37 0 0 0-.328.261l-.799-.112.194-2.926h3.113v.851ZM247.808 138.741h1.204l1.612 3.934h.064l1.612-3.934h1.203v5.429h-.944v-3.73h-.05l-1.501 3.715h-.705l-1.5-3.723h-.051v3.738h-.944v-5.429ZM255.128 145.698a1.97 1.97 0 0 1-.625-.101l.222-.748c.14.041.265.06.374.058a.454.454 0 0 0 .289-.103.727.727 0 0 0 .215-.329l.082-.22-1.477-4.157h1.018l.939 3.076h.042l.942-3.076h1.02l-1.63 4.566c-.076.215-.177.4-.302.554-.126.155-.28.274-.462.355-.18.083-.396.125-.647.125ZM262.462 144.25c-.407 0-.756-.089-1.048-.268a1.785 1.785 0 0 1-.67-.74 2.436 2.436 0 0 1-.234-1.092c0-.413.08-.778.239-1.095.159-.318.384-.565.673-.742.292-.179.637-.268 1.034-.268.331 0 .623.061.878.183.256.12.46.291.612.512.152.219.239.475.26.769h-.917a.88.88 0 0 0-.265-.491c-.138-.132-.323-.199-.554-.199a.864.864 0 0 0-.517.159 1.022 1.022 0 0 0-.348.451 1.842 1.842 0 0 0-.122.705c0 .278.041.516.122.716.082.198.196.351.342.459a.878.878 0 0 0 .523.159.874.874 0 0 0 .379-.08.75.75 0 0 0 .283-.236.9.9 0 0 0 .157-.373h.917a1.607 1.607 0 0 1-.254.766 1.508 1.508 0 0 1-.599.519c-.253.124-.55.186-.891.186ZM266.166 144.253c-.258 0-.49-.046-.697-.138a1.14 1.14 0 0 1-.488-.414 1.211 1.211 0 0 1-.178-.673c0-.23.043-.42.128-.57a.977.977 0 0 1 .347-.361 1.76 1.76 0 0 1 .496-.204c.185-.048.377-.082.575-.103.239-.025.432-.047.581-.067a.865.865 0 0 0 .323-.095c.069-.044.104-.112.104-.204v-.016c0-.2-.06-.355-.178-.464-.118-.11-.289-.165-.512-.165-.235 0-.421.052-.559.154a.77.77 0 0 0-.276.363l-.896-.127a1.43 1.43 0 0 1 .35-.62c.163-.168.361-.294.596-.377.236-.084.495-.127.78-.127.196 0 .391.023.586.069.194.046.372.122.533.228.161.104.29.247.387.427.099.18.148.406.148.676v2.725h-.922v-.559h-.032a1.17 1.17 0 0 1-.642.554 1.598 1.598 0 0 1-.554.088Zm.249-.706c.193 0 .36-.038.501-.114a.836.836 0 0 0 .327-.307.789.789 0 0 0 .116-.416v-.48a.479.479 0 0 1-.154.069c-.07.021-.15.039-.238.055-.089.016-.176.03-.263.043l-.225.032a1.66 1.66 0 0 0-.384.095.626.626 0 0 0-.268.186.448.448 0 0 0-.098.302c0 .177.064.31.193.4.129.09.294.135.493.135ZM269.281 144.17v-4.072h.931v.679h.042c.075-.235.202-.416.382-.544a1.05 1.05 0 0 1 .623-.193c.053 0 .112.002.178.008.067.003.123.009.167.018v.883a1.057 1.057 0 0 0-.194-.037 1.827 1.827 0 0 0-.252-.019.966.966 0 0 0-.471.114.843.843 0 0 0-.446.769v2.394h-.96ZM273.585 144.242c-.32 0-.606-.082-.859-.247a1.676 1.676 0 0 1-.599-.715c-.147-.313-.22-.693-.22-1.14 0-.453.074-.835.222-1.146a1.65 1.65 0 0 1 .608-.708c.254-.16.538-.241.851-.241.238 0 .434.041.588.122.154.08.276.176.366.289.09.111.16.217.21.316h.039v-2.031h.963v5.429h-.944v-.641h-.058c-.05.099-.121.204-.215.315-.094.11-.218.204-.371.281a1.281 1.281 0 0 1-.581.117Zm.268-.787a.826.826 0 0 0 .519-.165c.144-.111.252-.266.327-.464a1.97 1.97 0 0 0 .111-.692c0-.263-.037-.492-.111-.686a.983.983 0 0 0-.324-.454.833.833 0 0 0-.522-.161.843.843 0 0 0-.536.167 1.006 1.006 0 0 0-.323.461 1.923 1.923 0 0 0-.109.673c0 .255.036.482.109.682.074.198.183.354.326.469a.84.84 0 0 0 .533.17ZM295.387 144.274c-.436 0-.811-.111-1.124-.332-.311-.222-.55-.543-.718-.962-.167-.421-.25-.927-.25-1.519.002-.592.086-1.096.252-1.511.168-.417.408-.736.719-.955.313-.219.686-.329 1.121-.329.435 0 .809.11 1.122.329.313.219.552.538.718.955.168.417.252.921.252 1.511 0 .594-.084 1.101-.252 1.522-.166.419-.405.738-.718.959-.311.221-.685.332-1.122.332Zm0-.83c.34 0 .607-.167.804-.501.198-.336.297-.83.297-1.482 0-.431-.046-.794-.136-1.087-.09-.294-.217-.515-.381-.663a.838.838 0 0 0-.584-.225c-.337 0-.604.168-.8.503-.197.334-.296.825-.297 1.472-.002.433.041.797.13 1.092.09.295.217.518.381.668.165.149.36.223.586.223ZM298.36 144.17v-.71l1.885-1.848c.18-.182.331-.344.451-.485.12-.142.21-.279.27-.411.06-.133.09-.274.09-.424a.806.806 0 0 0-.116-.44.777.777 0 0 0-.321-.287 1.037 1.037 0 0 0-.464-.101.954.954 0 0 0-.469.112.76.76 0 0 0-.313.31.99.99 0 0 0-.109.48h-.936c0-.345.079-.644.236-.899.157-.254.374-.451.65-.591.277-.14.595-.21.954-.21.364 0 .684.068.96.205.276.136.489.322.641.559.154.237.231.507.231.811 0 .204-.039.403-.117.599a2.518 2.518 0 0 1-.41.653c-.195.238-.468.527-.82.867l-.936.951v.038h2.365v.821h-3.722ZM305.224 138.486l-1.75 6.501h-.84l1.75-6.501h.84ZM307.775 144.245c-.382 0-.722-.066-1.019-.197a1.685 1.685 0 0 1-.699-.546 1.415 1.415 0 0 1-.274-.808h.997a.663.663 0 0 0 .146.384.874.874 0 0 0 .353.252c.146.06.311.09.493.09.194 0 .367-.033.517-.101a.853.853 0 0 0 .353-.286.709.709 0 0 0 .124-.422.732.732 0 0 0-.127-.434.852.852 0 0 0-.377-.295 1.478 1.478 0 0 0-.588-.106h-.48v-.758h.48c.189 0 .354-.033.496-.098a.792.792 0 0 0 .336-.276.71.71 0 0 0 .12-.416.726.726 0 0 0-.104-.4.701.701 0 0 0-.294-.268.964.964 0 0 0-.443-.096c-.166 0-.32.031-.461.091a.825.825 0 0 0-.342.257.645.645 0 0 0-.138.392h-.947c.008-.304.095-.571.263-.801.17-.231.396-.411.679-.54.282-.131.6-.197.951-.197.363 0 .677.068.944.205.269.134.477.315.623.543.147.228.22.48.22.756.002.305-.088.562-.27.769-.18.206-.417.342-.711.405v.043c.382.053.675.194.878.424.205.228.307.512.305.851 0 .304-.087.576-.26.816a1.725 1.725 0 0 1-.71.563 2.488 2.488 0 0 1-1.034.204ZM312.696 144.274c-.437 0-.811-.111-1.124-.332-.311-.222-.551-.543-.719-.962-.166-.421-.249-.927-.249-1.519.002-.592.086-1.096.252-1.511.168-.417.407-.736.718-.955.313-.219.687-.329 1.122-.329.435 0 .809.11 1.121.329.313.219.553.538.719.955.168.417.252.921.252 1.511 0 .594-.084 1.101-.252 1.522-.166.419-.406.738-.719.959-.311.221-.685.332-1.121.332Zm0-.83c.339 0 .607-.167.803-.501.198-.336.297-.83.297-1.482 0-.431-.045-.794-.135-1.087-.09-.294-.217-.515-.382-.663a.836.836 0 0 0-.583-.225c-.338 0-.605.168-.801.503-.196.334-.295.825-.297 1.472-.001.433.042.797.13 1.092.09.295.218.518.382.668.164.149.36.223.586.223ZM250.624 133.875h-.438a.906.906 0 0 0-.137-.332.988.988 0 0 0-.535-.389 1.208 1.208 0 0 0-.347-.05 1.11 1.11 0 0 0-.595.166 1.156 1.156 0 0 0-.423.49c-.103.216-.155.48-.155.794 0 .313.052.578.155.793.105.216.246.379.423.49a1.1 1.1 0 0 0 .595.166c.121 0 .236-.016.347-.049a1.01 1.01 0 0 0 .302-.147.925.925 0 0 0 .37-.575h.438a1.465 1.465 0 0 1-.18.497 1.362 1.362 0 0 1-.762.605 1.63 1.63 0 0 1-.515.079c-.308 0-.583-.075-.823-.226a1.547 1.547 0 0 1-.568-.644 2.216 2.216 0 0 1-.206-.989c0-.382.069-.712.206-.99.138-.278.327-.493.568-.643.24-.151.515-.227.823-.227.183 0 .355.027.515.08.161.053.307.131.436.233.13.101.238.225.326.371.087.145.147.311.18.497ZM252.075 136.427c-.172 0-.329-.032-.469-.097a.807.807 0 0 1-.334-.285.802.802 0 0 1-.124-.452c0-.156.031-.282.092-.378a.647.647 0 0 1 .246-.23c.103-.055.216-.097.339-.124.125-.028.251-.05.377-.067.165-.021.299-.037.401-.048a.601.601 0 0 0 .226-.058c.049-.027.073-.074.073-.141v-.015c0-.174-.048-.309-.143-.406-.095-.097-.238-.145-.43-.145-.199 0-.355.044-.468.131a.774.774 0 0 0-.239.279l-.396-.141a.955.955 0 0 1 .283-.386c.119-.093.249-.158.389-.194.141-.038.28-.057.417-.057.087 0 .187.011.3.032.115.02.225.062.331.126a.733.733 0 0 1 .267.288c.071.128.106.3.106.516v1.789h-.417v-.368h-.021a.75.75 0 0 1-.142.189.839.839 0 0 1-.263.172 1.02 1.02 0 0 1-.401.07Zm.063-.374a.825.825 0 0 0 .417-.098.644.644 0 0 0 .258-.251.637.637 0 0 0 .089-.323v-.382c-.018.021-.057.041-.117.058a1.834 1.834 0 0 1-.205.045c-.077.011-.151.022-.224.031l-.175.022c-.109.014-.21.037-.304.069a.526.526 0 0 0-.227.139.358.358 0 0 0-.084.251c0 .145.053.255.16.329.109.073.246.11.412.11ZM254.08 136.364v-2.715h.403v.41h.029a.646.646 0 0 1 .268-.327.79.79 0 0 1 .439-.126l.114.002c.046.001.081.003.105.005v.425a1.01 1.01 0 0 0-.098-.016.868.868 0 0 0-.157-.013.739.739 0 0 0-.353.083.607.607 0 0 0-.333.554v1.718h-.417ZM256.875 136.42c-.227 0-.426-.057-.6-.171a1.162 1.162 0 0 1-.406-.488 1.76 1.76 0 0 1-.147-.748c0-.285.049-.532.147-.742a1.14 1.14 0 0 1 .408-.486c.175-.114.376-.172.605-.172.176 0 .316.03.419.089a.704.704 0 0 1 .236.198c.056.073.099.133.13.18h.035v-1.336h.417v3.62h-.403v-.418h-.049c-.031.05-.075.112-.131.188a.796.796 0 0 1-.242.2.88.88 0 0 1-.419.086Zm.056-.375a.681.681 0 0 0 .424-.13.823.823 0 0 0 .264-.366c.06-.157.09-.338.09-.543 0-.203-.03-.38-.088-.532a.78.78 0 0 0-.262-.357.697.697 0 0 0-.428-.129.701.701 0 0 0-.442.136.824.824 0 0 0-.263.366 1.447 1.447 0 0 0-.087.516c0 .193.03.369.089.527.06.157.148.282.265.375a.69.69 0 0 0 .438.137ZM260.397 136.364v-3.62h.439v1.612h1.93v-1.612h.438v3.62h-.438v-1.619h-1.93v1.619h-.439ZM265.128 136.42a1.18 1.18 0 0 1-.645-.175 1.181 1.181 0 0 1-.431-.489 1.652 1.652 0 0 1-.154-.736c0-.282.051-.529.154-.74.103-.211.247-.375.431-.492.185-.116.4-.175.645-.175s.46.059.643.175c.185.117.329.281.432.492.103.211.155.458.155.74 0 .281-.052.526-.155.736a1.176 1.176 0 0 1-.432.489 1.169 1.169 0 0 1-.643.175Zm0-.375a.716.716 0 0 0 .46-.143.837.837 0 0 0 .266-.376c.058-.156.087-.324.087-.506 0-.181-.029-.35-.087-.507a.85.85 0 0 0-.266-.38.711.711 0 0 0-.46-.145.711.711 0 0 0-.46.145.85.85 0 0 0-.266.38 1.452 1.452 0 0 0-.087.507c0 .182.029.35.087.506a.837.837 0 0 0 .266.376.716.716 0 0 0 .46.143ZM267.412 132.744v3.62h-.417v-3.62h.417ZM269.201 136.42c-.226 0-.426-.057-.599-.171a1.164 1.164 0 0 1-.407-.488 1.776 1.776 0 0 1-.146-.748c0-.285.049-.532.146-.742.098-.21.234-.372.409-.486a1.08 1.08 0 0 1 .604-.172c.177 0 .317.03.419.089a.699.699 0 0 1 .237.198c.055.073.098.133.129.18h.035v-1.336h.418v3.62h-.403v-.418h-.05a2.67 2.67 0 0 1-.131.188.773.773 0 0 1-.242.2.877.877 0 0 1-.419.086Zm.057-.375a.686.686 0 0 0 .424-.13.829.829 0 0 0 .263-.366c.06-.157.09-.338.09-.543 0-.203-.029-.38-.088-.532a.774.774 0 0 0-.262-.357.694.694 0 0 0-.427-.129.701.701 0 0 0-.442.136.81.81 0 0 0-.263.366 1.447 1.447 0 0 0-.087.516c0 .193.029.369.088.527.06.157.149.282.265.375a.691.691 0 0 0 .439.137ZM272.406 136.42c-.262 0-.488-.058-.677-.173a1.164 1.164 0 0 1-.437-.488 1.67 1.67 0 0 1-.152-.732c0-.278.051-.523.152-.735a1.142 1.142 0 0 1 1.071-.679c.142 0 .281.024.419.071.138.047.264.124.377.23a1.1 1.1 0 0 1 .27.417c.067.173.101.386.101.64v.177h-2.093v-.361h1.669a.893.893 0 0 0-.092-.41.697.697 0 0 0-.651-.389.744.744 0 0 0-.431.124.814.814 0 0 0-.278.318.946.946 0 0 0-.097.421v.24c0 .205.036.379.106.521.072.142.172.25.299.324a.875.875 0 0 0 .444.109.926.926 0 0 0 .297-.045.636.636 0 0 0 .231-.142.633.633 0 0 0 .15-.237l.403.113a.89.89 0 0 1-.213.361 1.043 1.043 0 0 1-.372.24 1.365 1.365 0 0 1-.496.085ZM274.164 136.364v-2.715h.403v.41h.029a.646.646 0 0 1 .268-.327.79.79 0 0 1 .439-.126l.114.002c.046.001.081.003.105.005v.425a1.028 1.028 0 0 0-.097-.016.887.887 0 0 0-.158-.013.739.739 0 0 0-.353.083.607.607 0 0 0-.333.554v1.718h-.417ZM293.336 136.364v-3.62h2.185v.389h-1.747v1.223h1.634v.389h-1.634v1.23h1.775v.389h-2.213ZM296.565 133.649l.651 1.11.65-1.11h.481l-.877 1.357.877 1.358h-.481l-.65-1.054-.651 1.054h-.48l.862-1.358-.862-1.357h.48ZM298.942 137.382v-3.733h.403v.431h.05c.03-.047.073-.107.127-.18a.719.719 0 0 1 .237-.198.848.848 0 0 1 .42-.089c.229 0 .43.058.605.172.174.114.31.276.408.486.098.21.147.457.147.742 0 .288-.049.537-.147.748-.098.21-.233.372-.406.488a1.068 1.068 0 0 1-.6.171.873.873 0 0 1-.418-.086.79.79 0 0 1-.243-.2 2.604 2.604 0 0 1-.13-.188h-.036v1.436h-.417Zm.41-2.376c0 .205.03.386.09.543.06.155.148.277.264.366.115.087.257.13.424.13a.68.68 0 0 0 .436-.137.843.843 0 0 0 .266-.375c.06-.158.09-.334.09-.527 0-.191-.03-.363-.089-.516a.795.795 0 0 0-.263-.366.694.694 0 0 0-.44-.136.697.697 0 0 0-.428.129.772.772 0 0 0-.261.357 1.464 1.464 0 0 0-.089.532ZM301.975 136.364v-2.715h.417v2.715h-.417Zm.212-3.168a.294.294 0 0 1-.21-.083.266.266 0 0 1-.087-.2c0-.077.029-.144.087-.199a.294.294 0 0 1 .21-.083c.082 0 .151.027.209.083a.263.263 0 0 1 .088.199.263.263 0 0 1-.088.2.288.288 0 0 1-.209.083ZM303.156 136.364v-2.715h.403v.41h.029a.646.646 0 0 1 .268-.327.79.79 0 0 1 .439-.126l.114.002c.046.001.081.003.105.005v.425a1.028 1.028 0 0 0-.097-.016.887.887 0 0 0-.158-.013.739.739 0 0 0-.353.083.607.607 0 0 0-.333.554v1.718h-.417ZM305.359 137.382a.905.905 0 0 1-.304-.05l.107-.367c.101.025.19.035.268.028a.323.323 0 0 0 .207-.104.847.847 0 0 0 .168-.299l.078-.212-1.004-2.729h.452l.75 2.163h.028l.749-2.163h.453l-1.153 3.111c-.051.14-.116.256-.192.348a.732.732 0 0 1-.607.274ZM310.435 136.364h-1.117v-3.62h1.166c.351 0 .652.072.902.217.25.144.441.351.574.621.133.268.2.59.2.965 0 .377-.067.701-.202.974-.134.271-.33.479-.586.625-.257.145-.57.218-.937.218Zm-.679-.389h.651c.299 0 .547-.058.744-.173.196-.116.343-.28.44-.494.096-.213.145-.467.145-.761 0-.293-.048-.544-.143-.755a1.058 1.058 0 0 0-.428-.488c-.19-.114-.426-.171-.709-.171h-.7v2.842ZM313.638 136.427c-.172 0-.329-.032-.469-.097a.807.807 0 0 1-.334-.285.802.802 0 0 1-.124-.452c0-.156.031-.282.092-.378a.647.647 0 0 1 .246-.23c.102-.055.216-.097.339-.124.125-.028.251-.05.377-.067.165-.021.299-.037.401-.048a.601.601 0 0 0 .226-.058c.049-.027.073-.074.073-.141v-.015c0-.174-.048-.309-.143-.406-.095-.097-.238-.145-.43-.145-.199 0-.355.044-.468.131a.774.774 0 0 0-.239.279l-.396-.141a.955.955 0 0 1 .283-.386c.119-.093.249-.158.389-.194.141-.038.28-.057.417-.057.087 0 .187.011.3.032.115.02.225.062.331.126a.733.733 0 0 1 .267.288c.071.128.106.3.106.516v1.789h-.417v-.368h-.021a.75.75 0 0 1-.142.189.839.839 0 0 1-.263.172 1.02 1.02 0 0 1-.401.07Zm.063-.374a.825.825 0 0 0 .417-.098.644.644 0 0 0 .258-.251.637.637 0 0 0 .089-.323v-.382c-.018.021-.057.041-.117.058a1.834 1.834 0 0 1-.205.045c-.077.011-.151.022-.224.031l-.175.022c-.109.014-.21.037-.304.069a.526.526 0 0 0-.227.139.358.358 0 0 0-.084.251c0 .145.053.255.16.329.109.073.246.11.412.11ZM316.824 133.649v.353h-1.407v-.353h1.407Zm-.997-.651h.417v2.588c0 .118.017.206.051.265a.27.27 0 0 0 .135.117.53.53 0 0 0 .175.028.708.708 0 0 0 .113-.007l.071-.014.084.374a.86.86 0 0 1-.311.05.831.831 0 0 1-.346-.076.687.687 0 0 1-.279-.232.663.663 0 0 1-.11-.392v-2.701ZM318.56 136.42c-.261 0-.487-.058-.676-.173a1.157 1.157 0 0 1-.437-.488 1.67 1.67 0 0 1-.152-.732c0-.278.051-.523.152-.735a1.142 1.142 0 0 1 1.071-.679c.141 0 .281.024.419.071.138.047.263.124.376.23.114.105.204.244.271.417.067.173.101.386.101.64v.177h-2.093v-.361h1.668a.88.88 0 0 0-.092-.41.697.697 0 0 0-.65-.389.744.744 0 0 0-.431.124.814.814 0 0 0-.278.318.933.933 0 0 0-.097.421v.24c0 .205.035.379.106.521.072.142.172.25.299.324a.874.874 0 0 0 .443.109c.11 0 .209-.015.297-.045a.632.632 0 0 0 .232-.142.633.633 0 0 0 .15-.237l.403.113a.892.892 0 0 1-.214.361 1.04 1.04 0 0 1-.371.24 1.367 1.367 0 0 1-.497.085ZM365.326 137.468h-1.523c-.474 0-.831.131-1.034.596l-2.927 6.635h2.069s.343-.89.42-1.084h2.52c.064.253.24 1.084.24 1.084h1.829l-1.594-7.231Zm-2.426 4.67c.158-.42.772-2.028.772-2.028s.172-.425.267-.687l.131.624s.384 1.72.461 2.091H362.9ZM357.218 139.473c-.004.339.42.564 1.111.899 1.134.515 1.662 1.142 1.653 1.964-.013 1.5-1.359 2.471-3.432 2.471-.881-.009-1.735-.19-2.195-.384l.28-1.621.253.117c.646.266 1.066.379 1.856.379.565 0 1.17-.221 1.174-.704.005-.321-.253-.547-1.02-.904-.75-.343-1.739-.921-1.73-1.96.009-1.404 1.382-2.389 3.328-2.389a5.17 5.17 0 0 1 1.771.303l-.267 1.567-.176-.081a3.618 3.618 0 0 0-1.477-.28c-.767 0-1.129.325-1.129.623ZM354.355 137.463l-1.238 7.231h-1.965l1.233-7.231h1.97ZM347.277 141.185c-.655-1.671-2.226-3.063-4.607-3.641l.028-.149h3.057c.416.014.745.149.863.587l.659 3.203Z"
      fill="#fff"
    />
    <path
      d="m351.586 137.468-3.107 7.217h-2.082l-1.766-6.025c1.269.813 2.348 2.1 2.728 2.994l.207.746 1.934-4.932h2.086ZM251.376 89.45c-2.402 0-4.103 1.712-4.103 4.036s1.701 4.037 4.103 4.037c2.402 0 4.103-1.713 4.103-4.037s-1.701-4.036-4.103-4.036Zm0 1.779c1.268 0 2.168.923 2.168 2.257 0 1.335-.9 2.258-2.168 2.258-1.268 0-2.168-.923-2.168-2.258 0-1.334.9-2.257 2.168-2.257ZM261.33 91.993a.07.07 0 0 0-.069-.07h-1.597a.07.07 0 0 0-.069.07v2.894c0 .695-.378 1.012-.895 1.012-.523 0-.895-.317-.895-1.012v-2.894a.07.07 0 0 0-.069-.07h-1.602a.07.07 0 0 0-.069.07v3.044c0 1.713 1.178 2.486 2.635 2.486 1.451 0 2.63-.773 2.63-2.48v-3.05ZM267.114 91.993a.07.07 0 0 0-.069-.07h-2.414a.07.07 0 0 1-.069-.068v-1.452a.07.07 0 0 0-.069-.07h-1.602a.07.07 0 0 0-.069.07v1.452a.07.07 0 0 1-.069.069h-.879a.07.07 0 0 0-.07.069v1.402c0 .038.031.069.07.069h.879a.07.07 0 0 1 .069.07v1.748c0 1.368.661 2.24 2.124 2.24.471 0 1.11-.189 1.287-.244a.068.068 0 0 0 .047-.065v-1.29c0-.16-.175-.26-.32-.191-.201.095-.419.167-.625.167-.439 0-.773-.211-.773-.84v-1.526a.07.07 0 0 1 .069-.069h2.414a.07.07 0 0 0 .069-.07v-1.401Z"
      fill="#fff"
    />
    <path
      d="M270.274 91.993c0-.038-.03-.07-.069-.07h-1.39a.07.07 0 0 1-.07-.068v-.315c0-.472.189-.69.573-.69.309 0 .551.091.793.21a.07.07 0 0 0 .091-.026l.692-1.175a.069.069 0 0 0-.019-.09c-.421-.305-.972-.542-1.79-.542-1.274 0-2.08.806-2.08 2.274v5.808c0 .038.031.07.069.07h1.602a.069.069 0 0 0 .069-.07v-3.776a.07.07 0 0 1 .07-.069h1.39a.069.069 0 0 0 .069-.07v-1.401ZM276.038 91.993a.07.07 0 0 0-.069-.07h-1.597a.07.07 0 0 0-.069.07v2.894c0 .695-.378 1.012-.895 1.012-.523 0-.895-.317-.895-1.012v-2.894a.07.07 0 0 0-.069-.07h-1.602a.07.07 0 0 0-.07.07v3.044c0 1.713 1.179 2.486 2.636 2.486 1.451 0 2.63-.773 2.63-2.48v-3.05ZM280.058 91.774c-.635 0-1.135.199-1.481.63-.044.054-.142.025-.142-.045v-.366a.07.07 0 0 0-.07-.07h-1.529a.07.07 0 0 0-.069.07v5.316c0 .038.031.07.069.07h1.602a.07.07 0 0 0 .069-.07v-2.867c0-.706.4-1.034.884-1.034.539 0 .862.362.862 1.007v2.894c0 .038.031.07.069.07h1.602a.07.07 0 0 0 .069-.07v-3.511c0-1.263-.845-2.024-1.935-2.024ZM285.074 91.774c-1.462 0-2.541 1.267-2.541 2.869 0 1.612 1.079 2.88 2.535 2.88.647 0 1.111-.234 1.436-.579.046-.048.132-.017.132.049v.316c0 .038.031.07.069.07h1.541a.07.07 0 0 0 .069-.07v-7.868a.07.07 0 0 0-.069-.07h-1.596a.07.07 0 0 0-.069.07v2.814c0 .065-.083.096-.13.05-.321-.318-.768-.531-1.377-.531Zm.411 1.623c.684 0 1.168.528 1.168 1.251 0 .723-.484 1.251-1.168 1.251-.695 0-1.162-.54-1.162-1.25 0-.712.467-1.252 1.162-1.252Z"
      fill="#fff"
    />
    <rect
      x="289.096"
      y="95.449"
      width="2.074"
      height="2.074"
      rx="1.037"
      fill="#00A3D7"
    />
    <ellipse cx="247.688" cy="40.077" rx="58.898" ry="39.611" fill="#FF766B" />
  </g>
  <rect
    x="90.5"
    y="85.5"
    width="99"
    height="63"
    rx="9.5"
    fill="#F2F6FA"
    stroke="#D4E1ED"
  />
  <path
    d="M104.4 105.096a2.16 2.16 0 0 1-.944-.192 1.791 1.791 0 0 1-.664-.568 2.631 2.631 0 0 1-.384-.904 5.628 5.628 0 0 1-.12-1.224c0-.453.04-.859.12-1.216.085-.363.213-.667.384-.912.176-.245.397-.432.664-.56.267-.133.581-.2.944-.2.725 0 1.259.253 1.6.76.341.507.512 1.216.512 2.128 0 .912-.171 1.621-.512 2.128-.341.507-.875.76-1.6.76Zm0-.856a.983.983 0 0 0 .472-.104.821.821 0 0 0 .304-.312c.08-.133.136-.296.168-.488.037-.197.056-.416.056-.656v-.952c0-.48-.075-.859-.224-1.136-.144-.277-.403-.416-.776-.416s-.635.139-.784.416c-.144.277-.216.656-.216 1.136v.96c0 .48.072.859.216 1.136.149.277.411.416.784.416ZM107.397 104.192h1.264v-2.512h-1.344v-.808h1.344v-.672c0-.165.021-.315.064-.448a.935.935 0 0 1 .576-.584c.149-.059.323-.088.52-.088h1.392v.808h-1.528v.984h1.528v.808h-1.528v2.512h1.344V105h-3.632v-.808ZM112.194 104.192h1.264v-2.512h-1.344v-.808h1.344v-.672c0-.165.021-.315.064-.448a.935.935 0 0 1 .576-.584c.149-.059.322-.088.52-.088h1.392v.808h-1.528v.984h1.528v.808h-1.528v2.512h1.344V105h-3.632v-.808ZM118.887 105.096c-.331 0-.624-.051-.88-.152a1.765 1.765 0 0 1-.648-.432 1.9 1.9 0 0 1-.392-.672 2.764 2.764 0 0 1-.136-.896c0-.336.045-.637.136-.904a1.99 1.99 0 0 1 .4-.68c.17-.187.376-.331.616-.432.245-.101.52-.152.824-.152.298 0 .568.051.808.152.24.096.442.235.608.416.17.181.301.4.392.656.09.256.136.539.136.848v.336h-2.896v.104c0 .299.093.541.28.728.186.181.448.272.784.272.256 0 .474-.051.656-.152a1.46 1.46 0 0 0 .464-.416l.584.584c-.15.219-.368.405-.656.56-.283.155-.643.232-1.08.232Zm-.072-3.568c-.288 0-.52.091-.696.272-.176.181-.264.421-.264.72v.056h1.872v-.072c0-.299-.083-.536-.248-.712-.16-.176-.382-.264-.664-.264ZM121.787 104.192h1.024v-2.512h-1.024v-.808h2.048V102h.064c.038-.144.088-.283.152-.416.07-.139.155-.259.256-.36.107-.107.235-.192.384-.256.15-.064.328-.096.536-.096h.448v.96h-.848c-.309 0-.552.091-.728.272a.957.957 0 0 0-.264.696v1.392h1.432V105h-3.48v-.808Z"
    fill="#000"
  />
  <rect x="102" y="115" width="76" height="8" rx="4" fill="#D7E0EA" />
  <rect x="102" y="131" width="76" height="8" rx="4" fill="#D7E0EA" />
  <g filter="url(#filter0_ddd_66_20)">
    <rect x="170" y="122" width="32" height="32" rx="16" fill="#1ABA5A" />
  </g>
  <path
    d="m183 142.2-4.2-4.2-1.4 1.4 5.6 5.6 12-12-1.4-1.4-10.6 10.6Z"
    fill="#fff"
  />
  <defs>
    <clipPath id="clip0_66_20">
      <rect x="218" y="96" width="123.783" height="78" rx="7" fill="#fff" />
    </clipPath>
    <clipPath id="clip1_66_20">
      <rect x="226" y="80" width="136.478" height="86" rx="8" fill="#fff" />
    </clipPath>
    <clipPath id="clip2_66_20">
      <rect x="234" y="66" width="146" height="92.079" rx="8" fill="#fff" />
    </clipPath>
    <filter
      id="filter0_ddd_66_20"
      x="137"
      y="106"
      width="98"
      height="98"
      filterUnits="userSpaceOnUse"
      color-interpolation-filters="sRGB"
    >
      <feFlood flood-opacity="0" result="BackgroundImageFix" />
      <feColorMatrix
        in="SourceAlpha"
        values="0 0 0 0 0 0 0 0 0 0 0 0 0 0 0 0 0 0 127 0"
        result="hardAlpha"
      />
      <feOffset dy="1.079" />
      <feGaussianBlur stdDeviation="3.573" />
      <feColorMatrix
        values="0 0 0 0 0.0196078 0 0 0 0 0.0941176 0 0 0 0 0.25098 0 0 0 0.0377807 0"
      />
      <feBlend in2="BackgroundImageFix" result="effect1_dropShadow_66_20" />
      <feColorMatrix
        in="SourceAlpha"
        values="0 0 0 0 0 0 0 0 0 0 0 0 0 0 0 0 0 0 127 0"
        result="hardAlpha"
      />
      <feOffset dy="3.8" />
      <feGaussianBlur stdDeviation="6.725" />
      <feColorMatrix
        values="0 0 0 0 0.0196078 0 0 0 0 0.0941176 0 0 0 0 0.25098 0 0 0 0.0522616 0"
      />
      <feBlend
        in2="effect1_dropShadow_66_20"
        result="effect2_dropShadow_66_20"
      />
      <feColorMatrix
        in="SourceAlpha"
        values="0 0 0 0 0 0 0 0 0 0 0 0 0 0 0 0 0 0 127 0"
        result="hardAlpha"
      />
      <feOffset dy="17" />
      <feGaussianBlur stdDeviation="16.5" />
      <feColorMatrix
        values="0 0 0 0 0.0196078 0 0 0 0 0.0941176 0 0 0 0 0.25098 0 0 0 0.07 0"
      />
      <feBlend
        in2="effect2_dropShadow_66_20"
        result="effect3_dropShadow_66_20"
      />
      <feBlend
        in="SourceGraphic"
        in2="effect3_dropShadow_66_20"
        result="shape"
      />
    </filter>
  </defs>
</svg>
