<svg viewBox="0 0 470 240" fill="none" xmlns="http://www.w3.org/2000/svg"><path d="M96 151c43.509-19.444 55.256-48.081 89.193-48.081 42.421 0 52.125 32.118 97.3 32.118C327.669 135.037 343.93 46 413 46" stroke="#1A65BA" stroke-width="2"/><mask id="mask0_65_86" style="mask-type:alpha" maskUnits="userSpaceOnUse" x="96" y="46" width="317" height="148"><path opacity=".3" d="M185.193 102.919c-33.937 0-45.684 28.637-89.193 48.081v43h317V46c-69.07 0-85.331 89.037-130.507 89.037-45.175 0-54.879-32.118-97.3-32.118Z" fill="#1A65BA"/></mask><g filter="url(#filter0_f_65_86)" mask="url(#mask0_65_86)"><path d="M284.5 139c36 2.339 45.5-55 83.5-77l-48.5-44.5L86.593 10 135 125c16.5 7.5 23.5-19.949 53.5-18 30 1.949 53.668 29.25 96 32Z" fill="#1A65BA"/></g><path d="M96 204c43.593-19.444 55.363-48.081 89.366-48.081 42.503 0 52.225 32.118 97.488 32.118C343 188.037 356 99 414 99" stroke="#00A3D7" stroke-width="2"/><rect x="91" y="144" width="11" height="11" rx="5.5" fill="#1A65BA"/><rect x="91" y="197" width="11" height="11" rx="5.5" fill="#00A3D7"/><path d="M40.148 138v-11.636h4.363c.894 0 1.644.155 2.25.466.61.31 1.07.746 1.381 1.306.314.557.472 1.207.472 1.949 0 .746-.16 1.394-.478 1.943-.314.546-.778.968-1.392 1.267-.613.296-1.367.444-2.261.444h-3.108v-1.75h2.824c.523 0 .95-.072 1.284-.216a1.53 1.53 0 0 0 .739-.642c.162-.284.244-.633.244-1.046 0-.413-.082-.765-.244-1.057a1.553 1.553 0 0 0-.745-.67c-.333-.155-.763-.233-1.29-.233h-1.931V138h-2.108Zm6.011-5.273L49.04 138h-2.352l-2.83-5.273h2.302ZM53.882 138.17c-.875 0-1.631-.181-2.267-.545a3.69 3.69 0 0 1-1.46-1.557c-.342-.674-.512-1.468-.512-2.38 0-.898.17-1.686.511-2.364a3.868 3.868 0 0 1 1.444-1.591c.617-.383 1.342-.574 2.176-.574.538 0 1.045.087 1.523.261.48.171.905.436 1.272.796.371.36.663.818.875 1.375.212.553.318 1.212.318 1.977v.631H50.61v-1.386h5.182a2.216 2.216 0 0 0-.256-1.052c-.167-.31-.4-.555-.699-.733a1.965 1.965 0 0 0-1.034-.267c-.42 0-.79.103-1.108.307a2.114 2.114 0 0 0-.744.796 2.284 2.284 0 0 0-.267 1.074v1.21c0 .507.093.943.278 1.307.186.359.445.636.779.829.333.189.723.284 1.17.284.3 0 .57-.041.813-.125a1.81 1.81 0 0 0 .63-.38c.178-.167.313-.374.404-.62l1.92.216a2.994 2.994 0 0 1-.693 1.33 3.388 3.388 0 0 1-1.296.875c-.526.204-1.128.306-1.806.306ZM66.728 129.273 63.62 138h-2.273l-3.108-8.727h2.193l2.006 6.483h.091l2.011-6.483h2.188ZM71.398 138.17c-.875 0-1.63-.181-2.267-.545a3.689 3.689 0 0 1-1.46-1.557c-.341-.674-.512-1.468-.512-2.38 0-.898.17-1.686.512-2.364a3.867 3.867 0 0 1 1.443-1.591c.617-.383 1.343-.574 2.176-.574a4.41 4.41 0 0 1 1.523.261c.48.171.905.436 1.272.796.372.36.663.818.875 1.375.213.553.319 1.212.319 1.977v.631h-7.154v-1.386h5.182a2.216 2.216 0 0 0-.256-1.052c-.166-.31-.4-.555-.698-.733a1.965 1.965 0 0 0-1.035-.267c-.42 0-.79.103-1.108.307a2.114 2.114 0 0 0-.744.796 2.285 2.285 0 0 0-.267 1.074v1.21c0 .507.093.943.279 1.307.185.359.445.636.778.829.333.189.723.284 1.17.284.3 0 .57-.041.813-.125.242-.087.453-.214.63-.38.179-.167.313-.374.404-.62l1.92.216a2.994 2.994 0 0 1-.693 1.33 3.387 3.387 0 0 1-1.295.875c-.527.204-1.129.306-1.807.306ZM78.755 132.886V138H76.7v-8.727h1.966v1.483h.102c.2-.489.52-.877.96-1.165.443-.288.99-.432 1.642-.432.602 0 1.127.129 1.574.386.45.258.8.631 1.045 1.12.25.488.374 1.081.37 1.778V138H82.3v-5.239c0-.583-.152-1.039-.455-1.369-.299-.329-.714-.494-1.244-.494-.36 0-.68.079-.96.238a1.657 1.657 0 0 0-.654.677c-.155.295-.233.653-.233 1.073ZM91.691 134.33v-5.057h2.057V138h-1.994v-1.551h-.091c-.197.489-.521.888-.972 1.199-.447.31-.998.466-1.653.466-.572 0-1.078-.127-1.517-.381a2.651 2.651 0 0 1-1.023-1.119c-.246-.493-.37-1.087-.37-1.784v-5.557h2.058v5.238c0 .553.151.993.454 1.319.303.325.7.488 1.193.488.303 0 .597-.074.88-.221.285-.148.518-.368.7-.659.185-.296.278-.665.278-1.108ZM99.407 138.17c-.875 0-1.631-.181-2.267-.545a3.69 3.69 0 0 1-1.46-1.557c-.342-.674-.512-1.468-.512-2.38 0-.898.17-1.686.511-2.364a3.868 3.868 0 0 1 1.444-1.591c.617-.383 1.342-.574 2.176-.574.538 0 1.045.087 1.522.261.482.171.906.436 1.273.796.371.36.663.818.875 1.375.212.553.318 1.212.318 1.977v.631h-7.153v-1.386h5.182a2.215 2.215 0 0 0-.256-1.052c-.167-.31-.4-.555-.699-.733a1.963 1.963 0 0 0-1.034-.267c-.42 0-.79.103-1.108.307a2.114 2.114 0 0 0-.744.796 2.284 2.284 0 0 0-.267 1.074v1.21c0 .507.093.943.278 1.307.186.359.445.636.779.829.333.189.723.284 1.17.284.3 0 .57-.041.813-.125a1.81 1.81 0 0 0 .63-.38c.178-.167.313-.374.404-.62l1.92.216a2.991 2.991 0 0 1-.693 1.33 3.388 3.388 0 0 1-1.295.875c-.527.204-1.129.306-1.807.306Z" fill="#1A65BA"/><path d="M11.148 191v-11.636h4.363c.894 0 1.644.155 2.25.466.61.31 1.07.746 1.381 1.306.314.557.472 1.207.472 1.949 0 .746-.16 1.394-.478 1.943-.314.546-.778.968-1.392 1.267-.613.296-1.367.444-2.261.444h-3.108v-1.75h2.824c.523 0 .95-.072 1.284-.216a1.53 1.53 0 0 0 .739-.642c.162-.284.244-.633.244-1.046 0-.413-.082-.765-.244-1.057a1.553 1.553 0 0 0-.745-.67c-.333-.155-.763-.233-1.29-.233h-1.931V191h-2.108Zm6.011-5.273L20.04 191h-2.352l-2.83-5.273h2.302ZM24.882 191.17c-.875 0-1.631-.181-2.267-.545a3.69 3.69 0 0 1-1.46-1.557c-.341-.674-.512-1.468-.512-2.38 0-.898.17-1.686.511-2.364a3.868 3.868 0 0 1 1.444-1.591c.617-.383 1.342-.574 2.176-.574.538 0 1.045.087 1.523.261.48.171.905.436 1.272.796.371.36.663.818.875 1.375.212.553.318 1.212.318 1.977v.631H21.61v-1.386h5.182a2.216 2.216 0 0 0-.256-1.052c-.167-.31-.4-.555-.699-.733a1.965 1.965 0 0 0-1.034-.267c-.42 0-.79.103-1.108.307a2.114 2.114 0 0 0-.744.796 2.284 2.284 0 0 0-.267 1.074v1.21c0 .507.093.943.278 1.307.186.359.445.636.779.829.333.189.723.284 1.17.284.3 0 .57-.041.813-.125a1.81 1.81 0 0 0 .63-.38c.178-.167.313-.374.404-.62l1.92.216a2.994 2.994 0 0 1-.693 1.33 3.388 3.388 0 0 1-1.296.875c-.526.204-1.128.306-1.806.306ZM30.182 194.273v-12h2.023v1.443h.12c.105-.212.255-.438.448-.676.194-.243.455-.449.784-.62.33-.174.75-.261 1.262-.261.674 0 1.282.172 1.824.517.545.341.977.847 1.295 1.517.322.667.483 1.485.483 2.455 0 .958-.157 1.772-.471 2.443-.315.67-.743 1.182-1.285 1.534a3.304 3.304 0 0 1-1.84.528c-.5 0-.915-.083-1.245-.25a2.52 2.52 0 0 1-.795-.602 3.875 3.875 0 0 1-.46-.676h-.086v4.648h-2.057Zm2.018-7.637c0 .565.079 1.059.238 1.483.163.425.396.756.699.995.307.234.678.352 1.114.352.454 0 .835-.121 1.142-.364.306-.246.538-.581.693-1.005.159-.428.239-.915.239-1.461 0-.541-.078-1.022-.233-1.443-.156-.42-.387-.75-.694-.988-.306-.239-.69-.358-1.147-.358-.44 0-.813.115-1.12.346-.306.231-.54.555-.699.972-.155.416-.233.907-.233 1.471ZM43.726 191.17c-.875 0-1.63-.181-2.267-.545a3.689 3.689 0 0 1-1.46-1.557c-.341-.674-.512-1.468-.512-2.38 0-.898.17-1.686.512-2.364a3.867 3.867 0 0 1 1.443-1.591c.617-.383 1.343-.574 2.176-.574a4.41 4.41 0 0 1 1.523.261c.48.171.905.436 1.273.796.37.36.662.818.875 1.375.212.553.318 1.212.318 1.977v.631h-7.154v-1.386h5.182a2.217 2.217 0 0 0-.255-1.052c-.167-.31-.4-.555-.7-.733a1.965 1.965 0 0 0-1.033-.267c-.42 0-.79.103-1.108.307a2.115 2.115 0 0 0-.745.796 2.285 2.285 0 0 0-.267 1.074v1.21c0 .507.093.943.279 1.307.185.359.445.636.778.829.333.189.723.284 1.17.284.3 0 .57-.041.813-.125a1.81 1.81 0 0 0 .63-.38c.179-.167.313-.374.404-.62l1.92.216a2.994 2.994 0 0 1-.693 1.33 3.387 3.387 0 0 1-1.295.875c-.527.204-1.129.306-1.807.306ZM50.055 194.273c-.28 0-.54-.023-.778-.068a2.89 2.89 0 0 1-.563-.148l.478-1.602c.299.087.566.128.8.125a.984.984 0 0 0 .62-.222c.182-.14.335-.375.46-.705l.176-.471-3.164-8.909h2.181l2.012 6.591h.09l2.018-6.591h2.187l-3.494 9.784a3.91 3.91 0 0 1-.648 1.187 2.635 2.635 0 0 1-.988.762c-.387.178-.849.267-1.387.267ZM57.675 191v-8.727h1.967v1.483h.102c.181-.5.483-.89.903-1.171.42-.284.922-.426 1.506-.426.59 0 1.089.144 1.494.432.41.284.697.672.864 1.165h.09a2.38 2.38 0 0 1 .978-1.159c.462-.292 1.01-.438 1.642-.438.803 0 1.458.254 1.966.761.508.508.761 1.249.761 2.222V191h-2.062v-5.54c0-.541-.144-.937-.432-1.187a1.54 1.54 0 0 0-1.057-.381c-.496 0-.884.155-1.165.466-.276.307-.414.706-.414 1.199V191H62.8v-5.625c0-.451-.137-.811-.41-1.08-.268-.268-.62-.403-1.056-.403-.296 0-.565.076-.807.227a1.586 1.586 0 0 0-.58.631 1.968 1.968 0 0 0-.216.943V191h-2.056ZM75.579 191.17c-.875 0-1.631-.181-2.267-.545a3.689 3.689 0 0 1-1.46-1.557c-.342-.674-.512-1.468-.512-2.38 0-.898.17-1.686.511-2.364a3.867 3.867 0 0 1 1.444-1.591c.617-.383 1.342-.574 2.176-.574a4.41 4.41 0 0 1 1.522.261c.481.171.906.436 1.273.796.371.36.663.818.875 1.375.212.553.318 1.212.318 1.977v.631h-7.153v-1.386h5.182a2.216 2.216 0 0 0-.256-1.052c-.167-.31-.4-.555-.699-.733a1.965 1.965 0 0 0-1.034-.267c-.42 0-.79.103-1.108.307a2.115 2.115 0 0 0-.744.796 2.285 2.285 0 0 0-.267 1.074v1.21c0 .507.093.943.278 1.307.186.359.445.636.778.829.334.189.724.284 1.171.284.3 0 .57-.041.813-.125a1.81 1.81 0 0 0 .63-.38c.178-.167.313-.374.404-.62l1.92.216a2.994 2.994 0 0 1-.693 1.33 3.387 3.387 0 0 1-1.296.875c-.526.204-1.128.306-1.806.306ZM82.936 185.886V191H80.88v-8.727h1.966v1.483h.103c.2-.489.52-.877.96-1.165.443-.288.99-.432 1.642-.432.602 0 1.127.129 1.574.386.45.258.799.631 1.045 1.12.25.488.373 1.081.37 1.778V191h-2.057v-5.239c0-.583-.152-1.039-.455-1.369-.3-.329-.714-.494-1.244-.494-.36 0-.68.079-.96.238a1.658 1.658 0 0 0-.654.677c-.155.295-.233.653-.233 1.073ZM94.667 182.273v1.591H89.65v-1.591h5.017Zm-3.778-2.091h2.057v8.193c0 .277.041.489.125.636.087.144.2.243.34.296.14.053.296.079.466.079.13 0 .247-.009.353-.028.11-.019.193-.036.25-.051l.346 1.608a4.7 4.7 0 0 1-.471.125c-.201.045-.447.072-.739.079a3.347 3.347 0 0 1-1.392-.233 2.166 2.166 0 0 1-.983-.806c-.239-.364-.356-.819-.352-1.364v-8.534ZM102.84 184.58l-1.875.204a1.52 1.52 0 0 0-.278-.534 1.376 1.376 0 0 0-.523-.403c-.22-.103-.489-.154-.807-.154-.428 0-.788.093-1.08.279-.287.185-.43.426-.425.721a.757.757 0 0 0 .278.62c.193.159.511.289.955.392l1.488.318c.826.178 1.44.46 1.841.846.405.387.61.892.614 1.517a2.377 2.377 0 0 1-.483 1.455c-.315.417-.752.742-1.313.977-.56.235-1.204.352-1.932.352-1.068 0-1.928-.223-2.58-.67-.65-.451-1.039-1.078-1.164-1.881l2.006-.193c.09.394.284.691.58.892.295.201.68.301 1.153.301.488 0 .88-.1 1.176-.301.299-.201.449-.449.449-.744a.774.774 0 0 0-.29-.619c-.189-.163-.485-.288-.886-.375l-1.49-.313c-.836-.174-1.456-.468-1.857-.881-.401-.416-.6-.943-.597-1.579-.003-.538.142-1.004.438-1.398.3-.398.714-.704 1.244-.92.534-.22 1.15-.33 1.847-.33 1.023 0 1.827.218 2.415.654.59.435.956 1.024 1.096 1.767Z" fill="#00A3D7"/><defs><filter id="filter0_f_65_86" x="26.593" y="-50" width="401.407" height="249.069" filterUnits="userSpaceOnUse" color-interpolation-filters="sRGB"><feFlood flood-opacity="0" result="BackgroundImageFix"/><feBlend in="SourceGraphic" in2="BackgroundImageFix" result="shape"/><feGaussianBlur stdDeviation="30" result="effect1_foregroundBlur_65_86"/></filter></defs></svg>