<svg viewBox="0 0 470 240" fill="none" xmlns="http://www.w3.org/2000/svg">
<mask id="mask0_63_1172" style="mask-type:alpha" maskUnits="userSpaceOnUse" x="137" y="48" width="194" height="110">
<path d="M331 48C273 94.4 177.667 110 137 111V158H331V48Z" fill="white"/>
</mask>
<g mask="url(#mask0_63_1172)">
<g opacity="0.3" filter="url(#filter0_f_63_1172)">
<path d="M144.432 90.8732L137 71.2306C186.168 47.0866 288.733 4.56861 305.656 27.6486C322.579 50.7287 303.051 68.9525 296 75.5C280.373 84.5028 248.828 104.5 209.036 109.902C169.245 115.304 149.387 99.4668 144.432 90.8732Z" fill="#1A65BA"/>
</g>
</g>
<path d="M136.975 110C136.423 110.014 135.987 110.472 136 111.025C136.014 111.577 136.472 112.013 137.025 112L136.975 110ZM331.994 48.1104C332.055 47.5615 331.659 47.0671 331.11 47.0061L322.165 46.0122C321.617 45.9512 321.122 46.3468 321.061 46.8957C321 47.4446 321.396 47.939 321.945 48L329.896 48.8835L329.012 56.8345C328.951 57.3834 329.347 57.8778 329.896 57.9388C330.445 57.9998 330.939 57.6043 331 57.0554L331.994 48.1104ZM137.025 112C157.443 111.498 191.523 107.335 227.762 97.49C263.994 87.6473 302.474 72.1012 331.625 48.7809L330.375 47.2191C301.526 70.2988 263.339 85.7527 227.238 95.56C191.144 105.365 157.224 109.502 136.975 110L137.025 112Z" fill="#1A65BA"/>
<path d="M219.705 178.364L222.733 187.523H222.852L225.875 178.364H228.193L224.091 190H221.489L217.392 178.364H219.705Z" fill="black"/>
<path d="M238.741 182.29H236.616C236.555 181.941 236.444 181.633 236.281 181.364C236.118 181.091 235.915 180.86 235.673 180.67C235.43 180.481 235.154 180.339 234.843 180.244C234.537 180.146 234.205 180.097 233.849 180.097C233.216 180.097 232.656 180.256 232.167 180.574C231.679 180.888 231.296 181.35 231.02 181.96C230.743 182.566 230.605 183.307 230.605 184.182C230.605 185.072 230.743 185.822 231.02 186.432C231.3 187.038 231.682 187.496 232.167 187.807C232.656 188.114 233.215 188.267 233.843 188.267C234.192 188.267 234.518 188.222 234.821 188.131C235.127 188.036 235.402 187.898 235.645 187.716C235.891 187.534 236.097 187.311 236.264 187.045C236.434 186.78 236.552 186.477 236.616 186.136L238.741 186.148C238.662 186.701 238.489 187.22 238.224 187.705C237.963 188.189 237.62 188.617 237.196 188.989C236.771 189.356 236.275 189.644 235.707 189.852C235.139 190.057 234.508 190.159 233.815 190.159C232.792 190.159 231.879 189.922 231.076 189.449C230.273 188.975 229.641 188.292 229.179 187.398C228.716 186.504 228.485 185.432 228.485 184.182C228.485 182.928 228.718 181.856 229.184 180.966C229.65 180.072 230.285 179.388 231.088 178.915C231.891 178.441 232.8 178.205 233.815 178.205C234.463 178.205 235.065 178.295 235.622 178.477C236.179 178.659 236.675 178.926 237.11 179.278C237.546 179.627 237.904 180.055 238.184 180.563C238.468 181.066 238.654 181.642 238.741 182.29Z" fill="black"/>
<path d="M247.158 183.58L245.283 183.784C245.23 183.595 245.137 183.417 245.005 183.25C244.876 183.083 244.702 182.949 244.482 182.847C244.262 182.744 243.994 182.693 243.675 182.693C243.247 182.693 242.887 182.786 242.596 182.972C242.308 183.157 242.166 183.398 242.17 183.693C242.166 183.947 242.259 184.153 242.448 184.313C242.641 184.472 242.959 184.602 243.403 184.705L244.891 185.023C245.717 185.201 246.331 185.483 246.732 185.869C247.137 186.256 247.342 186.761 247.346 187.386C247.342 187.936 247.181 188.42 246.863 188.841C246.548 189.258 246.111 189.583 245.55 189.818C244.99 190.053 244.346 190.17 243.619 190.17C242.55 190.17 241.691 189.947 241.039 189.5C240.387 189.049 239.999 188.422 239.874 187.619L241.88 187.426C241.971 187.82 242.164 188.117 242.459 188.318C242.755 188.519 243.139 188.619 243.613 188.619C244.101 188.619 244.494 188.519 244.789 188.318C245.088 188.117 245.238 187.869 245.238 187.574C245.238 187.324 245.141 187.117 244.948 186.955C244.759 186.792 244.463 186.667 244.062 186.58L242.573 186.267C241.736 186.093 241.117 185.799 240.715 185.386C240.314 184.97 240.115 184.443 240.119 183.807C240.115 183.269 240.261 182.803 240.556 182.409C240.855 182.011 241.27 181.705 241.8 181.489C242.334 181.269 242.95 181.159 243.647 181.159C244.67 181.159 245.475 181.377 246.062 181.813C246.653 182.248 247.018 182.837 247.158 183.58Z" fill="black"/>
<path d="M105.148 190V178.364H109.511C110.405 178.364 111.155 178.53 111.761 178.864C112.371 179.197 112.831 179.655 113.142 180.239C113.456 180.818 113.614 181.477 113.614 182.216C113.614 182.962 113.456 183.625 113.142 184.205C112.828 184.784 112.364 185.241 111.75 185.574C111.136 185.903 110.381 186.068 109.483 186.068H106.591V184.335H109.199C109.722 184.335 110.15 184.244 110.483 184.063C110.816 183.881 111.063 183.631 111.222 183.313C111.384 182.994 111.466 182.629 111.466 182.216C111.466 181.803 111.384 181.439 111.222 181.125C111.063 180.811 110.814 180.566 110.477 180.392C110.144 180.214 109.714 180.125 109.188 180.125H107.256V190H105.148Z" fill="black"/>
<path d="M117.389 190.176C116.836 190.176 116.338 190.078 115.894 189.881C115.455 189.68 115.107 189.385 114.849 188.994C114.595 188.604 114.468 188.123 114.468 187.551C114.468 187.059 114.559 186.652 114.741 186.33C114.923 186.008 115.171 185.75 115.485 185.557C115.8 185.364 116.154 185.218 116.548 185.119C116.946 185.017 117.357 184.943 117.781 184.898C118.292 184.845 118.707 184.797 119.025 184.756C119.343 184.71 119.574 184.642 119.718 184.551C119.866 184.456 119.94 184.311 119.94 184.114V184.08C119.94 183.652 119.813 183.32 119.559 183.085C119.305 182.85 118.94 182.733 118.463 182.733C117.959 182.733 117.559 182.843 117.264 183.063C116.972 183.282 116.775 183.542 116.673 183.841L114.752 183.568C114.904 183.038 115.154 182.595 115.502 182.239C115.851 181.879 116.277 181.61 116.781 181.432C117.285 181.25 117.841 181.159 118.451 181.159C118.872 181.159 119.29 181.208 119.707 181.307C120.124 181.405 120.504 181.568 120.849 181.796C121.194 182.019 121.47 182.324 121.679 182.71C121.891 183.097 121.997 183.58 121.997 184.159V190H120.019V188.801H119.951C119.826 189.044 119.65 189.271 119.423 189.483C119.199 189.691 118.917 189.86 118.576 189.989C118.239 190.114 117.843 190.176 117.389 190.176ZM117.923 188.665C118.336 188.665 118.694 188.583 118.997 188.421C119.3 188.254 119.533 188.034 119.696 187.761C119.862 187.489 119.946 187.191 119.946 186.869V185.841C119.881 185.894 119.771 185.943 119.616 185.989C119.465 186.034 119.294 186.074 119.105 186.108C118.915 186.142 118.728 186.172 118.542 186.199C118.357 186.225 118.196 186.248 118.059 186.267C117.752 186.309 117.478 186.377 117.235 186.472C116.993 186.566 116.802 186.699 116.662 186.869C116.521 187.036 116.451 187.252 116.451 187.517C116.451 187.896 116.59 188.182 116.866 188.375C117.143 188.568 117.495 188.665 117.923 188.665Z" fill="black"/>
<path d="M123.745 190V181.273H125.739V182.727H125.83C125.989 182.224 126.262 181.835 126.648 181.563C127.039 181.286 127.484 181.148 127.984 181.148C128.097 181.148 128.224 181.153 128.364 181.165C128.508 181.172 128.628 181.186 128.722 181.205V183.097C128.635 183.066 128.497 183.04 128.307 183.017C128.122 182.991 127.942 182.977 127.768 182.977C127.393 182.977 127.056 183.059 126.756 183.222C126.461 183.381 126.228 183.602 126.057 183.886C125.887 184.171 125.802 184.498 125.802 184.869V190H123.745Z" fill="black"/>
<path d="M134.595 181.273V182.864H129.578V181.273H134.595ZM130.817 179.182H132.874V187.375C132.874 187.652 132.915 187.864 132.999 188.011C133.086 188.155 133.2 188.254 133.34 188.307C133.48 188.36 133.635 188.386 133.806 188.386C133.934 188.386 134.052 188.377 134.158 188.358C134.268 188.339 134.351 188.322 134.408 188.307L134.754 189.915C134.645 189.953 134.487 189.994 134.283 190.04C134.082 190.085 133.836 190.112 133.544 190.119C133.029 190.135 132.565 190.057 132.152 189.886C131.739 189.712 131.412 189.443 131.169 189.08C130.931 188.716 130.813 188.261 130.817 187.716V179.182Z" fill="black"/>
<path d="M138.052 184.886V190H135.996V181.273H137.961V182.756H138.064C138.265 182.267 138.585 181.879 139.024 181.591C139.467 181.303 140.015 181.159 140.666 181.159C141.268 181.159 141.793 181.288 142.24 181.546C142.691 181.803 143.039 182.176 143.285 182.665C143.535 183.153 143.658 183.746 143.655 184.443V190H141.598V184.761C141.598 184.178 141.446 183.722 141.143 183.392C140.844 183.063 140.429 182.898 139.899 182.898C139.539 182.898 139.219 182.977 138.939 183.136C138.662 183.292 138.444 183.517 138.285 183.813C138.13 184.108 138.052 184.466 138.052 184.886Z" fill="black"/>
<path d="M149.289 190.171C148.414 190.171 147.659 189.989 147.022 189.625C146.39 189.258 145.903 188.739 145.562 188.068C145.221 187.394 145.051 186.6 145.051 185.688C145.051 184.79 145.221 184.002 145.562 183.324C145.907 182.642 146.388 182.112 147.005 181.733C147.623 181.35 148.348 181.159 149.181 181.159C149.719 181.159 150.227 181.246 150.704 181.421C151.185 181.591 151.609 181.856 151.977 182.216C152.348 182.576 152.64 183.034 152.852 183.591C153.064 184.144 153.17 184.803 153.17 185.568V186.199H146.016V184.813H151.198C151.195 184.419 151.109 184.068 150.943 183.761C150.776 183.451 150.543 183.206 150.244 183.028C149.948 182.85 149.604 182.761 149.21 182.761C148.789 182.761 148.42 182.864 148.102 183.068C147.784 183.269 147.535 183.534 147.357 183.864C147.183 184.189 147.094 184.547 147.09 184.938V186.148C147.09 186.655 147.183 187.091 147.369 187.455C147.554 187.814 147.814 188.091 148.147 188.284C148.481 188.474 148.871 188.568 149.318 188.568C149.617 188.568 149.888 188.527 150.13 188.443C150.373 188.356 150.583 188.229 150.761 188.063C150.939 187.896 151.073 187.689 151.164 187.443L153.085 187.659C152.963 188.167 152.732 188.61 152.391 188.989C152.054 189.364 151.623 189.655 151.096 189.864C150.57 190.068 149.967 190.171 149.289 190.171Z" fill="black"/>
<path d="M154.59 190V181.273H156.584V182.727H156.675C156.834 182.224 157.107 181.835 157.493 181.563C157.884 181.286 158.329 181.148 158.829 181.148C158.942 181.148 159.069 181.153 159.209 181.165C159.353 181.172 159.473 181.186 159.567 181.205V183.097C159.48 183.066 159.342 183.04 159.152 183.017C158.967 182.991 158.787 182.977 158.613 182.977C158.238 182.977 157.901 183.059 157.601 183.222C157.306 183.381 157.073 183.602 156.902 183.886C156.732 184.171 156.647 184.498 156.647 184.869V190H154.59Z" fill="black"/>
<path d="M167.511 183.58L165.636 183.784C165.583 183.595 165.491 183.417 165.358 183.25C165.229 183.083 165.055 182.949 164.835 182.847C164.616 182.744 164.347 182.693 164.028 182.693C163.6 182.693 163.241 182.786 162.949 182.972C162.661 183.157 162.519 183.398 162.523 183.693C162.519 183.947 162.612 184.153 162.801 184.313C162.994 184.472 163.313 184.602 163.756 184.705L165.244 185.023C166.07 185.201 166.684 185.483 167.085 185.869C167.491 186.256 167.695 186.761 167.699 187.386C167.695 187.936 167.534 188.421 167.216 188.841C166.902 189.258 166.464 189.583 165.903 189.818C165.343 190.053 164.699 190.171 163.972 190.171C162.903 190.171 162.044 189.947 161.392 189.5C160.741 189.049 160.352 188.422 160.227 187.619L162.233 187.426C162.324 187.82 162.517 188.117 162.813 188.318C163.108 188.519 163.492 188.619 163.966 188.619C164.455 188.619 164.847 188.519 165.142 188.318C165.441 188.117 165.591 187.869 165.591 187.574C165.591 187.324 165.494 187.117 165.301 186.955C165.112 186.792 164.816 186.667 164.415 186.58L162.926 186.267C162.089 186.093 161.47 185.799 161.068 185.386C160.667 184.97 160.468 184.443 160.472 183.807C160.468 183.269 160.614 182.803 160.909 182.409C161.208 182.011 161.623 181.705 162.153 181.489C162.688 181.269 163.303 181.159 164 181.159C165.023 181.159 165.828 181.377 166.415 181.813C167.006 182.248 167.371 182.837 167.511 183.58Z" fill="black"/>
<path d="M298.642 190H296.392L300.489 178.364H303.091L307.193 190H304.943L301.835 180.75H301.744L298.642 190ZM298.716 185.438H304.852V187.131H298.716V185.438Z" fill="black"/>
<path d="M311.845 193.455C311.106 193.455 310.472 193.354 309.941 193.153C309.411 192.956 308.985 192.691 308.663 192.358C308.341 192.025 308.118 191.655 307.993 191.25L309.845 190.801C309.928 190.972 310.049 191.14 310.208 191.307C310.368 191.477 310.582 191.617 310.85 191.727C311.123 191.841 311.466 191.898 311.879 191.898C312.462 191.898 312.945 191.756 313.328 191.472C313.71 191.191 313.902 190.729 313.902 190.085V188.432H313.799C313.693 188.644 313.538 188.862 313.333 189.085C313.133 189.309 312.866 189.496 312.532 189.648C312.203 189.799 311.788 189.875 311.288 189.875C310.618 189.875 310.01 189.718 309.464 189.403C308.922 189.085 308.491 188.612 308.169 187.983C307.85 187.35 307.691 186.559 307.691 185.608C307.691 184.65 307.85 183.841 308.169 183.182C308.491 182.519 308.924 182.017 309.47 181.676C310.015 181.331 310.623 181.159 311.294 181.159C311.805 181.159 312.225 181.246 312.555 181.42C312.888 181.591 313.153 181.797 313.35 182.04C313.547 182.278 313.697 182.504 313.799 182.716H313.913V181.273H315.941V190.142C315.941 190.888 315.763 191.506 315.407 191.994C315.051 192.483 314.564 192.848 313.947 193.091C313.33 193.333 312.629 193.455 311.845 193.455ZM311.862 188.261C312.297 188.261 312.669 188.155 312.975 187.943C313.282 187.731 313.515 187.426 313.674 187.028C313.833 186.631 313.913 186.153 313.913 185.597C313.913 185.047 313.833 184.566 313.674 184.153C313.519 183.741 313.288 183.42 312.981 183.193C312.678 182.962 312.305 182.847 311.862 182.847C311.403 182.847 311.021 182.966 310.714 183.205C310.407 183.443 310.176 183.771 310.021 184.188C309.866 184.6 309.788 185.07 309.788 185.597C309.788 186.131 309.866 186.598 310.021 187C310.18 187.398 310.413 187.708 310.72 187.932C311.03 188.152 311.411 188.261 311.862 188.261Z" fill="black"/>
<path d="M321.593 190.17C320.718 190.17 319.962 189.989 319.326 189.625C318.693 189.258 318.207 188.739 317.866 188.068C317.525 187.394 317.354 186.6 317.354 185.688C317.354 184.79 317.525 184.002 317.866 183.324C318.21 182.642 318.691 182.112 319.309 181.733C319.926 181.35 320.652 181.159 321.485 181.159C322.023 181.159 322.53 181.246 323.008 181.42C323.489 181.591 323.913 181.856 324.28 182.216C324.652 182.576 324.943 183.034 325.155 183.591C325.368 184.144 325.474 184.803 325.474 185.568V186.199H318.32V184.813H323.502C323.498 184.419 323.413 184.068 323.246 183.761C323.08 183.451 322.847 183.206 322.548 183.028C322.252 182.85 321.907 182.761 321.513 182.761C321.093 182.761 320.724 182.864 320.405 183.068C320.087 183.269 319.839 183.534 319.661 183.864C319.487 184.189 319.398 184.547 319.394 184.938V186.148C319.394 186.655 319.487 187.091 319.673 187.455C319.858 187.814 320.118 188.091 320.451 188.284C320.784 188.473 321.174 188.568 321.621 188.568C321.921 188.568 322.191 188.527 322.434 188.443C322.676 188.356 322.887 188.229 323.065 188.063C323.243 187.896 323.377 187.689 323.468 187.443L325.388 187.659C325.267 188.167 325.036 188.61 324.695 188.989C324.358 189.364 323.926 189.655 323.4 189.864C322.873 190.068 322.271 190.17 321.593 190.17Z" fill="black"/>
<path d="M328.951 184.886V190H326.894V181.273H328.86V182.756H328.962C329.163 182.267 329.483 181.879 329.922 181.591C330.365 181.303 330.913 181.159 331.564 181.159C332.166 181.159 332.691 181.288 333.138 181.545C333.589 181.803 333.937 182.176 334.183 182.665C334.433 183.153 334.557 183.746 334.553 184.443V190H332.496V184.761C332.496 184.178 332.344 183.722 332.041 183.392C331.742 183.063 331.327 182.898 330.797 182.898C330.437 182.898 330.117 182.977 329.837 183.136C329.56 183.292 329.343 183.517 329.183 183.813C329.028 184.108 328.951 184.466 328.951 184.886Z" fill="black"/>
<path d="M340.131 190.17C339.259 190.17 338.511 189.979 337.886 189.597C337.265 189.214 336.786 188.686 336.449 188.011C336.115 187.333 335.949 186.553 335.949 185.67C335.949 184.784 336.119 184.002 336.46 183.324C336.801 182.642 337.282 182.112 337.903 181.733C338.528 181.35 339.267 181.159 340.119 181.159C340.827 181.159 341.454 181.29 342 181.551C342.549 181.809 342.987 182.174 343.312 182.648C343.638 183.117 343.824 183.667 343.869 184.295H341.903C341.824 183.875 341.634 183.525 341.335 183.244C341.04 182.96 340.644 182.818 340.148 182.818C339.727 182.818 339.358 182.932 339.04 183.159C338.721 183.383 338.473 183.705 338.295 184.125C338.121 184.545 338.034 185.049 338.034 185.636C338.034 186.231 338.121 186.742 338.295 187.17C338.47 187.595 338.714 187.922 339.028 188.153C339.346 188.381 339.72 188.494 340.148 188.494C340.451 188.494 340.721 188.438 340.96 188.324C341.202 188.206 341.405 188.038 341.568 187.818C341.731 187.598 341.843 187.331 341.903 187.017H343.869C343.82 187.634 343.638 188.182 343.324 188.659C343.009 189.133 342.581 189.504 342.04 189.773C341.498 190.038 340.862 190.17 340.131 190.17Z" fill="black"/>
<path d="M345.238 190V181.273H347.295V190H345.238ZM346.272 180.034C345.946 180.034 345.666 179.926 345.431 179.71C345.196 179.491 345.079 179.227 345.079 178.92C345.079 178.61 345.196 178.347 345.431 178.131C345.666 177.911 345.946 177.801 346.272 177.801C346.602 177.801 346.882 177.911 347.113 178.131C347.348 178.347 347.465 178.61 347.465 178.92C347.465 179.227 347.348 179.491 347.113 179.71C346.882 179.926 346.602 180.034 346.272 180.034Z" fill="black"/>
<path d="M352.954 190.17C352.079 190.17 351.323 189.989 350.687 189.625C350.054 189.258 349.567 188.739 349.226 188.068C348.885 187.394 348.715 186.6 348.715 185.688C348.715 184.79 348.885 184.002 349.226 183.324C349.571 182.642 350.052 182.112 350.669 181.733C351.287 181.35 352.012 181.159 352.846 181.159C353.384 181.159 353.891 181.246 354.368 181.42C354.849 181.591 355.274 181.856 355.641 182.216C356.012 182.576 356.304 183.034 356.516 183.591C356.728 184.144 356.834 184.803 356.834 185.568V186.199H349.681V184.813H354.863C354.859 184.419 354.774 184.068 354.607 183.761C354.44 183.451 354.207 183.206 353.908 183.028C353.613 182.85 353.268 182.761 352.874 182.761C352.454 182.761 352.084 182.864 351.766 183.068C351.448 183.269 351.2 183.534 351.022 183.864C350.848 184.189 350.759 184.547 350.755 184.938V186.148C350.755 186.655 350.848 187.091 351.033 187.455C351.219 187.814 351.478 188.091 351.812 188.284C352.145 188.473 352.535 188.568 352.982 188.568C353.281 188.568 353.552 188.527 353.794 188.443C354.037 188.356 354.247 188.229 354.425 188.063C354.603 187.896 354.738 187.689 354.829 187.443L356.749 187.659C356.628 188.167 356.397 188.61 356.056 188.989C355.719 189.364 355.287 189.655 354.76 189.864C354.234 190.068 353.632 190.17 352.954 190.17Z" fill="black"/>
<path d="M365.152 183.58L363.277 183.784C363.224 183.595 363.131 183.417 362.999 183.25C362.87 183.083 362.696 182.949 362.476 182.847C362.256 182.744 361.987 182.693 361.669 182.693C361.241 182.693 360.881 182.786 360.59 182.972C360.302 183.157 360.16 183.398 360.163 183.693C360.16 183.947 360.252 184.153 360.442 184.313C360.635 184.472 360.953 184.602 361.396 184.705L362.885 185.023C363.711 185.201 364.324 185.483 364.726 185.869C365.131 186.256 365.336 186.761 365.34 187.386C365.336 187.936 365.175 188.42 364.857 188.841C364.542 189.258 364.105 189.583 363.544 189.818C362.983 190.053 362.34 190.17 361.612 190.17C360.544 190.17 359.684 189.947 359.033 189.5C358.381 189.049 357.993 188.422 357.868 187.619L359.874 187.426C359.965 187.82 360.158 188.117 360.453 188.318C360.749 188.519 361.133 188.619 361.607 188.619C362.095 188.619 362.487 188.519 362.783 188.318C363.082 188.117 363.232 187.869 363.232 187.574C363.232 187.324 363.135 187.117 362.942 186.955C362.752 186.792 362.457 186.667 362.055 186.58L360.567 186.267C359.73 186.093 359.11 185.799 358.709 185.386C358.307 184.97 358.108 184.443 358.112 183.807C358.108 183.269 358.254 182.803 358.55 182.409C358.849 182.011 359.264 181.705 359.794 181.489C360.328 181.269 360.944 181.159 361.641 181.159C362.663 181.159 363.468 181.377 364.055 181.813C364.646 182.248 365.012 182.837 365.152 183.58Z" fill="black"/>
<path d="M216 131H146.5C140.977 131 136.5 135.477 136.5 141V170" stroke="#C7C7C7" stroke-width="2" stroke-linecap="round" stroke-dasharray="1 6"/>
<path d="M254 131H321C326.523 131 331 135.477 331 141V170" stroke="#C7C7C7" stroke-width="2" stroke-linecap="round" stroke-dasharray="1 6"/>
<path d="M234.5 150V170" stroke="#C7C7C7" stroke-width="2" stroke-linecap="round" stroke-dasharray="1 6"/>
<g filter="url(#filter1_ddd_63_1172)">
<rect x="219" y="115" width="32" height="32" rx="16" fill="white"/>
<path opacity="0.3" d="M235 120.333C229.12 120.333 224.333 125.12 224.333 131C224.333 133.427 225.16 135.653 226.52 137.44C228.427 135.12 233.053 134.333 235 134.333C236.947 134.333 241.573 135.12 243.48 137.44C244.84 135.653 245.667 133.427 245.667 131C245.667 125.12 240.88 120.333 235 120.333ZM235 132.333C232.413 132.333 230.333 130.253 230.333 127.667C230.333 125.08 232.413 123 235 123C237.587 123 239.667 125.08 239.667 127.667C239.667 130.253 237.587 132.333 235 132.333Z" fill="#00A3D7"/>
<path d="M235 117.667C227.64 117.667 221.667 123.64 221.667 131C221.667 138.36 227.64 144.333 235 144.333C242.36 144.333 248.333 138.36 248.333 131C248.333 123.64 242.36 117.667 235 117.667ZM228.427 139.373C229 138.173 232.493 137 235 137C237.507 137 241.013 138.173 241.573 139.373C239.76 140.813 237.48 141.667 235 141.667C232.52 141.667 230.24 140.813 228.427 139.373ZM243.48 137.44C241.573 135.12 236.947 134.333 235 134.333C233.053 134.333 228.427 135.12 226.52 137.44C225.16 135.653 224.333 133.427 224.333 131C224.333 125.12 229.12 120.333 235 120.333C240.88 120.333 245.667 125.12 245.667 131C245.667 133.427 244.84 135.653 243.48 137.44V137.44ZM235 123C232.413 123 230.333 125.08 230.333 127.667C230.333 130.253 232.413 132.333 235 132.333C237.587 132.333 239.667 130.253 239.667 127.667C239.667 125.08 237.587 123 235 123ZM235 129.667C233.893 129.667 233 128.773 233 127.667C233 126.56 233.893 125.667 235 125.667C236.107 125.667 237 126.56 237 127.667C237 128.773 236.107 129.667 235 129.667Z" fill="#00A3D7"/>
</g>
<defs>
<filter id="filter0_f_63_1172" x="107" y="-9" width="235.376" height="150" filterUnits="userSpaceOnUse" color-interpolation-filters="sRGB">
<feFlood flood-opacity="0" result="BackgroundImageFix"/>
<feBlend mode="normal" in="SourceGraphic" in2="BackgroundImageFix" result="shape"/>
<feGaussianBlur stdDeviation="15" result="effect1_foregroundBlur_63_1172"/>
</filter>
<filter id="filter1_ddd_63_1172" x="186" y="99" width="98" height="98" filterUnits="userSpaceOnUse" color-interpolation-filters="sRGB">
<feFlood flood-opacity="0" result="BackgroundImageFix"/>
<feColorMatrix in="SourceAlpha" type="matrix" values="0 0 0 0 0 0 0 0 0 0 0 0 0 0 0 0 0 0 127 0" result="hardAlpha"/>
<feOffset dy="1.07885"/>
<feGaussianBlur stdDeviation="3.57289"/>
<feColorMatrix type="matrix" values="0 0 0 0 0.0196078 0 0 0 0 0.0941176 0 0 0 0 0.25098 0 0 0 0.0377807 0"/>
<feBlend mode="normal" in2="BackgroundImageFix" result="effect1_dropShadow_63_1172"/>
<feColorMatrix in="SourceAlpha" type="matrix" values="0 0 0 0 0 0 0 0 0 0 0 0 0 0 0 0 0 0 127 0" result="hardAlpha"/>
<feOffset dy="3.8002"/>
<feGaussianBlur stdDeviation="6.72502"/>
<feColorMatrix type="matrix" values="0 0 0 0 0.0196078 0 0 0 0 0.0941176 0 0 0 0 0.25098 0 0 0 0.0522616 0"/>
<feBlend mode="normal" in2="effect1_dropShadow_63_1172" result="effect2_dropShadow_63_1172"/>
<feColorMatrix in="SourceAlpha" type="matrix" values="0 0 0 0 0 0 0 0 0 0 0 0 0 0 0 0 0 0 127 0" result="hardAlpha"/>
<feOffset dy="17"/>
<feGaussianBlur stdDeviation="16.5"/>
<feColorMatrix type="matrix" values="0 0 0 0 0.0196078 0 0 0 0 0.0941176 0 0 0 0 0.25098 0 0 0 0.07 0"/>
<feBlend mode="normal" in2="effect2_dropShadow_63_1172" result="effect3_dropShadow_63_1172"/>
<feBlend mode="normal" in="SourceGraphic" in2="effect3_dropShadow_63_1172" result="shape"/>
</filter>
</defs>
</svg>
