<svg fill="none" xmlns="http://www.w3.org/2000/svg" viewBox="0 0 470 222">
  <path
    d="M182.871 168.643c-6.949 0-11.871 4.955-11.871 11.679S175.922 192 182.871 192c6.949 0 11.872-4.954 11.872-11.678 0-6.724-4.923-11.679-11.872-11.679Zm0 5.148c3.668 0 6.274 2.67 6.274 6.531 0 3.86-2.606 6.531-6.274 6.531-3.667 0-6.273-2.671-6.273-6.531 0-3.861 2.606-6.531 6.273-6.531ZM211.669 176.002a.2.2 0 0 0-.2-.2h-4.618a.2.2 0 0 0-.2.2v8.373c0 2.011-1.094 2.928-2.59 2.928-1.512 0-2.59-.917-2.59-2.928v-8.373a.2.2 0 0 0-.2-.2h-4.635a.2.2 0 0 0-.2.2v8.808c0 4.954 3.41 7.19 7.625 7.19 4.198 0 7.608-2.236 7.608-7.174v-8.824ZM228.404 176.002a.2.2 0 0 0-.2-.2h-6.983a.2.2 0 0 1-.2-.2v-4.201a.2.2 0 0 0-.2-.2h-4.635a.2.2 0 0 0-.2.2v4.201a.2.2 0 0 1-.2.2h-2.544a.2.2 0 0 0-.2.2v4.055c0 .111.09.2.2.2h2.544c.11 0 .2.09.2.2v5.06c0 3.958 1.914 6.483 6.145 6.483 1.362 0 3.212-.548 3.724-.709a.196.196 0 0 0 .136-.188v-3.729c0-.465-.506-.753-.926-.555-.583.274-1.212.484-1.808.484-1.271 0-2.236-.611-2.236-2.429v-4.417a.2.2 0 0 1 .2-.2h6.983a.2.2 0 0 0 .2-.2v-4.055Z"
    fill="#051734"
  />
  <path
    d="M237.548 176.002a.2.2 0 0 0-.2-.2h-4.024a.2.2 0 0 1-.2-.2v-.91c0-1.368.547-1.995 1.657-1.995.893 0 1.594.262 2.293.607a.2.2 0 0 0 .263-.078l2.002-3.399a.197.197 0 0 0-.053-.26c-1.22-.882-2.814-1.567-5.181-1.567-3.683 0-6.016 2.332-6.016 6.579v16.803c0 .11.09.2.2.2h4.635a.2.2 0 0 0 .2-.2v-10.925a.2.2 0 0 1 .2-.2h4.024a.2.2 0 0 0 .2-.2v-4.055ZM254.221 176.002a.2.2 0 0 0-.2-.2h-4.618a.2.2 0 0 0-.2.2v8.373c0 2.011-1.094 2.928-2.59 2.928-1.512 0-2.59-.917-2.59-2.928v-8.373a.2.2 0 0 0-.2-.2h-4.635a.2.2 0 0 0-.2.2v8.808c0 4.954 3.41 7.19 7.625 7.19 4.198 0 7.608-2.236 7.608-7.174v-8.824ZM265.853 175.367c-1.838 0-3.285.576-4.286 1.822-.127.158-.411.074-.411-.129v-1.058a.2.2 0 0 0-.2-.2h-4.426a.2.2 0 0 0-.2.2v15.38c0 .11.09.2.2.2h4.635a.2.2 0 0 0 .2-.2v-8.294c0-2.042 1.158-2.991 2.558-2.991 1.56 0 2.493 1.045 2.493 2.911v8.374c0 .11.09.2.2.2h4.635a.2.2 0 0 0 .2-.2v-10.159c0-3.652-2.445-5.856-5.598-5.856ZM280.365 175.367c-4.231 0-7.351 3.668-7.351 8.301 0 4.664 3.12 8.332 7.335 8.332 1.87 0 3.212-.676 4.154-1.674.131-.139.382-.051.382.141v.915c0 .11.089.2.2.2h4.458a.2.2 0 0 0 .2-.2v-22.764a.2.2 0 0 0-.2-.2h-4.619a.2.2 0 0 0-.2.2v8.142c0 .187-.241.277-.374.146-.931-.921-2.224-1.539-3.985-1.539Zm1.19 4.697c1.979 0 3.378 1.528 3.378 3.62 0 2.091-1.399 3.619-3.378 3.619-2.011 0-3.362-1.56-3.362-3.619s1.351-3.62 3.362-3.62Z"
    fill="#051734"
  />
  <rect x="292" y="186" width="6" height="6" rx="3" fill="#00A3D7" />
  <path
    d="M129 41.5V126h113M261.5 42v84H248M380.5 42v84h-114"
    stroke="#C7C7C7"
    stroke-width="2"
    stroke-linecap="round"
    stroke-dasharray="1 6"
  />
  <path
    d="M36.05 67.488a.213.213 0 0 0-.201-.184c-.084 0-1.748-.034-1.748-.034s-1.395-1.345-1.53-1.496c-.134-.134-.403-.1-.504-.067l-.706.218a5.004 5.004 0 0 0-.336-.823c-.487-.941-1.227-1.446-2.1-1.446-.068 0-.118 0-.186.017-.033-.033-.05-.067-.084-.084-.386-.403-.873-.605-1.462-.588-1.126.034-2.252.857-3.176 2.303-.639 1.025-1.126 2.302-1.277 3.294-1.295.403-2.202.689-2.236.689-.655.201-.672.218-.756.84-.034.47-1.748 13.731-1.748 13.731l14.387 2.487 6.235-1.546c-.017 0-2.555-17.193-2.572-17.31Zm-5.411-1.327c-.337.1-.706.218-1.11.353 0-.572-.084-1.379-.336-2.05.857.134 1.278 1.108 1.446 1.697Zm-1.866.571c-.756.235-1.58.487-2.403.74.235-.891.672-1.765 1.21-2.353.202-.219.487-.454.807-.589.336.656.403 1.58.386 2.202Zm-1.546-2.975c.269 0 .487.05.672.185a2.978 2.978 0 0 0-.874.69c-.723.772-1.277 1.966-1.496 3.125-.689.219-1.36.42-1.966.605.403-1.832 1.933-4.554 3.664-4.605Z"
    fill="#95BF47"
  />
  <path
    d="M35.849 67.303c-.084 0-1.748-.033-1.748-.033s-1.395-1.345-1.53-1.496a.27.27 0 0 0-.184-.084v20.655l6.235-1.546-2.555-17.31c-.033-.118-.134-.186-.218-.186Z"
    fill="#5E8E3E"
  />
  <path
    d="m28.924 70.513-.722 2.706s-.807-.37-1.765-.302c-1.412.084-1.412.975-1.412 1.193.084 1.21 3.26 1.48 3.446 4.32.134 2.235-1.177 3.764-3.093 3.882-2.285.118-3.546-1.227-3.546-1.227l.487-2.067s1.278.958 2.286.89a.892.892 0 0 0 .874-.957c-.1-1.58-2.689-1.48-2.857-4.084-.135-2.185 1.294-4.387 4.454-4.589 1.227-.084 1.848.235 1.848.235Z"
    fill="#fff"
  />
  <path
    d="M47.059 76.278c-.723-.386-1.093-.722-1.093-1.176 0-.572.521-.941 1.328-.941.941 0 1.782.386 1.782.386l.655-2.017s-.605-.47-2.387-.47c-2.487 0-4.218 1.428-4.218 3.428 0 1.143.807 2 1.882 2.622.874.488 1.177.84 1.177 1.362 0 .537-.437.974-1.244.974-1.193 0-2.336-.621-2.336-.621L41.9 81.84s1.042.706 2.807.706c2.554 0 4.403-1.26 4.403-3.53-.017-1.226-.94-2.1-2.05-2.739ZM57.244 72.026c-1.26 0-2.252.605-3.009 1.513l-.033-.017 1.092-5.714h-2.84L49.68 82.362h2.84l.941-4.975c.37-1.882 1.345-3.042 2.252-3.042.639 0 .891.437.891 1.06 0 .386-.033.873-.117 1.26l-1.076 5.697h2.84l1.11-5.882c.117-.622.201-1.362.201-1.866.017-1.613-.823-2.588-2.32-2.588ZM66.017 72.026c-3.429 0-5.698 3.093-5.698 6.538 0 2.202 1.362 3.983 3.916 3.983 3.362 0 5.63-3.008 5.63-6.538.017-2.033-1.176-3.983-3.848-3.983Zm-1.395 8.353c-.975 0-1.378-.824-1.378-1.866 0-1.63.84-4.285 2.386-4.285 1.009 0 1.345.874 1.345 1.714 0 1.748-.857 4.437-2.353 4.437ZM77.16 72.026c-1.916 0-3.009 1.698-3.009 1.698h-.033l.168-1.53h-2.521a63.133 63.133 0 0 1-.572 3.782l-1.983 10.42h2.84l.79-4.219h.068s.588.37 1.663.37c3.345 0 5.53-3.428 5.53-6.89 0-1.917-.857-3.63-2.941-3.63Zm-2.723 8.387c-.74 0-1.177-.42-1.177-.42l.471-2.656c.336-1.782 1.26-2.958 2.252-2.958.874 0 1.143.807 1.143 1.563 0 1.849-1.092 4.47-2.689 4.47ZM84.168 67.942c-.908 0-1.63.723-1.63 1.647 0 .84.538 1.429 1.344 1.429h.034c.89 0 1.647-.605 1.664-1.647 0-.824-.555-1.429-1.412-1.429ZM80.185 82.346h2.84l1.933-10.085h-2.857l-1.916 10.085ZM92.202 72.245h-1.983l.1-.471c.168-.975.74-1.832 1.698-1.832.504 0 .907.151.907.151l.555-2.235s-.487-.252-1.546-.252c-1.009 0-2.017.286-2.79.941-.975.824-1.429 2.017-1.647 3.227l-.084.47h-1.328l-.42 2.152h1.328l-1.513 7.966h2.84l1.513-7.966h1.966l.404-2.151ZM99.059 72.261s-1.782 4.488-2.572 6.942h-.033c-.05-.79-.706-6.942-.706-6.942h-2.992l1.715 9.261c.033.202.016.336-.068.47-.336.64-.89 1.261-1.546 1.715-.538.386-1.143.639-1.613.807l.79 2.42c.571-.118 1.781-.605 2.79-1.546 1.294-1.21 2.504-3.093 3.73-5.648l3.48-7.478h-2.975Z"
    fill="#000"
  />
  <path
    fill-rule="evenodd"
    clip-rule="evenodd"
    d="M55.906 17.339c0-.188.17-.339.358-.339h.47l7.503 7.222h.019v-6.676c0-.188.15-.358.357-.358h2.257a.37.37 0 0 1 .358.358V30.2c0 .189-.17.34-.358.34h-.3a.556.556 0 0 1-.245-.095l-7.428-7.466h-.02v7.015c0 .188-.15.357-.357.357h-2.237a.37.37 0 0 1-.358-.357l-.019-12.656ZM24.751 27.531c2.069 0 3.762-1.692 3.762-3.742 0-2.069-1.693-3.78-3.762-3.78-2.05 0-3.742 1.711-3.742 3.78 0 2.05 1.693 3.742 3.742 3.742Zm0-10.53a6.758 6.758 0 0 1 6.77 6.788c0 3.761-3.008 6.751-6.77 6.751A6.71 6.71 0 0 1 18 23.79c0-3.762 2.99-6.79 6.751-6.79ZM38.463 22.83c.809 0 1.486-.64 1.486-1.486 0-.79-.677-1.392-1.486-1.392h-1.786v2.878h1.786Zm-4.72-5.284c0-.188.15-.358.357-.358h4.533c2.312 0 4.212 1.881 4.212 4.156 0 2.332-1.9 4.231-4.194 4.231h-1.974v4.42a.37.37 0 0 1-.358.357H34.1a.357.357 0 0 1-.357-.357v-12.45ZM44.904 17.546c0-.188.15-.358.356-.358h7.786c.207 0 .358.17.358.358v2.05c0 .188-.15.357-.358.357h-5.209v2.332h4.287a.37.37 0 0 1 .358.357v2.05c0 .207-.17.357-.358.357h-4.287v2.538h5.21c.206 0 .357.17.357.358v2.05c0 .188-.15.357-.358.357h-7.785a.357.357 0 0 1-.358-.357v-12.45ZM79.265 27.663c.733 0 1.354-.602 1.354-1.372 0-.753-.809-1.317-1.542-1.317h-1.523v2.689h1.711Zm-.245-5.134c.715 0 1.317-.601 1.317-1.354 0-.752-.602-1.279-1.317-1.279h-1.466v2.633h1.466Zm-4.4-4.983c0-.188.15-.358.357-.358h4.382c2.22 0 4.043 1.523 4.043 3.498 0 1.448-1.297 2.502-2.181 2.971.996.415 2.52 1.336 2.52 3.066 0 2.106-1.862 3.63-4.1 3.63h-4.664a.357.357 0 0 1-.357-.358v-12.45ZM92.585 25.84l-1.43-3.104h-.019l-1.41 3.103h2.859Zm-7.73 4.023 5.886-12.656a.381.381 0 0 1 .32-.207h.188c.132 0 .263.094.32.207l5.886 12.656c.113.245-.038.49-.32.49h-2.087c-.338 0-.489-.113-.658-.471l-.677-1.486h-5.115l-.678 1.505a.7.7 0 0 1-.676.451h-2.07c-.281 0-.431-.244-.319-.489ZM99.257 17.339c0-.188.17-.339.358-.339h.47l7.503 7.222h.019v-6.676c0-.188.151-.358.358-.358h2.256a.37.37 0 0 1 .358.358V30.2c0 .189-.17.34-.358.34h-.301a.558.558 0 0 1-.244-.095l-7.429-7.466h-.018v7.015c0 .188-.15.357-.357.357h-2.238a.37.37 0 0 1-.358-.357l-.019-12.656ZM113.481 17.64c0-.245.189-.452.452-.452h2.2c.244 0 .451.207.451.452v4.945l4.175-5.209a.557.557 0 0 1 .357-.188h2.37c.358 0 .545.414.339.696l-4.401 5.51 4.795 6.244a.442.442 0 0 1-.357.695h-2.595c-.132 0-.301-.075-.338-.131l-4.345-5.905V29.9a.458.458 0 0 1-.451.451h-2.2a.446.446 0 0 1-.452-.451V17.64ZM126.389 17.546a.37.37 0 0 1 .357-.358h2.257a.37.37 0 0 1 .357.358v12.449a.37.37 0 0 1-.357.357h-2.257a.37.37 0 0 1-.357-.357v-12.45ZM132.298 17.339c0-.188.17-.339.358-.339h.47l7.503 7.222h.019v-6.676c0-.188.151-.358.358-.358h2.256a.37.37 0 0 1 .357.358V30.2c0 .189-.169.34-.357.34h-.301a.553.553 0 0 1-.244-.095l-7.429-7.466h-.018v7.015c0 .188-.15.357-.358.357h-2.238a.37.37 0 0 1-.357-.357l-.019-12.656ZM152.527 17.019c1.58 0 3.311.658 4.589 1.768.17.131.188.357.038.507l-1.486 1.58a.396.396 0 0 1-.507.019c-.715-.659-1.543-.903-2.464-.903-2.05 0-3.705 1.73-3.705 3.799 0 2.05 1.674 3.742 3.724 3.742.545 0 1.109-.075 1.674-.3V26.14h-1.185c-.207 0-.357-.15-.357-.339V23.94c0-.207.15-.358.357-.358h3.78c.188 0 .339.17.339.358l.018 5.058a.465.465 0 0 1-.15.301s-1.937 1.222-4.665 1.222c-3.742 0-6.75-2.971-6.75-6.732a6.737 6.737 0 0 1 6.75-6.77Z"
    fill="#101289"
  />
  <g clip-path="url(#a)" fill-rule="evenodd" clip-rule="evenodd">
    <path
      d="M329.711 85.64c-3.907 2.843-9.57 4.36-14.446 4.36-6.837 0-12.992-2.496-17.648-6.647-.366-.327-.038-.772.401-.517 5.025 2.886 11.238 4.622 17.656 4.622 4.329 0 9.091-.884 13.469-2.719.661-.277 1.214.428.568.902"
      fill="#F90"
    />
    <path
      d="M331.335 83.806c-.498-.63-3.301-.297-4.56-.15-.383.046-.442-.283-.096-.52 2.233-1.551 5.897-1.103 6.324-.584.427.523-.111 4.149-2.209 5.88-.322.265-.63.124-.486-.229.471-1.161 1.527-3.764 1.027-4.397"
      fill="#F90"
    />
    <path
      d="M326.863 72.184v-1.508c0-.228.176-.381.386-.381h6.84c.219 0 .395.156.395.381v1.291c-.003.217-.187.5-.515.948l-3.544 4.995c1.317-.032 2.707.162 3.901.826.269.15.342.37.363.587v1.609c0 .22-.246.476-.503.343-2.105-1.089-4.9-1.207-7.226.012-.237.127-.486-.127-.486-.347v-1.528c0-.246.003-.664.251-1.037l4.107-5.813h-3.574c-.219 0-.395-.153-.395-.378M301.913 81.593h-2.081a.39.39 0 0 1-.371-.35V70.703c0-.21.178-.379.401-.379h1.94a.39.39 0 0 1 .378.353v1.378h.038c.506-1.332 1.457-1.953 2.739-1.953 1.302 0 2.116.621 2.701 1.953.504-1.332 1.648-1.953 2.874-1.953.872 0 1.827.355 2.409 1.153.658.887.524 2.175.524 3.305l-.003 6.653c0 .21-.179.381-.401.381h-2.078a.393.393 0 0 1-.375-.381v-5.587c0-.445.041-1.555-.058-1.976-.155-.708-.621-.907-1.223-.907-.504 0-1.031.332-1.244.863-.214.532-.193 1.422-.193 2.02v5.587c0 .21-.179.381-.401.381h-2.078a.39.39 0 0 1-.375-.381l-.003-5.587c0-1.176.196-2.907-1.282-2.907-1.495 0-1.437 1.688-1.437 2.907v5.587a.39.39 0 0 1-.401.381M340.372 70.101c3.088 0 4.759 2.617 4.759 5.945 0 3.216-1.846 5.767-4.759 5.767-3.032 0-4.682-2.618-4.682-5.88 0-3.281 1.671-5.832 4.682-5.832Zm.018 2.152c-1.534 0-1.63 2.063-1.63 3.349 0 1.288-.021 4.038 1.612 4.038 1.613 0 1.689-2.218 1.689-3.57 0-.89-.038-1.953-.31-2.797-.234-.734-.7-1.02-1.361-1.02M349.135 81.593h-2.072a.393.393 0 0 1-.375-.381l-.003-10.545a.392.392 0 0 1 .401-.344h1.929c.181.01.331.13.372.295v1.612h.038c.582-1.441 1.399-2.129 2.836-2.129.933 0 1.843.332 2.429 1.242.544.844.544 2.262.544 3.282v6.636c-.023.185-.196.332-.401.332h-2.087c-.19-.014-.348-.153-.368-.332v-5.726c0-1.153.134-2.84-1.303-2.84-.506 0-.971.335-1.203.844-.292.644-.33 1.285-.33 1.996v5.677a.398.398 0 0 1-.407.381M321.411 76.558c0 .8.02 1.467-.39 2.178-.33.578-.857.933-1.439.933-.799 0-1.268-.6-1.268-1.488 0-1.75 1.589-2.068 3.097-2.068v.445Zm2.098 5.006a.44.44 0 0 1-.492.05c-.69-.567-.816-.83-1.194-1.37-1.141 1.15-1.952 1.494-3.43 1.494-1.753 0-3.114-1.066-3.114-3.201 0-1.667.913-2.803 2.219-3.357 1.129-.491 2.707-.578 3.913-.714v-.265c0-.489.038-1.066-.255-1.488-.252-.379-.737-.535-1.168-.535-.793 0-1.498.402-1.671 1.234-.035.185-.172.367-.363.375l-2.016-.213c-.17-.038-.36-.174-.31-.43.462-2.416 2.675-3.144 4.653-3.144 1.013 0 2.335.266 3.134 1.023 1.013.933.916 2.178.916 3.533v3.2c0 .963.404 1.385.785 1.904.132.185.161.408-.009.547-.424.35-1.179 1-1.595 1.363l-.003-.006M294.131 76.558c0 .8.021 1.468-.389 2.178-.331.578-.854.933-1.44.933-.799 0-1.264-.6-1.264-1.487 0-1.751 1.589-2.069 3.093-2.069v.445Zm2.099 5.007a.44.44 0 0 1-.492.049c-.691-.567-.814-.83-1.194-1.37-1.141 1.15-1.949 1.494-3.43 1.494-1.75 0-3.114-1.066-3.114-3.201 0-1.667.916-2.802 2.218-3.357 1.13-.491 2.708-.578 3.913-.714v-.265c0-.488.038-1.066-.251-1.488-.255-.378-.741-.534-1.168-.534-.793 0-1.501.401-1.674 1.233-.035.185-.173.367-.36.376l-2.02-.214c-.169-.038-.357-.174-.31-.43.466-2.416 2.675-3.144 4.654-3.144 1.012 0 2.335.266 3.134 1.023 1.013.933.916 2.178.916 3.533v3.201c0 .962.404 1.384.784 1.904.135.185.164.407-.005.546-.425.35-1.18 1-1.595 1.363l-.006-.005"
      fill="#000"
    />
  </g>
  <path
    fill-rule="evenodd"
    clip-rule="evenodd"
    d="M451.431 76.198c0-3.373-1.634-6.034-4.756-6.034-3.136 0-5.033 2.661-5.033 6.008 0 3.966 2.239 5.968 5.454 5.968 1.568 0 2.754-.356 3.65-.856v-2.635c-.896.448-1.924.724-3.228.724-1.278 0-2.411-.448-2.556-2.002h6.442c0-.172.027-.857.027-1.173Zm-6.509-1.251c0-1.49.909-2.109 1.739-2.109.804 0 1.66.62 1.66 2.109h-3.399ZM436.556 70.164c-1.291 0-2.121.606-2.583 1.028l-.171-.817h-2.898v15.362l3.293-.698.014-3.729c.474.343 1.172.83 2.332.83 2.358 0 4.506-1.897 4.506-6.074-.014-3.82-2.188-5.902-4.493-5.902Zm-.791 9.078c-.777 0-1.238-.277-1.554-.62l-.014-4.888c.343-.382.817-.645 1.568-.645 1.199 0 2.029 1.344 2.029 3.07 0 1.765-.817 3.083-2.029 3.083ZM429.678 68.675V66l-3.307.698v2.688l3.307-.711Z"
    fill="#6772E5"
  />
  <path d="M429.678 70.388h-3.307v11.528h3.307V70.388Z" fill="#6772E5" />
  <path
    fill-rule="evenodd"
    clip-rule="evenodd"
    d="m422.828 71.362-.211-.975h-2.846v11.528h3.294v-7.812c.777-1.015 2.095-.83 2.503-.685v-3.03c-.422-.159-1.963-.449-2.74.974ZM416.24 67.528l-3.215.685-.013 10.554c0 1.95 1.462 3.386 3.412 3.386 1.081 0 1.871-.198 2.306-.435v-2.675c-.422.172-2.503.778-2.503-1.172v-4.677h2.503v-2.807h-2.503l.013-2.859ZM407.333 73.734c0-.513.422-.711 1.12-.711 1.002 0 2.266.303 3.268.843V70.77a8.691 8.691 0 0 0-3.268-.606c-2.674 0-4.453 1.396-4.453 3.728 0 3.637 5.007 3.057 5.007 4.625 0 .606-.527.804-1.265.804-1.094 0-2.49-.448-3.597-1.054v3.135a9.133 9.133 0 0 0 3.597.751c2.74 0 4.624-1.357 4.624-3.715-.013-3.926-5.033-3.228-5.033-4.704Z"
    fill="#6772E5"
  />
  <path
    d="M195.7 73.665h-2.17a.378.378 0 0 0-.373.32l-.096.606-.151-.22c-.47-.682-1.518-.91-2.564-.91-2.398 0-4.446 1.817-4.845 4.365-.207 1.272.087 2.487.808 3.335.662.78 1.608 1.103 2.734 1.103 1.932 0 3.004-1.241 3.004-1.241l-.097.603a.378.378 0 0 0 .374.437h1.954a.63.63 0 0 0 .622-.531l1.174-7.43a.378.378 0 0 0-.374-.437Zm-3.024 4.225c-.21 1.24-1.194 2.072-2.45 2.072-.63 0-1.134-.202-1.457-.586-.322-.38-.442-.921-.34-1.524.195-1.23 1.195-2.089 2.432-2.089.616 0 1.117.205 1.447.592.332.39.463.934.368 1.535ZM207.26 73.666h-2.182a.632.632 0 0 0-.521.276l-3.009 4.432-1.275-4.259a.631.631 0 0 0-.604-.45h-2.144a.378.378 0 0 0-.358.5l2.402 7.051-2.259 3.188a.378.378 0 0 0 .308.597h2.18c.206 0 .4-.102.517-.272l7.255-10.47a.377.377 0 0 0-.31-.593ZM182.153 69.472h-4.533a.63.63 0 0 0-.622.532l-1.833 11.622a.378.378 0 0 0 .374.437h2.164a.63.63 0 0 0 .622-.531l.495-3.136a.63.63 0 0 1 .621-.532h1.435c2.985 0 4.708-1.445 5.159-4.308.202-1.252.008-2.237-.578-2.925-.645-.758-1.788-1.159-3.304-1.159Zm.523 4.245c-.248 1.627-1.49 1.627-2.692 1.627h-.684l.48-3.038a.378.378 0 0 1 .373-.319h.313c.818 0 1.591 0 1.99.467.238.279.31.692.22 1.263Z"
    fill="#003087"
  />
  <path
    d="M228.028 73.665h-2.17a.378.378 0 0 0-.373.319l-.096.607-.152-.22c-.47-.682-1.517-.91-2.563-.91-2.398 0-4.446 1.817-4.845 4.365-.207 1.272.087 2.487.808 3.335.662.779 1.607 1.103 2.734 1.103 1.932 0 3.004-1.242 3.004-1.242l-.097.604a.378.378 0 0 0 .374.437h1.954a.63.63 0 0 0 .622-.532l1.173-7.43a.377.377 0 0 0-.373-.436Zm-3.024 4.224c-.21 1.24-1.194 2.073-2.45 2.073-.63 0-1.134-.203-1.458-.586-.32-.38-.441-.921-.34-1.524.196-1.23 1.196-2.089 2.432-2.089.617 0 1.117.204 1.448.592.332.39.462.934.368 1.534ZM214.48 69.472h-4.532a.63.63 0 0 0-.622.532l-1.833 11.622a.378.378 0 0 0 .373.437h2.326a.44.44 0 0 0 .435-.372l.52-3.295a.63.63 0 0 1 .622-.532h1.434c2.986 0 4.709-1.445 5.159-4.308.203-1.253.008-2.237-.578-2.926-.645-.757-1.787-1.158-3.304-1.158Zm.524 4.245c-.248 1.627-1.491 1.627-2.693 1.627h-.683l.479-3.038a.378.378 0 0 1 .373-.319h.314c.818 0 1.591 0 1.989.466.239.28.311.693.221 1.264ZM230.587 69.79l-1.861 11.836a.378.378 0 0 0 .373.436h1.871c.31 0 .574-.225.623-.531l1.834-11.623a.378.378 0 0 0-.373-.436h-2.094a.377.377 0 0 0-.373.319Z"
    fill="#009CDE"
  />
  <path
    opacity=".68"
    d="M166.274 70.081c.244-1.556-.001-2.614-.843-3.573-.926-1.056-2.6-1.508-4.741-1.508h-6.216a.89.89 0 0 0-.879.75l-2.588 16.414a.533.533 0 0 0 .527.617h3.837l-.265 1.68a.467.467 0 0 0 .461.539h3.235a.777.777 0 0 0 .768-.657l.032-.165.609-3.864.04-.213a.777.777 0 0 1 .768-.657h.484c3.134 0 5.587-1.273 6.304-4.955.3-1.538.145-2.822-.647-3.725a3.091 3.091 0 0 0-.886-.683Z"
    fill="#009CDE"
  />
  <path
    d="M166.274 70.081c.244-1.556-.001-2.614-.843-3.573-.926-1.056-2.6-1.508-4.741-1.508h-6.216a.89.89 0 0 0-.879.75l-2.588 16.414a.533.533 0 0 0 .527.617h3.837l.964-6.113-.03.192a.886.886 0 0 1 .875-.751h1.824c3.582 0 6.387-1.455 7.207-5.664.024-.124.045-.245.063-.364Z"
    fill="#012169"
  />
  <path
    d="M157.371 70.102a.779.779 0 0 1 .768-.657h4.873c.577 0 1.115.038 1.607.117a7.052 7.052 0 0 1 .798.178 4.37 4.37 0 0 1 .858.342c.244-1.556-.002-2.615-.844-3.574-.926-1.056-2.6-1.508-4.741-1.508h-6.216a.89.89 0 0 0-.879.75l-2.588 16.414a.533.533 0 0 0 .527.617h3.837l.964-6.113 1.036-6.566Z"
    fill="#003087"
  />
  <path
    d="M204.861 30.631h-3.486v-8.69H199v-2.83h2.375v-2.014c0-2.386 1.05-4.097 4.527-4.097.736 0 1.89.148 1.89.148v2.628h-1.212c-1.236 0-1.718.375-1.718 1.415v1.92h2.884l-.257 2.83h-2.628v8.69Zm8-11.746-.155.003c-3.233 0-4.712 2.431-4.712 5.883 0 4.349 1.919 6.09 4.737 6.09 1.613 0 2.673-.68 3.316-1.946v1.718h3.317V19.112h-3.317v1.772c-.525-1.14-1.614-1.986-3.186-2Zm.843 2.722c1.358 0 2.173.947 2.173 2.558l.003 1.645c0 1.086-.673 2.356-2.176 2.356-2.31 0-2.248-2.494-2.248-3.325 0-2.795 1.23-3.234 2.248-3.234Zm6.999 3.266c0-1.4-.067-5.98 5.901-5.98 2.396 0 3.396.76 3.396.76l-.804 2.495s-.999-.55-2.301-.55c-1.667 0-2.731.966-2.731 2.667l.002 1.22c0 1.633 1.026 2.724 2.732 2.724 1.186 0 2.279-.555 2.279-.555l.802 2.442s-.914.766-3.358.766c-5.683 0-5.918-4.11-5.918-5.99Zm28.74-5.985c3.233 0 4.735 2.431 4.735 5.883 0 4.349-1.918 6.09-4.737 6.09-1.612 0-2.804-.68-3.448-1.946v1.718l-3.275-.002v-17.28l3.477-.304v7.68c.501-1.343 2.15-1.84 3.248-1.84Zm-.975 2.719c-1.357 0-2.273.947-2.273 2.558l-.004 1.645c-.002 1.086.635 2.356 2.277 2.356 2.311 0 2.249-2.494 2.249-3.325 0-2.795-1.231-3.234-2.249-3.234Zm-12.436-2.71c-3.667 0-5.603 2-5.603 5.552v.66c0 4.611 2.719 5.798 5.96 5.798 3.15 0 4.576-.88 4.576-.88l-.651-2.347s-1.677.714-3.508.714c-1.899 0-2.716-.484-2.925-2.309h7.362v-1.882c0-3.854-2.173-5.306-5.211-5.306Zm.088 2.35c1.27 0 2.092.778 2.047 2.583h-4.279c.074-1.9.961-2.583 2.232-2.583Zm24.99-2.366c-3.765 0-5.747 2.122-5.747 5.925 0 5.217 3.417 6.057 5.754 6.057 3.421 0 5.697-1.842 5.697-6.01 0-4.338-2.559-5.972-5.704-5.972Zm-.047 2.735c1.656 0 2.312 1.24 2.312 2.65v1.213c0 1.709-.918 2.697-2.318 2.697-1.31 0-2.23-.925-2.23-2.697v-1.213c0-1.89 1.095-2.65 2.236-2.65Zm12.677-2.735c-3.766 0-5.748 2.122-5.748 5.925 0 5.217 3.417 6.057 5.754 6.057 3.421 0 5.697-1.842 5.697-6.01 0-4.338-2.559-5.972-5.703-5.972Zm-.048 2.735c1.656 0 2.312 1.24 2.312 2.65v1.213c0 1.709-.918 2.697-2.318 2.697-1.309 0-2.23-.925-2.23-2.697v-1.213c0-1.89 1.095-2.65 2.236-2.65Zm7.065 9.015v-17.28l3.486-.304V24.63l3.46-5.52h3.682l-3.609 5.717 3.748 5.804h-3.693l-3.588-5.636v5.636h-3.486Z"
    fill="#1877F2"
  />
  <path
    d="M63.5 97v19.005c0 5.522 4.477 9.995 10 9.995H123M426 97v19.005c0 5.522-4.477 9.995-10 9.995h-30M191 97v22.5M234 132v24.5M322 97v22.5"
    stroke="#C7C7C7"
    stroke-width="2"
    stroke-linecap="round"
    stroke-dasharray="1 6"
  />
  <path
    d="M374.657 26.718a2.32 2.32 0 0 1-.018-.343c0-.987.328-1.758.984-2.311.657-.554 1.382-.83 2.176-.83 1.047 0 1.775.396 2.185 1.191l-5.327 2.293Zm7.62-1.409c-.012-1.167-.452-2.115-1.318-2.843-.867-.728-1.957-1.093-3.268-1.093-.831 0-1.619.184-2.365.551-.747.367-1.372.94-1.878 1.716-.506.776-.759 1.676-.759 2.699 0 1.48.488 2.672 1.463 3.575.975.903 2.142 1.354 3.503 1.354 1.553 0 2.9-.59 4.044-1.77l-1.192-1.318c-.698.843-1.586 1.264-2.663 1.264-1.077 0-1.929-.385-2.555-1.155l7.006-2.943-.018-.037ZM370.37 21.969a4.186 4.186 0 0 0-1.327 1.48v-1.931h-2.022v9.605h2.022v-4.117c0-1.095.253-1.968.758-2.617.506-.65 1.258-.976 2.257-.976h.109l-.019-2.04c-.626.012-1.218.211-1.778.596ZM389.524 26.23a5.659 5.659 0 0 0-.912-.505c-.283-.12-.575-.229-.875-.325a16.106 16.106 0 0 0-1.039-.289c-.391-.096-.695-.199-.911-.307-.313-.144-.469-.373-.469-.686 0-.349.15-.61.451-.785.3-.175.692-.262 1.173-.262.915 0 1.764.259 2.546.776l.758-1.498c-.987-.65-2.034-.976-3.141-.976-1.108 0-2.007.269-2.7.804-.692.536-1.038 1.25-1.038 2.14 0 1.264.999 2.166 2.998 2.708.047.012.12.036.216.072 1.276.386 1.914.819 1.914 1.3a.986.986 0 0 1-.397.804c-.265.21-.626.316-1.084.316-1.047 0-2.13-.422-3.249-1.264l-.975 1.57a6.518 6.518 0 0 0 1.995 1.066c.752.252 1.477.379 2.175.379 1.035 0 1.884-.274 2.546-.822.662-.548.993-1.279.993-2.194 0-.914-.325-1.588-.975-2.022ZM362.767 24.813c-.427.451-1.231.677-2.41.677h-2.474v-5.056h2.167c1.155 0 2.004.181 2.546.542.541.361.812.978.812 1.851s-.213 1.534-.641 1.986Zm1.508-5.209c-.879-.734-2.275-1.101-4.189-1.101h-4.333v12.62h2.13v-3.7h2.239c1.854 0 3.229-.356 4.126-1.066.896-.71 1.345-1.83 1.345-3.358 0-1.529-.44-2.66-1.318-3.395ZM395.231 29.516c-.433 0-.77-.135-1.011-.406-.241-.27-.361-.635-.361-1.092v-4.875h2.528v-1.625h-2.528v-3.015h-2.022v9.46c0 1.012.303 1.815.911 2.411a3.032 3.032 0 0 0 2.203.894c.86 0 1.646-.32 2.356-.957l-.831-1.427c-.396.422-.812.632-1.245.632ZM404.486 28.605c-.554.583-1.227.875-2.022.875-.794 0-1.487-.289-2.076-.866-.59-.578-.885-1.328-.885-2.248 0-.921.289-1.689.867-2.303.578-.613 1.269-.92 2.076-.92.806 0 1.486.307 2.04.92.554.614.831 1.379.831 2.294s-.277 1.664-.831 2.248Zm.795-5.426c-.819-1.203-1.86-1.806-3.124-1.806s-2.359.446-3.286 1.336c-.927.891-1.39 2.083-1.39 3.575 0 1.493.451 2.697 1.354 3.611.903.915 1.962 1.372 3.178 1.372.601 0 1.2-.147 1.796-.442a3.839 3.839 0 0 0 1.471-1.273v1.571h2.023v-9.605h-2.023v1.661h.001Z"
    fill="#1F0047"
  />
  <path
    d="M437.278 28.587c-.572.584-1.297.875-2.176.875-.879 0-1.604-.291-2.175-.875-.572-.584-.858-1.34-.858-2.266 0-.927.286-1.682.858-2.266.571-.584 1.296-.876 2.175-.876.879 0 1.604.292 2.176.876.571.584.857 1.339.857 2.266s-.286 1.682-.857 2.265Zm-2.176-7.214c-1.444 0-2.648.479-3.611 1.436-.963.957-1.444 2.127-1.444 3.512 0 1.384.481 2.554 1.444 3.511.963.957 2.167 1.436 3.611 1.436 1.445 0 2.648-.479 3.611-1.436.963-.957 1.444-2.127 1.444-3.511 0-1.385-.481-2.555-1.444-3.512-.963-.957-2.166-1.436-3.611-1.436ZM448.262 28.595c-.59.578-1.282.867-2.077.867-.794 0-1.468-.291-2.022-.875-.554-.584-.831-1.334-.831-2.248 0-.915.277-1.677.831-2.284.554-.608 1.234-.912 2.04-.912.807 0 1.499.304 2.077.912.578.607.866 1.372.866 2.293 0 .92-.295 1.67-.884 2.247Zm1.534-5.886c-.915-.89-2.016-1.336-3.304-1.336-1.288 0-2.329.608-3.124 1.824v-1.679h-2.022v13.108h2.022v-4.947c.964 1.06 2.05 1.589 3.259 1.589 1.21 0 2.269-.463 3.178-1.39.909-.927 1.364-2.131 1.364-3.612 0-1.48-.458-2.666-1.373-3.557ZM425.339 21.373c-.674 0-1.303.17-1.887.506-.584.337-1.02.8-1.309 1.39v-5.525h-2.022v13.38h2.022v-5.2c0-.892.259-1.568.777-2.032a2.645 2.645 0 0 1 1.823-.695c1.468 0 2.203.884 2.203 2.654v5.272h2.022v-5.886c0-1.252-.334-2.208-1.002-2.87-.668-.662-1.544-.994-2.627-.994ZM417.703 25.057c-.656-.566-1.631-1.005-2.925-1.318-1.294-.313-2.14-.605-2.537-.876-.397-.27-.596-.662-.596-1.174 0-.511.199-.893.596-1.146.397-.253.906-.38 1.526-.38s1.248.11 1.887.326c.637.216 1.143.493 1.516.83l1.137-1.607a6.264 6.264 0 0 0-2.058-1.119 7.55 7.55 0 0 0-2.401-.397c-1.252 0-2.302.316-3.151.948-.848.632-1.272 1.531-1.272 2.699 0 1.167.372 2.034 1.119 2.6.373.3.8.545 1.282.73.481.188 1.185.392 2.112.615.927.223 1.58.47 1.959.74s.569.65.569 1.138c0 .487-.202.878-.605 1.173-.403.295-.948.443-1.634.443-1.372 0-2.696-.554-3.972-1.662l-1.336 1.607c1.528 1.36 3.28 2.04 5.254 2.04 1.348 0 2.437-.342 3.268-1.029.83-.685 1.246-1.579 1.246-2.68 0-1.102-.328-1.935-.984-2.501Z"
    fill="#E2066F"
  />
  <path
    d="M337.361 30.058a8.79 8.79 0 0 1 .476-.194 8.715 8.715 0 0 1 1.245-.37c.317-.067.638-.117.961-.148-.181.57-.381 1.136-.598 1.7.009.108.014.218.017.328a6.97 6.97 0 0 1 2.702 0c.003-.11.008-.22.017-.329a30.669 30.669 0 0 1-.599-1.7 8.585 8.585 0 0 1 1.659.331c.184.056.367.12.548.188a8.516 8.516 0 0 1 3.432 2.377 9.787 9.787 0 0 0 3.405-7.428c0-5.42-4.394-9.813-9.813-9.813-5.42 0-9.813 4.393-9.813 9.813a9.79 9.79 0 0 0 3.404 7.428 8.518 8.518 0 0 1 2.957-2.183Z"
    fill="#A0DBE8"
  />
  <path
    d="M338.008 31.833a6.89 6.89 0 0 1 1.454-.459 5.966 5.966 0 0 0-.017-.329c.217-.563.417-1.13.598-1.7a8.644 8.644 0 0 0-.961.15 8.637 8.637 0 0 0-1.245.369l.715.173-.544 1.796ZM336.322 32.891c.017-.183.028-.367.028-.553 0-.113.091-.203.204-.203h.178l.629-2.077a8.52 8.52 0 0 0-2.957 2.183c.458.396.953.75 1.48 1.056.14-.141.286-.277.438-.406ZM344.264 30.058l.63 2.076h.178c.112 0 .203.091.203.203 0 .187.011.371.029.554.152.129.297.264.438.406a9.841 9.841 0 0 0 1.479-1.056 8.511 8.511 0 0 0-2.957-2.183ZM343.073 30.037l.715-.173a8.5 8.5 0 0 0-2.206-.518c.181.57.382 1.136.599 1.7a5.133 5.133 0 0 0-.017.328c.506.1.993.256 1.454.46l-.545-1.797Z"
    fill="#525353"
  />
  <path
    d="M340.813 32.134h1.383a5.395 5.395 0 0 1-.032-.76 6.978 6.978 0 0 0-2.702 0c.006.252-.004.506-.032.76h1.383ZM335.884 33.297c.114.066.229.13.346.193a5.66 5.66 0 0 0 .092-.599 6.86 6.86 0 0 0-.438.406Z"
    fill="#000"
  />
  <path
    d="M337.917 32.135h1.513a5.55 5.55 0 0 0 .032-.761c-.507.1-.993.256-1.454.46l-.091.3ZM345.304 32.891c.019.203.051.402.092.599.117-.062.232-.127.346-.193a7.14 7.14 0 0 0-.438-.406ZM343.709 32.134l-.091-.3a6.902 6.902 0 0 0-1.454-.46c-.007.252.003.506.031.76h1.514Z"
    fill="#000"
  />
  <path
    d="m337.917 32.135.091-.302.544-1.796-.715-.173c-.16.06-.319.124-.476.194l-.629 2.076h1.185ZM343.618 31.833l.091.301h1.185l-.629-2.076a8.71 8.71 0 0 0-.476-.194l-.716.173.545 1.796Z"
    fill="#AA9678"
  />
  <path d="m336.753 32.554.018-.013h-.018v.013Z" fill="#C0B098" />
  <path
    d="M340.813 32.54h-4.042l-.018.014c-.014.383-.065.76-.149 1.125a9.777 9.777 0 0 0 4.209.947V32.54Z"
    fill="#C0B098"
  />
  <path
    d="M344.872 32.54h-.018a.313.313 0 0 1 .019.014l-.001-.014ZM344.854 32.54h-4.041v2.086a9.77 9.77 0 0 0 4.208-.947 6.085 6.085 0 0 1-.148-1.125l-.019-.014Z"
    fill="#AA9678"
  />
  <path
    d="M345.304 32.891a5.646 5.646 0 0 1-.029-.553.203.203 0 0 0-.203-.203h-8.518a.203.203 0 0 0-.204.203 5.642 5.642 0 0 1-.12 1.152c.123.065.248.129.374.19.084-.367.135-.743.149-1.126v-.013H344.872v.013c.014.383.065.76.149 1.125a9.77 9.77 0 0 0 .374-.19 5.934 5.934 0 0 1-.091-.598Z"
    fill="#8B7460"
  />
  <path
    d="M343.622 30.734a2.222 2.222 0 0 1-.091-.112c.031.042.062.078.091.112Z"
    fill="#525353"
  />
  <path
    d="m343.848 30.958.002.007-.002-.007s-.099-.078-.226-.224c.127.145.226.224.226.224Z"
    fill="#AA9678"
  />
  <path d="M346.844 22.08ZM347.241 24.905l.001-.003-.001.003Z" fill="#fff" />
  <path
    d="m347.346 22.63-.004-.007a3.462 3.462 0 0 0-.252-.31l-.001-.002.001.001-.002-.002a3.36 3.36 0 0 0-.119-.122l-.046-.041a2.72 2.72 0 0 0-.076-.068v.913l.349 1.6c.004.013.009.025.012.038l.242.271.002-.003h.254l.002-.07c0-.755-.125-1.48-.349-2.16l-.013-.039ZM347.242 24.902l-.001-.003.001.003Z"
    fill="#BBBCBD"
  />
  <path
    d="m347.231 24.75.001.007.001.004c.004.038.006.078.007.117l.001.021.001.003-.001.003-.001.023a1.396 1.396 0 0 1-.007.114l-.001.006-.002.008a.85.85 0 0 1-.022.117l.001-.001.001-.002.24-.269-.242-.271c.01.038.017.078.023.12Z"
    fill="#676A6A"
  />
  <path
    d="m347.23 25.056.003-.014c.004-.037.006-.076.007-.114l.002-.026-.002-.024a1.45 1.45 0 0 0-.007-.116l-.002-.013a1.08 1.08 0 0 0-.023-.118c-.003-.014-.008-.025-.012-.038a.769.769 0 0 0-.092-.201l-.016-.022a.428.428 0 0 0-.082-.087l-.021-.013a.287.287 0 0 0-.068-.032.236.236 0 0 0-.07-.013.237.237 0 0 0-.092.02.335.335 0 0 0-.047.025c-.007.005-.014.008-.02.014a.363.363 0 0 0-.051.047c-.011.012-.021.025-.032.04l-.015.021a.742.742 0 0 0-.096.21 1.18 1.18 0 0 0-.025.11l-.006.036a1.132 1.132 0 0 0-.01.132l-.001.019h.002c0 .373.176.677.394.677.038 0 .074-.01.109-.027l.016-.009a.407.407 0 0 0 .042-.028l.021-.02a.423.423 0 0 0 .081-.1l.019-.032a.594.594 0 0 0 .03-.064l.011-.024a.93.93 0 0 0 .053-.215Zm-.369-.244c-.082 0-.148-.114-.148-.254s.066-.254.148-.254c.082 0 .148.114.148.254s-.066.254-.148.254Z"
    fill="#000"
  />
  <path
    d="M346.861 24.812c.082 0 .148-.114.148-.254s-.066-.254-.148-.254c-.082 0-.148.114-.148.254s.066.254.148.254Z"
    fill="#fff"
  />
  <path
    d="M346.497 24.593a.737.737 0 0 1 .14-.262.37.37 0 0 1 .051-.047l.02-.014a.273.273 0 0 1 .139-.044.23.23 0 0 1 .091.02.273.273 0 0 1 .047.024l.021.014a.437.437 0 0 1 .082.086l.016.022a.773.773 0 0 1 .092.201l-.349-1.6-.35 1.6Z"
    fill="#909393"
  />
  <path
    d="M342.216 24.887a1.005 1.005 0 0 0-.007-.095v-.002a.922.922 0 0 0-.015-.09l-.001-.003a.65.65 0 0 0-.024-.087v-.002a1.13 1.13 0 0 0-.033-.083v-.002a.938.938 0 0 0-.494-.478l-.003-.002a.903.903 0 0 0-.166-.05h-.004a.916.916 0 0 0-.351 0h-.007a.907.907 0 0 0-.162.049l-.004.001a.896.896 0 0 0-.15.079h-.001a.908.908 0 0 0-.134.104l-.001.003-.003.001a.92.92 0 0 0-.168.214l-.002.003a.984.984 0 0 0-.07.157l-.005.014a1.502 1.502 0 0 0-.019.071l-.005.02a.843.843 0 0 0-.011.073l-.004.022a.878.878 0 0 0 .013.275v.003a.933.933 0 0 0 .051.167l.001.002a.91.91 0 0 0 .404.456c.025.014.05.026.076.038l.007.003c.024.01.049.02.074.028l.013.005a.822.822 0 0 0 .072.02c.006 0 .012.003.019.004.024.005.048.008.072.011l.022.004a.934.934 0 0 0 .613-.153.924.924 0 0 0 .407-.767V24.887Zm-.924-.108a.348.348 0 1 1 0-.696.348.348 0 0 1 0 .696Z"
    fill="#000"
  />
  <path
    d="M341.292 24.779a.347.347 0 1 0 0-.694.347.347 0 0 0 0 .694Z"
    fill="#fff"
  />
  <path
    d="M340.656 24.23h.003l.001-.003.637-1.948V21.818a5.433 5.433 0 0 0-1.517-.095 5.47 5.47 0 0 0-1.852.481 5.922 5.922 0 0 0-1.381.886h-.001a6.179 6.179 0 0 0-.324.299l-.059.058c-.099.1-.194.202-.287.308l-.059.07c-.093.11-.183.22-.269.336l-.021.03a7.387 7.387 0 0 0-.234.34l-.044.068c-.06.096-.117.195-.173.294h2.901l2.679-.662Z"
    fill="#BBBCBD"
  />
  <path
    d="M343.105 24.011c.006-.075.01-.152.014-.227.006-.104.009-.206.011-.31.002-.08.001-.16.001-.24v-.069c-.002-.206-.01-.412-.023-.619h-.001l-.001-.002a.05.05 0 0 1-.006-.004l-.01-.005a283.512 283.512 0 0 0-.22-.126l-.06-.034h-.001c-.015-.01-.029-.017-.041-.024l-.008-.004-.031-.017a5.759 5.759 0 0 0-.407-.191 7.218 7.218 0 0 0-1.025-.32V22.278l.631 1.95.001.002a.936.936 0 0 1 .207.292v.002a.821.821 0 0 1 .033.083v.002a.65.65 0 0 1 .024.087l.001.002c.006.03.012.06.015.091v.002a.991.991 0 0 1 .007.095l.002.005h.773a8.777 8.777 0 0 0 .114-.88Z"
    fill="#E2DDDB"
  />
  <path
    d="m344.115 23.322-.001.002.001-.002ZM342.222 27.672a31.77 31.77 0 0 0 .772-.794c.646-.701 1.12-1.358 1.405-2.201a.606.606 0 0 0 .02-.076l.003-.014.02-.106.007-.08c-.071-.367-.21-.724-.333-1.077l.001.004-.003-.004-.072-.065a5.938 5.938 0 0 0-.934-.713c.013.207.021.413.023.62v.069l-.001.24a10.61 10.61 0 0 1-.026.536l-.002.024a8.47 8.47 0 0 1-.111.857l-.091.43c-.19.768-.575 1.465-.891 2.185a8.644 8.644 0 0 0-.254.636c.099-.104.187-.194.253-.26l.214-.211Z"
    fill="#FBB040"
  />
  <path
    d="M340.66 24.227a.908.908 0 0 1 .134-.105h.001a.896.896 0 0 1 .15-.078l.004-.002a.893.893 0 0 1 .163-.048l.006-.001a.917.917 0 0 1 .351 0l.004.001a.911.911 0 0 1 .166.05l.003.001a.934.934 0 0 1 .287.187l-.001-.002-.631-1.95-.637 1.947Z"
    fill="#909393"
  />
  <path
    d="M340.436 25.25a.933.933 0 0 1-.051-.167v-.004a.955.955 0 0 1-.013-.275l.004-.022c.003-.024.006-.048.011-.072l.005-.02.019-.071.006-.015a.644.644 0 0 1 .031-.081.984.984 0 0 1 .038-.076l.002-.002a.92.92 0 0 1 .168-.215l-2.679.662h-.005l2.653.648a.927.927 0 0 1-.188-.289l-.001-.002Z"
    fill="#676A6A"
  />
  <path
    d="m346.463 24.748.006-.035c.007-.038.015-.075.025-.11l.003-.013.349-1.6v-.913c-.285-.236-.591-.365-.909-.365-.403 0-.778.222-1.058.497-.307.3-.544.678-.736 1.059l-.027.052a10.312 10.312 0 0 1 .56.522c.059.058.116.117.174.176a15.352 15.352 0 0 1 .51.54c.092.103.183.205.273.309l.03.032h.788l.002-.019c.001-.045.004-.09.01-.132ZM344.116 23.324l-.001-.002-.001.002.003.003-.001-.003Z"
    fill="#E2DDDB"
  />
  <path
    d="m334.601 25.9.007-.018c.051-.133.106-.264.165-.394l.05-.107c.048-.102.098-.203.15-.302l.065-.121.038-.066c.056-.099.112-.197.173-.293l.044-.068c.075-.116.153-.23.234-.341l.021-.03c.086-.115.176-.226.268-.336l.06-.07c.092-.105.188-.208.287-.308l.058-.058c.105-.102.213-.203.325-.298.441-1.478 1.79-2.553 3.386-2.553.643 0 1.282.185 1.829.52a3.586 3.586 0 0 1 1.317 1.434l.004.008.024.045v.001l.002.001a5.926 5.926 0 0 1 .934.713l.072.065.001-.002.001-.002.024-.05c.225-1.42.851-2.442 1.59-2.442.557 0 1.05.58 1.355 1.474l.003.01h.001c.086.094.171.198.252.31l.005.007.012.04-.011-.047a6.883 6.883 0 0 0-13.063 4.346l.001-.004a7.49 7.49 0 0 1 .316-1.064Z"
    fill="#525353"
  />
  <path
    d="m347.45 24.901-.24.269-.001.002a.946.946 0 0 1-.032.1l-.01.024a.915.915 0 0 1-.031.064l-.018.032a.523.523 0 0 1-.082.1l-.021.02a.377.377 0 0 1-.042.028l-.016.009a.25.25 0 0 1-.108.027c-.219 0-.395-.303-.395-.677h-.793.001c.147.17.292.342.434.516l.005.007c.139.169.276.34.411.511l.02.026c.128.163.255.328.38.492l.037.048c.133.175.265.35.395.526l.003.004c.226-.67.353-1.386.361-2.13h-.255l-.003.002Z"
    fill="#fff"
  />
  <path
    d="m339.78 21.723.053-.004a5.447 5.447 0 0 1 1.464.099V21.994v-.176c.25.06.694.181 1.024.32.139.059.275.123.408.192l.03.017a.057.057 0 0 1 .008.004l.042.024h.001l.06.034a.019.019 0 0 1 .005.003l.215.123.009.005.007.004-.024-.044-.004-.01a3.58 3.58 0 0 0-1.317-1.433 3.525 3.525 0 0 0-1.829-.52c-1.596 0-2.945 1.075-3.386 2.552a5.932 5.932 0 0 1 1.382-.885 5.474 5.474 0 0 1 1.852-.481ZM344.879 22.209c.28-.275.655-.497 1.058-.497.318 0 .624.13.909.365v.003c.026.02.051.044.076.067l.046.041a2.642 2.642 0 0 1 .121.125v-.001l-.004-.01c-.305-.893-.799-1.474-1.355-1.474-.739 0-1.365 1.023-1.59 2.442l.002-.002c.193-.381.43-.759.737-1.06Z"
    fill="#000"
  />
  <path
    d="M338.361 31.245c.063.024.127.046.191.069.711.249 1.476.386 2.273.386.909 0 1.776-.177 2.571-.498l.124-.053c.068-.029.135-.058.201-.09.059-.027.119-.054.177-.083l-.042.006a2.89 2.89 0 0 1-.732-.005c-1.416-.204-1.73-.886-1.685-1.597a3.745 3.745 0 0 1-.311-.202c-1.089-.79-1.735-1.632-1.735-1.632s.84.649 2.095 1.134l.078.03c.059-.203.128-.396.189-.567l.02-.055c.07-.197.15-.39.234-.58.316-.72.701-1.418.891-2.186l.091-.43h-.775v.008a.937.937 0 0 1-.158.517.924.924 0 0 1-.862.403c-.008 0-.015-.002-.022-.003a.944.944 0 0 1-.072-.012l-.019-.005a1.006 1.006 0 0 1-.072-.019c-.004 0-.008-.003-.012-.004a.775.775 0 0 1-.075-.029l-.006-.003a.788.788 0 0 1-.077-.038h-.001a.924.924 0 0 1-.215-.167l-2.653-.648h-2.896l-.038.066-.064.121a6.738 6.738 0 0 0-.201.41c-.058.13-.114.26-.165.393l-.007.018a7.49 7.49 0 0 0-.315 1.064 6.902 6.902 0 0 0 2.502 3.427l.104.07a6.78 6.78 0 0 0 1.469.784Z"
    fill="#fff"
  />
  <path
    d="M343.113 29.108a1.826 1.826 0 0 0 .003.578 2.056 2.056 0 0 0 .159.514 2.168 2.168 0 0 0 .348.534c.126.145.225.224.225.224l.002.007.006.017.042-.006c.307-.038.617-.121.922-.231.155-.056.31-.117.462-.186.047-.021.092-.045.139-.067 1.576-.763 2.896-2.11 2.896-2.11-1.981.972-3.917.933-5.204.726Z"
    fill="#9F2255"
  />
  <path
    d="M346.912 26.452c-.126-.165-.252-.33-.381-.493l-.019-.025a35.658 35.658 0 0 0-.411-.512l-.005-.006a23.962 23.962 0 0 0-1.063-1.209c-.06-.063-.121-.126-.183-.188a15.068 15.068 0 0 0-.558-.543 9.915 9.915 0 0 0-.176-.156l-.001.002c.125.357.267.72.338 1.092.018.097.034.191.046.284.173 1.29-.24 2.132-.897 3.24l-.145.242c-.15.25-.246.488-.302.71a2.271 2.271 0 0 0-.042.218c1.287.208 3.223.247 5.204-.727 0 0-.389-.57-.973-1.355l-.395-.526-.037-.048Z"
    fill="#E2066F"
  />
  <path
    d="M343.848 30.958s-.099-.079-.226-.224c-.029-.034-.06-.07-.091-.112a3.245 3.245 0 0 1-.121-.172 2.025 2.025 0 0 1-.294-.764 1.932 1.932 0 0 1 .039-.796c.056-.223.152-.46.302-.71l.001-.002.144-.24c.656-1.108 1.07-1.95.897-3.24a5.378 5.378 0 0 0-.047-.284c-.009.066-.02.124-.03.173l-.003.013c-.007.03-.013.056-.02.076-.285.844-.759 1.5-1.405 2.202a37.872 37.872 0 0 1-.772.794l-.214.212a15.43 15.43 0 0 0-.253.26c-.061.17-.13.363-.189.566l-.078-.03a9.18 9.18 0 0 1-2.095-1.134s.646.842 1.735 1.632c.106.076.209.143.311.201-.045.711.269 1.394 1.685 1.598.24.034.485.033.732.005a.126.126 0 0 1-.006-.018l-.002-.006Z"
    fill="#000"
  />
  <g filter="url(#b)">
    <rect x="218" y="108" width="32" height="32" rx="16" fill="#fff" />
    <path
      opacity=".3"
      d="M228 132h12v-10h-12v10Zm6-7c1.1 0 2 .9 2 2s-.9 2-2 2-2-.9-2-2 .9-2 2-2Z"
      fill="#003EDB"
    />
    <path
      d="M240 120h-1v-2c0-2.76-2.24-5-5-5s-5 2.24-5 5v2h-1c-1.1 0-2 .9-2 2v10c0 1.1.9 2 2 2h12c1.1 0 2-.9 2-2v-10c0-1.1-.9-2-2-2Zm-9-2c0-1.66 1.34-3 3-3s3 1.34 3 3v2h-6v-2Zm9 14h-12v-10h12v10Zm-6-3c1.1 0 2-.9 2-2s-.9-2-2-2-2 .9-2 2 .9 2 2 2Z"
      fill="#003EDB"
    />
  </g>
  <defs>
    <clipPath id="a">
      <path fill="#fff" transform="translate(288 70)" d="M0 0h67.234v20H0z" />
    </clipPath>
    <filter
      id="b"
      x="185"
      y="92"
      width="98"
      height="98"
      filterUnits="userSpaceOnUse"
      color-interpolation-filters="sRGB"
    >
      <feFlood flood-opacity="0" result="BackgroundImageFix" />
      <feColorMatrix
        in="SourceAlpha"
        values="0 0 0 0 0 0 0 0 0 0 0 0 0 0 0 0 0 0 127 0"
        result="hardAlpha"
      />
      <feOffset dy="1.079" />
      <feGaussianBlur stdDeviation="3.573" />
      <feColorMatrix
        values="0 0 0 0 0.0196078 0 0 0 0 0.0941176 0 0 0 0 0.25098 0 0 0 0.0377807 0"
      />
      <feBlend in2="BackgroundImageFix" result="effect1_dropShadow_62_781" />
      <feColorMatrix
        in="SourceAlpha"
        values="0 0 0 0 0 0 0 0 0 0 0 0 0 0 0 0 0 0 127 0"
        result="hardAlpha"
      />
      <feOffset dy="3.8" />
      <feGaussianBlur stdDeviation="6.725" />
      <feColorMatrix
        values="0 0 0 0 0.0196078 0 0 0 0 0.0941176 0 0 0 0 0.25098 0 0 0 0.0522616 0"
      />
      <feBlend
        in2="effect1_dropShadow_62_781"
        result="effect2_dropShadow_62_781"
      />
      <feColorMatrix
        in="SourceAlpha"
        values="0 0 0 0 0 0 0 0 0 0 0 0 0 0 0 0 0 0 127 0"
        result="hardAlpha"
      />
      <feOffset dy="17" />
      <feGaussianBlur stdDeviation="16.5" />
      <feColorMatrix
        values="0 0 0 0 0.0196078 0 0 0 0 0.0941176 0 0 0 0 0.25098 0 0 0 0.07 0"
      />
      <feBlend
        in2="effect2_dropShadow_62_781"
        result="effect3_dropShadow_62_781"
      />
      <feBlend
        in="SourceGraphic"
        in2="effect3_dropShadow_62_781"
        result="shape"
      />
    </filter>
  </defs>
</svg>
