<svg viewBox="0 0 470 240" fill="none" xmlns="http://www.w3.org/2000/svg">
<g clip-path="url(#clip0_63_1333)">
<rect x="218" y="96" width="123.783" height="78" rx="6.78261" fill="#051734"/>
<ellipse cx="340.848" cy="178.757" rx="49.935" ry="33.5831" fill="#1A65BA"/>
<ellipse cx="229.605" cy="74.0215" rx="49.935" ry="33.5831" fill="#FF766B"/>
</g>
<rect opacity="0.9" x="218" y="96" width="123.783" height="78" rx="6.78261" fill="white"/>
<g clip-path="url(#clip1_63_1333)">
<rect x="226" y="80" width="136.478" height="86" rx="7.47826" fill="#051734"/>
<ellipse cx="361.448" cy="171.245" rx="55.0566" ry="37.0275" fill="#1A65BA"/>
<ellipse cx="238.795" cy="55.7673" rx="55.0566" ry="37.0275" fill="#FF766B"/>
</g>
<rect opacity="0.7" x="226" y="80" width="136.478" height="86" rx="7.47826" fill="white"/>
<g clip-path="url(#clip2_63_1333)">
<rect x="234" y="66" width="146" height="92.0795" rx="8.29545" fill="#051734"/>
<ellipse cx="378.898" cy="163.611" rx="58.8977" ry="39.6108" fill="#1A65BA"/>
<path d="M248.826 111.915L247.4 106.704H248.475L249.124 109.339L249.505 110.982H249.557L249.946 109.339L250.603 106.704H251.625L250.199 111.915H248.826ZM254.228 107.465C254.004 107.465 253.845 107.418 253.75 107.323C253.661 107.229 253.616 107.114 253.616 106.98V106.801C253.616 106.666 253.661 106.552 253.75 106.457C253.845 106.363 254.004 106.315 254.228 106.315C254.452 106.315 254.609 106.363 254.698 106.457C254.793 106.552 254.84 106.666 254.84 106.801V106.98C254.84 107.114 254.793 107.229 254.698 107.323C254.609 107.418 254.452 107.465 254.228 107.465ZM252.481 111.161H253.75V108.816H252.481V108.062H254.706V111.161H255.885V111.915H252.481V111.161ZM256.786 111.161H257.742V108.816H256.786V108.062H258.697V109.115H258.757C258.792 108.981 258.839 108.851 258.899 108.727C258.963 108.597 259.043 108.485 259.138 108.391C259.237 108.291 259.357 108.212 259.496 108.152C259.635 108.092 259.802 108.062 259.996 108.062H260.414V108.958H259.623C259.334 108.958 259.108 109.043 258.944 109.212C258.779 109.381 258.697 109.598 258.697 109.862V111.161H260.034V111.915H256.786V111.161ZM263.204 111.915C262.835 111.915 262.564 111.818 262.39 111.624C262.216 111.43 262.129 111.178 262.129 110.87V108.816H261.009V108.062H261.77C261.925 108.062 262.034 108.033 262.099 107.973C262.163 107.908 262.196 107.796 262.196 107.637V106.704H263.084V108.062H264.652V108.816H263.084V111.161H264.652V111.915H263.204ZM268.143 111.235H268.106C268.021 111.444 267.889 111.626 267.71 111.78C267.536 111.93 267.292 112.004 266.979 112.004C266.6 112.004 266.292 111.88 266.053 111.631C265.819 111.377 265.702 111.016 265.702 110.549V108.062H266.658V110.414C266.658 110.972 266.899 111.25 267.382 111.25C267.476 111.25 267.568 111.238 267.658 111.213C267.753 111.188 267.835 111.151 267.904 111.101C267.979 111.046 268.036 110.982 268.076 110.907C268.121 110.832 268.143 110.743 268.143 110.638V108.062H269.099V111.915H268.143V111.235ZM273.314 111.915C273.08 111.915 272.899 111.858 272.769 111.743C272.645 111.624 272.57 111.459 272.545 111.25H272.508C272.438 111.489 272.301 111.676 272.097 111.81C271.893 111.94 271.642 112.004 271.343 112.004C270.955 112.004 270.646 111.902 270.417 111.698C270.188 111.494 270.074 111.211 270.074 110.847C270.074 110.071 270.644 109.682 271.784 109.682H272.463V109.429C272.463 109.185 272.403 109.001 272.284 108.876C272.164 108.752 271.97 108.69 271.702 108.69C271.458 108.69 271.261 108.737 271.112 108.831C270.962 108.926 270.835 109.048 270.731 109.197L270.186 108.734C270.305 108.52 270.497 108.341 270.761 108.197C271.03 108.047 271.376 107.973 271.799 107.973C272.306 107.973 272.702 108.092 272.986 108.331C273.274 108.565 273.419 108.916 273.419 109.384V111.198H273.874V111.915H273.314ZM271.664 111.347C271.893 111.347 272.082 111.295 272.232 111.191C272.386 111.081 272.463 110.934 272.463 110.75V110.235H271.806C271.283 110.235 271.022 110.399 271.022 110.728V110.877C271.022 111.031 271.079 111.148 271.194 111.228C271.308 111.308 271.465 111.347 271.664 111.347ZM274.67 111.161H275.894V107.144H274.67V106.39H276.85V111.161H278.082V111.915H274.67V111.161ZM285.475 112.004C285.181 112.004 284.917 111.957 284.683 111.863C284.45 111.768 284.25 111.634 284.086 111.459C283.927 111.285 283.802 111.074 283.713 110.825C283.628 110.576 283.586 110.297 283.586 109.989C283.586 109.68 283.628 109.401 283.713 109.152C283.802 108.904 283.927 108.692 284.086 108.518C284.25 108.344 284.447 108.209 284.676 108.115C284.91 108.02 285.174 107.973 285.467 107.973C285.876 107.973 286.204 108.057 286.453 108.227C286.702 108.396 286.891 108.62 287.02 108.899L286.281 109.302C286.211 109.137 286.112 109.006 285.983 108.906C285.858 108.802 285.686 108.749 285.467 108.749C285.184 108.749 284.965 108.831 284.81 108.996C284.661 109.16 284.586 109.384 284.586 109.668V110.31C284.586 110.588 284.661 110.812 284.81 110.982C284.965 111.146 285.189 111.228 285.482 111.228C285.711 111.228 285.893 111.176 286.027 111.071C286.167 110.967 286.279 110.827 286.363 110.653L287.08 111.079C286.951 111.352 286.754 111.576 286.49 111.751C286.231 111.92 285.893 112.004 285.475 112.004ZM291.221 111.915C290.987 111.915 290.805 111.858 290.676 111.743C290.551 111.624 290.477 111.459 290.452 111.25H290.414C290.345 111.489 290.208 111.676 290.004 111.81C289.8 111.94 289.548 112.004 289.25 112.004C288.861 112.004 288.553 111.902 288.324 111.698C288.095 111.494 287.98 111.211 287.98 110.847C287.98 110.071 288.55 109.682 289.69 109.682H290.37V109.429C290.37 109.185 290.31 109.001 290.19 108.876C290.071 108.752 289.877 108.69 289.608 108.69C289.364 108.69 289.168 108.737 289.018 108.831C288.869 108.926 288.742 109.048 288.637 109.197L288.092 108.734C288.212 108.52 288.404 108.341 288.667 108.197C288.936 108.047 289.282 107.973 289.705 107.973C290.213 107.973 290.608 108.092 290.892 108.331C291.181 108.565 291.325 108.916 291.325 109.384V111.198H291.781V111.915H291.221ZM289.571 111.347C289.8 111.347 289.989 111.295 290.138 111.191C290.292 111.081 290.37 110.934 290.37 110.75V110.235H289.713C289.19 110.235 288.929 110.399 288.929 110.728V110.877C288.929 111.031 288.986 111.148 289.1 111.228C289.215 111.308 289.372 111.347 289.571 111.347ZM292.599 111.161H293.555V108.816H292.599V108.062H294.51V109.115H294.57C294.605 108.981 294.652 108.851 294.712 108.727C294.777 108.597 294.856 108.485 294.951 108.391C295.05 108.291 295.17 108.212 295.309 108.152C295.448 108.092 295.615 108.062 295.809 108.062H296.227V108.958H295.436C295.147 108.958 294.921 109.043 294.757 109.212C294.592 109.381 294.51 109.598 294.51 109.862V111.161H295.847V111.915H292.599V111.161ZM299.524 111.235H299.472C299.368 111.469 299.223 111.656 299.039 111.795C298.86 111.935 298.621 112.004 298.322 112.004C298.103 112.004 297.902 111.965 297.718 111.885C297.538 111.8 297.384 111.676 297.255 111.512C297.125 111.342 297.026 111.131 296.956 110.877C296.886 110.623 296.852 110.327 296.852 109.989C296.852 109.312 296.986 108.806 297.255 108.473C297.524 108.14 297.879 107.973 298.322 107.973C298.621 107.973 298.86 108.042 299.039 108.182C299.223 108.321 299.368 108.508 299.472 108.742H299.524V106.39H300.48V111.915H299.524V111.235ZM298.726 111.243C298.835 111.243 298.937 111.23 299.032 111.206C299.131 111.176 299.216 111.136 299.286 111.086C299.36 111.031 299.417 110.964 299.457 110.884C299.502 110.8 299.524 110.703 299.524 110.593V109.384C299.524 109.274 299.502 109.18 299.457 109.1C299.417 109.016 299.36 108.948 299.286 108.899C299.216 108.844 299.131 108.804 299.032 108.779C298.937 108.749 298.835 108.734 298.726 108.734C298.447 108.734 298.23 108.819 298.076 108.988C297.927 109.157 297.852 109.389 297.852 109.682V110.295C297.852 110.588 297.927 110.82 298.076 110.989C298.23 111.158 298.447 111.243 298.726 111.243ZM306.858 111.586L306.186 111.131L307.059 109.966L305.723 109.511L305.969 108.764L307.291 109.227V107.816H308.127V109.227L309.448 108.764L309.695 109.511L308.358 109.966L309.232 111.131L308.56 111.586L307.709 110.422L306.858 111.586ZM311.334 111.586L310.662 111.131L311.536 109.966L310.199 109.511L310.446 108.764L311.767 109.227V107.816H312.603V109.227L313.925 108.764L314.171 109.511L312.835 109.966L313.708 111.131L313.036 111.586L312.185 110.422L311.334 111.586ZM315.811 111.586L315.139 111.131L316.012 109.966L314.676 109.511L314.922 108.764L316.244 109.227V107.816H317.08V109.227L318.402 108.764L318.648 109.511L317.311 109.966L318.185 111.131L317.513 111.586L316.662 110.422L315.811 111.586ZM320.287 111.586L319.616 111.131L320.489 109.966L319.153 109.511L319.399 108.764L320.72 109.227V107.816H321.557V109.227L322.878 108.764L323.125 109.511L321.788 109.966L322.662 111.131L321.99 111.586L321.139 110.422L320.287 111.586ZM331.958 111.915H328.285V111.004L329.957 109.578C330.236 109.339 330.443 109.123 330.577 108.928C330.712 108.729 330.779 108.518 330.779 108.294V108.219C330.779 107.97 330.709 107.781 330.57 107.652C330.43 107.522 330.236 107.458 329.987 107.458C329.714 107.458 329.505 107.532 329.36 107.682C329.216 107.831 329.111 108.015 329.047 108.234L328.195 107.913C328.25 107.744 328.327 107.582 328.427 107.428C328.531 107.269 328.658 107.129 328.808 107.01C328.962 106.89 329.144 106.796 329.353 106.726C329.562 106.651 329.801 106.614 330.069 106.614C330.348 106.614 330.595 106.654 330.809 106.733C331.028 106.808 331.212 106.915 331.361 107.054C331.51 107.189 331.622 107.351 331.697 107.54C331.777 107.729 331.816 107.935 331.816 108.159C331.816 108.373 331.782 108.57 331.712 108.749C331.647 108.928 331.555 109.1 331.436 109.264C331.316 109.424 331.174 109.578 331.01 109.727C330.851 109.877 330.677 110.026 330.488 110.175L329.353 111.094H331.958V111.915ZM334.359 108.809C334.673 108.809 334.902 108.747 335.046 108.622C335.196 108.498 335.27 108.341 335.27 108.152V108.1C335.27 107.886 335.198 107.719 335.054 107.599C334.914 107.48 334.72 107.42 334.471 107.42C334.232 107.42 334.023 107.475 333.844 107.585C333.665 107.694 333.511 107.848 333.381 108.047L332.747 107.48C332.836 107.361 332.936 107.249 333.045 107.144C333.16 107.035 333.287 106.942 333.426 106.868C333.571 106.788 333.73 106.726 333.904 106.681C334.078 106.636 334.277 106.614 334.501 106.614C334.765 106.614 335.006 106.646 335.225 106.711C335.449 106.771 335.639 106.86 335.793 106.98C335.952 107.099 336.074 107.244 336.159 107.413C336.248 107.577 336.293 107.764 336.293 107.973C336.293 108.137 336.266 108.286 336.211 108.421C336.156 108.555 336.082 108.672 335.987 108.772C335.897 108.871 335.79 108.953 335.666 109.018C335.546 109.083 335.417 109.13 335.278 109.16V109.197C335.432 109.227 335.576 109.277 335.711 109.347C335.845 109.411 335.962 109.496 336.062 109.6C336.161 109.705 336.241 109.832 336.301 109.981C336.36 110.125 336.39 110.29 336.39 110.474C336.39 110.703 336.343 110.912 336.248 111.101C336.154 111.29 336.019 111.452 335.845 111.586C335.676 111.721 335.469 111.825 335.225 111.9C334.987 111.97 334.718 112.004 334.419 112.004C334.17 112.004 333.949 111.977 333.755 111.922C333.561 111.872 333.389 111.803 333.24 111.713C333.09 111.624 332.961 111.522 332.851 111.407C332.742 111.288 332.645 111.166 332.56 111.041L333.284 110.481C333.409 110.69 333.556 110.862 333.725 110.996C333.899 111.131 334.135 111.198 334.434 111.198C334.733 111.198 334.962 111.131 335.121 110.996C335.285 110.857 335.367 110.665 335.367 110.422V110.362C335.367 110.123 335.28 109.941 335.106 109.817C334.932 109.687 334.685 109.623 334.367 109.623H333.844V108.809H334.359ZM339.426 111.915V110.907H337.014V110.071L339.142 106.704H340.359V110.145H341.061V110.907H340.359V111.915H339.426ZM337.813 110.145H339.426V107.659H339.366L337.813 110.145ZM345.149 107.555H342.76L342.633 109.302H342.693C342.753 109.192 342.817 109.093 342.887 109.003C342.957 108.909 343.036 108.829 343.126 108.764C343.221 108.699 343.325 108.65 343.44 108.615C343.559 108.58 343.696 108.563 343.85 108.563C344.069 108.563 344.276 108.6 344.47 108.675C344.664 108.749 344.833 108.856 344.978 108.996C345.122 109.135 345.234 109.307 345.314 109.511C345.398 109.715 345.44 109.946 345.44 110.205C345.44 110.464 345.396 110.703 345.306 110.922C345.221 111.141 345.095 111.332 344.925 111.497C344.761 111.656 344.557 111.78 344.313 111.87C344.074 111.96 343.798 112.004 343.484 112.004C343.241 112.004 343.022 111.977 342.827 111.922C342.638 111.872 342.472 111.803 342.327 111.713C342.183 111.624 342.056 111.522 341.946 111.407C341.837 111.288 341.742 111.166 341.663 111.041L342.372 110.481C342.432 110.581 342.496 110.675 342.566 110.765C342.641 110.85 342.723 110.924 342.812 110.989C342.902 111.054 343.002 111.106 343.111 111.146C343.226 111.181 343.355 111.198 343.499 111.198C343.798 111.198 344.024 111.118 344.179 110.959C344.338 110.795 344.418 110.571 344.418 110.287V110.227C344.418 109.954 344.338 109.74 344.179 109.585C344.019 109.431 343.795 109.354 343.507 109.354C343.288 109.354 343.109 109.396 342.969 109.481C342.835 109.561 342.725 109.648 342.641 109.742L341.842 109.63L342.036 106.704H345.149V107.555Z" fill="white"/>
<path d="M247.808 138.741H249.012L250.624 142.675H250.688L252.299 138.741H253.503V144.17H252.559V140.44H252.509L251.008 144.155H250.303L248.803 140.432H248.752V144.17H247.808V138.741ZM255.128 145.698C254.998 145.698 254.877 145.687 254.765 145.666C254.656 145.646 254.568 145.623 254.503 145.597L254.725 144.849C254.865 144.89 254.99 144.909 255.099 144.907C255.209 144.906 255.305 144.871 255.388 144.804C255.473 144.739 255.545 144.629 255.603 144.475L255.685 144.255L254.208 140.098H255.226L256.165 143.174H256.207L257.149 140.098H258.169L256.539 144.664C256.463 144.879 256.362 145.064 256.237 145.218C256.111 145.373 255.957 145.492 255.775 145.573C255.595 145.656 255.379 145.698 255.128 145.698ZM262.462 144.25C262.055 144.25 261.706 144.161 261.414 143.982C261.125 143.804 260.901 143.557 260.744 143.242C260.588 142.926 260.51 142.562 260.51 142.15C260.51 141.737 260.59 141.372 260.749 141.055C260.908 140.737 261.133 140.49 261.422 140.313C261.714 140.134 262.059 140.045 262.456 140.045C262.787 140.045 263.079 140.106 263.334 140.228C263.59 140.348 263.794 140.519 263.946 140.74C264.098 140.959 264.185 141.215 264.206 141.509H263.289C263.252 141.312 263.163 141.149 263.024 141.018C262.886 140.886 262.701 140.819 262.47 140.819C262.273 140.819 262.101 140.872 261.953 140.978C261.804 141.083 261.688 141.233 261.605 141.429C261.524 141.625 261.483 141.86 261.483 142.134C261.483 142.412 261.524 142.65 261.605 142.85C261.687 143.048 261.801 143.201 261.947 143.309C262.096 143.415 262.27 143.468 262.47 143.468C262.611 143.468 262.737 143.441 262.849 143.388C262.962 143.334 263.056 143.255 263.132 143.152C263.208 143.05 263.261 142.925 263.289 142.779H264.206C264.183 143.067 264.098 143.322 263.952 143.545C263.805 143.766 263.605 143.939 263.353 144.064C263.1 144.188 262.803 144.25 262.462 144.25ZM266.166 144.253C265.908 144.253 265.676 144.207 265.469 144.115C265.264 144.021 265.101 143.883 264.981 143.701C264.863 143.519 264.803 143.295 264.803 143.028C264.803 142.798 264.846 142.608 264.931 142.458C265.016 142.307 265.131 142.187 265.278 142.097C265.425 142.007 265.59 141.939 265.774 141.893C265.959 141.845 266.151 141.811 266.349 141.79C266.588 141.765 266.781 141.743 266.93 141.723C267.078 141.702 267.186 141.67 267.253 141.628C267.322 141.584 267.357 141.516 267.357 141.424V141.408C267.357 141.208 267.297 141.053 267.179 140.944C267.061 140.834 266.89 140.779 266.667 140.779C266.432 140.779 266.246 140.831 266.108 140.933C265.972 141.036 265.88 141.157 265.832 141.296L264.936 141.169C265.007 140.922 265.123 140.715 265.286 140.549C265.449 140.381 265.647 140.255 265.882 140.172C266.118 140.087 266.377 140.045 266.662 140.045C266.858 140.045 267.053 140.068 267.248 140.114C267.442 140.16 267.62 140.236 267.781 140.342C267.942 140.446 268.071 140.589 268.168 140.769C268.267 140.949 268.316 141.175 268.316 141.445V144.17H267.394V143.611H267.362C267.304 143.724 267.221 143.83 267.115 143.929C267.011 144.026 266.879 144.105 266.72 144.165C266.563 144.223 266.378 144.253 266.166 144.253ZM266.415 143.547C266.608 143.547 266.775 143.509 266.916 143.433C267.058 143.356 267.167 143.253 267.243 143.126C267.32 142.999 267.359 142.86 267.359 142.71V142.23C267.329 142.254 267.278 142.277 267.205 142.299C267.135 142.32 267.055 142.338 266.967 142.354C266.878 142.37 266.791 142.384 266.704 142.397C266.618 142.409 266.543 142.42 266.479 142.429C266.336 142.448 266.208 142.48 266.095 142.524C265.981 142.568 265.892 142.63 265.827 142.71C265.761 142.787 265.729 142.888 265.729 143.012C265.729 143.189 265.793 143.322 265.922 143.412C266.051 143.502 266.216 143.547 266.415 143.547ZM269.281 144.17V140.098H270.212V140.777H270.254C270.329 140.542 270.456 140.361 270.636 140.233C270.818 140.104 271.026 140.04 271.259 140.04C271.312 140.04 271.371 140.042 271.437 140.048C271.504 140.051 271.56 140.057 271.604 140.066V140.949C271.563 140.935 271.499 140.923 271.41 140.912C271.324 140.9 271.24 140.893 271.158 140.893C270.983 140.893 270.826 140.931 270.687 141.007C270.549 141.082 270.44 141.185 270.36 141.318C270.281 141.45 270.241 141.603 270.241 141.776V144.17H269.281ZM273.585 144.242C273.265 144.242 272.979 144.16 272.726 143.995C272.473 143.831 272.274 143.592 272.127 143.28C271.98 142.967 271.907 142.587 271.907 142.14C271.907 141.687 271.981 141.305 272.129 140.994C272.28 140.681 272.482 140.445 272.737 140.286C272.991 140.125 273.275 140.045 273.588 140.045C273.826 140.045 274.022 140.086 274.176 140.167C274.33 140.247 274.452 140.343 274.542 140.456C274.632 140.567 274.702 140.673 274.752 140.772H274.791V138.741H275.754V144.17H274.81V143.529H274.752C274.702 143.628 274.631 143.733 274.537 143.844C274.443 143.954 274.319 144.048 274.166 144.125C274.012 144.203 273.818 144.242 273.585 144.242ZM273.853 143.455C274.056 143.455 274.229 143.4 274.372 143.29C274.516 143.179 274.624 143.024 274.699 142.826C274.773 142.628 274.81 142.398 274.81 142.134C274.81 141.871 274.773 141.642 274.699 141.448C274.626 141.253 274.518 141.102 274.375 140.994C274.234 140.886 274.06 140.832 273.853 140.832C273.639 140.832 273.46 140.888 273.317 141C273.174 141.111 273.066 141.265 272.994 141.461C272.921 141.657 272.885 141.882 272.885 142.134C272.885 142.389 272.921 142.616 272.994 142.816C273.068 143.014 273.177 143.17 273.32 143.285C273.465 143.398 273.642 143.455 273.853 143.455Z" fill="white"/>
<path d="M295.387 144.274C294.951 144.274 294.576 144.163 294.263 143.942C293.952 143.72 293.713 143.399 293.545 142.98C293.378 142.559 293.295 142.053 293.295 141.461C293.297 140.869 293.381 140.365 293.547 139.95C293.715 139.532 293.955 139.214 294.266 138.995C294.579 138.776 294.952 138.666 295.387 138.666C295.822 138.666 296.196 138.776 296.509 138.995C296.822 139.214 297.061 139.532 297.227 139.95C297.395 140.367 297.479 140.87 297.479 141.461C297.479 142.055 297.395 142.562 297.227 142.983C297.061 143.402 296.822 143.721 296.509 143.942C296.198 144.163 295.824 144.274 295.387 144.274ZM295.387 143.444C295.727 143.444 295.994 143.277 296.191 142.943C296.389 142.607 296.488 142.113 296.488 141.461C296.488 141.03 296.442 140.667 296.352 140.374C296.262 140.08 296.135 139.859 295.971 139.711C295.806 139.561 295.612 139.486 295.387 139.486C295.05 139.486 294.783 139.654 294.587 139.989C294.39 140.323 294.291 140.814 294.29 141.461C294.288 141.894 294.331 142.258 294.42 142.553C294.51 142.848 294.637 143.071 294.801 143.221C294.966 143.37 295.161 143.444 295.387 143.444ZM298.36 144.17V143.46L300.245 141.612C300.425 141.43 300.576 141.268 300.696 141.127C300.816 140.985 300.906 140.848 300.966 140.716C301.026 140.583 301.056 140.442 301.056 140.292C301.056 140.12 301.017 139.973 300.94 139.852C300.862 139.728 300.755 139.632 300.619 139.565C300.483 139.498 300.328 139.464 300.155 139.464C299.976 139.464 299.82 139.502 299.686 139.576C299.551 139.648 299.447 139.752 299.373 139.886C299.3 140.02 299.264 140.18 299.264 140.366H298.328C298.328 140.021 298.407 139.722 298.564 139.467C298.721 139.213 298.938 139.016 299.214 138.876C299.491 138.736 299.809 138.666 300.168 138.666C300.532 138.666 300.852 138.734 301.128 138.871C301.404 139.007 301.617 139.193 301.769 139.43C301.923 139.667 302 139.937 302 140.241C302 140.445 301.961 140.644 301.883 140.84C301.806 141.037 301.669 141.254 301.473 141.493C301.278 141.731 301.005 142.02 300.653 142.36L299.717 143.311V143.349H302.082V144.17H298.36ZM305.224 138.486L303.474 144.987H302.634L304.384 138.486H305.224ZM307.775 144.245C307.393 144.245 307.053 144.179 306.756 144.048C306.461 143.918 306.228 143.736 306.057 143.502C305.885 143.269 305.794 142.999 305.783 142.694H306.78C306.789 142.84 306.838 142.969 306.926 143.078C307.015 143.186 307.132 143.27 307.279 143.33C307.425 143.39 307.59 143.42 307.772 143.42C307.966 143.42 308.139 143.387 308.289 143.319C308.439 143.25 308.557 143.155 308.641 143.033C308.726 142.911 308.768 142.771 308.766 142.611C308.768 142.447 308.725 142.302 308.639 142.177C308.552 142.051 308.427 141.953 308.262 141.882C308.1 141.812 307.904 141.776 307.674 141.776H307.194V141.018H307.674C307.863 141.018 308.028 140.985 308.17 140.92C308.313 140.855 308.425 140.763 308.506 140.644C308.588 140.524 308.627 140.385 308.626 140.228C308.627 140.074 308.593 139.941 308.522 139.828C308.453 139.713 308.355 139.624 308.228 139.56C308.102 139.496 307.955 139.464 307.785 139.464C307.619 139.464 307.465 139.494 307.324 139.555C307.182 139.615 307.068 139.7 306.982 139.812C306.895 139.921 306.849 140.052 306.844 140.204H305.897C305.905 139.9 305.992 139.633 306.16 139.403C306.33 139.172 306.556 138.992 306.839 138.863C307.121 138.732 307.439 138.666 307.79 138.666C308.153 138.666 308.467 138.734 308.734 138.871C309.003 139.005 309.211 139.186 309.357 139.414C309.504 139.642 309.577 139.894 309.577 140.17C309.579 140.475 309.489 140.732 309.307 140.939C309.127 141.145 308.89 141.281 308.596 141.344V141.387C308.978 141.44 309.271 141.581 309.474 141.811C309.679 142.039 309.781 142.322 309.779 142.662C309.779 142.966 309.692 143.238 309.519 143.478C309.348 143.717 309.111 143.904 308.809 144.04C308.508 144.177 308.163 144.245 307.775 144.245ZM312.696 144.274C312.259 144.274 311.885 144.163 311.572 143.942C311.261 143.72 311.021 143.399 310.853 142.98C310.687 142.559 310.604 142.053 310.604 141.461C310.606 140.869 310.69 140.365 310.856 139.95C311.024 139.532 311.263 139.214 311.574 138.995C311.887 138.776 312.261 138.666 312.696 138.666C313.131 138.666 313.505 138.776 313.817 138.995C314.13 139.214 314.37 139.532 314.536 139.95C314.704 140.367 314.788 140.87 314.788 141.461C314.788 142.055 314.704 142.562 314.536 142.983C314.37 143.402 314.13 143.721 313.817 143.942C313.506 144.163 313.132 144.274 312.696 144.274ZM312.696 143.444C313.035 143.444 313.303 143.277 313.499 142.943C313.697 142.607 313.796 142.113 313.796 141.461C313.796 141.03 313.751 140.667 313.661 140.374C313.571 140.08 313.444 139.859 313.279 139.711C313.115 139.561 312.92 139.486 312.696 139.486C312.358 139.486 312.091 139.654 311.895 139.989C311.699 140.323 311.6 140.814 311.598 141.461C311.597 141.894 311.64 142.258 311.728 142.553C311.818 142.848 311.946 143.071 312.11 143.221C312.274 143.37 312.47 143.444 312.696 143.444Z" fill="white"/>
<path d="M250.624 133.875H250.186C250.16 133.749 250.114 133.638 250.049 133.543C249.986 133.447 249.908 133.367 249.816 133.302C249.725 133.236 249.625 133.187 249.514 133.154C249.403 133.121 249.288 133.104 249.167 133.104C248.948 133.104 248.75 133.16 248.572 133.271C248.395 133.381 248.254 133.544 248.149 133.76C248.046 133.976 247.994 134.24 247.994 134.554C247.994 134.867 248.046 135.132 248.149 135.347C248.254 135.563 248.395 135.726 248.572 135.837C248.75 135.948 248.948 136.003 249.167 136.003C249.288 136.003 249.403 135.987 249.514 135.954C249.625 135.921 249.725 135.872 249.816 135.807C249.908 135.741 249.986 135.66 250.049 135.565C250.114 135.468 250.16 135.357 250.186 135.232H250.624C250.591 135.417 250.531 135.583 250.444 135.729C250.356 135.875 250.248 136 250.118 136.102C249.989 136.203 249.843 136.281 249.682 136.334C249.522 136.387 249.35 136.413 249.167 136.413C248.859 136.413 248.584 136.338 248.344 136.187C248.103 136.036 247.914 135.822 247.776 135.544C247.639 135.265 247.57 134.936 247.57 134.554C247.57 134.172 247.639 133.842 247.776 133.564C247.914 133.286 248.103 133.071 248.344 132.921C248.584 132.77 248.859 132.694 249.167 132.694C249.35 132.694 249.522 132.721 249.682 132.774C249.843 132.827 249.989 132.905 250.118 133.007C250.248 133.109 250.356 133.232 250.444 133.378C250.531 133.523 250.591 133.689 250.624 133.875ZM252.075 136.427C251.903 136.427 251.746 136.395 251.606 136.33C251.466 136.264 251.355 136.169 251.272 136.045C251.19 135.921 251.148 135.77 251.148 135.593C251.148 135.437 251.179 135.311 251.24 135.215C251.302 135.117 251.383 135.04 251.486 134.985C251.589 134.93 251.702 134.888 251.825 134.861C251.95 134.833 252.076 134.811 252.202 134.794C252.367 134.773 252.501 134.757 252.603 134.746C252.707 134.735 252.782 134.715 252.829 134.688C252.878 134.661 252.902 134.614 252.902 134.547V134.533C252.902 134.358 252.854 134.223 252.759 134.126C252.664 134.029 252.521 133.981 252.329 133.981C252.13 133.981 251.974 134.025 251.861 134.112C251.748 134.199 251.668 134.292 251.622 134.391L251.226 134.25C251.297 134.085 251.391 133.956 251.509 133.864C251.628 133.771 251.758 133.707 251.898 133.67C252.039 133.632 252.178 133.613 252.315 133.613C252.402 133.613 252.502 133.624 252.615 133.645C252.73 133.665 252.84 133.707 252.946 133.771C253.053 133.834 253.142 133.93 253.213 134.059C253.284 134.187 253.319 134.359 253.319 134.575V136.364H252.902V135.996H252.881C252.852 136.055 252.805 136.118 252.739 136.185C252.673 136.252 252.585 136.309 252.476 136.357C252.366 136.404 252.232 136.427 252.075 136.427ZM252.138 136.053C252.303 136.053 252.442 136.02 252.555 135.955C252.67 135.891 252.756 135.807 252.813 135.704C252.872 135.602 252.902 135.494 252.902 135.381V134.999C252.884 135.02 252.845 135.04 252.785 135.057C252.726 135.074 252.658 135.089 252.58 135.102C252.503 135.113 252.429 135.124 252.356 135.133C252.284 135.142 252.225 135.149 252.181 135.155C252.072 135.169 251.971 135.192 251.877 135.224C251.784 135.254 251.708 135.301 251.65 135.363C251.594 135.425 251.566 135.508 251.566 135.614C251.566 135.759 251.619 135.869 251.726 135.943C251.835 136.016 251.972 136.053 252.138 136.053ZM254.08 136.364V133.649H254.483V134.059H254.512C254.561 133.925 254.651 133.816 254.78 133.732C254.91 133.648 255.056 133.606 255.219 133.606C255.249 133.606 255.287 133.607 255.333 133.608C255.379 133.609 255.414 133.611 255.438 133.613V134.038C255.424 134.034 255.391 134.029 255.34 134.022C255.291 134.013 255.239 134.009 255.183 134.009C255.051 134.009 254.933 134.037 254.83 134.092C254.727 134.147 254.646 134.222 254.586 134.319C254.527 134.414 254.497 134.523 254.497 134.646V136.364H254.08ZM256.875 136.42C256.648 136.42 256.449 136.363 256.275 136.249C256.102 136.133 255.967 135.971 255.869 135.761C255.771 135.55 255.722 135.301 255.722 135.013C255.722 134.728 255.771 134.481 255.869 134.271C255.967 134.061 256.103 133.899 256.277 133.785C256.452 133.671 256.653 133.613 256.882 133.613C257.058 133.613 257.198 133.643 257.301 133.702C257.404 133.76 257.483 133.826 257.537 133.9C257.593 133.973 257.636 134.033 257.667 134.08H257.702V132.744H258.119V136.364H257.716V135.947H257.667C257.636 135.996 257.592 136.058 257.536 136.134C257.479 136.208 257.398 136.275 257.294 136.334C257.189 136.391 257.049 136.42 256.875 136.42ZM256.931 136.045C257.099 136.045 257.24 136.002 257.355 135.915C257.471 135.826 257.559 135.704 257.619 135.549C257.679 135.392 257.709 135.211 257.709 135.006C257.709 134.804 257.679 134.626 257.621 134.474C257.562 134.321 257.474 134.202 257.359 134.117C257.243 134.031 257.101 133.988 256.931 133.988C256.754 133.988 256.607 134.033 256.489 134.124C256.373 134.214 256.285 134.336 256.226 134.49C256.168 134.643 256.139 134.815 256.139 135.006C256.139 135.199 256.169 135.375 256.228 135.533C256.288 135.69 256.376 135.815 256.493 135.908C256.611 136 256.757 136.045 256.931 136.045ZM260.397 136.364V132.744H260.836V134.356H262.766V132.744H263.204V136.364H262.766V134.745H260.836V136.364H260.397ZM265.128 136.42C264.883 136.42 264.668 136.362 264.483 136.245C264.299 136.129 264.155 135.965 264.052 135.756C263.949 135.546 263.898 135.301 263.898 135.02C263.898 134.738 263.949 134.491 264.052 134.28C264.155 134.069 264.299 133.905 264.483 133.788C264.668 133.672 264.883 133.613 265.128 133.613C265.373 133.613 265.588 133.672 265.771 133.788C265.956 133.905 266.1 134.069 266.203 134.28C266.306 134.491 266.358 134.738 266.358 135.02C266.358 135.301 266.306 135.546 266.203 135.756C266.1 135.965 265.956 136.129 265.771 136.245C265.588 136.362 265.373 136.42 265.128 136.42ZM265.128 136.045C265.314 136.045 265.467 135.998 265.588 135.902C265.708 135.807 265.797 135.681 265.854 135.526C265.912 135.37 265.941 135.202 265.941 135.02C265.941 134.839 265.912 134.67 265.854 134.513C265.797 134.356 265.708 134.23 265.588 134.133C265.467 134.036 265.314 133.988 265.128 133.988C264.942 133.988 264.789 134.036 264.668 134.133C264.548 134.23 264.459 134.356 264.402 134.513C264.344 134.67 264.315 134.839 264.315 135.02C264.315 135.202 264.344 135.37 264.402 135.526C264.459 135.681 264.548 135.807 264.668 135.902C264.789 135.998 264.942 136.045 265.128 136.045ZM267.412 132.744V136.364H266.995V132.744H267.412ZM269.201 136.42C268.975 136.42 268.775 136.363 268.602 136.249C268.429 136.133 268.293 135.971 268.195 135.761C268.098 135.55 268.049 135.301 268.049 135.013C268.049 134.728 268.098 134.481 268.195 134.271C268.293 134.061 268.429 133.899 268.604 133.785C268.778 133.671 268.98 133.613 269.208 133.613C269.385 133.613 269.525 133.643 269.627 133.702C269.731 133.76 269.81 133.826 269.864 133.9C269.919 133.973 269.962 134.033 269.993 134.08H270.028V132.744H270.446V136.364H270.043V135.947H269.993C269.962 135.996 269.919 136.058 269.862 136.134C269.806 136.208 269.725 136.275 269.62 136.334C269.515 136.391 269.376 136.42 269.201 136.42ZM269.258 136.045C269.425 136.045 269.566 136.002 269.682 135.915C269.797 135.826 269.885 135.704 269.945 135.549C270.005 135.392 270.035 135.211 270.035 135.006C270.035 134.804 270.006 134.626 269.947 134.474C269.888 134.321 269.801 134.202 269.685 134.117C269.57 134.031 269.427 133.988 269.258 133.988C269.081 133.988 268.934 134.033 268.816 134.124C268.699 134.214 268.611 134.336 268.553 134.49C268.495 134.643 268.466 134.815 268.466 135.006C268.466 135.199 268.495 135.375 268.554 135.533C268.614 135.69 268.703 135.815 268.819 135.908C268.937 136 269.083 136.045 269.258 136.045ZM272.406 136.42C272.144 136.42 271.918 136.362 271.729 136.247C271.54 136.13 271.395 135.968 271.292 135.759C271.191 135.549 271.14 135.306 271.14 135.027C271.14 134.749 271.191 134.504 271.292 134.292C271.395 134.079 271.537 133.913 271.72 133.794C271.904 133.674 272.118 133.613 272.363 133.613C272.505 133.613 272.644 133.637 272.782 133.684C272.92 133.731 273.045 133.808 273.159 133.914C273.272 134.019 273.362 134.158 273.429 134.331C273.496 134.504 273.53 134.718 273.53 134.971V135.148H271.437V134.787H273.106C273.106 134.634 273.075 134.497 273.014 134.377C272.954 134.257 272.868 134.162 272.756 134.092C272.645 134.023 272.514 133.988 272.363 133.988C272.197 133.988 272.053 134.029 271.932 134.112C271.812 134.193 271.719 134.299 271.654 134.43C271.59 134.561 271.557 134.701 271.557 134.851V135.091C271.557 135.296 271.593 135.47 271.663 135.612C271.735 135.754 271.835 135.862 271.962 135.936C272.089 136.009 272.237 136.045 272.406 136.045C272.515 136.045 272.614 136.03 272.703 136C272.792 135.968 272.869 135.921 272.934 135.858C272.999 135.795 273.049 135.716 273.084 135.621L273.487 135.734C273.445 135.871 273.374 135.991 273.274 136.095C273.173 136.198 273.05 136.278 272.902 136.335C272.755 136.392 272.589 136.42 272.406 136.42ZM274.164 136.364V133.649H274.567V134.059H274.596C274.645 133.925 274.735 133.816 274.864 133.732C274.994 133.648 275.14 133.606 275.303 133.606C275.333 133.606 275.372 133.607 275.417 133.608C275.463 133.609 275.498 133.611 275.522 133.613V134.038C275.508 134.034 275.475 134.029 275.425 134.022C275.375 134.013 275.323 134.009 275.267 134.009C275.135 134.009 275.017 134.037 274.914 134.092C274.811 134.147 274.73 134.222 274.67 134.319C274.611 134.414 274.581 134.523 274.581 134.646V136.364H274.164Z" fill="white"/>
<path d="M293.336 136.364V132.744H295.521V133.133H293.774V134.356H295.408V134.745H293.774V135.975H295.549V136.364H293.336ZM296.565 133.649L297.216 134.759L297.866 133.649H298.347L297.47 135.006L298.347 136.364H297.866L297.216 135.31L296.565 136.364H296.085L296.947 135.006L296.085 133.649H296.565ZM298.942 137.382V133.649H299.345V134.08H299.395C299.425 134.033 299.468 133.973 299.522 133.9C299.577 133.826 299.656 133.76 299.759 133.702C299.862 133.643 300.003 133.613 300.179 133.613C300.408 133.613 300.609 133.671 300.784 133.785C300.958 133.899 301.094 134.061 301.192 134.271C301.29 134.481 301.339 134.728 301.339 135.013C301.339 135.301 301.29 135.55 301.192 135.761C301.094 135.971 300.959 136.133 300.786 136.249C300.612 136.363 300.413 136.42 300.186 136.42C300.012 136.42 299.872 136.391 299.768 136.334C299.663 136.275 299.582 136.208 299.525 136.134C299.469 136.058 299.425 135.996 299.395 135.947H299.359V137.382H298.942ZM299.352 135.006C299.352 135.211 299.382 135.392 299.442 135.549C299.502 135.704 299.59 135.826 299.706 135.915C299.821 136.002 299.963 136.045 300.13 136.045C300.304 136.045 300.45 136 300.566 135.908C300.684 135.815 300.773 135.69 300.832 135.533C300.892 135.375 300.922 135.199 300.922 135.006C300.922 134.815 300.892 134.643 300.833 134.49C300.776 134.336 300.688 134.214 300.57 134.124C300.453 134.033 300.307 133.988 300.13 133.988C299.96 133.988 299.818 134.031 299.702 134.117C299.587 134.202 299.499 134.321 299.441 134.474C299.382 134.626 299.352 134.804 299.352 135.006ZM301.975 136.364V133.649H302.392V136.364H301.975ZM302.187 133.196C302.106 133.196 302.036 133.169 301.977 133.113C301.919 133.058 301.89 132.991 301.89 132.913C301.89 132.836 301.919 132.769 301.977 132.714C302.036 132.658 302.106 132.631 302.187 132.631C302.269 132.631 302.338 132.658 302.396 132.714C302.455 132.769 302.484 132.836 302.484 132.913C302.484 132.991 302.455 133.058 302.396 133.113C302.338 133.169 302.269 133.196 302.187 133.196ZM303.156 136.364V133.649H303.559V134.059H303.588C303.637 133.925 303.727 133.816 303.856 133.732C303.986 133.648 304.132 133.606 304.295 133.606C304.325 133.606 304.363 133.607 304.409 133.608C304.455 133.609 304.49 133.611 304.514 133.613V134.038C304.5 134.034 304.467 134.029 304.417 134.022C304.367 134.013 304.315 134.009 304.259 134.009C304.127 134.009 304.009 134.037 303.906 134.092C303.803 134.147 303.722 134.222 303.662 134.319C303.603 134.414 303.573 134.523 303.573 134.646V136.364H303.156ZM305.359 137.382C305.289 137.382 305.226 137.376 305.17 137.364C305.115 137.353 305.077 137.343 305.055 137.332L305.162 136.965C305.263 136.991 305.352 137 305.43 136.993C305.508 136.986 305.577 136.951 305.637 136.889C305.698 136.827 305.754 136.728 305.805 136.59L305.883 136.378L304.879 133.649H305.331L306.081 135.812H306.109L306.858 133.649H307.311L306.158 136.76C306.107 136.9 306.042 137.016 305.966 137.108C305.889 137.201 305.8 137.27 305.699 137.315C305.599 137.359 305.486 137.382 305.359 137.382ZM310.435 136.364H309.318V132.744H310.484C310.835 132.744 311.136 132.816 311.386 132.961C311.636 133.105 311.827 133.312 311.96 133.582C312.093 133.85 312.16 134.172 312.16 134.547C312.16 134.924 312.093 135.248 311.958 135.521C311.824 135.792 311.628 136 311.372 136.146C311.115 136.291 310.802 136.364 310.435 136.364ZM309.756 135.975H310.407C310.706 135.975 310.954 135.917 311.151 135.802C311.347 135.686 311.494 135.522 311.591 135.308C311.687 135.095 311.736 134.841 311.736 134.547C311.736 134.254 311.688 134.003 311.593 133.792C311.497 133.58 311.355 133.417 311.165 133.304C310.975 133.19 310.739 133.133 310.456 133.133H309.756V135.975ZM313.638 136.427C313.466 136.427 313.309 136.395 313.169 136.33C313.029 136.264 312.918 136.169 312.835 136.045C312.753 135.921 312.711 135.77 312.711 135.593C312.711 135.437 312.742 135.311 312.803 135.215C312.865 135.117 312.946 135.04 313.049 134.985C313.151 134.93 313.265 134.888 313.388 134.861C313.513 134.833 313.639 134.811 313.765 134.794C313.93 134.773 314.064 134.757 314.166 134.746C314.27 134.735 314.345 134.715 314.392 134.688C314.441 134.661 314.465 134.614 314.465 134.547V134.533C314.465 134.358 314.417 134.223 314.322 134.126C314.227 134.029 314.084 133.981 313.892 133.981C313.693 133.981 313.537 134.025 313.424 134.112C313.311 134.199 313.231 134.292 313.185 134.391L312.789 134.25C312.86 134.085 312.954 133.956 313.072 133.864C313.191 133.771 313.321 133.707 313.461 133.67C313.602 133.632 313.741 133.613 313.878 133.613C313.965 133.613 314.065 133.624 314.178 133.645C314.293 133.665 314.403 133.707 314.509 133.771C314.616 133.834 314.705 133.93 314.776 134.059C314.847 134.187 314.882 134.359 314.882 134.575V136.364H314.465V135.996H314.444C314.415 136.055 314.368 136.118 314.302 136.185C314.236 136.252 314.148 136.309 314.039 136.357C313.929 136.404 313.795 136.427 313.638 136.427ZM313.701 136.053C313.866 136.053 314.005 136.02 314.118 135.955C314.233 135.891 314.319 135.807 314.376 135.704C314.435 135.602 314.465 135.494 314.465 135.381V134.999C314.447 135.02 314.408 135.04 314.348 135.057C314.289 135.074 314.221 135.089 314.143 135.102C314.066 135.113 313.992 135.124 313.919 135.133C313.847 135.142 313.788 135.149 313.744 135.155C313.635 135.169 313.534 135.192 313.44 135.224C313.347 135.254 313.271 135.301 313.213 135.363C313.157 135.425 313.129 135.508 313.129 135.614C313.129 135.759 313.182 135.869 313.289 135.943C313.398 136.016 313.535 136.053 313.701 136.053ZM316.824 133.649V134.002H315.417V133.649H316.824ZM315.827 132.998H316.244V135.586C316.244 135.704 316.261 135.792 316.295 135.851C316.331 135.909 316.376 135.948 316.43 135.968C316.485 135.987 316.543 135.996 316.605 135.996C316.651 135.996 316.688 135.994 316.718 135.989C316.747 135.983 316.771 135.978 316.789 135.975L316.873 136.35C316.845 136.36 316.806 136.371 316.755 136.381C316.704 136.393 316.64 136.399 316.562 136.399C316.444 136.399 316.329 136.374 316.216 136.323C316.104 136.272 316.011 136.195 315.937 136.091C315.864 135.988 315.827 135.857 315.827 135.699V132.998ZM318.56 136.42C318.299 136.42 318.073 136.362 317.884 136.247C317.695 136.13 317.549 135.968 317.447 135.759C317.346 135.549 317.295 135.306 317.295 135.027C317.295 134.749 317.346 134.504 317.447 134.292C317.549 134.079 317.692 133.913 317.875 133.794C318.059 133.674 318.273 133.613 318.518 133.613C318.659 133.613 318.799 133.637 318.937 133.684C319.075 133.731 319.2 133.808 319.313 133.914C319.427 134.019 319.517 134.158 319.584 134.331C319.651 134.504 319.685 134.718 319.685 134.971V135.148H317.592V134.787H319.26C319.26 134.634 319.23 134.497 319.168 134.377C319.108 134.257 319.022 134.162 318.91 134.092C318.8 134.023 318.669 133.988 318.518 133.988C318.352 133.988 318.208 134.029 318.087 134.112C317.967 134.193 317.874 134.299 317.809 134.43C317.744 134.561 317.712 134.701 317.712 134.851V135.091C317.712 135.296 317.747 135.47 317.818 135.612C317.89 135.754 317.99 135.862 318.117 135.936C318.244 136.009 318.392 136.045 318.56 136.045C318.67 136.045 318.769 136.03 318.857 136C318.947 135.968 319.024 135.921 319.089 135.858C319.154 135.795 319.204 135.716 319.239 135.621L319.642 135.734C319.6 135.871 319.528 135.991 319.428 136.095C319.328 136.198 319.204 136.278 319.057 136.335C318.91 136.392 318.744 136.42 318.56 136.42Z" fill="white"/>
<path d="M365.326 137.468H363.804C363.329 137.468 362.972 137.599 362.769 138.064L359.842 144.699H361.911C361.911 144.699 362.254 143.809 362.331 143.615H364.851C364.915 143.868 365.091 144.699 365.091 144.699H366.92L365.326 137.468ZM362.9 142.138C363.058 141.718 363.673 140.11 363.673 140.11C363.673 140.11 363.844 139.685 363.939 139.423L364.07 140.047C364.07 140.047 364.454 141.767 364.531 142.138H362.9Z" fill="white"/>
<path d="M357.218 139.473C357.214 139.812 357.638 140.037 358.329 140.372C359.463 140.887 359.992 141.514 359.982 142.336C359.969 143.836 358.623 144.807 356.55 144.807C355.669 144.798 354.816 144.617 354.355 144.423L354.635 142.802L354.888 142.919C355.534 143.186 355.954 143.298 356.744 143.298C357.309 143.298 357.914 143.077 357.918 142.594C357.923 142.273 357.665 142.047 356.898 141.691C356.148 141.347 355.159 140.769 355.168 139.73C355.177 138.326 356.55 137.341 358.497 137.341C359.26 137.341 359.874 137.499 360.267 137.644L360.001 139.211L359.824 139.13C359.459 138.981 358.993 138.841 358.347 138.85C357.58 138.85 357.218 139.175 357.218 139.473Z" fill="white"/>
<path d="M354.355 137.463L353.117 144.694H351.153L352.386 137.463H354.355Z" fill="white"/>
<path d="M347.277 141.185C346.622 139.514 345.051 138.122 342.67 137.544L342.698 137.395H345.755C346.171 137.409 346.501 137.544 346.618 137.982L347.277 141.185Z" fill="white"/>
<path d="M351.586 137.468L348.479 144.685H346.397L344.631 138.66C345.9 139.473 346.979 140.76 347.359 141.655L347.566 142.4L349.5 137.468H351.586Z" fill="white"/>
<path d="M251.376 89.4497C248.974 89.4497 247.273 91.1622 247.273 93.4862C247.273 95.8103 248.974 97.5227 251.376 97.5227C253.778 97.5227 255.479 95.8103 255.479 93.4862C255.479 91.1622 253.778 89.4497 251.376 89.4497ZM251.376 91.2289C252.644 91.2289 253.544 92.1518 253.544 93.4862C253.544 94.8206 252.644 95.7436 251.376 95.7436C250.108 95.7436 249.208 94.8206 249.208 93.4862C249.208 92.1518 250.108 91.2289 251.376 91.2289Z" fill="white"/>
<path d="M261.33 91.993C261.33 91.9548 261.299 91.9239 261.261 91.9239H259.664C259.626 91.9239 259.595 91.9548 259.595 91.993V94.8873C259.595 95.5823 259.217 95.8992 258.7 95.8992C258.177 95.8992 257.805 95.5823 257.805 94.8873V91.993C257.805 91.9548 257.774 91.9239 257.736 91.9239H256.134C256.096 91.9239 256.065 91.9548 256.065 91.993V95.0374C256.065 96.7499 257.243 97.5227 258.7 97.5227C260.151 97.5227 261.33 96.7499 261.33 95.043V91.993Z" fill="white"/>
<path d="M267.114 91.993C267.114 91.9548 267.083 91.9239 267.045 91.9239H264.631C264.593 91.9239 264.562 91.8929 264.562 91.8547V90.4029C264.562 90.3647 264.531 90.3337 264.493 90.3337H262.891C262.853 90.3337 262.822 90.3647 262.822 90.4029V91.8547C262.822 91.8929 262.791 91.9239 262.753 91.9239H261.874C261.835 91.9239 261.804 91.9548 261.804 91.993V93.3949C261.804 93.433 261.835 93.464 261.874 93.464H262.753C262.791 93.464 262.822 93.4949 262.822 93.5331V95.2821C262.822 96.6498 263.484 97.5227 264.946 97.5227C265.417 97.5227 266.056 97.3332 266.233 97.2777C266.261 97.2688 266.28 97.2426 266.28 97.2128V95.9238C266.28 95.7632 266.105 95.6637 265.96 95.732C265.759 95.8266 265.541 95.8992 265.335 95.8992C264.896 95.8992 264.562 95.688 264.562 95.0597V93.5331C264.562 93.4949 264.593 93.464 264.631 93.464H267.045C267.083 93.464 267.114 93.433 267.114 93.3949V91.993Z" fill="white"/>
<path d="M270.274 91.993C270.274 91.9548 270.244 91.9239 270.205 91.9239H268.815C268.776 91.9239 268.745 91.8929 268.745 91.8547V91.5402C268.745 91.0676 268.935 90.8508 269.318 90.8508C269.627 90.8508 269.869 90.9413 270.111 91.0606C270.143 91.0768 270.183 91.0653 270.202 91.0338L270.894 89.8587C270.912 89.8284 270.904 89.7895 270.875 89.7689C270.454 89.4639 269.903 89.2273 269.085 89.2273C267.811 89.2273 267.005 90.0335 267.005 91.5013V97.3091C267.005 97.3472 267.036 97.3782 267.074 97.3782H268.676C268.715 97.3782 268.745 97.3472 268.745 97.3091V93.5331C268.745 93.4949 268.776 93.464 268.815 93.464H270.205C270.244 93.464 270.274 93.433 270.274 93.3949V91.993Z" fill="white"/>
<path d="M276.038 91.993C276.038 91.9548 276.007 91.9239 275.969 91.9239H274.372C274.334 91.9239 274.303 91.9548 274.303 91.993V94.8873C274.303 95.5823 273.925 95.8992 273.408 95.8992C272.885 95.8992 272.513 95.5823 272.513 94.8873V91.993C272.513 91.9548 272.482 91.9239 272.444 91.9239H270.842C270.803 91.9239 270.772 91.9548 270.772 91.993V95.0374C270.772 96.7499 271.951 97.5227 273.408 97.5227C274.859 97.5227 276.038 96.7499 276.038 95.043V91.993Z" fill="white"/>
<path d="M280.058 91.7738C279.423 91.7738 278.923 91.9726 278.577 92.4035C278.533 92.4582 278.435 92.4289 278.435 92.3589V91.993C278.435 91.9548 278.404 91.9239 278.365 91.9239H276.836C276.798 91.9239 276.767 91.9548 276.767 91.993V97.3091C276.767 97.3472 276.798 97.3782 276.836 97.3782H278.438C278.476 97.3782 278.507 97.3472 278.507 97.3091V94.4425C278.507 93.7364 278.907 93.4084 279.391 93.4084C279.93 93.4084 280.253 93.7698 280.253 94.4147V97.3091C280.253 97.3472 280.284 97.3782 280.322 97.3782H281.924C281.962 97.3782 281.993 97.3472 281.993 97.3091V93.7976C281.993 92.5355 281.148 91.7738 280.058 91.7738Z" fill="white"/>
<path d="M285.074 91.7738C283.612 91.7738 282.533 93.0414 282.533 94.6427C282.533 96.2551 283.612 97.5227 285.068 97.5227C285.715 97.5227 286.179 97.289 286.504 96.9441C286.55 96.8961 286.636 96.9266 286.636 96.9927V97.3091C286.636 97.3472 286.667 97.3782 286.705 97.3782H288.246C288.284 97.3782 288.315 97.3472 288.315 97.3091V89.441C288.315 89.4028 288.284 89.3719 288.246 89.3719H286.65C286.612 89.3719 286.581 89.4028 286.581 89.441V92.2552C286.581 92.3199 286.498 92.351 286.452 92.3055C286.13 91.9871 285.683 91.7738 285.074 91.7738ZM285.485 93.3973C286.169 93.3973 286.653 93.9255 286.653 94.6483C286.653 95.371 286.169 95.8992 285.485 95.8992C284.79 95.8992 284.323 95.3599 284.323 94.6483C284.323 93.9366 284.79 93.3973 285.485 93.3973Z" fill="white"/>
<rect x="289.096" y="95.4489" width="2.07386" height="2.07386" rx="1.03693" fill="#00A3D7"/>
<ellipse cx="247.688" cy="40.0767" rx="58.8977" ry="39.6108" fill="#FF766B"/>
</g>
<rect x="90.5" y="85.5" width="99" height="63" rx="9.5" fill="#F2F6FA" stroke="#D4E1ED"/>
<path d="M104.4 105.096C104.037 105.096 103.723 105.032 103.456 104.904C103.189 104.771 102.968 104.581 102.792 104.336C102.621 104.091 102.493 103.789 102.408 103.432C102.328 103.075 102.288 102.667 102.288 102.208C102.288 101.755 102.328 101.349 102.408 100.992C102.493 100.629 102.621 100.325 102.792 100.08C102.968 99.8346 103.189 99.648 103.456 99.52C103.723 99.3866 104.037 99.32 104.4 99.32C105.125 99.32 105.659 99.5733 106 100.08C106.341 100.587 106.512 101.296 106.512 102.208C106.512 103.12 106.341 103.829 106 104.336C105.659 104.843 105.125 105.096 104.4 105.096ZM104.4 104.24C104.587 104.24 104.744 104.205 104.872 104.136C105 104.061 105.101 103.957 105.176 103.824C105.256 103.691 105.312 103.528 105.344 103.336C105.381 103.139 105.4 102.92 105.4 102.68V101.728C105.4 101.248 105.325 100.869 105.176 100.592C105.032 100.315 104.773 100.176 104.4 100.176C104.027 100.176 103.765 100.315 103.616 100.592C103.472 100.869 103.4 101.248 103.4 101.728V102.688C103.4 103.168 103.472 103.547 103.616 103.824C103.765 104.101 104.027 104.24 104.4 104.24Z" fill="black"/>
<path d="M107.397 104.192H108.661V101.68H107.317V100.872H108.661V100.2C108.661 100.035 108.682 99.8853 108.725 99.752C108.773 99.6133 108.845 99.496 108.941 99.4C109.037 99.2986 109.157 99.2213 109.301 99.168C109.45 99.1093 109.624 99.08 109.821 99.08H111.213V99.888H109.685V100.872H111.213V101.68H109.685V104.192H111.029V105H107.397V104.192Z" fill="black"/>
<path d="M112.194 104.192H113.458V101.68H112.114V100.872H113.458V100.2C113.458 100.035 113.479 99.8853 113.522 99.752C113.57 99.6133 113.642 99.496 113.738 99.4C113.834 99.2986 113.954 99.2213 114.098 99.168C114.247 99.1093 114.42 99.08 114.618 99.08H116.01V99.888H114.482V100.872H116.01V101.68H114.482V104.192H115.826V105H112.194V104.192Z" fill="black"/>
<path d="M118.887 105.096C118.556 105.096 118.263 105.045 118.007 104.944C117.751 104.843 117.535 104.699 117.359 104.512C117.188 104.325 117.057 104.101 116.967 103.84C116.876 103.573 116.831 103.275 116.831 102.944C116.831 102.608 116.876 102.307 116.967 102.04C117.063 101.773 117.196 101.547 117.367 101.36C117.537 101.173 117.743 101.029 117.983 100.928C118.228 100.827 118.503 100.776 118.807 100.776C119.105 100.776 119.375 100.827 119.615 100.928C119.855 101.024 120.057 101.163 120.223 101.344C120.393 101.525 120.524 101.744 120.615 102C120.705 102.256 120.751 102.539 120.751 102.848V103.184H117.855V103.288C117.855 103.587 117.948 103.829 118.135 104.016C118.321 104.197 118.583 104.288 118.919 104.288C119.175 104.288 119.393 104.237 119.575 104.136C119.761 104.029 119.916 103.891 120.039 103.72L120.623 104.304C120.473 104.523 120.255 104.709 119.967 104.864C119.684 105.019 119.324 105.096 118.887 105.096ZM118.815 101.528C118.527 101.528 118.295 101.619 118.119 101.8C117.943 101.981 117.855 102.221 117.855 102.52V102.576H119.727V102.504C119.727 102.205 119.644 101.968 119.479 101.792C119.319 101.616 119.097 101.528 118.815 101.528Z" fill="black"/>
<path d="M121.787 104.192H122.811V101.68H121.787V100.872H123.835V102H123.899C123.937 101.856 123.987 101.717 124.051 101.584C124.121 101.445 124.206 101.325 124.307 101.224C124.414 101.117 124.542 101.032 124.691 100.968C124.841 100.904 125.019 100.872 125.227 100.872H125.675V101.832H124.827C124.518 101.832 124.275 101.923 124.099 102.104C123.923 102.285 123.835 102.517 123.835 102.8V104.192H125.267V105H121.787V104.192Z" fill="black"/>
<rect x="102" y="115" width="76" height="8" rx="4" fill="#D7E0EA"/>
<rect x="102" y="131" width="76" height="8" rx="4" fill="#D7E0EA"/>
<g filter="url(#filter0_ddd_63_1333)">
<rect x="170" y="122" width="32" height="32" rx="16" fill="#1ABA5A"/>
</g>
<path d="M183 142.2L178.8 138L177.4 139.4L183 145L195 133L193.6 131.6L183 142.2Z" fill="white"/>
<defs>
<filter id="filter0_ddd_63_1333" x="137" y="106" width="98" height="98" filterUnits="userSpaceOnUse" color-interpolation-filters="sRGB">
<feFlood flood-opacity="0" result="BackgroundImageFix"/>
<feColorMatrix in="SourceAlpha" type="matrix" values="0 0 0 0 0 0 0 0 0 0 0 0 0 0 0 0 0 0 127 0" result="hardAlpha"/>
<feOffset dy="1.07885"/>
<feGaussianBlur stdDeviation="3.57289"/>
<feColorMatrix type="matrix" values="0 0 0 0 0.0196078 0 0 0 0 0.0941176 0 0 0 0 0.25098 0 0 0 0.0377807 0"/>
<feBlend mode="normal" in2="BackgroundImageFix" result="effect1_dropShadow_63_1333"/>
<feColorMatrix in="SourceAlpha" type="matrix" values="0 0 0 0 0 0 0 0 0 0 0 0 0 0 0 0 0 0 127 0" result="hardAlpha"/>
<feOffset dy="3.8002"/>
<feGaussianBlur stdDeviation="6.72502"/>
<feColorMatrix type="matrix" values="0 0 0 0 0.0196078 0 0 0 0 0.0941176 0 0 0 0 0.25098 0 0 0 0.0522616 0"/>
<feBlend mode="normal" in2="effect1_dropShadow_63_1333" result="effect2_dropShadow_63_1333"/>
<feColorMatrix in="SourceAlpha" type="matrix" values="0 0 0 0 0 0 0 0 0 0 0 0 0 0 0 0 0 0 127 0" result="hardAlpha"/>
<feOffset dy="17"/>
<feGaussianBlur stdDeviation="16.5"/>
<feColorMatrix type="matrix" values="0 0 0 0 0.0196078 0 0 0 0 0.0941176 0 0 0 0 0.25098 0 0 0 0.07 0"/>
<feBlend mode="normal" in2="effect2_dropShadow_63_1333" result="effect3_dropShadow_63_1333"/>
<feBlend mode="normal" in="SourceGraphic" in2="effect3_dropShadow_63_1333" result="shape"/>
</filter>
<clipPath id="clip0_63_1333">
<rect x="218" y="96" width="123.783" height="78" rx="6.78261" fill="white"/>
</clipPath>
<clipPath id="clip1_63_1333">
<rect x="226" y="80" width="136.478" height="86" rx="7.47826" fill="white"/>
</clipPath>
<clipPath id="clip2_63_1333">
<rect x="234" y="66" width="146" height="92.0795" rx="8.29545" fill="white"/>
</clipPath>
</defs>
</svg>
