<svg viewBox="0 0 470 240" fill="none" xmlns="http://www.w3.org/2000/svg">
<g clip-path="url(#clip0_65_16)">
<rect x="292" y="74" width="146" height="92.0795" rx="8.29545" fill="#051734"/>
<rect x="292" y="74" width="146" height="92" fill="#051734"/>
<ellipse cx="436.898" cy="171.611" rx="58.8977" ry="39.6108" fill="#1A65BA"/>
<path d="M423.326 145.468H421.804C421.329 145.468 420.973 145.599 420.769 146.064L417.843 152.699H419.911C419.911 152.699 420.254 151.809 420.331 151.615H422.851C422.915 151.868 423.091 152.699 423.091 152.699H424.92L423.326 145.468ZM420.9 150.138C421.058 149.718 421.673 148.11 421.673 148.11C421.673 148.11 421.844 147.685 421.939 147.423L422.07 148.046C422.07 148.046 422.454 149.767 422.531 150.138H420.9Z" fill="white"/>
<path d="M415.218 147.473C415.214 147.812 415.638 148.037 416.329 148.372C417.463 148.887 417.992 149.514 417.983 150.336C417.969 151.836 416.623 152.807 414.55 152.807C413.669 152.798 412.816 152.617 412.355 152.423L412.635 150.802L412.888 150.919C413.534 151.186 413.954 151.298 414.744 151.298C415.309 151.298 415.914 151.077 415.918 150.594C415.923 150.273 415.666 150.047 414.898 149.691C414.148 149.347 413.159 148.769 413.168 147.73C413.177 146.326 414.55 145.341 416.497 145.341C417.26 145.341 417.874 145.499 418.267 145.644L418.001 147.211L417.824 147.13C417.459 146.981 416.993 146.841 416.348 146.85C415.58 146.85 415.218 147.175 415.218 147.473Z" fill="white"/>
<path d="M412.355 145.463L411.117 152.694H409.153L410.386 145.463H412.355Z" fill="white"/>
<path d="M405.277 149.185C404.622 147.514 403.051 146.122 400.67 145.544L400.698 145.395H403.755C404.171 145.409 404.5 145.544 404.618 145.982L405.277 149.185Z" fill="white"/>
<path d="M409.586 145.468L406.479 152.685H404.397L402.631 146.66C403.9 147.473 404.979 148.76 405.359 149.654L405.566 150.4L407.5 145.468H409.586Z" fill="white"/>
<path d="M309.376 97.4497C306.974 97.4497 305.273 99.1622 305.273 101.486C305.273 103.81 306.974 105.523 309.376 105.523C311.778 105.523 313.479 103.81 313.479 101.486C313.479 99.1622 311.778 97.4497 309.376 97.4497ZM309.376 99.2289C310.644 99.2289 311.544 100.152 311.544 101.486C311.544 102.821 310.644 103.744 309.376 103.744C308.108 103.744 307.208 102.821 307.208 101.486C307.208 100.152 308.108 99.2289 309.376 99.2289Z" fill="white"/>
<path d="M319.33 99.993C319.33 99.9548 319.299 99.9239 319.261 99.9239H317.664C317.626 99.9239 317.595 99.9548 317.595 99.993V102.887C317.595 103.582 317.217 103.899 316.7 103.899C316.177 103.899 315.805 103.582 315.805 102.887V99.993C315.805 99.9548 315.774 99.9239 315.736 99.9239H314.134C314.096 99.9239 314.065 99.9548 314.065 99.993V103.037C314.065 104.75 315.243 105.523 316.7 105.523C318.151 105.523 319.33 104.75 319.33 103.043V99.993Z" fill="white"/>
<path d="M325.114 99.993C325.114 99.9548 325.083 99.9239 325.045 99.9239H322.631C322.593 99.9239 322.562 99.8929 322.562 99.8547V98.4029C322.562 98.3647 322.531 98.3337 322.493 98.3337H320.891C320.853 98.3337 320.822 98.3647 320.822 98.4029V99.8547C320.822 99.8929 320.791 99.9239 320.753 99.9239H319.874C319.835 99.9239 319.804 99.9548 319.804 99.993V101.395C319.804 101.433 319.835 101.464 319.874 101.464H320.753C320.791 101.464 320.822 101.495 320.822 101.533V103.282C320.822 104.65 321.483 105.523 322.946 105.523C323.417 105.523 324.056 105.333 324.233 105.278C324.261 105.269 324.28 105.243 324.28 105.213V103.924C324.28 103.763 324.105 103.664 323.96 103.732C323.759 103.827 323.541 103.899 323.335 103.899C322.896 103.899 322.562 103.688 322.562 103.06V101.533C322.562 101.495 322.593 101.464 322.631 101.464H325.045C325.083 101.464 325.114 101.433 325.114 101.395V99.993Z" fill="white"/>
<path d="M328.274 99.993C328.274 99.9548 328.244 99.9239 328.205 99.9239H326.815C326.776 99.9239 326.745 99.8929 326.745 99.8547V99.5402C326.745 99.0676 326.934 98.8508 327.318 98.8508C327.627 98.8508 327.869 98.9413 328.111 99.0606C328.143 99.0768 328.183 99.0653 328.202 99.0338L328.894 97.8587C328.911 97.8284 328.904 97.7895 328.875 97.7689C328.454 97.4639 327.903 97.2273 327.085 97.2273C325.811 97.2273 325.005 98.0335 325.005 99.5013V105.309C325.005 105.347 325.036 105.378 325.074 105.378H326.676C326.715 105.378 326.745 105.347 326.745 105.309V101.533C326.745 101.495 326.776 101.464 326.815 101.464H328.205C328.244 101.464 328.274 101.433 328.274 101.395V99.993Z" fill="white"/>
<path d="M334.038 99.993C334.038 99.9548 334.007 99.9239 333.969 99.9239H332.372C332.334 99.9239 332.303 99.9548 332.303 99.993V102.887C332.303 103.582 331.925 103.899 331.408 103.899C330.885 103.899 330.513 103.582 330.513 102.887V99.993C330.513 99.9548 330.482 99.9239 330.444 99.9239H328.842C328.803 99.9239 328.772 99.9548 328.772 99.993V103.037C328.772 104.75 329.951 105.523 331.408 105.523C332.859 105.523 334.038 104.75 334.038 103.043V99.993Z" fill="white"/>
<path d="M338.058 99.7738C337.423 99.7738 336.923 99.9726 336.577 100.404C336.533 100.458 336.435 100.429 336.435 100.359V99.993C336.435 99.9548 336.404 99.9239 336.365 99.9239H334.836C334.798 99.9239 334.767 99.9548 334.767 99.993V105.309C334.767 105.347 334.798 105.378 334.836 105.378H336.438C336.476 105.378 336.507 105.347 336.507 105.309V102.443C336.507 101.736 336.907 101.408 337.391 101.408C337.93 101.408 338.253 101.77 338.253 102.415V105.309C338.253 105.347 338.284 105.378 338.322 105.378H339.924C339.962 105.378 339.993 105.347 339.993 105.309V101.798C339.993 100.535 339.148 99.7738 338.058 99.7738Z" fill="white"/>
<path d="M343.074 99.7738C341.612 99.7738 340.533 101.041 340.533 102.643C340.533 104.255 341.612 105.523 343.068 105.523C343.715 105.523 344.179 105.289 344.504 104.944C344.55 104.896 344.636 104.927 344.636 104.993V105.309C344.636 105.347 344.667 105.378 344.705 105.378H346.246C346.284 105.378 346.315 105.347 346.315 105.309V97.441C346.315 97.4028 346.284 97.3719 346.246 97.3719H344.65C344.612 97.3719 344.581 97.4028 344.581 97.441V100.255C344.581 100.32 344.498 100.351 344.451 100.305C344.13 99.9871 343.683 99.7738 343.074 99.7738ZM343.485 101.397C344.169 101.397 344.653 101.925 344.653 102.648C344.653 103.371 344.169 103.899 343.485 103.899C342.79 103.899 342.323 103.36 342.323 102.648C342.323 101.937 342.79 101.397 343.485 101.397Z" fill="white"/>
<rect x="347.096" y="103.449" width="2.07386" height="2.07386" rx="1.03693" fill="#00A3D7"/>
<ellipse cx="305.688" cy="48.0766" rx="58.8977" ry="39.6108" fill="#FF766B"/>
<path d="M306.826 119.915L305.4 114.704H306.475L307.124 117.339L307.505 118.982H307.557L307.946 117.339L308.603 114.704H309.625L308.2 119.915H306.826Z" fill="white"/>
<path d="M312.228 115.465C312.004 115.465 311.845 115.418 311.75 115.323C311.661 115.229 311.616 115.114 311.616 114.98V114.801C311.616 114.666 311.661 114.552 311.75 114.457C311.845 114.363 312.004 114.315 312.228 114.315C312.452 114.315 312.609 114.363 312.699 114.457C312.793 114.552 312.84 114.666 312.84 114.801V114.98C312.84 115.114 312.793 115.229 312.699 115.323C312.609 115.418 312.452 115.465 312.228 115.465ZM310.481 119.161H311.75V116.817H310.481V116.062H312.706V119.161H313.886V119.915H310.481V119.161Z" fill="white"/>
<path d="M314.786 119.161H315.742V116.817H314.786V116.062H316.697V117.115H316.757C316.792 116.981 316.839 116.851 316.899 116.727C316.964 116.598 317.043 116.486 317.138 116.391C317.237 116.291 317.357 116.212 317.496 116.152C317.636 116.092 317.802 116.062 317.996 116.062H318.415V116.958H317.623C317.334 116.958 317.108 117.043 316.944 117.212C316.779 117.381 316.697 117.598 316.697 117.862V119.161H318.034V119.915H314.786V119.161Z" fill="white"/>
<path d="M321.204 119.915C320.836 119.915 320.564 119.818 320.39 119.624C320.216 119.43 320.129 119.178 320.129 118.87V116.817H319.009V116.062H319.77C319.925 116.062 320.034 116.033 320.099 115.973C320.164 115.908 320.196 115.796 320.196 115.637V114.704H321.084V116.062H322.652V116.817H321.084V119.161H322.652V119.915H321.204Z" fill="white"/>
<path d="M326.143 119.235H326.106C326.021 119.445 325.89 119.626 325.71 119.78C325.536 119.93 325.292 120.004 324.979 120.004C324.6 120.004 324.292 119.88 324.053 119.631C323.819 119.377 323.702 119.016 323.702 118.549V116.062H324.658V118.414C324.658 118.972 324.899 119.25 325.382 119.25C325.476 119.25 325.568 119.238 325.658 119.213C325.753 119.188 325.835 119.151 325.904 119.101C325.979 119.046 326.036 118.982 326.076 118.907C326.121 118.832 326.143 118.743 326.143 118.638V116.062H327.099V119.915H326.143V119.235Z" fill="white"/>
<path d="M331.314 119.915C331.08 119.915 330.899 119.858 330.769 119.743C330.645 119.624 330.57 119.459 330.545 119.25H330.508C330.438 119.489 330.301 119.676 330.097 119.81C329.893 119.94 329.642 120.004 329.343 120.004C328.955 120.004 328.646 119.902 328.418 119.698C328.189 119.494 328.074 119.211 328.074 118.847C328.074 118.071 328.644 117.683 329.784 117.683H330.463V117.429C330.463 117.185 330.403 117.001 330.284 116.876C330.165 116.752 329.97 116.69 329.702 116.69C329.458 116.69 329.261 116.737 329.112 116.831C328.963 116.926 328.836 117.048 328.731 117.197L328.186 116.734C328.306 116.52 328.497 116.341 328.761 116.197C329.03 116.048 329.376 115.973 329.799 115.973C330.306 115.973 330.702 116.092 330.986 116.331C331.274 116.565 331.419 116.916 331.419 117.384V119.198H331.874V119.915H331.314ZM329.664 119.347C329.893 119.347 330.082 119.295 330.232 119.191C330.386 119.081 330.463 118.934 330.463 118.75V118.235H329.806C329.284 118.235 329.022 118.399 329.022 118.728V118.877C329.022 119.031 329.08 119.148 329.194 119.228C329.308 119.308 329.465 119.347 329.664 119.347Z" fill="white"/>
<path d="M332.67 119.161H333.895V115.144H332.67V114.39H334.85V119.161H336.082V119.915H332.67V119.161Z" fill="white"/>
<path d="M343.475 120.004C343.181 120.004 342.918 119.957 342.684 119.863C342.45 119.768 342.251 119.634 342.086 119.459C341.927 119.285 341.803 119.074 341.713 118.825C341.628 118.576 341.586 118.297 341.586 117.989C341.586 117.68 341.628 117.401 341.713 117.152C341.803 116.904 341.927 116.692 342.086 116.518C342.251 116.344 342.447 116.209 342.676 116.115C342.91 116.02 343.174 115.973 343.468 115.973C343.876 115.973 344.204 116.057 344.453 116.227C344.702 116.396 344.891 116.62 345.02 116.899L344.281 117.302C344.212 117.138 344.112 117.006 343.983 116.906C343.858 116.802 343.687 116.749 343.468 116.749C343.184 116.749 342.965 116.831 342.811 116.996C342.661 117.16 342.587 117.384 342.587 117.668V118.31C342.587 118.588 342.661 118.812 342.811 118.982C342.965 119.146 343.189 119.228 343.482 119.228C343.711 119.228 343.893 119.176 344.027 119.071C344.167 118.967 344.279 118.827 344.363 118.653L345.08 119.079C344.951 119.352 344.754 119.576 344.49 119.751C344.232 119.92 343.893 120.004 343.475 120.004Z" fill="white"/>
<path d="M349.221 119.915C348.987 119.915 348.805 119.858 348.676 119.743C348.551 119.624 348.477 119.459 348.452 119.25H348.415C348.345 119.489 348.208 119.676 348.004 119.81C347.8 119.94 347.548 120.004 347.25 120.004C346.862 120.004 346.553 119.902 346.324 119.698C346.095 119.494 345.981 119.211 345.981 118.847C345.981 118.071 346.551 117.683 347.69 117.683H348.37V117.429C348.37 117.185 348.31 117.001 348.191 116.876C348.071 116.752 347.877 116.69 347.608 116.69C347.364 116.69 347.168 116.737 347.018 116.831C346.869 116.926 346.742 117.048 346.638 117.197L346.093 116.734C346.212 116.52 346.404 116.341 346.667 116.197C346.936 116.048 347.282 115.973 347.705 115.973C348.213 115.973 348.609 116.092 348.892 116.331C349.181 116.565 349.325 116.916 349.325 117.384V119.198H349.781V119.915H349.221ZM347.571 119.347C347.8 119.347 347.989 119.295 348.138 119.191C348.293 119.081 348.37 118.934 348.37 118.75V118.235H347.713C347.19 118.235 346.929 118.399 346.929 118.728V118.877C346.929 119.031 346.986 119.148 347.101 119.228C347.215 119.308 347.372 119.347 347.571 119.347Z" fill="white"/>
<path d="M350.599 119.161H351.555V116.817H350.599V116.062H352.51V117.115H352.57C352.605 116.981 352.652 116.851 352.712 116.727C352.777 116.598 352.856 116.486 352.951 116.391C353.05 116.291 353.17 116.212 353.309 116.152C353.449 116.092 353.615 116.062 353.809 116.062H354.228V116.958H353.436C353.147 116.958 352.921 117.043 352.757 117.212C352.592 117.381 352.51 117.598 352.51 117.862V119.161H353.847V119.915H350.599V119.161Z" fill="white"/>
<path d="M357.525 119.235H357.472C357.368 119.469 357.223 119.656 357.039 119.795C356.86 119.935 356.621 120.004 356.323 120.004C356.104 120.004 355.902 119.965 355.718 119.885C355.539 119.8 355.384 119.676 355.255 119.512C355.126 119.342 355.026 119.131 354.956 118.877C354.887 118.623 354.852 118.327 354.852 117.989C354.852 117.312 354.986 116.807 355.255 116.473C355.524 116.14 355.88 115.973 356.323 115.973C356.621 115.973 356.86 116.043 357.039 116.182C357.223 116.321 357.368 116.508 357.472 116.742H357.525V114.39H358.48V119.915H357.525V119.235ZM356.726 119.243C356.835 119.243 356.937 119.23 357.032 119.206C357.131 119.176 357.216 119.136 357.286 119.086C357.36 119.031 357.418 118.964 357.457 118.885C357.502 118.8 357.525 118.703 357.525 118.593V117.384C357.525 117.274 357.502 117.18 357.457 117.1C357.418 117.016 357.36 116.948 357.286 116.899C357.216 116.844 357.131 116.804 357.032 116.779C356.937 116.749 356.835 116.734 356.726 116.734C356.447 116.734 356.23 116.819 356.076 116.988C355.927 117.157 355.852 117.389 355.852 117.683V118.295C355.852 118.588 355.927 118.82 356.076 118.989C356.23 119.158 356.447 119.243 356.726 119.243Z" fill="white"/>
<path d="M364.858 119.586L364.186 119.131L365.059 117.966L363.723 117.511L363.969 116.764L365.291 117.227V115.816H366.127V117.227L367.448 116.764L367.695 117.511L366.358 117.966L367.232 119.131L366.56 119.586L365.709 118.422L364.858 119.586Z" fill="white"/>
<path d="M369.334 119.586L368.662 119.131L369.536 117.966L368.2 117.511L368.446 116.764L369.767 117.227V115.816H370.604V117.227L371.925 116.764L372.171 117.511L370.835 117.966L371.708 119.131L371.037 119.586L370.185 118.422L369.334 119.586Z" fill="white"/>
<path d="M373.811 119.586L373.139 119.131L374.013 117.966L372.676 117.511L372.923 116.764L374.244 117.227V115.816H375.08V117.227L376.402 116.764L376.648 117.511L375.312 117.966L376.185 119.131L375.513 119.586L374.662 118.422L373.811 119.586Z" fill="white"/>
<path d="M378.288 119.586L377.616 119.131L378.489 117.966L377.153 117.511L377.399 116.764L378.721 117.227V115.816H379.557V117.227L380.878 116.764L381.125 117.511L379.788 117.966L380.662 119.131L379.99 119.586L379.139 118.422L378.288 119.586Z" fill="white"/>
<path d="M389.958 119.915H386.285V119.004L387.958 117.578C388.236 117.339 388.443 117.123 388.577 116.929C388.712 116.729 388.779 116.518 388.779 116.294V116.219C388.779 115.97 388.709 115.781 388.57 115.652C388.43 115.522 388.236 115.458 387.987 115.458C387.714 115.458 387.505 115.532 387.36 115.682C387.216 115.831 387.111 116.015 387.047 116.234L386.196 115.913C386.25 115.744 386.328 115.582 386.427 115.428C386.532 115.269 386.659 115.129 386.808 115.01C386.962 114.89 387.144 114.796 387.353 114.726C387.562 114.651 387.801 114.614 388.07 114.614C388.348 114.614 388.595 114.654 388.809 114.734C389.028 114.808 389.212 114.915 389.361 115.055C389.51 115.189 389.622 115.351 389.697 115.54C389.777 115.729 389.817 115.936 389.817 116.16C389.817 116.374 389.782 116.57 389.712 116.749C389.647 116.929 389.555 117.1 389.436 117.264C389.316 117.424 389.175 117.578 389.01 117.727C388.851 117.877 388.677 118.026 388.488 118.175L387.353 119.094H389.958V119.915Z" fill="white"/>
<path d="M392.36 116.809C392.673 116.809 392.902 116.747 393.046 116.622C393.196 116.498 393.27 116.341 393.27 116.152V116.1C393.27 115.886 393.198 115.719 393.054 115.6C392.915 115.48 392.72 115.42 392.472 115.42C392.233 115.42 392.024 115.475 391.844 115.585C391.665 115.694 391.511 115.848 391.382 116.048L390.747 115.48C390.837 115.361 390.936 115.249 391.046 115.144C391.16 115.035 391.287 114.943 391.426 114.868C391.571 114.788 391.73 114.726 391.904 114.681C392.078 114.636 392.277 114.614 392.501 114.614C392.765 114.614 393.007 114.646 393.226 114.711C393.45 114.771 393.639 114.86 393.793 114.98C393.952 115.099 394.074 115.244 394.159 115.413C394.248 115.577 394.293 115.764 394.293 115.973C394.293 116.137 394.266 116.286 394.211 116.421C394.156 116.555 394.082 116.672 393.987 116.772C393.898 116.871 393.791 116.953 393.666 117.018C393.547 117.083 393.417 117.13 393.278 117.16V117.197C393.432 117.227 393.576 117.277 393.711 117.347C393.845 117.411 393.962 117.496 394.062 117.6C394.161 117.705 394.241 117.832 394.301 117.981C394.36 118.126 394.39 118.29 394.39 118.474C394.39 118.703 394.343 118.912 394.248 119.101C394.154 119.29 394.019 119.452 393.845 119.586C393.676 119.721 393.469 119.825 393.226 119.9C392.987 119.97 392.718 120.004 392.419 120.004C392.17 120.004 391.949 119.977 391.755 119.922C391.561 119.873 391.389 119.803 391.24 119.713C391.09 119.624 390.961 119.522 390.851 119.407C390.742 119.288 390.645 119.166 390.56 119.041L391.284 118.481C391.409 118.69 391.556 118.862 391.725 118.997C391.899 119.131 392.136 119.198 392.434 119.198C392.733 119.198 392.962 119.131 393.121 118.997C393.285 118.857 393.367 118.666 393.367 118.422V118.362C393.367 118.123 393.28 117.941 393.106 117.817C392.932 117.688 392.686 117.623 392.367 117.623H391.844V116.809H392.36Z" fill="white"/>
<path d="M397.426 119.915V118.907H395.014V118.071L397.142 114.704H398.359V118.145H399.061V118.907H398.359V119.915H397.426ZM395.813 118.145H397.426V115.659H397.366L395.813 118.145Z" fill="white"/>
<path d="M403.149 115.555H400.76L400.633 117.302H400.693C400.753 117.192 400.818 117.093 400.887 117.003C400.957 116.909 401.037 116.829 401.126 116.764C401.221 116.7 401.325 116.65 401.44 116.615C401.559 116.58 401.696 116.563 401.85 116.563C402.069 116.563 402.276 116.6 402.47 116.675C402.664 116.749 402.833 116.856 402.978 116.996C403.122 117.135 403.234 117.307 403.314 117.511C403.398 117.715 403.441 117.946 403.441 118.205C403.441 118.464 403.396 118.703 403.306 118.922C403.222 119.141 403.095 119.333 402.925 119.497C402.761 119.656 402.557 119.78 402.313 119.87C402.074 119.96 401.798 120.004 401.485 120.004C401.241 120.004 401.022 119.977 400.828 119.922C400.638 119.873 400.472 119.803 400.327 119.713C400.183 119.624 400.056 119.522 399.947 119.407C399.837 119.288 399.742 119.166 399.663 119.041L400.372 118.481C400.432 118.581 400.497 118.676 400.566 118.765C400.641 118.85 400.723 118.924 400.813 118.989C400.902 119.054 401.002 119.106 401.111 119.146C401.226 119.181 401.355 119.198 401.499 119.198C401.798 119.198 402.025 119.119 402.179 118.959C402.338 118.795 402.418 118.571 402.418 118.287V118.228C402.418 117.954 402.338 117.74 402.179 117.586C402.02 117.431 401.796 117.354 401.507 117.354C401.288 117.354 401.109 117.396 400.969 117.481C400.835 117.561 400.726 117.648 400.641 117.742L399.842 117.63L400.036 114.704H403.149V115.555Z" fill="white"/>
<path d="M305.808 146.741H307.012L308.624 150.675H308.688L310.3 146.741H311.503V152.171H310.559V148.44H310.509L309.008 152.155H308.303L306.803 148.432H306.752V152.171H305.808V146.741Z" fill="white"/>
<path d="M313.129 153.698C312.998 153.698 312.877 153.687 312.765 153.666C312.656 153.646 312.568 153.623 312.503 153.597L312.726 152.849C312.865 152.89 312.99 152.909 313.099 152.908C313.209 152.906 313.305 152.871 313.388 152.804C313.473 152.739 313.545 152.629 313.603 152.475L313.685 152.255L312.209 148.098H313.227L314.165 151.174H314.208L315.149 148.098H316.169L314.539 152.664C314.463 152.879 314.362 153.064 314.237 153.218C314.111 153.373 313.957 153.492 313.775 153.573C313.595 153.656 313.379 153.698 313.129 153.698Z" fill="white"/>
<path d="M320.462 152.25C320.055 152.25 319.706 152.161 319.415 151.982C319.125 151.804 318.901 151.557 318.744 151.243C318.588 150.926 318.511 150.562 318.511 150.15C318.511 149.737 318.59 149.372 318.749 149.055C318.908 148.737 319.133 148.49 319.423 148.313C319.714 148.134 320.059 148.045 320.457 148.045C320.787 148.045 321.08 148.106 321.334 148.228C321.59 148.348 321.795 148.519 321.947 148.74C322.099 148.959 322.185 149.215 322.206 149.509H321.289C321.252 149.313 321.164 149.149 321.024 149.018C320.886 148.886 320.701 148.819 320.47 148.819C320.274 148.819 320.101 148.872 319.953 148.978C319.804 149.083 319.689 149.233 319.605 149.429C319.524 149.625 319.484 149.86 319.484 150.134C319.484 150.412 319.524 150.651 319.605 150.85C319.687 151.048 319.801 151.201 319.948 151.309C320.096 151.415 320.27 151.468 320.47 151.468C320.611 151.468 320.738 151.441 320.849 151.388C320.962 151.334 321.057 151.255 321.133 151.152C321.209 151.05 321.261 150.925 321.289 150.779H322.206C322.183 151.067 322.099 151.322 321.952 151.545C321.805 151.766 321.605 151.939 321.353 152.064C321.1 152.188 320.803 152.25 320.462 152.25Z" fill="white"/>
<path d="M324.166 152.253C323.908 152.253 323.676 152.207 323.469 152.115C323.264 152.021 323.101 151.883 322.981 151.701C322.863 151.519 322.804 151.295 322.804 151.028C322.804 150.798 322.846 150.608 322.931 150.458C323.016 150.308 323.131 150.187 323.278 150.097C323.425 150.007 323.59 149.939 323.774 149.893C323.96 149.845 324.151 149.811 324.349 149.79C324.588 149.765 324.781 149.743 324.93 149.723C325.078 149.702 325.186 149.67 325.253 149.628C325.322 149.584 325.357 149.516 325.357 149.424V149.408C325.357 149.208 325.298 149.054 325.179 148.944C325.061 148.834 324.89 148.78 324.667 148.78C324.432 148.78 324.246 148.831 324.108 148.933C323.972 149.036 323.88 149.157 323.832 149.297L322.936 149.169C323.007 148.922 323.123 148.715 323.286 148.549C323.449 148.381 323.648 148.256 323.883 148.172C324.118 148.088 324.378 148.045 324.662 148.045C324.858 148.045 325.054 148.068 325.248 148.114C325.442 148.16 325.62 148.236 325.781 148.342C325.942 148.446 326.071 148.589 326.168 148.769C326.267 148.949 326.316 149.175 326.316 149.445V152.171H325.394V151.611H325.362C325.304 151.724 325.221 151.83 325.115 151.929C325.011 152.026 324.88 152.105 324.72 152.165C324.563 152.224 324.378 152.253 324.166 152.253ZM324.416 151.548C324.608 151.548 324.775 151.51 324.917 151.434C325.058 151.356 325.167 151.253 325.243 151.126C325.321 150.999 325.359 150.86 325.359 150.71V150.23C325.329 150.255 325.278 150.278 325.206 150.299C325.135 150.32 325.055 150.339 324.967 150.354C324.879 150.37 324.791 150.384 324.705 150.397C324.618 150.409 324.543 150.42 324.479 150.429C324.336 150.448 324.208 150.48 324.095 150.524C323.982 150.568 323.892 150.63 323.827 150.71C323.762 150.787 323.729 150.888 323.729 151.012C323.729 151.189 323.793 151.322 323.922 151.412C324.051 151.502 324.216 151.548 324.416 151.548Z" fill="white"/>
<path d="M327.282 152.171V148.098H328.212V148.777H328.255C328.329 148.542 328.456 148.361 328.636 148.233C328.818 148.104 329.026 148.04 329.259 148.04C329.312 148.04 329.372 148.043 329.437 148.048C329.504 148.051 329.56 148.058 329.604 148.066V148.949C329.563 148.935 329.499 148.923 329.41 148.912C329.324 148.9 329.24 148.894 329.159 148.894C328.984 148.894 328.826 148.932 328.687 149.008C328.549 149.082 328.44 149.185 328.361 149.318C328.281 149.45 328.241 149.603 328.241 149.776V152.171H327.282Z" fill="white"/>
<path d="M331.585 152.242C331.265 152.242 330.979 152.16 330.726 151.996C330.473 151.831 330.274 151.593 330.127 151.28C329.98 150.967 329.907 150.587 329.907 150.14C329.907 149.687 329.981 149.305 330.13 148.994C330.28 148.682 330.482 148.446 330.737 148.286C330.991 148.126 331.275 148.045 331.588 148.045C331.826 148.045 332.023 148.086 332.176 148.167C332.33 148.247 332.452 148.343 332.542 148.456C332.632 148.568 332.702 148.673 332.752 148.772H332.791V146.741H333.754V152.171H332.81V151.529H332.752C332.702 151.628 332.631 151.733 332.537 151.844C332.443 151.954 332.32 152.048 332.166 152.125C332.012 152.203 331.818 152.242 331.585 152.242ZM331.853 151.455C332.056 151.455 332.229 151.4 332.373 151.29C332.516 151.179 332.624 151.024 332.699 150.826C332.773 150.628 332.81 150.398 332.81 150.134C332.81 149.871 332.773 149.642 332.699 149.448C332.626 149.253 332.518 149.102 332.375 148.994C332.234 148.887 332.06 148.833 331.853 148.833C331.639 148.833 331.461 148.888 331.317 149C331.174 149.111 331.066 149.265 330.994 149.461C330.921 149.657 330.885 149.882 330.885 150.134C330.885 150.389 330.921 150.616 330.994 150.816C331.068 151.014 331.177 151.17 331.32 151.285C331.465 151.398 331.643 151.455 331.853 151.455Z" fill="white"/>
<path d="M353.387 152.274C352.951 152.274 352.576 152.163 352.263 151.943C351.952 151.72 351.713 151.399 351.545 150.98C351.379 150.559 351.296 150.053 351.296 149.461C351.297 148.869 351.381 148.365 351.547 147.95C351.715 147.533 351.955 147.214 352.266 146.995C352.579 146.776 352.953 146.667 353.387 146.667C353.822 146.667 354.196 146.776 354.509 146.995C354.822 147.214 355.061 147.533 355.227 147.95C355.395 148.367 355.479 148.871 355.479 149.461C355.479 150.055 355.395 150.562 355.227 150.983C355.061 151.402 354.822 151.722 354.509 151.943C354.198 152.163 353.824 152.274 353.387 152.274ZM353.387 151.444C353.727 151.444 353.995 151.277 354.191 150.943C354.389 150.607 354.488 150.113 354.488 149.461C354.488 149.03 354.443 148.667 354.352 148.374C354.262 148.081 354.135 147.86 353.971 147.711C353.806 147.561 353.612 147.486 353.387 147.486C353.05 147.486 352.783 147.654 352.587 147.99C352.391 148.324 352.292 148.814 352.29 149.461C352.288 149.894 352.331 150.258 352.42 150.553C352.51 150.848 352.637 151.071 352.801 151.221C352.966 151.37 353.161 151.444 353.387 151.444Z" fill="white"/>
<path d="M356.36 152.171V151.46L358.245 149.612C358.425 149.43 358.576 149.268 358.696 149.127C358.816 148.986 358.906 148.849 358.966 148.716C359.026 148.583 359.056 148.442 359.056 148.292C359.056 148.12 359.018 147.974 358.94 147.852C358.862 147.728 358.755 147.633 358.619 147.565C358.483 147.498 358.328 147.465 358.155 147.465C357.976 147.465 357.82 147.502 357.686 147.576C357.551 147.648 357.447 147.752 357.373 147.886C357.3 148.02 357.264 148.18 357.264 148.366H356.328C356.328 148.021 356.407 147.722 356.564 147.467C356.722 147.213 356.938 147.016 357.214 146.876C357.491 146.736 357.809 146.667 358.168 146.667C358.532 146.667 358.852 146.735 359.128 146.871C359.404 147.007 359.618 147.193 359.77 147.43C359.923 147.667 360 147.937 360 148.241C360 148.445 359.961 148.644 359.884 148.841C359.806 149.037 359.669 149.254 359.473 149.493C359.278 149.731 359.005 150.02 358.653 150.36L357.718 151.312V151.349H360.082V152.171H356.36Z" fill="white"/>
<path d="M363.224 146.486L361.474 152.987H360.634L362.384 146.486H363.224Z" fill="white"/>
<path d="M365.775 152.245C365.393 152.245 365.054 152.179 364.757 152.049C364.461 151.918 364.228 151.736 364.057 151.502C363.885 151.269 363.794 151 363.784 150.694H364.78C364.789 150.841 364.838 150.969 364.926 151.078C365.015 151.186 365.132 151.27 365.279 151.33C365.426 151.39 365.59 151.42 365.772 151.42C365.966 151.42 366.139 151.387 366.289 151.319C366.439 151.251 366.557 151.155 366.642 151.033C366.726 150.911 366.768 150.771 366.766 150.612C366.768 150.447 366.726 150.302 366.639 150.177C366.552 150.051 366.427 149.953 366.263 149.883C366.1 149.812 365.904 149.776 365.674 149.776H365.194V149.018H365.674C365.863 149.018 366.028 148.986 366.17 148.92C366.313 148.855 366.425 148.763 366.506 148.644C366.588 148.524 366.627 148.385 366.626 148.228C366.627 148.074 366.593 147.941 366.522 147.828C366.453 147.713 366.355 147.624 366.228 147.56C366.103 147.496 365.955 147.465 365.785 147.465C365.619 147.465 365.465 147.495 365.324 147.555C365.183 147.615 365.069 147.701 364.982 147.812C364.895 147.921 364.849 148.052 364.844 148.204H363.898C363.905 147.9 363.992 147.633 364.16 147.404C364.33 147.172 364.556 146.992 364.839 146.863C365.122 146.732 365.439 146.667 365.791 146.667C366.153 146.667 366.468 146.735 366.734 146.871C367.003 147.005 367.211 147.186 367.357 147.414C367.504 147.642 367.578 147.894 367.578 148.17C367.579 148.476 367.489 148.732 367.307 148.939C367.127 149.145 366.89 149.281 366.597 149.344V149.387C366.978 149.44 367.271 149.581 367.474 149.811C367.679 150.039 367.781 150.323 367.779 150.662C367.779 150.966 367.692 151.238 367.519 151.479C367.348 151.717 367.111 151.905 366.809 152.041C366.508 152.177 366.164 152.245 365.775 152.245Z" fill="white"/>
<path d="M370.696 152.274C370.259 152.274 369.885 152.163 369.572 151.943C369.261 151.72 369.021 151.399 368.853 150.98C368.687 150.559 368.604 150.053 368.604 149.461C368.606 148.869 368.69 148.365 368.856 147.95C369.024 147.533 369.264 147.214 369.575 146.995C369.887 146.776 370.261 146.667 370.696 146.667C371.131 146.667 371.505 146.776 371.818 146.995C372.13 147.214 372.37 147.533 372.536 147.95C372.704 148.367 372.788 148.871 372.788 149.461C372.788 150.055 372.704 150.562 372.536 150.983C372.37 151.402 372.13 151.722 371.818 151.943C371.506 152.163 371.133 152.274 370.696 152.274ZM370.696 151.444C371.035 151.444 371.303 151.277 371.499 150.943C371.697 150.607 371.796 150.113 371.796 149.461C371.796 149.03 371.751 148.667 371.661 148.374C371.571 148.081 371.444 147.86 371.279 147.711C371.115 147.561 370.921 147.486 370.696 147.486C370.358 147.486 370.092 147.654 369.895 147.99C369.699 148.324 369.6 148.814 369.598 149.461C369.597 149.894 369.64 150.258 369.728 150.553C369.819 150.848 369.946 151.071 370.11 151.221C370.275 151.37 370.47 151.444 370.696 151.444Z" fill="white"/>
<path d="M308.624 141.875H308.186C308.16 141.749 308.114 141.638 308.05 141.543C307.986 141.447 307.908 141.367 307.816 141.302C307.726 141.236 307.625 141.187 307.514 141.154C307.403 141.121 307.288 141.104 307.168 141.104C306.948 141.104 306.75 141.16 306.572 141.271C306.395 141.381 306.254 141.545 306.15 141.76C306.046 141.976 305.994 142.24 305.994 142.554C305.994 142.867 306.046 143.132 306.15 143.347C306.254 143.563 306.395 143.726 306.572 143.837C306.75 143.948 306.948 144.003 307.168 144.003C307.288 144.003 307.403 143.987 307.514 143.954C307.625 143.921 307.726 143.872 307.816 143.807C307.908 143.741 307.986 143.66 308.05 143.565C308.114 143.468 308.16 143.357 308.186 143.233H308.624C308.591 143.418 308.531 143.583 308.444 143.729C308.357 143.875 308.248 144 308.119 144.102C307.989 144.203 307.843 144.281 307.682 144.334C307.522 144.387 307.35 144.413 307.168 144.413C306.859 144.413 306.584 144.338 306.344 144.187C306.104 144.036 305.914 143.822 305.777 143.544C305.639 143.266 305.57 142.936 305.57 142.554C305.57 142.172 305.639 141.842 305.777 141.564C305.914 141.286 306.104 141.071 306.344 140.921C306.584 140.77 306.859 140.694 307.168 140.694C307.35 140.694 307.522 140.721 307.682 140.774C307.843 140.827 307.989 140.905 308.119 141.007C308.248 141.109 308.357 141.232 308.444 141.378C308.531 141.523 308.591 141.689 308.624 141.875Z" fill="white"/>
<path d="M310.075 144.427C309.903 144.427 309.747 144.395 309.606 144.33C309.466 144.264 309.355 144.169 309.272 144.046C309.19 143.921 309.149 143.77 309.149 143.593C309.149 143.438 309.179 143.311 309.24 143.215C309.302 143.117 309.384 143.04 309.486 142.985C309.589 142.93 309.702 142.888 309.826 142.861C309.95 142.833 310.076 142.811 310.202 142.794C310.367 142.773 310.501 142.757 310.603 142.746C310.707 142.735 310.782 142.715 310.829 142.688C310.878 142.661 310.902 142.614 310.902 142.547V142.533C310.902 142.358 310.854 142.223 310.759 142.126C310.664 142.029 310.521 141.981 310.329 141.981C310.13 141.981 309.974 142.025 309.861 142.112C309.748 142.199 309.668 142.292 309.622 142.391L309.226 142.25C309.297 142.085 309.391 141.956 309.509 141.864C309.628 141.771 309.758 141.707 309.898 141.67C310.039 141.632 310.178 141.614 310.315 141.614C310.402 141.614 310.502 141.624 310.616 141.645C310.73 141.665 310.84 141.707 310.946 141.771C311.053 141.834 311.142 141.93 311.213 142.059C311.284 142.187 311.319 142.359 311.319 142.575V144.364H310.902V143.996H310.881C310.852 144.055 310.805 144.118 310.739 144.185C310.673 144.252 310.586 144.31 310.476 144.357C310.366 144.404 310.233 144.427 310.075 144.427ZM310.138 144.053C310.303 144.053 310.442 144.02 310.555 143.955C310.67 143.891 310.756 143.807 310.814 143.704C310.872 143.602 310.902 143.494 310.902 143.381V142.999C310.884 143.02 310.845 143.04 310.785 143.058C310.726 143.074 310.658 143.089 310.58 143.102C310.504 143.114 310.429 143.124 310.356 143.134C310.284 143.142 310.226 143.149 310.181 143.155C310.072 143.169 309.971 143.192 309.877 143.224C309.784 143.254 309.708 143.301 309.651 143.363C309.594 143.425 309.566 143.508 309.566 143.614C309.566 143.759 309.619 143.869 309.727 143.943C309.835 144.016 309.972 144.053 310.138 144.053Z" fill="white"/>
<path d="M312.08 144.364V141.649H312.483V142.059H312.512C312.561 141.925 312.651 141.816 312.78 141.732C312.91 141.648 313.056 141.606 313.219 141.606C313.249 141.606 313.288 141.607 313.334 141.608C313.38 141.609 313.414 141.611 313.438 141.614V142.038C313.424 142.034 313.391 142.029 313.341 142.022C313.291 142.014 313.239 142.009 313.183 142.009C313.051 142.009 312.933 142.037 312.83 142.092C312.727 142.147 312.646 142.222 312.586 142.319C312.527 142.414 312.498 142.523 312.498 142.646V144.364H312.08Z" fill="white"/>
<path d="M314.875 144.42C314.649 144.42 314.449 144.363 314.276 144.249C314.102 144.133 313.967 143.971 313.869 143.761C313.771 143.55 313.722 143.301 313.722 143.013C313.722 142.728 313.771 142.481 313.869 142.271C313.967 142.061 314.103 141.899 314.277 141.785C314.452 141.671 314.653 141.614 314.882 141.614C315.059 141.614 315.198 141.643 315.301 141.702C315.404 141.76 315.483 141.826 315.538 141.9C315.593 141.973 315.636 142.033 315.667 142.08H315.702V140.744H316.119V144.364H315.716V143.947H315.667C315.636 143.996 315.592 144.059 315.536 144.134C315.479 144.208 315.399 144.275 315.294 144.334C315.189 144.391 315.049 144.42 314.875 144.42ZM314.931 144.046C315.099 144.046 315.24 144.002 315.356 143.915C315.471 143.826 315.559 143.704 315.619 143.549C315.679 143.392 315.709 143.211 315.709 143.006C315.709 142.804 315.68 142.626 315.621 142.474C315.562 142.321 315.475 142.202 315.359 142.117C315.244 142.031 315.101 141.988 314.931 141.988C314.755 141.988 314.607 142.034 314.49 142.124C314.373 142.214 314.285 142.336 314.226 142.49C314.168 142.643 314.14 142.815 314.14 143.006C314.14 143.2 314.169 143.375 314.228 143.533C314.288 143.69 314.376 143.815 314.493 143.908C314.611 144 314.757 144.046 314.931 144.046Z" fill="white"/>
<path d="M318.397 144.364V140.744H318.836V142.356H320.766V140.744H321.204V144.364H320.766V142.745H318.836V144.364H318.397Z" fill="white"/>
<path d="M323.128 144.42C322.883 144.42 322.668 144.362 322.483 144.245C322.299 144.129 322.155 143.965 322.052 143.756C321.949 143.546 321.898 143.301 321.898 143.02C321.898 142.738 321.949 142.491 322.052 142.28C322.155 142.069 322.299 141.905 322.483 141.788C322.668 141.672 322.883 141.614 323.128 141.614C323.373 141.614 323.588 141.672 323.772 141.788C323.957 141.905 324.1 142.069 324.203 142.28C324.306 142.491 324.358 142.738 324.358 143.02C324.358 143.301 324.306 143.546 324.203 143.756C324.1 143.965 323.957 144.129 323.772 144.245C323.588 144.362 323.373 144.42 323.128 144.42ZM323.128 144.046C323.314 144.046 323.467 143.998 323.588 143.902C323.708 143.807 323.797 143.681 323.855 143.526C323.912 143.37 323.941 143.202 323.941 143.02C323.941 142.839 323.912 142.67 323.855 142.513C323.797 142.356 323.708 142.23 323.588 142.133C323.467 142.037 323.314 141.988 323.128 141.988C322.942 141.988 322.789 142.037 322.669 142.133C322.548 142.23 322.459 142.356 322.402 142.513C322.344 142.67 322.315 142.839 322.315 143.02C322.315 143.202 322.344 143.37 322.402 143.526C322.459 143.681 322.548 143.807 322.669 143.902C322.789 143.998 322.942 144.046 323.128 144.046Z" fill="white"/>
<path d="M325.412 140.744V144.364H324.995V140.744H325.412Z" fill="white"/>
<path d="M327.201 144.42C326.975 144.42 326.775 144.363 326.602 144.249C326.429 144.133 326.293 143.971 326.196 143.761C326.098 143.55 326.049 143.301 326.049 143.013C326.049 142.728 326.098 142.481 326.196 142.271C326.293 142.061 326.43 141.899 326.604 141.785C326.778 141.671 326.98 141.614 327.208 141.614C327.385 141.614 327.525 141.643 327.627 141.702C327.731 141.76 327.81 141.826 327.864 141.9C327.92 141.973 327.963 142.033 327.993 142.08H328.029V140.744H328.446V144.364H328.043V143.947H327.993C327.963 143.996 327.919 144.059 327.862 144.134C327.806 144.208 327.725 144.275 327.62 144.334C327.515 144.391 327.376 144.42 327.201 144.42ZM327.258 144.046C327.425 144.046 327.567 144.002 327.682 143.915C327.798 143.826 327.885 143.704 327.945 143.549C328.006 143.392 328.036 143.211 328.036 143.006C328.036 142.804 328.006 142.626 327.947 142.474C327.888 142.321 327.801 142.202 327.686 142.117C327.57 142.031 327.428 141.988 327.258 141.988C327.081 141.988 326.934 142.034 326.816 142.124C326.699 142.214 326.612 142.336 326.553 142.49C326.495 142.643 326.466 142.815 326.466 143.006C326.466 143.2 326.495 143.375 326.554 143.533C326.615 143.69 326.703 143.815 326.82 143.908C326.937 144 327.084 144.046 327.258 144.046Z" fill="white"/>
<path d="M330.406 144.42C330.144 144.42 329.919 144.363 329.729 144.247C329.54 144.13 329.395 143.968 329.292 143.759C329.191 143.55 329.14 143.306 329.14 143.028C329.14 142.749 329.191 142.504 329.292 142.292C329.395 142.079 329.537 141.913 329.72 141.794C329.904 141.674 330.118 141.614 330.363 141.614C330.505 141.614 330.644 141.637 330.782 141.684C330.92 141.731 331.046 141.808 331.159 141.914C331.272 142.019 331.362 142.158 331.429 142.331C331.496 142.504 331.53 142.718 331.53 142.971V143.148H329.437V142.787H331.106C331.106 142.634 331.075 142.497 331.014 142.377C330.954 142.257 330.868 142.162 330.756 142.092C330.645 142.023 330.514 141.988 330.363 141.988C330.197 141.988 330.053 142.029 329.932 142.112C329.812 142.193 329.719 142.299 329.655 142.43C329.59 142.561 329.557 142.701 329.557 142.851V143.091C329.557 143.296 329.593 143.47 329.663 143.613C329.735 143.754 329.835 143.862 329.962 143.936C330.089 144.009 330.237 144.046 330.406 144.046C330.515 144.046 330.614 144.03 330.703 144C330.792 143.968 330.869 143.921 330.934 143.858C330.999 143.795 331.049 143.716 331.085 143.621L331.488 143.735C331.445 143.871 331.374 143.991 331.274 144.095C331.173 144.198 331.05 144.278 330.902 144.335C330.755 144.392 330.59 144.42 330.406 144.42Z" fill="white"/>
<path d="M332.164 144.364V141.649H332.567V142.059H332.596C332.645 141.925 332.735 141.816 332.864 141.732C332.994 141.648 333.14 141.606 333.303 141.606C333.333 141.606 333.372 141.607 333.418 141.608C333.464 141.609 333.498 141.611 333.522 141.614V142.038C333.508 142.034 333.475 142.029 333.425 142.022C333.375 142.014 333.323 142.009 333.267 142.009C333.135 142.009 333.018 142.037 332.914 142.092C332.811 142.147 332.73 142.222 332.67 142.319C332.611 142.414 332.582 142.523 332.582 142.646V144.364H332.164Z" fill="white"/>
<path d="M351.336 144.364V140.744H353.521V141.133H351.775V142.356H353.408V142.745H351.775V143.975H353.549V144.364H351.336Z" fill="white"/>
<path d="M354.565 141.649L355.216 142.759L355.866 141.649H356.347L355.47 143.006L356.347 144.364H355.866L355.216 143.31L354.565 144.364H354.085L354.947 143.006L354.085 141.649H354.565Z" fill="white"/>
<path d="M356.942 145.382V141.649H357.345V142.08H357.395C357.425 142.033 357.468 141.973 357.522 141.9C357.577 141.826 357.656 141.76 357.759 141.702C357.863 141.643 358.003 141.614 358.18 141.614C358.408 141.614 358.61 141.671 358.784 141.785C358.958 141.899 359.094 142.061 359.192 142.271C359.29 142.481 359.339 142.728 359.339 143.013C359.339 143.301 359.29 143.55 359.192 143.761C359.094 143.971 358.959 144.133 358.786 144.249C358.613 144.363 358.413 144.42 358.187 144.42C358.012 144.42 357.873 144.391 357.768 144.334C357.663 144.275 357.582 144.208 357.526 144.134C357.469 144.059 357.425 143.996 357.395 143.947H357.359V145.382H356.942ZM357.352 143.006C357.352 143.211 357.382 143.392 357.442 143.549C357.503 143.704 357.59 143.826 357.706 143.915C357.821 144.002 357.963 144.046 358.13 144.046C358.304 144.046 358.45 144 358.567 143.908C358.684 143.815 358.773 143.69 358.832 143.533C358.892 143.375 358.922 143.2 358.922 143.006C358.922 142.815 358.892 142.643 358.833 142.49C358.776 142.336 358.688 142.214 358.57 142.124C358.453 142.034 358.307 141.988 358.13 141.988C357.96 141.988 357.818 142.031 357.702 142.117C357.587 142.202 357.5 142.321 357.441 142.474C357.382 142.626 357.352 142.804 357.352 143.006Z" fill="white"/>
<path d="M359.975 144.364V141.649H360.392V144.364H359.975ZM360.187 141.196C360.106 141.196 360.036 141.169 359.977 141.113C359.919 141.058 359.89 140.991 359.89 140.914C359.89 140.836 359.919 140.769 359.977 140.714C360.036 140.658 360.106 140.631 360.187 140.631C360.269 140.631 360.338 140.658 360.396 140.714C360.455 140.769 360.484 140.836 360.484 140.914C360.484 140.991 360.455 141.058 360.396 141.113C360.338 141.169 360.269 141.196 360.187 141.196Z" fill="white"/>
<path d="M361.156 144.364V141.649H361.559V142.059H361.588C361.637 141.925 361.727 141.816 361.856 141.732C361.986 141.648 362.132 141.606 362.295 141.606C362.325 141.606 362.364 141.607 362.41 141.608C362.456 141.609 362.49 141.611 362.514 141.614V142.038C362.5 142.034 362.467 142.029 362.417 142.022C362.367 142.014 362.315 142.009 362.259 142.009C362.127 142.009 362.01 142.037 361.906 142.092C361.803 142.147 361.722 142.222 361.662 142.319C361.603 142.414 361.574 142.523 361.574 142.646V144.364H361.156Z" fill="white"/>
<path d="M363.36 145.382C363.289 145.382 363.226 145.376 363.171 145.364C363.115 145.354 363.077 145.343 363.056 145.332L363.162 144.965C363.263 144.991 363.353 145 363.43 144.993C363.508 144.986 363.577 144.951 363.637 144.889C363.698 144.827 363.754 144.728 363.805 144.59L363.883 144.378L362.879 141.649H363.331L364.081 143.812H364.109L364.858 141.649H365.311L364.159 144.76C364.107 144.9 364.042 145.016 363.966 145.108C363.889 145.201 363.8 145.27 363.699 145.315C363.599 145.359 363.486 145.382 363.36 145.382Z" fill="white"/>
<path d="M368.435 144.364H367.318V140.744H368.484C368.836 140.744 369.136 140.816 369.386 140.961C369.636 141.105 369.827 141.312 369.96 141.582C370.093 141.85 370.16 142.172 370.16 142.547C370.16 142.924 370.093 143.248 369.959 143.521C369.824 143.792 369.629 144 369.372 144.146C369.115 144.291 368.803 144.364 368.435 144.364ZM367.756 143.975H368.407C368.706 143.975 368.954 143.917 369.151 143.802C369.348 143.686 369.494 143.522 369.591 143.309C369.688 143.095 369.736 142.841 369.736 142.547C369.736 142.255 369.688 142.003 369.593 141.792C369.497 141.58 369.355 141.417 369.165 141.304C368.975 141.19 368.739 141.133 368.456 141.133H367.756V143.975Z" fill="white"/>
<path d="M371.638 144.427C371.466 144.427 371.31 144.395 371.169 144.33C371.029 144.264 370.918 144.169 370.835 144.046C370.753 143.921 370.712 143.77 370.712 143.593C370.712 143.438 370.742 143.311 370.803 143.215C370.865 143.117 370.947 143.04 371.049 142.985C371.152 142.93 371.265 142.888 371.388 142.861C371.513 142.833 371.639 142.811 371.765 142.794C371.93 142.773 372.064 142.757 372.166 142.746C372.27 142.735 372.345 142.715 372.392 142.688C372.441 142.661 372.465 142.614 372.465 142.547V142.533C372.465 142.358 372.417 142.223 372.322 142.126C372.227 142.029 372.084 141.981 371.892 141.981C371.693 141.981 371.537 142.025 371.424 142.112C371.311 142.199 371.231 142.292 371.185 142.391L370.789 142.25C370.86 142.085 370.954 141.956 371.072 141.864C371.191 141.771 371.321 141.707 371.461 141.67C371.602 141.632 371.741 141.614 371.878 141.614C371.965 141.614 372.065 141.624 372.179 141.645C372.293 141.665 372.403 141.707 372.509 141.771C372.616 141.834 372.705 141.93 372.776 142.059C372.847 142.187 372.882 142.359 372.882 142.575V144.364H372.465V143.996H372.444C372.415 144.055 372.368 144.118 372.302 144.185C372.236 144.252 372.148 144.31 372.039 144.357C371.929 144.404 371.796 144.427 371.638 144.427ZM371.701 144.053C371.866 144.053 372.005 144.02 372.118 143.955C372.233 143.891 372.319 143.807 372.376 143.704C372.435 143.602 372.465 143.494 372.465 143.381V142.999C372.447 143.02 372.408 143.04 372.348 143.058C372.289 143.074 372.221 143.089 372.143 143.102C372.067 143.114 371.992 143.124 371.919 143.134C371.847 143.142 371.789 143.149 371.744 143.155C371.635 143.169 371.534 143.192 371.44 143.224C371.347 143.254 371.271 143.301 371.214 143.363C371.157 143.425 371.129 143.508 371.129 143.614C371.129 143.759 371.182 143.869 371.289 143.943C371.398 144.016 371.535 144.053 371.701 144.053Z" fill="white"/>
<path d="M374.824 141.649V142.002H373.417V141.649H374.824ZM373.827 140.998H374.244V143.586C374.244 143.704 374.261 143.792 374.296 143.851C374.331 143.909 374.376 143.948 374.43 143.968C374.485 143.987 374.544 143.996 374.605 143.996C374.651 143.996 374.689 143.994 374.718 143.989C374.747 143.983 374.771 143.978 374.789 143.975L374.874 144.35C374.845 144.36 374.806 144.371 374.755 144.381C374.704 144.393 374.64 144.399 374.562 144.399C374.445 144.399 374.329 144.374 374.216 144.323C374.104 144.272 374.011 144.195 373.937 144.092C373.864 143.988 373.827 143.857 373.827 143.699V140.998Z" fill="white"/>
<path d="M376.561 144.42C376.299 144.42 376.073 144.363 375.884 144.247C375.695 144.13 375.55 143.968 375.447 143.759C375.346 143.55 375.295 143.306 375.295 143.028C375.295 142.749 375.346 142.504 375.447 142.292C375.55 142.079 375.692 141.913 375.875 141.794C376.059 141.674 376.273 141.614 376.518 141.614C376.66 141.614 376.799 141.637 376.937 141.684C377.075 141.731 377.2 141.808 377.314 141.914C377.427 142.019 377.517 142.158 377.584 142.331C377.651 142.504 377.685 142.718 377.685 142.971V143.148H375.592V142.787H377.261C377.261 142.634 377.23 142.497 377.169 142.377C377.109 142.257 377.023 142.162 376.911 142.092C376.8 142.023 376.669 141.988 376.518 141.988C376.352 141.988 376.208 142.029 376.087 142.112C375.967 142.193 375.874 142.299 375.809 142.43C375.745 142.561 375.712 142.701 375.712 142.851V143.091C375.712 143.296 375.748 143.47 375.818 143.613C375.89 143.754 375.99 143.862 376.117 143.936C376.244 144.009 376.392 144.046 376.561 144.046C376.67 144.046 376.769 144.03 376.858 144C376.947 143.968 377.024 143.921 377.089 143.858C377.154 143.795 377.204 143.716 377.239 143.621L377.642 143.735C377.6 143.871 377.529 143.991 377.428 144.095C377.328 144.198 377.205 144.278 377.057 144.335C376.91 144.392 376.744 144.42 376.561 144.42Z" fill="white"/>
</g>
<rect x="89.5" y="12.5" width="99" height="63" rx="9.5" fill="#F2F6FA" stroke="#D4E1ED"/>
<rect x="101" y="42" width="76" height="8" rx="4" fill="#D7E0EA"/>
<rect x="101" y="58" width="76" height="8" rx="4" fill="#D7E0EA"/>
<rect x="31.5" y="88.5" width="99" height="63" rx="9.5" fill="#F2F6FA" stroke="#D4E1ED"/>
<rect x="43" y="118" width="76" height="8" rx="4" fill="#D7E0EA"/>
<rect x="43" y="134" width="76" height="8" rx="4" fill="#D7E0EA"/>
<rect x="143.5" y="88.5" width="99" height="63" rx="9.5" fill="#F2F6FA" stroke="#D4E1ED"/>
<rect x="155" y="118" width="76" height="8" rx="4" fill="#D7E0EA"/>
<rect x="155" y="134" width="76" height="8" rx="4" fill="#D7E0EA"/>
<rect x="31.5" y="164.5" width="99" height="63" rx="9.5" fill="#F2F6FA" stroke="#D4E1ED"/>
<rect x="43" y="194" width="76" height="8" rx="4" fill="#D7E0EA"/>
<rect x="43" y="210" width="76" height="8" rx="4" fill="#D7E0EA"/>
<rect x="89.5" y="12.5" width="99" height="63" rx="9.5" fill="#F2F6FA" stroke="#D4E1ED"/>
<rect x="101" y="42" width="76" height="8" rx="4" fill="#D7E0EA"/>
<rect x="101" y="58" width="76" height="8" rx="4" fill="#D7E0EA"/>
<rect x="31.5" y="88.5" width="99" height="63" rx="9.5" fill="#F2F6FA" stroke="#D4E1ED"/>
<rect x="43" y="118" width="76" height="8" rx="4" fill="#D7E0EA"/>
<rect x="43" y="134" width="76" height="8" rx="4" fill="#D7E0EA"/>
<rect x="143.5" y="88.5" width="99" height="63" rx="9.5" fill="#F2F6FA" stroke="#D4E1ED"/>
<rect x="155" y="118" width="76" height="8" rx="4" fill="#D7E0EA"/>
<rect x="155" y="134" width="76" height="8" rx="4" fill="#D7E0EA"/>
<rect x="31.5" y="164.5" width="99" height="63" rx="9.5" fill="#F2F6FA" stroke="#D4E1ED"/>
<rect x="43" y="194" width="76" height="8" rx="4" fill="#D7E0EA"/>
<rect x="43" y="210" width="76" height="8" rx="4" fill="#D7E0EA"/>
<rect x="143.5" y="164.5" width="99" height="63" rx="9.5" fill="#F2F6FA" stroke="#D4E1ED"/>
<path d="M103.4 32.0961C103.037 32.0961 102.723 32.0321 102.456 31.9041C102.189 31.7707 101.968 31.5814 101.792 31.3361C101.621 31.0907 101.493 30.7894 101.408 30.4321C101.328 30.0747 101.288 29.6667 101.288 29.2081C101.288 28.7547 101.328 28.3494 101.408 27.9921C101.493 27.6294 101.621 27.3254 101.792 27.0801C101.968 26.8347 102.189 26.6481 102.456 26.5201C102.723 26.3867 103.037 26.3201 103.4 26.3201C104.125 26.3201 104.659 26.5734 105 27.0801C105.341 27.5867 105.512 28.2961 105.512 29.2081C105.512 30.1201 105.341 30.8294 105 31.3361C104.659 31.8427 104.125 32.0961 103.4 32.0961ZM103.4 31.2401C103.587 31.2401 103.744 31.2054 103.872 31.1361C104 31.0614 104.101 30.9574 104.176 30.8241C104.256 30.6907 104.312 30.5281 104.344 30.3361C104.381 30.1387 104.4 29.9201 104.4 29.6801V28.7281C104.4 28.2481 104.325 27.8694 104.176 27.5921C104.032 27.3147 103.773 27.1761 103.4 27.1761C103.027 27.1761 102.765 27.3147 102.616 27.5921C102.472 27.8694 102.4 28.2481 102.4 28.7281V29.6881C102.4 30.1681 102.472 30.5467 102.616 30.8241C102.765 31.1014 103.027 31.2401 103.4 31.2401Z" fill="black"/>
<path d="M106.397 31.1921H107.661V28.6801H106.317V27.8721H107.661V27.2001C107.661 27.0347 107.682 26.8854 107.725 26.7521C107.773 26.6134 107.845 26.4961 107.941 26.4001C108.037 26.2987 108.157 26.2214 108.301 26.1681C108.45 26.1094 108.624 26.0801 108.821 26.0801H110.213V26.8881H108.685V27.8721H110.213V28.6801H108.685V31.1921H110.029V32.0001H106.397V31.1921Z" fill="black"/>
<path d="M111.194 31.1921H112.458V28.6801H111.114V27.8721H112.458V27.2001C112.458 27.0347 112.479 26.8854 112.522 26.7521C112.57 26.6134 112.642 26.4961 112.738 26.4001C112.834 26.2987 112.954 26.2214 113.098 26.1681C113.247 26.1094 113.421 26.0801 113.618 26.0801H115.01V26.8881H113.482V27.8721H115.01V28.6801H113.482V31.1921H114.826V32.0001H111.194V31.1921Z" fill="black"/>
<path d="M117.887 32.0961C117.556 32.0961 117.263 32.0454 117.007 31.9441C116.751 31.8427 116.535 31.6987 116.359 31.5121C116.188 31.3254 116.057 31.1014 115.967 30.8401C115.876 30.5734 115.831 30.2747 115.831 29.9441C115.831 29.6081 115.876 29.3067 115.967 29.0401C116.063 28.7734 116.196 28.5467 116.367 28.3601C116.537 28.1734 116.743 28.0294 116.983 27.9281C117.228 27.8267 117.503 27.7761 117.807 27.7761C118.105 27.7761 118.375 27.8267 118.615 27.9281C118.855 28.0241 119.057 28.1627 119.223 28.3441C119.393 28.5254 119.524 28.7441 119.615 29.0001C119.705 29.2561 119.751 29.5387 119.751 29.8481V30.1841H116.855V30.2881C116.855 30.5867 116.948 30.8294 117.135 31.0161C117.321 31.1974 117.583 31.2881 117.919 31.2881C118.175 31.2881 118.393 31.2374 118.575 31.1361C118.761 31.0294 118.916 30.8907 119.039 30.7201L119.623 31.3041C119.473 31.5227 119.255 31.7094 118.967 31.8641C118.684 32.0187 118.324 32.0961 117.887 32.0961ZM117.815 28.5281C117.527 28.5281 117.295 28.6187 117.119 28.8001C116.943 28.9814 116.855 29.2214 116.855 29.5201V29.5761H118.727V29.5041C118.727 29.2054 118.644 28.9681 118.479 28.7921C118.319 28.6161 118.097 28.5281 117.815 28.5281Z" fill="black"/>
<path d="M120.788 31.1921H121.812V28.6801H120.788V27.8721H122.836V29.0001H122.9C122.937 28.8561 122.988 28.7174 123.052 28.5841C123.121 28.4454 123.206 28.3254 123.308 28.2241C123.414 28.1174 123.542 28.0321 123.692 27.9681C123.841 27.9041 124.02 27.8721 124.228 27.8721H124.676V28.8321H123.828C123.518 28.8321 123.276 28.9227 123.1 29.1041C122.924 29.2854 122.836 29.5174 122.836 29.8001V31.1921H124.268V32.0001H120.788V31.1921Z" fill="black"/>
<path d="M45.4001 108.096C45.0374 108.096 44.7228 108.032 44.4561 107.904C44.1894 107.771 43.9681 107.581 43.7921 107.336C43.6214 107.091 43.4934 106.789 43.4081 106.432C43.3281 106.075 43.2881 105.667 43.2881 105.208C43.2881 104.755 43.3281 104.349 43.4081 103.992C43.4934 103.629 43.6214 103.325 43.7921 103.08C43.9681 102.835 44.1894 102.648 44.4561 102.52C44.7228 102.387 45.0374 102.32 45.4001 102.32C46.1254 102.32 46.6588 102.573 47.0001 103.08C47.3414 103.587 47.5121 104.296 47.5121 105.208C47.5121 106.12 47.3414 106.829 47.0001 107.336C46.6588 107.843 46.1254 108.096 45.4001 108.096ZM45.4001 107.24C45.5868 107.24 45.7441 107.205 45.8721 107.136C46.0001 107.061 46.1014 106.957 46.1761 106.824C46.2561 106.691 46.3121 106.528 46.3441 106.336C46.3814 106.139 46.4001 105.92 46.4001 105.68V104.728C46.4001 104.248 46.3254 103.869 46.1761 103.592C46.0321 103.315 45.7734 103.176 45.4001 103.176C45.0268 103.176 44.7654 103.315 44.6161 103.592C44.4721 103.869 44.4001 104.248 44.4001 104.728V105.688C44.4001 106.168 44.4721 106.547 44.6161 106.824C44.7654 107.101 45.0268 107.24 45.4001 107.24Z" fill="black"/>
<path d="M48.397 107.192H49.661V104.68H48.317V103.872H49.661V103.2C49.661 103.035 49.6823 102.885 49.725 102.752C49.773 102.613 49.845 102.496 49.941 102.4C50.037 102.299 50.157 102.221 50.301 102.168C50.4503 102.109 50.6236 102.08 50.821 102.08H52.213V102.888H50.685V103.872H52.213V104.68H50.685V107.192H52.029V108H48.397V107.192Z" fill="black"/>
<path d="M53.1938 107.192H54.4578V104.68H53.1138V103.872H54.4578V103.2C54.4578 103.035 54.4792 102.885 54.5218 102.752C54.5698 102.613 54.6418 102.496 54.7378 102.4C54.8338 102.299 54.9538 102.221 55.0978 102.168C55.2472 102.109 55.4205 102.08 55.6178 102.08H57.0098V102.888H55.4818V103.872H57.0098V104.68H55.4818V107.192H56.8258V108H53.1938V107.192Z" fill="black"/>
<path d="M59.8867 108.096C59.556 108.096 59.2627 108.045 59.0067 107.944C58.7507 107.843 58.5347 107.699 58.3587 107.512C58.188 107.325 58.0574 107.101 57.9667 106.84C57.876 106.573 57.8307 106.275 57.8307 105.944C57.8307 105.608 57.876 105.307 57.9667 105.04C58.0627 104.773 58.196 104.547 58.3667 104.36C58.5374 104.173 58.7427 104.029 58.9827 103.928C59.228 103.827 59.5027 103.776 59.8067 103.776C60.1054 103.776 60.3747 103.827 60.6147 103.928C60.8547 104.024 61.0574 104.163 61.2227 104.344C61.3934 104.525 61.524 104.744 61.6147 105C61.7054 105.256 61.7507 105.539 61.7507 105.848V106.184H58.8547V106.288C58.8547 106.587 58.948 106.829 59.1347 107.016C59.3214 107.197 59.5827 107.288 59.9187 107.288C60.1747 107.288 60.3934 107.237 60.5747 107.136C60.7614 107.029 60.916 106.891 61.0387 106.72L61.6227 107.304C61.4734 107.523 61.2547 107.709 60.9667 107.864C60.684 108.019 60.324 108.096 59.8867 108.096ZM59.8147 104.528C59.5267 104.528 59.2947 104.619 59.1187 104.8C58.9427 104.981 58.8547 105.221 58.8547 105.52V105.576H60.7267V105.504C60.7267 105.205 60.644 104.968 60.4787 104.792C60.3187 104.616 60.0974 104.528 59.8147 104.528Z" fill="black"/>
<path d="M62.7876 107.192H63.8116V104.68H62.7876V103.872H64.8356V105H64.8996C64.9369 104.856 64.9876 104.717 65.0516 104.584C65.1209 104.445 65.2063 104.325 65.3076 104.224C65.4143 104.117 65.5423 104.032 65.6916 103.968C65.8409 103.904 66.0196 103.872 66.2276 103.872H66.6756V104.832H65.8276C65.5183 104.832 65.2756 104.923 65.0996 105.104C64.9236 105.285 64.8356 105.517 64.8356 105.8V107.192H66.2676V108H62.7876V107.192Z" fill="black"/>
<path d="M157.4 108.096C157.037 108.096 156.723 108.032 156.456 107.904C156.189 107.771 155.968 107.581 155.792 107.336C155.621 107.091 155.493 106.789 155.408 106.432C155.328 106.075 155.288 105.667 155.288 105.208C155.288 104.755 155.328 104.349 155.408 103.992C155.493 103.629 155.621 103.325 155.792 103.08C155.968 102.835 156.189 102.648 156.456 102.52C156.723 102.387 157.037 102.32 157.4 102.32C158.125 102.32 158.659 102.573 159 103.08C159.341 103.587 159.512 104.296 159.512 105.208C159.512 106.12 159.341 106.829 159 107.336C158.659 107.843 158.125 108.096 157.4 108.096ZM157.4 107.24C157.587 107.24 157.744 107.205 157.872 107.136C158 107.061 158.101 106.957 158.176 106.824C158.256 106.691 158.312 106.528 158.344 106.336C158.381 106.139 158.4 105.92 158.4 105.68V104.728C158.4 104.248 158.325 103.869 158.176 103.592C158.032 103.315 157.773 103.176 157.4 103.176C157.027 103.176 156.765 103.315 156.616 103.592C156.472 103.869 156.4 104.248 156.4 104.728V105.688C156.4 106.168 156.472 106.547 156.616 106.824C156.765 107.101 157.027 107.24 157.4 107.24Z" fill="black"/>
<path d="M160.397 107.192H161.661V104.68H160.317V103.872H161.661V103.2C161.661 103.035 161.682 102.885 161.725 102.752C161.773 102.613 161.845 102.496 161.941 102.4C162.037 102.299 162.157 102.221 162.301 102.168C162.45 102.109 162.624 102.08 162.821 102.08H164.213V102.888H162.685V103.872H164.213V104.68H162.685V107.192H164.029V108H160.397V107.192Z" fill="black"/>
<path d="M165.194 107.192H166.458V104.68H165.114V103.872H166.458V103.2C166.458 103.035 166.479 102.885 166.522 102.752C166.57 102.613 166.642 102.496 166.738 102.4C166.834 102.299 166.954 102.221 167.098 102.168C167.247 102.109 167.421 102.08 167.618 102.08H169.01V102.888H167.482V103.872H169.01V104.68H167.482V107.192H168.826V108H165.194V107.192Z" fill="black"/>
<path d="M171.887 108.096C171.556 108.096 171.263 108.045 171.007 107.944C170.751 107.843 170.535 107.699 170.359 107.512C170.188 107.325 170.057 107.101 169.967 106.84C169.876 106.573 169.831 106.275 169.831 105.944C169.831 105.608 169.876 105.307 169.967 105.04C170.063 104.773 170.196 104.547 170.367 104.36C170.537 104.173 170.743 104.029 170.983 103.928C171.228 103.827 171.503 103.776 171.807 103.776C172.105 103.776 172.375 103.827 172.615 103.928C172.855 104.024 173.057 104.163 173.223 104.344C173.393 104.525 173.524 104.744 173.615 105C173.705 105.256 173.751 105.539 173.751 105.848V106.184H170.855V106.288C170.855 106.587 170.948 106.829 171.135 107.016C171.321 107.197 171.583 107.288 171.919 107.288C172.175 107.288 172.393 107.237 172.575 107.136C172.761 107.029 172.916 106.891 173.039 106.72L173.623 107.304C173.473 107.523 173.255 107.709 172.967 107.864C172.684 108.019 172.324 108.096 171.887 108.096ZM171.815 104.528C171.527 104.528 171.295 104.619 171.119 104.8C170.943 104.981 170.855 105.221 170.855 105.52V105.576H172.727V105.504C172.727 105.205 172.644 104.968 172.479 104.792C172.319 104.616 172.097 104.528 171.815 104.528Z" fill="black"/>
<path d="M174.788 107.192H175.812V104.68H174.788V103.872H176.836V105H176.9C176.937 104.856 176.988 104.717 177.052 104.584C177.121 104.445 177.206 104.325 177.308 104.224C177.414 104.117 177.542 104.032 177.692 103.968C177.841 103.904 178.02 103.872 178.228 103.872H178.676V104.832H177.828C177.518 104.832 177.276 104.923 177.1 105.104C176.924 105.285 176.836 105.517 176.836 105.8V107.192H178.268V108H174.788V107.192Z" fill="black"/>
<path d="M45.4001 184.096C45.0374 184.096 44.7228 184.032 44.4561 183.904C44.1894 183.771 43.9681 183.581 43.7921 183.336C43.6214 183.091 43.4934 182.789 43.4081 182.432C43.3281 182.075 43.2881 181.667 43.2881 181.208C43.2881 180.755 43.3281 180.349 43.4081 179.992C43.4934 179.629 43.6214 179.325 43.7921 179.08C43.9681 178.835 44.1894 178.648 44.4561 178.52C44.7228 178.387 45.0374 178.32 45.4001 178.32C46.1254 178.32 46.6588 178.573 47.0001 179.08C47.3414 179.587 47.5121 180.296 47.5121 181.208C47.5121 182.12 47.3414 182.829 47.0001 183.336C46.6588 183.843 46.1254 184.096 45.4001 184.096ZM45.4001 183.24C45.5868 183.24 45.7441 183.205 45.8721 183.136C46.0001 183.061 46.1014 182.957 46.1761 182.824C46.2561 182.691 46.3121 182.528 46.3441 182.336C46.3814 182.139 46.4001 181.92 46.4001 181.68V180.728C46.4001 180.248 46.3254 179.869 46.1761 179.592C46.0321 179.315 45.7734 179.176 45.4001 179.176C45.0268 179.176 44.7654 179.315 44.6161 179.592C44.4721 179.869 44.4001 180.248 44.4001 180.728V181.688C44.4001 182.168 44.4721 182.547 44.6161 182.824C44.7654 183.101 45.0268 183.24 45.4001 183.24Z" fill="black"/>
<path d="M48.397 183.192H49.661V180.68H48.317V179.872H49.661V179.2C49.661 179.035 49.6823 178.885 49.725 178.752C49.773 178.613 49.845 178.496 49.941 178.4C50.037 178.299 50.157 178.221 50.301 178.168C50.4503 178.109 50.6236 178.08 50.821 178.08H52.213V178.888H50.685V179.872H52.213V180.68H50.685V183.192H52.029V184H48.397V183.192Z" fill="black"/>
<path d="M53.1938 183.192H54.4578V180.68H53.1138V179.872H54.4578V179.2C54.4578 179.035 54.4792 178.885 54.5218 178.752C54.5698 178.613 54.6418 178.496 54.7378 178.4C54.8338 178.299 54.9538 178.221 55.0978 178.168C55.2472 178.109 55.4205 178.08 55.6178 178.08H57.0098V178.888H55.4818V179.872H57.0098V180.68H55.4818V183.192H56.8258V184H53.1938V183.192Z" fill="black"/>
<path d="M59.8867 184.096C59.556 184.096 59.2627 184.045 59.0067 183.944C58.7507 183.843 58.5347 183.699 58.3587 183.512C58.188 183.325 58.0574 183.101 57.9667 182.84C57.876 182.573 57.8307 182.275 57.8307 181.944C57.8307 181.608 57.876 181.307 57.9667 181.04C58.0627 180.773 58.196 180.547 58.3667 180.36C58.5374 180.173 58.7427 180.029 58.9827 179.928C59.228 179.827 59.5027 179.776 59.8067 179.776C60.1054 179.776 60.3747 179.827 60.6147 179.928C60.8547 180.024 61.0574 180.163 61.2227 180.344C61.3934 180.525 61.524 180.744 61.6147 181C61.7054 181.256 61.7507 181.539 61.7507 181.848V182.184H58.8547V182.288C58.8547 182.587 58.948 182.829 59.1347 183.016C59.3214 183.197 59.5827 183.288 59.9187 183.288C60.1747 183.288 60.3934 183.237 60.5747 183.136C60.7614 183.029 60.916 182.891 61.0387 182.72L61.6227 183.304C61.4734 183.523 61.2547 183.709 60.9667 183.864C60.684 184.019 60.324 184.096 59.8867 184.096ZM59.8147 180.528C59.5267 180.528 59.2947 180.619 59.1187 180.8C58.9427 180.981 58.8547 181.221 58.8547 181.52V181.576H60.7267V181.504C60.7267 181.205 60.644 180.968 60.4787 180.792C60.3187 180.616 60.0974 180.528 59.8147 180.528Z" fill="black"/>
<path d="M62.7876 183.192H63.8116V180.68H62.7876V179.872H64.8356V181H64.8996C64.9369 180.856 64.9876 180.717 65.0516 180.584C65.1209 180.445 65.2063 180.325 65.3076 180.224C65.4143 180.117 65.5423 180.032 65.6916 179.968C65.8409 179.904 66.0196 179.872 66.2276 179.872H66.6756V180.832H65.8276C65.5183 180.832 65.2756 180.923 65.0996 181.104C64.9236 181.285 64.8356 181.517 64.8356 181.8V183.192H66.2676V184H62.7876V183.192Z" fill="black"/>
<path d="M157.4 184.096C157.037 184.096 156.723 184.032 156.456 183.904C156.189 183.771 155.968 183.581 155.792 183.336C155.621 183.091 155.493 182.789 155.408 182.432C155.328 182.075 155.288 181.667 155.288 181.208C155.288 180.755 155.328 180.349 155.408 179.992C155.493 179.629 155.621 179.325 155.792 179.08C155.968 178.835 156.189 178.648 156.456 178.52C156.723 178.387 157.037 178.32 157.4 178.32C158.125 178.32 158.659 178.573 159 179.08C159.341 179.587 159.512 180.296 159.512 181.208C159.512 182.12 159.341 182.829 159 183.336C158.659 183.843 158.125 184.096 157.4 184.096ZM157.4 183.24C157.587 183.24 157.744 183.205 157.872 183.136C158 183.061 158.101 182.957 158.176 182.824C158.256 182.691 158.312 182.528 158.344 182.336C158.381 182.139 158.4 181.92 158.4 181.68V180.728C158.4 180.248 158.325 179.869 158.176 179.592C158.032 179.315 157.773 179.176 157.4 179.176C157.027 179.176 156.765 179.315 156.616 179.592C156.472 179.869 156.4 180.248 156.4 180.728V181.688C156.4 182.168 156.472 182.547 156.616 182.824C156.765 183.101 157.027 183.24 157.4 183.24Z" fill="black"/>
<path d="M160.397 183.192H161.661V180.68H160.317V179.872H161.661V179.2C161.661 179.035 161.682 178.885 161.725 178.752C161.773 178.613 161.845 178.496 161.941 178.4C162.037 178.299 162.157 178.221 162.301 178.168C162.45 178.109 162.624 178.08 162.821 178.08H164.213V178.888H162.685V179.872H164.213V180.68H162.685V183.192H164.029V184H160.397V183.192Z" fill="black"/>
<path d="M165.194 183.192H166.458V180.68H165.114V179.872H166.458V179.2C166.458 179.035 166.479 178.885 166.522 178.752C166.57 178.613 166.642 178.496 166.738 178.4C166.834 178.299 166.954 178.221 167.098 178.168C167.247 178.109 167.421 178.08 167.618 178.08H169.01V178.888H167.482V179.872H169.01V180.68H167.482V183.192H168.826V184H165.194V183.192Z" fill="black"/>
<path d="M171.887 184.096C171.556 184.096 171.263 184.045 171.007 183.944C170.751 183.843 170.535 183.699 170.359 183.512C170.188 183.325 170.057 183.101 169.967 182.84C169.876 182.573 169.831 182.275 169.831 181.944C169.831 181.608 169.876 181.307 169.967 181.04C170.063 180.773 170.196 180.547 170.367 180.36C170.537 180.173 170.743 180.029 170.983 179.928C171.228 179.827 171.503 179.776 171.807 179.776C172.105 179.776 172.375 179.827 172.615 179.928C172.855 180.024 173.057 180.163 173.223 180.344C173.393 180.525 173.524 180.744 173.615 181C173.705 181.256 173.751 181.539 173.751 181.848V182.184H170.855V182.288C170.855 182.587 170.948 182.829 171.135 183.016C171.321 183.197 171.583 183.288 171.919 183.288C172.175 183.288 172.393 183.237 172.575 183.136C172.761 183.029 172.916 182.891 173.039 182.72L173.623 183.304C173.473 183.523 173.255 183.709 172.967 183.864C172.684 184.019 172.324 184.096 171.887 184.096ZM171.815 180.528C171.527 180.528 171.295 180.619 171.119 180.8C170.943 180.981 170.855 181.221 170.855 181.52V181.576H172.727V181.504C172.727 181.205 172.644 180.968 172.479 180.792C172.319 180.616 172.097 180.528 171.815 180.528Z" fill="black"/>
<path d="M174.788 183.192H175.812V180.68H174.788V179.872H176.836V181H176.9C176.937 180.856 176.988 180.717 177.052 180.584C177.121 180.445 177.206 180.325 177.308 180.224C177.414 180.117 177.542 180.032 177.692 179.968C177.841 179.904 178.02 179.872 178.228 179.872H178.676V180.832H177.828C177.518 180.832 177.276 180.923 177.1 181.104C176.924 181.285 176.836 181.517 176.836 181.8V183.192H178.268V184H174.788V183.192Z" fill="black"/>
<rect x="155" y="194" width="76" height="8" rx="4" fill="#D7E0EA"/>
<rect x="155" y="210" width="76" height="8" rx="4" fill="#D7E0EA"/>
<path d="M194 43.5H254.5C260.023 43.5 264.5 47.9772 264.5 53.5V113.5C264.5 119.023 268.977 123.5 274.5 123.5H288" stroke="#C7C7C7" stroke-width="2" stroke-linecap="round" stroke-dasharray="1 6"/>
<g filter="url(#filter0_ddd_65_16)">
<rect x="169" y="49" width="32" height="32" rx="16" fill="#1ABA5A"/>
</g>
<path d="M182 69.2001L177.8 65.0001L176.4 66.4001L182 72.0001L194 60.0001L192.6 58.6001L182 69.2001Z" fill="white"/>
<defs>
<filter id="filter0_ddd_65_16" x="136" y="33" width="98" height="98" filterUnits="userSpaceOnUse" color-interpolation-filters="sRGB">
<feFlood flood-opacity="0" result="BackgroundImageFix"/>
<feColorMatrix in="SourceAlpha" type="matrix" values="0 0 0 0 0 0 0 0 0 0 0 0 0 0 0 0 0 0 127 0" result="hardAlpha"/>
<feOffset dy="1.07885"/>
<feGaussianBlur stdDeviation="3.57289"/>
<feColorMatrix type="matrix" values="0 0 0 0 0.0196078 0 0 0 0 0.0941176 0 0 0 0 0.25098 0 0 0 0.0377807 0"/>
<feBlend mode="normal" in2="BackgroundImageFix" result="effect1_dropShadow_65_16"/>
<feColorMatrix in="SourceAlpha" type="matrix" values="0 0 0 0 0 0 0 0 0 0 0 0 0 0 0 0 0 0 127 0" result="hardAlpha"/>
<feOffset dy="3.8002"/>
<feGaussianBlur stdDeviation="6.72502"/>
<feColorMatrix type="matrix" values="0 0 0 0 0.0196078 0 0 0 0 0.0941176 0 0 0 0 0.25098 0 0 0 0.0522616 0"/>
<feBlend mode="normal" in2="effect1_dropShadow_65_16" result="effect2_dropShadow_65_16"/>
<feColorMatrix in="SourceAlpha" type="matrix" values="0 0 0 0 0 0 0 0 0 0 0 0 0 0 0 0 0 0 127 0" result="hardAlpha"/>
<feOffset dy="17"/>
<feGaussianBlur stdDeviation="16.5"/>
<feColorMatrix type="matrix" values="0 0 0 0 0.0196078 0 0 0 0 0.0941176 0 0 0 0 0.25098 0 0 0 0.07 0"/>
<feBlend mode="normal" in2="effect2_dropShadow_65_16" result="effect3_dropShadow_65_16"/>
<feBlend mode="normal" in="SourceGraphic" in2="effect3_dropShadow_65_16" result="shape"/>
</filter>
<clipPath id="clip0_65_16">
<rect x="292" y="74" width="146" height="92.0795" rx="8.29545" fill="white"/>
</clipPath>
</defs>
</svg>
