<svg xmlns="http://www.w3.org/2000/svg" fill="none" viewBox="0 0 42 32"><path fill="#252F3E" d="M11.936 14.174c0 .511.055.926.152 1.23.11.304.249.635.442.994.07.11.097.221.097.318 0 .138-.083.276-.263.415l-.87.58a.662.662 0 0 1-.36.124c-.137 0-.276-.069-.414-.193a4.279 4.279 0 0 1-.497-.65 10.717 10.717 0 0 1-.428-.815c-1.078 1.271-2.432 1.907-4.062 1.907-1.16 0-2.086-.332-2.763-.995s-1.023-1.547-1.023-2.652c0-1.175.415-2.128 1.257-2.846.843-.719 1.962-1.078 3.385-1.078.47 0 .954.041 1.465.11.511.07 1.036.18 1.589.304V9.92c0-1.05-.221-1.782-.65-2.21-.442-.429-1.188-.636-2.252-.636-.483 0-.98.055-1.492.18a11.01 11.01 0 0 0-1.492.47 3.966 3.966 0 0 1-.483.179.847.847 0 0 1-.221.041c-.194 0-.29-.138-.29-.428v-.677c0-.221.027-.387.096-.484.07-.096.194-.193.387-.29.483-.248 1.064-.456 1.74-.622a8.376 8.376 0 0 1 2.156-.262c1.644 0 2.846.373 3.62 1.12.76.745 1.146 1.878 1.146 3.398v4.476h.028Zm-5.61 2.1c.457 0 .927-.083 1.424-.249a3.08 3.08 0 0 0 1.312-.884c.221-.262.387-.553.47-.884.083-.332.138-.732.138-1.202v-.58c-.4-.097-.829-.18-1.27-.235-.443-.055-.871-.083-1.3-.083-.925 0-1.602.18-2.058.553-.456.373-.677.898-.677 1.588 0 .65.166 1.133.511 1.465.332.345.815.511 1.45.511Zm11.095 1.492c-.249 0-.415-.041-.525-.138-.11-.083-.207-.276-.29-.539L13.359 6.41c-.083-.276-.124-.455-.124-.552 0-.221.11-.345.331-.345h1.354c.263 0 .442.041.54.138.11.083.192.276.275.539l2.322 9.146 2.155-9.146c.069-.277.152-.456.262-.54.11-.082.304-.137.553-.137h1.105c.263 0 .442.041.553.138.11.083.207.276.262.539l2.183 9.256 2.39-9.256c.083-.277.18-.456.277-.54.11-.082.29-.137.538-.137h1.285c.221 0 .346.11.346.345 0 .069-.014.138-.028.221a1.972 1.972 0 0 1-.097.345l-3.33 10.68c-.082.276-.179.456-.29.539-.11.083-.29.138-.524.138h-1.189c-.262 0-.442-.042-.552-.138-.11-.097-.207-.276-.263-.553l-2.141-8.911-2.128 8.897c-.069.277-.152.456-.262.553-.11.097-.304.138-.553.138h-1.188Zm17.753.373a9.142 9.142 0 0 1-2.127-.248c-.691-.166-1.23-.346-1.59-.553-.22-.125-.372-.263-.428-.387a.974.974 0 0 1-.082-.387v-.704c0-.29.11-.429.317-.429.083 0 .166.014.25.042.082.027.206.083.345.138.47.207.98.373 1.52.483a8.29 8.29 0 0 0 1.643.166c.87 0 1.548-.152 2.017-.456.47-.304.719-.746.719-1.312 0-.387-.125-.705-.373-.967-.249-.263-.719-.498-1.396-.719l-2.003-.621c-1.008-.318-1.755-.788-2.21-1.41-.456-.607-.691-1.284-.691-2.003 0-.58.124-1.091.373-1.533.248-.443.58-.83.995-1.133a4.385 4.385 0 0 1 1.436-.719 6.021 6.021 0 0 1 1.741-.235c.304 0 .622.014.926.056.318.041.608.096.898.152.276.069.539.138.787.22.249.084.443.166.58.25.194.11.332.22.415.345.083.11.124.262.124.456v.649c0 .29-.11.442-.317.442-.11 0-.29-.055-.525-.166-.788-.359-1.672-.539-2.653-.539-.788 0-1.41.125-1.837.387-.429.263-.65.663-.65 1.23 0 .387.138.718.415.98.276.263.787.526 1.52.76l1.961.622c.995.318 1.713.76 2.142 1.327.428.566.635 1.216.635 1.934 0 .594-.124 1.133-.359 1.603-.249.47-.58.884-1.008 1.215-.429.346-.94.594-1.534.774a6.57 6.57 0 0 1-1.976.29Z"/><path fill="#F90" fill-rule="evenodd" d="M37.786 24.852c-4.545 3.357-11.15 5.14-16.827 5.14C13 29.991 5.83 27.047.414 22.157c-.428-.387-.04-.912.47-.608 5.858 3.398 13.084 5.457 20.558 5.457 5.043 0 10.583-1.05 15.681-3.205.76-.346 1.41.497.663 1.05Z" clip-rule="evenodd"/><path fill="#F90" fill-rule="evenodd" d="M39.678 22.696c-.58-.746-3.84-.359-5.319-.18-.442.056-.51-.33-.11-.621 2.597-1.824 6.866-1.299 7.363-.69.498.62-.138 4.89-2.57 6.935-.372.317-.731.152-.566-.263.553-1.367 1.783-4.448 1.202-5.18Z" clip-rule="evenodd"/></svg>