<svg width="102" height="40" viewBox="0 0 102 40" fill="none" xmlns="http://www.w3.org/2000/svg">
<g clip-path="url(#clip0_751_1599)">
<path d="M71.2305 2.33083C72.3742 2.33083 73.4813 2.32 74.5949 2.34599C74.7239 2.34599 74.8959 2.53873 74.969 2.6795C76.8092 6.23337 78.6409 9.79807 80.4704 13.3584C81.298 14.9632 82.1193 16.5701 82.9448 18.1814C83.0071 18.307 83.0845 18.4304 83.1834 18.608C83.2866 18.4304 83.3662 18.3005 83.4393 18.1662C86.0814 13.0228 88.7278 7.88361 91.3592 2.73364C91.5097 2.43694 91.6709 2.30267 92.0192 2.32216C92.7307 2.35898 93.4488 2.33299 94.1991 2.33299V21.9302H91.7698V5.25449L91.6752 5.23283C91.6021 5.36277 91.5182 5.49271 91.4516 5.62265C89.0245 10.3503 86.5995 15.0801 84.1616 19.8035C84.0369 20.0482 83.8241 20.2756 83.6005 20.4424C82.9147 20.9578 82.201 21.4407 81.4743 21.954C78.9053 16.9491 76.3513 11.9767 73.7372 6.88957V21.9237H71.2305V2.33083Z" fill="black" stroke="black" stroke-width="1.2" stroke-miterlimit="10"/>
<path d="M0.585938 21.9599V2.34975C0.747173 2.34542 0.886911 2.3281 1.0288 2.3281C3.71821 2.3281 6.40548 2.32377 9.0949 2.3281C10.6707 2.3281 12.2207 2.48836 13.6246 3.28316C15.1531 4.15159 16.1463 5.39253 16.1097 7.24851C16.0882 8.3595 15.5422 9.21711 14.6844 9.88846C14.061 10.3822 13.416 10.85 12.7926 11.3221C13.5106 11.5712 14.2222 11.7683 14.8886 12.0715C15.9485 12.5544 16.8127 13.2821 17.3545 14.3433C18.0467 15.7055 17.9263 17.0027 16.9546 18.1787C15.4777 19.961 13.5063 20.9854 11.3178 21.5831C10.4536 21.817 9.53991 21.9253 8.64558 21.9426C6.1346 21.9903 3.62147 21.9578 1.10619 21.9578H0.585938V21.9621V21.9599ZM3.06682 13.085V20.1408C3.22376 20.1451 3.3635 20.1624 3.50323 20.1624C6.14535 20.1624 8.78532 20.1841 11.4274 20.1581C12.1971 20.1538 12.971 20.0758 13.7256 19.935C14.7661 19.7423 15.0929 19.4044 15.2025 18.3649C15.2606 17.8148 15.2391 17.2063 15.0628 16.6908C14.3963 14.7569 12.9259 13.739 10.9695 13.3709C8.36396 12.8771 5.73259 13.2041 3.06467 13.0807V13.085H3.06682ZM3.06682 11.2723C5.595 11.2723 8.07373 11.3026 10.5546 11.2507C11.2985 11.2355 12.0423 11.0124 12.7797 10.85C12.9366 10.8132 13.1172 10.6681 13.1967 10.523C13.7471 9.49864 13.8008 8.43313 13.2999 7.37845C12.4787 5.63725 10.9803 4.77531 9.19809 4.35517C7.20091 3.88305 5.16289 4.14293 3.13991 4.11045C3.11842 4.11045 3.09262 4.14077 3.06682 4.16675V11.2723Z" fill="black" stroke="black" stroke-width="1.2" stroke-miterlimit="10"/>
<path d="M21.6504 21.9353V2.36197H24.084V11.2477H39.5906V2.35547H42.0285V21.931H39.6099V13.0712H24.1098V21.9418H21.6504V21.9375V21.9353Z" fill="black" stroke="black" stroke-width="1.2" stroke-miterlimit="10"/>
<path d="M46.8479 2.31641H49.3073V2.847C49.3073 6.468 49.303 10.0912 49.3073 13.7122C49.3073 14.7257 49.4642 15.7133 49.9672 16.6228C50.81 18.1453 52.145 19.0809 53.695 19.7241C56.5027 20.8979 59.3469 20.8784 62.176 19.7977C62.52 19.6678 62.8425 19.3862 63.0811 19.096C63.9647 18.0197 64.2506 16.7528 64.2463 15.3798C64.2356 11.2325 64.2463 7.08739 64.2463 2.94012V2.33157H66.7272V2.82534C66.7272 6.37488 66.6799 9.92225 66.7422 13.4675C66.7788 15.5725 66.0457 17.2292 64.4075 18.533C62.9887 19.6613 61.5225 20.7203 59.8671 21.4783C58.1709 22.2536 56.378 22.4593 54.527 22.3034C52.6287 22.1432 50.8723 21.5974 49.3266 20.4474C47.7658 19.2845 46.8242 17.788 46.8242 15.7804V2.64342C46.8242 2.5438 46.835 2.44635 46.8393 2.31641H46.8436H46.8479Z" fill="black" stroke="black" stroke-width="1.2" stroke-miterlimit="10"/>
<path d="M98.9941 2.3457H101.413V21.9299H98.9941V2.3457Z" fill="black" stroke="black" stroke-width="1.2" stroke-miterlimit="10"/>
<path d="M56.8104 11.8949C57.6938 11.8949 58.4099 11.1813 58.4099 10.301C58.4099 9.42066 57.6938 8.70703 56.8104 8.70703C55.927 8.70703 55.2109 9.42066 55.2109 10.301C55.2109 11.1813 55.927 11.8949 56.8104 11.8949Z" fill="black"/>
</g>
<defs>
<clipPath id="clip0_751_1599">
<rect width="102" height="40" fill="white"/>
</clipPath>
</defs>
</svg>
