<svg width="102" height="32" viewBox="0 0 102 32" fill="none" xmlns="http://www.w3.org/2000/svg">
<path fill-rule="evenodd" clip-rule="evenodd" d="M3.26098 14.2464V20.4053L11.4076 25.3308L19.5622 20.4053V12.3111L12.6101 16.4984C11.8451 16.9547 10.97 16.9547 10.2064 16.4984L0.745875 10.7905C-0.248625 10.1825 -0.248625 8.66053 0.745875 8.0633L10.2064 2.34324C10.97 1.88559 11.8451 1.88559 12.6087 2.34324L19.5622 6.54806L16.3599 8.47532L11.4076 5.49182L9.08974 6.90103L4.90103 9.44298L7.10745 10.7717L11.4076 13.3928L20.1983 8.09685C20.6949 7.80561 21.374 7.84185 21.8706 8.1049C22.4115 8.39614 22.8155 8.96788 22.8155 9.67114V20.9408C22.8212 21.3615 22.7164 21.7763 22.5115 22.1437C22.3065 22.5111 22.0087 22.8183 21.6478 23.0345L12.6087 28.4982C11.8545 28.9558 10.97 28.9558 10.2064 28.4982L1.1673 23.0358C0.429138 22.5862 0.00771711 21.8293 0.00771711 20.9421V12.2936L3.26098 14.2464Z" fill="#175CFF"/>
<path fill-rule="evenodd" clip-rule="evenodd" d="M44.0058 18.6747C44.0058 16.6025 42.8865 15.3007 40.4841 14.8242L38.424 14.435C37.0309 14.1572 36.5007 13.6794 36.5007 12.8218C36.5007 11.8676 37.3731 11.2435 38.7488 11.2435C40.1768 11.2435 41.2451 11.7897 41.2451 13.1157H43.7937C43.7937 10.194 41.331 9.0921 38.7837 9.0921C35.67 9.0921 33.842 10.818 33.842 13.0553C33.842 15.0416 35.1318 16.3073 37.4576 16.7501L39.5111 17.1488C40.7753 17.3903 41.3135 17.8332 41.3135 18.7445C41.3135 19.7927 40.3392 20.4517 38.8937 20.4517C37.0644 20.4517 36.1759 19.68 36.1759 18.6049H33.5508C33.5508 21.0422 35.5774 22.6554 38.8937 22.6554C41.7658 22.6554 44.0058 21.2234 44.0058 18.6747ZM97.5437 12.7695C96.1506 12.7695 95.0299 13.3331 94.5428 14.1827V8.71094H91.9954V22.4903H94.3629L94.5092 21.2073C94.9789 22.03 96.1157 22.6729 97.5437 22.6729C100.134 22.6729 101.998 20.8946 101.998 17.7205C101.998 14.6766 100.245 12.7681 97.5437 12.7681V12.7695ZM96.9881 20.3832C95.6111 20.3832 94.5777 19.3941 94.5777 17.7205C94.5777 16.0737 95.6111 15.0497 96.9881 15.0591C98.3812 15.0671 99.3904 16.0737 99.3904 17.7205C99.3904 19.3686 98.3812 20.3832 96.9881 20.3832ZM81.1714 17.7205C81.1714 20.6946 83.2154 22.6729 86.0969 22.6729C88.969 22.6729 91.0117 20.6946 91.0117 17.7205C91.0117 14.7638 88.969 12.752 86.0956 12.752C83.2154 12.752 81.1714 14.7638 81.1714 17.7205ZM83.7616 17.703C83.7616 15.9945 84.685 14.9289 86.0969 14.9289C87.5061 14.9289 88.4295 15.9945 88.4295 17.703C88.4295 19.3941 87.5074 20.4866 86.0956 20.4866C84.6863 20.4866 83.7616 19.3941 83.7616 17.703ZM78.5475 15.6483C79.8293 15.1114 80.2144 13.8874 80.2144 12.8393C80.2144 10.6355 78.6925 9.28267 75.819 9.28267H70.2976V22.489H76.1975C78.9327 22.489 80.652 21.1106 80.652 18.7875C80.652 17.3742 79.9245 16.1247 78.5489 15.6469L78.5475 15.6483ZM77.5718 13.152C77.5718 14.0874 76.9572 14.8242 75.7251 14.8242H72.8879V11.5374H75.6325C76.9746 11.5374 77.5732 12.2313 77.5732 13.1506L77.5718 13.152ZM75.9653 20.2356H72.8865V16.8964H76.0163C77.188 16.8964 77.9315 17.5219 77.9315 18.6049C77.9315 19.6639 77.2135 20.2356 75.9653 20.2356ZM64.6192 12.7695C63.1751 12.7695 62.0558 13.4271 61.5847 14.2525L61.4397 12.9506H59.0709V26.1583H61.6021V21.2757C62.0893 22.1266 63.2435 22.689 64.6192 22.689C67.3383 22.689 69.075 20.7644 69.075 17.7379C69.075 14.5464 67.1933 12.7695 64.6192 12.7695ZM64.0635 20.4007C62.6879 20.4007 61.6531 19.4115 61.6531 17.7554C61.6531 16.0912 62.6865 15.0578 64.0635 15.0578C65.458 15.0752 66.4659 16.0912 66.4659 17.7379C66.4659 19.4115 65.458 20.4007 64.0635 20.4007ZM55.1989 11.4864H57.765V9.0062H55.1989V11.4864ZM55.2338 22.4903H57.765V12.952H55.2338V22.4903ZM50.1983 12.7695C48.8642 12.7695 47.9234 13.2634 47.4107 14.0176V8.71094H44.8808V22.4903H47.4107V17.4078C47.4107 16.012 48.1542 15.1088 49.4977 15.0913C50.7619 15.0578 51.5068 15.8644 51.5068 17.4762V22.489H54.0367V17.0951C54.0367 13.7049 51.9591 12.7681 50.1983 12.7681V12.7695Z" fill="#0A083B"/>
</svg>
