<svg xmlns="http://www.w3.org/2000/svg" fill="none" viewBox="0 0 68 32"><path fill="#000" d="M38.614 11.022c.36.002.709-.137.969-.388.26-.25.41-.591.419-.951a1.39 1.39 0 0 0-.412-.97 1.409 1.409 0 0 0-.977-.409 1.387 1.387 0 0 0-.957.416 1.346 1.346 0 0 0 .008 1.907c.252.25.593.393.95.395Zm9.432 1.288h3.348v.264a1.79 1.79 0 0 0-.532.182c-.306.143-.918.832-1.388 1.987-.795 2.007-1.631 4.378-2.51 7.095l-.326 1.03c-.143.466-.265.77-.327.953-.06.183-.143.466-.285.81a4.52 4.52 0 0 1-.311.75c-.164.304-.47.927-.715 1.115-.388.324-.96.689-1.673.628-1.389 0-2.43-1.03-2.45-2.249 0-.832.531-1.379 1.327-1.379.572 0 1.081.31 1.081.952 0 .467-.469.953-.469 1.197 0 .628.367.927 1.082.927.57 0 1.038-.365 1.387-1.094.47-.832.51-1.744.123-2.758l-2.938-7.722c-.675-1.783-1.185-2.37-1.817-2.432v-.264h4.632v.264c-.55.06-.836.385-.836.972 0 .426.163 1.075.469 1.906l.55 1.5c.634 1.621 1.142 3.04 1.41 3.932a108.122 108.122 0 0 1 1.673-4.885c.388-1.054.572-1.804.572-2.25 0-.79-.429-1.155-1.082-1.155l.005-.276Zm-32.227 9.872c-.591-.103-1.102-.629-1.102-1.744V7l-3.367.73v.284c.571-.06 1.14.445 1.14 1.52v10.904c0 1.054-.57 1.662-1.14 1.744a1.802 1.802 0 0 1-1.013-.13c-.452-.196-.83-.545-1.15-1.067l-1.556-2.472a2.86 2.86 0 0 0-1.39-1.146 2.884 2.884 0 0 0-1.805-.09l1.755-1.926c1.326-1.46 2.552-2.392 3.714-2.777v-.264h-3.86v.264c1 .385.938 1.236-.208 2.576l-2.47 2.857V7L0 7.73v.284c.572 0 1.141.567 1.141 1.56v10.864c0 1.197-.55 1.662-1.141 1.744v.264h4.473v-.264c-.734-.103-1.101-.669-1.101-1.744v-2.006l.958-1.054 2.322 3.79c.551.913 1.061 1.277 1.878 1.277h7.77v-.206s-.222-.015-.481-.057Zm9.27-1.282v-4.533c-.044-2.965-1.295-4.314-4.16-4.314a4.094 4.094 0 0 0-2.531.85c-.755.568-1.122 1.217-1.122 1.968 0 .73.407 1.276 1.08 1.276.715 0 1.226-.405 1.226-.972 0-.426-.287-1.014-.287-1.42 0-.73.552-1.358 1.51-1.358 1.226 0 2.103.913 2.103 2.94v1.215l-1.02.243c-.531.103-.98.206-1.327.31-.347.102-.796.242-1.327.444-1.061.406-1.632.792-2.122 1.521-.24.353-.369.77-.368 1.196 0 1.682 1.184 2.453 2.838 2.453 1.306 0 2.697-.69 3.326-1.987.009.41.107.812.29 1.179.691 1.39 2.983.568 2.983.568v-.263c-1.003.155-1.086-1.03-1.091-1.316Zm-2.178-1.403c0 .668-.245 1.215-.735 1.6-.469.386-.958.59-1.469.59-1 0-1.653-.65-1.653-1.846 0-.567.31-1.094.571-1.398a2.49 2.49 0 0 1 .715-.507c.347-.183.519-.276.755-.386l.934-.344c.469-.182.754-.283.877-.344l.005 2.635ZM68 12.31h-7.937V7H68l-1.666 2.655L68 12.31Zm-16.134 8.845a5.305 5.305 0 0 1-1.514-3.776 5.21 5.21 0 0 1 1.514-3.756c1-1.055 2.227-1.584 3.659-1.584 1.41 0 2.637.529 3.638 1.584a5.173 5.173 0 0 1 1.533 3.756 5.222 5.222 0 0 1-1.533 3.776c-1.001 1.03-2.228 1.563-3.638 1.563-1.432 0-2.658-.527-3.66-1.563Zm5.498-7.363c-.403-.784-.934-1.244-1.556-1.367-1.263-.253-2.379 1.036-2.795 3.085a9.66 9.66 0 0 0-.127 2.792c.09.932.352 1.84.77 2.678.404.785.933 1.244 1.555 1.367 1.263.253 2.411-1.09 2.83-3.16.348-1.73.172-3.837-.682-5.396h.005Z"/><path fill="#000" d="M39.796 20.437v-8.128h-7.184v.244c.96.142 1.416.861.98 2.027-2.245 6.06-2.102 5.789-2.245 6.275-.143-.467-.47-1.613-1-3.052-.53-1.438-.878-2.392-1.021-2.818-.55-1.682-.367-2.31.531-2.412v-.263h-4.654v.263c.694.143 1.306.933 1.817 2.351l.715 1.845c.785 1.993 1.707 4.74 2.015 5.676h1.547c.498-1.443 2.496-7.199 2.764-7.784.288-.667.615-1.172.98-1.521a1.82 1.82 0 0 1 1.384-.575s1.122 0 1.122 1.075v6.797c0 1.133-.551 1.662-1.123 1.743v.264h4.45v-.264c-.589-.081-1.078-.608-1.078-1.743Z"/></svg>