<svg xmlns="http://www.w3.org/2000/svg" fill="none" viewBox="0 0 140 32"><path fill="#082E42" fill-rule="evenodd" d="M31.098 10.708h-4.461V8.6h11.34v2.108h-4.462v12.363h-2.417V10.708ZM43.244 14.595c-1.529 0-2.871 1.365-2.871 4.59v3.887H38.12v-10.42h2.252v1.984c.558-1.24 1.92-2.15 3.18-2.15.393 0 .848.063 1.158.186l-.125 2.171c-.371-.165-.867-.248-1.342-.248ZM45.889 23.071h2.251v-10.42H45.89v10.42Zm-.33-13.603c0-.827.62-1.468 1.446-1.468.846 0 1.487.64 1.487 1.468 0 .806-.64 1.447-1.487 1.447a1.425 1.425 0 0 1-1.446-1.447ZM58.531 17.861c0-2.067-1.198-3.41-3.016-3.41-1.817 0-3.015 1.343-3.015 3.41 0 2.047 1.198 3.412 3.015 3.412 1.818 0 3.016-1.365 3.016-3.412Zm-8.138-5.21h2.251v1.324c.579-.848 1.797-1.489 3.243-1.489 3.078 0 4.895 2.233 4.895 5.375 0 3.143-1.9 5.376-5.019 5.376-1.26 0-2.479-.538-3.119-1.365v4.962h-2.251V12.652ZM62.455 23.07h2.251V8.435h-2.25V23.07ZM74.208 16.685c-.145-1.406-1.074-2.419-2.727-2.419-1.425 0-2.437.868-2.767 2.419h5.494Zm2.355 1.716H68.61c.207 1.799 1.364 2.915 3.016 2.915 1.363 0 2.334-.64 2.603-1.778l2.127.537c-.558 2.006-2.334 3.163-4.771 3.163-3.305 0-5.185-2.563-5.185-5.375 0-2.811 1.777-5.375 5.081-5.375 3.347 0 5.123 2.44 5.123 4.983 0 .31-.02.744-.041.93ZM81.83 8.6h2.5l3.056 11.618L90.506 8.6h2.664l3.099 11.618L99.346 8.6h2.499L97.59 23.07H95.03l-3.181-11.04-3.202 11.04h-2.52L81.83 8.6ZM103.086 8.434h2.251v6.016c.723-1.303 1.941-1.964 3.408-1.964 2.355 0 3.905 1.467 3.905 3.742v6.843h-2.252v-6.326c0-1.385-.867-2.233-2.272-2.233-1.735 0-2.789 1.51-2.789 4.052v4.507h-2.251V8.434ZM121.097 18.587v-.434l-1.982.227c-1.694.186-2.562.806-2.562 1.716 0 .827.682 1.406 1.736 1.406 1.756 0 2.788-1.22 2.808-2.915Zm2.211-2.006v6.492h-2.211v-1.592c-.599 1.054-1.879 1.757-3.263 1.757-2.065 0-3.49-1.302-3.49-3.08 0-2.047 1.59-3.142 4.791-3.473l1.962-.207v-.145c0-1.281-.887-2.067-2.251-2.067-1.26 0-2.147.744-2.293 1.985l-2.024-.372c.331-2.047 2.107-3.39 4.317-3.39 2.644 0 4.462 1.487 4.462 4.092ZM125.539 23.07h2.251V8.435h-2.251V23.07ZM137.292 16.685c-.145-1.406-1.075-2.419-2.727-2.419-1.425 0-2.436.868-2.767 2.419h5.494Zm2.355 1.716h-7.952c.206 1.799 1.363 2.915 3.015 2.915 1.364 0 2.334-.64 2.602-1.778l2.128.537c-.558 2.006-2.334 3.163-4.771 3.163-3.305 0-5.185-2.563-5.185-5.375 0-2.811 1.777-5.375 5.081-5.375 3.346 0 5.123 2.44 5.123 4.983 0 .31-.021.744-.041.93Z" clip-rule="evenodd"/><path fill="#1877F2" fill-rule="evenodd" d="M16.636 8.436c-2.073 0-3.695.598-4.978 1.548 1.263 1.082 2.21 2.256 2.857 4.714 1.786-.332 5.404-1.22 6.952-6.262h-4.831ZM13.155 14.345c-1.17-3.32-4.068-5.727-7.925-5.895C5.165 8.44 0 8.436 0 8.436c1.733 5.837 7.646 6.275 7.646 6.275v9.329h7.045s-.375-6.402-1.536-9.695Z" clip-rule="evenodd"/></svg>