<svg xmlns="http://www.w3.org/2000/svg" fill="none" viewBox="0 0 85 32"><path fill="#0F6FDE" d="M62.464 12.741h-1.203a.285.285 0 0 0-.282.208c-.06.178-.104.297-.118.37-.476 1.454-1.203 3.649-2.153 6.57a6.106 6.106 0 0 1-.194.474.149.149 0 0 1-.193.075.18.18 0 0 1-.074-.075 6.343 6.343 0 0 1-.193-.474 824.49 824.49 0 0 1-2.183-6.777.6.6 0 0 1-.044-.148.297.297 0 0 0-.282-.208h-1.188a.297.297 0 0 0-.282.386c.01.041.025.08.044.118a7421.07 7421.07 0 0 0 3.341 9.446.047.047 0 0 0 .015.03.245.245 0 0 1 0 .178c0 .015 0 .015-.015.03-.015.059-.044.133-.06.192-.21.582-.76.973-1.38.979h-1.247a.297.297 0 0 0-.297.297v.993c0 .164.133.297.297.297h1.247a3.053 3.053 0 0 0 2.791-1.824.552.552 0 0 1 .06-.134c.015-.044.89-2.52 3.816-10.691a.214.214 0 0 0-.134-.282c-.044-.015-.06-.03-.089-.03ZM46.636 21.18c.282.093.579.138.876.133a3.451 3.451 0 0 0 2.36-.978 2.39 2.39 0 0 0 .699-1.75v-.771a.133.133 0 0 0-.164-.134c-.148.015-.222.015-.222.015l-.936.119-1.856.282c-.995.163-1.603.563-1.796 1.186a1.566 1.566 0 0 0-.075.46 1.54 1.54 0 0 0 1.114 1.438Zm5.598.652v.593a.297.297 0 0 1-.297.297h-.965a.297.297 0 0 1-.297-.297l-.015-.978a.15.15 0 0 0-.015-.045.071.071 0 0 0-.104 0c-.058.05-.113.105-.163.163-.772.772-1.827 1.157-3.193 1.157-.98 0-1.781-.267-2.405-.786-.623-.519-.92-1.245-.92-2.165-.012-.44.08-.876.267-1.275.158-.336.404-.623.712-.83.265-.189.555-.339.862-.445.275-.099.558-.173.846-.223 1.44-.207 2.212-.311 2.36-.34.12-.016.595-.075 1.411-.194a.669.669 0 0 1 .164-.014.157.157 0 0 0 .133-.149v-.415c0-.623-.163-1.112-.49-1.453-.326-.341-.935-.52-1.811-.52a3.893 3.893 0 0 0-1.188.164c-.293.09-.555.259-.757.49a2.276 2.276 0 0 0-.327.563c-.015.044-.03.089-.044.148a.055.055 0 0 1-.015.045.297.297 0 0 1-.297.237h-1.114a.309.309 0 0 1-.282-.311v-.06c.015-.119.03-.208.045-.282.074-.286.189-.561.341-.815.178-.284.404-.535.668-.742a3.841 3.841 0 0 1 1.158-.534 6.805 6.805 0 0 1 1.738-.207c2.687 0 3.994 1.068 3.994 3.233v5.99Zm22.02-8.867v9.43c0 .165.132.298.297.298h1.202a.297.297 0 0 0 .297-.297v-9.431a.297.297 0 0 0-.297-.297h-1.202a.297.297 0 0 0-.298.297Zm0-2.996v1.202c0 .163.132.296.297.296h1.202a.297.297 0 0 0 .297-.296V9.968a.297.297 0 0 0-.297-.296h-1.202a.297.297 0 0 0-.298.296Zm7.408 4.271h2.54a.297.297 0 0 0 .297-.296v-.994a.297.297 0 0 0-.297-.297h-2.54a.14.14 0 0 1-.148-.148V9.968a.297.297 0 0 0-.297-.296h-1.203a.297.297 0 0 0-.297.296v2.551a.139.139 0 0 1-.148.148H78.47a.297.297 0 0 0-.297.297v.993c0 .164.133.297.297.297h1.099a.14.14 0 0 1 .148.148v5.353a3.042 3.042 0 0 0 3.03 2.937h1.35a.297.297 0 0 0 .297-.297V21.4a.297.297 0 0 0-.296-.296h-1.352a1.247 1.247 0 0 1-1.247-1.246v-5.472a.175.175 0 0 1 .163-.148Zm-39.169-.519a4.048 4.048 0 0 0-3.964-4.048h-5.716a.297.297 0 0 0-.297.296v12.427c0 .164.133.297.297.297h1.202a.297.297 0 0 0 .297-.297v-4.463a.14.14 0 0 1 .149-.149h4.068a4.07 4.07 0 0 0 3.964-4.063Zm-1.573 0a2.466 2.466 0 0 1-2.465 2.462h-3.98a.14.14 0 0 1-.148-.149v-4.626a.139.139 0 0 1 .148-.148h3.98a2.466 2.466 0 0 1 2.465 2.461Zm25.479 4.019h4.514a.297.297 0 0 0 .297-.297v-.993a.297.297 0 0 0-.297-.297h-4.514a.14.14 0 0 1-.149-.148v-4.597a.14.14 0 0 1 .149-.148h5.538a.297.297 0 0 0 .297-.297v-.994a.296.296 0 0 0-.297-.296h-7.186a.297.297 0 0 0-.297.296v12.427c0 .164.133.297.297.297h1.202a.297.297 0 0 0 .297-.297v-4.508c0-.082.067-.148.149-.148Z"/><path fill="#0F6FDE" fill-rule="evenodd" d="M13.017 29C5.827 29 0 23.18 0 16S5.828 3 13.017 3c7.189 0 13.017 5.82 13.017 13s-5.828 13-13.017 13Zm-.178-8.376v-2.585a.138.138 0 0 1 .148-.148h3.033a3.98 3.98 0 0 0 3.821-3.981 3.98 3.98 0 0 0-3.836-3.967H8.579a.296.296 0 0 0-.295.296v10.43a2.276 2.276 0 0 0 2.277 2.274 2.277 2.277 0 0 0 2.278-2.275c.02-.03.02-.044 0-.044Zm.148-6.13h2.87a.591.591 0 1 0 0-1.183h-3.89a.296.296 0 0 0-.296.296v7.046a1.109 1.109 0 0 1-2.219 0v-9.395a.139.139 0 0 1 .148-.148h6.257a2.812 2.812 0 0 1 2.46 1.359c.518.86.538 1.929.052 2.807a2.812 2.812 0 0 1-2.409 1.448h-2.973a.14.14 0 0 1-.148-.148v-1.92c0-.085.064-.155.148-.163Z" clip-rule="evenodd"/></svg>