<svg width="88" height="48" viewBox="0 0 88 48" fill="none" xmlns="http://www.w3.org/2000/svg">
<path d="M0 48V0H29.5496V8.20053H8.42475V20.0675H19.2571V28.2362H8.42475V48H0Z" fill="black"/>
<path fill-rule="evenodd" clip-rule="evenodd" d="M17.63 25.7791C16.8843 27.7564 16.5115 29.834 16.5115 32.012C16.5115 34.9725 17.2256 37.6792 18.654 40.1322C20.0824 42.5855 22.0464 44.5096 24.546 45.9055C27.0456 47.301 29.8078 47.9989 32.8328 47.9989C35.4585 47.9989 37.9159 47.4384 40.2056 46.3178C42.495 45.1968 44.3333 43.6533 45.7196 41.6866L40.3002 37.341C39.439 38.4828 38.3362 39.3392 36.9917 39.9101C35.6475 40.4813 34.24 40.7666 32.7696 40.7666C30.5432 40.7666 28.6789 40.1852 27.1769 39.0221C25.675 37.8591 24.693 36.3048 24.2309 34.3592H47.6101C47.7361 33.577 47.7991 32.7311 47.7991 31.8216C47.7991 28.9247 47.148 26.2549 45.8457 23.8125C44.5433 21.37 42.7053 19.4087 40.3316 17.9284C37.9581 16.4482 35.3007 15.708 32.3602 15.708C29.9864 15.708 27.7966 16.1468 25.7906 17.0244C23.7845 17.902 22.1094 19.0861 20.7651 20.577C19.4208 22.0679 18.3758 23.802 17.63 25.7791ZM39.7962 28.4917H24.5149C25.103 26.8212 26.0903 25.4837 27.4766 24.4791C28.8628 23.4748 30.4699 22.9725 32.2974 22.9725C34.2089 22.9725 35.8787 23.5012 37.3071 24.5584C38.7355 25.6159 39.5652 26.9269 39.7962 28.4917Z" fill="black"/>
<path fill-rule="evenodd" clip-rule="evenodd" d="M43.7045 25.7781C42.9586 27.7554 42.5859 29.833 42.5859 32.0111C42.5859 34.9715 43.3002 37.6783 44.7283 40.1312C46.1567 42.5845 48.1207 44.5087 50.6203 45.9045C53.1202 47.3 55.8825 47.9979 58.9071 47.9979C61.5328 47.9979 63.9906 47.4375 66.2802 46.3168C68.5698 45.1959 70.4078 43.6523 71.7941 41.6856L66.3746 37.34C65.5134 38.4818 64.4106 39.3383 63.0663 39.9091C61.7218 40.4803 60.3146 40.7656 58.8441 40.7656C56.6175 40.7656 54.7534 40.1842 53.2516 39.0211C51.7496 37.8581 50.7676 36.3039 50.3055 34.3583H73.6845C73.8106 33.576 73.8736 32.7301 73.8736 31.8207C73.8736 28.9237 73.2225 26.2539 71.9201 23.8115C70.6178 21.369 68.7798 19.4077 66.4062 17.9274C64.0324 16.4472 61.3753 15.707 58.4345 15.707C56.061 15.707 53.8711 16.1458 51.8649 17.0234C49.8591 17.901 48.1837 19.0851 46.8396 20.576C45.4951 22.0669 44.4501 23.801 43.7045 25.7781ZM65.871 28.4907H50.5894C51.1776 26.8202 52.1647 25.4827 53.5512 24.4781C54.9375 23.4738 56.5444 22.9715 58.372 22.9715C60.2834 22.9715 61.9535 23.5002 63.3819 24.5575C64.8101 25.6149 65.6399 26.9259 65.871 28.4907Z" fill="black"/>
<path d="M71.2698 36.2848C71.2698 40.0336 72.2103 42.9306 74.1764 44.9754C76.1426 47.0202 78.8353 48 82.2976 48C83.5798 48 85.1185 47.787 86.9137 47.361V40.0336C86.4008 40.1189 85.6743 40.1189 84.8193 40.1189C82.8105 40.1189 81.4426 39.6504 80.7161 38.628C79.9894 37.648 79.6475 35.9866 79.6475 33.6862V0H71.2698V36.2848Z" fill="black"/>
</svg>
