<svg fill="none" xmlns="http://www.w3.org/2000/svg" viewBox="0 0 668 60"><path d="M0 42V18h14.775v4.1H4.212v5.934H9.63v4.084H4.212V42H0Z" fill="#DEEEFF"/><path fill-rule="evenodd" clip-rule="evenodd" d="M8.814 30.89a8.757 8.757 0 0 0-.559 3.116c0 1.48.357 2.834 1.071 4.06a7.677 7.677 0 0 0 2.946 2.887c1.25.698 2.631 1.047 4.144 1.047 1.313 0 2.541-.28 3.686-.841 1.145-.56 2.064-1.332 2.757-2.316l-2.71-2.172c-.43.57-.982.999-1.654 1.284a5.343 5.343 0 0 1-2.11.428c-1.114 0-2.046-.29-2.797-.872-.751-.581-1.242-1.358-1.473-2.331h11.69a7.99 7.99 0 0 0 .094-1.27c0-1.447-.326-2.782-.977-4.004a7.663 7.663 0 0 0-2.757-2.942c-1.187-.74-2.515-1.11-3.985-1.11-1.187 0-2.282.22-3.285.658-1.003.44-1.84 1.031-2.513 1.777a8.122 8.122 0 0 0-1.568 2.6Zm11.084 1.356h-7.641a4.092 4.092 0 0 1 1.48-2.006c.694-.502 1.497-.754 2.411-.754.956 0 1.79.265 2.505.793.714.53 1.129 1.185 1.245 1.967Z" fill="#DEEEFF"/><path fill-rule="evenodd" clip-rule="evenodd" d="M21.851 30.89a8.756 8.756 0 0 0-.56 3.116c0 1.48.358 2.834 1.072 4.06a7.677 7.677 0 0 0 2.946 2.887C26.559 41.65 27.94 42 29.452 42c1.313 0 2.542-.28 3.687-.841 1.145-.56 2.064-1.332 2.757-2.316l-2.71-2.172c-.43.57-.982.999-1.654 1.284a5.344 5.344 0 0 1-2.111.428c-1.113 0-2.046-.29-2.796-.872-.751-.581-1.242-1.358-1.473-2.331H36.84c.063-.391.095-.814.095-1.27 0-1.447-.326-2.782-.977-4.004a7.663 7.663 0 0 0-2.757-2.942c-1.187-.74-2.516-1.11-3.986-1.11-1.187 0-2.282.22-3.285.658-1.003.44-1.84 1.031-2.512 1.777a8.118 8.118 0 0 0-1.568 2.6Zm11.083 1.356h-7.64a4.091 4.091 0 0 1 1.48-2.006c.694-.502 1.497-.754 2.41-.754.956 0 1.791.265 2.506.793.714.53 1.129 1.185 1.244 1.967Z" fill="#DEEEFF"/><path d="M35.636 36.142c0 1.875.47 3.323 1.453 4.346.983 1.022 2.33 1.512 4.06 1.512.642 0 1.41-.106 2.309-.32v-3.663c-.257.042-.62.042-1.048.042-1.004 0-1.688-.234-2.051-.745-.364-.49-.535-1.32-.535-2.47V18h-4.188v18.142Z" fill="#DEEEFF"/><path fill-rule="evenodd" clip-rule="evenodd" d="M138.822 1.746c-.111 2.486-.093 4.674-.064 4.983.017.28.158.67.573.716.345.029.626-.123.719-.384.088-.134.164-4.727.158-5.303.018-.384.228-.565.643-.547.292.005.403.01.501.016.11.005.204.01.523.013.573.011.783-.239.812-.606.024-.273-.356-.494-.812-.564-.347-.053-.698-.053-2.106-.053h-.444L136.676 0c-.69 0-1.052.198-.982.698.047.35.462.501 1.432.548.154.006.26 0 .427-.01.133-.008.304-.018.567-.025.316 0 .509.075.626.256a.467.467 0 0 1 .076.28Zm4.789-1.135c-.193.693-.216 5.413-.052 6.24.058.297.327.454.608.46.327 0 .561-.117.66-.367.06-.153.036-.548.011-.97a16.406 16.406 0 0 1-.028-.607c-.023-.245.117-.379.392-.379.208 0 .407-.002.584-.004.306-.004.551-.007.685.004.373 0 .393.37.419.86l.013.217c.07.949.228 1.292.702 1.275.269-.012.479-.07.585-.303.051-.079.036-.548.003-1.576l-.003-.094a62.422 62.422 0 0 1 .004-1.88c.009-.798.018-1.618-.004-2.393-.03-.483-.375-.663-.854-.605-.322.035-.468.407-.491.873a126.52 126.52 0 0 1-.041 1.554c-.005.799-.03.799-.693.793l-.202-.001h-.602c-.328-.018-.497-.198-.503-.495.018-.332.053-2.218.053-2.398.017-.332-.211-.681-.842-.594-.199.023-.351.21-.404.39Zm6.157 2.45c-.046.961-.052 2.934.065 3.394.093.367.263.611.742.751.351.11 2.065.146 2.988.093.468-.035.807-.244.813-.623.006-.448-.497-.564-1.029-.564h-1.304c-.415 0-.924-.035-.935-.448-.036-.326-.041-1.205.035-1.322.114-.148.665-.13 1.147-.114.257.008.494.016.636-.002.234-.012.491-.18.503-.43.029-.565-.678-.659-1.772-.659-.298-.011-.444-.262-.456-.523 0-.083-.011-.29-.021-.475-.006-.117-.012-.225-.014-.288-.041-.396.158-.565.591-.547.479 0 1.923-.047 2.064-.082.269-.064.427-.29.427-.564 0-.361-.445-.577-.854-.577l-1.06.007c-.699.005-1.529.011-1.817.011-.374 0-.591.163-.661.495-.041.26-.047.57-.062 1.314-.006.303-.014.68-.026 1.154Zm-9.835 38.994c-1.187-.11-2.871-.326-4.514-1.217-1.614-.879-3.064-2.136-4.216-3.591l-.023-.028c-.105-.13-.489-.604-.468-.63l.244-.297c1.12-1.356 2.245-2.721 3.188-4.202.661-1.042 1.088-2.218 1.024-3.464-.024-.471-.135-.995-.486-1.333-.462-.448-1.093-.308-1.532.1-.234.215-.415.482-.59.744-.936 1.368-1.924 2.695-3.059 3.906-.637.683-1.311 1.327-1.984 1.97l-.7.673c-.046.046-.134.005-.128-.064 0 0 .707-6.403.491-7.655-.158-.913-1.935-2.037-3.152-1.682-.918.268-1.315 3.097-1.532 7.189-.023.402-.432 10.588-.216 11.117.474 1.17 2.076 1.392 2.976 1.252 1.246-.186 1.655-.338 1.725-1.677.029-.513.044-.996.057-1.431.016-.537.03-1 .066-1.357a.502.502 0 0 1 .164-.326l.247-.233c.24-.225.534-.502.706-.669a.073.073 0 0 1 .111.012c1.205 1.53 2.579 3.131 4.111 4.243 1.538 1.124 3.543 2.422 5.537 1.776a3.175 3.175 0 0 0 1.754-1.392c.135-.267.837-1.67.199-1.734Zm35.482-17.166c.269-1.618 1.234-12.95 1.193-15.029-.029-1.414-1.269-1.903-2.602-1.985-1.538-.093-1.836 1.258-1.813 1.834.035.896.141 4.319.141 5.454.001.419.029.871.054 1.278.061.996.106 1.723-.288 1.033 0-.006-1.971-4.779-3.585-7.352-.842-1.338-2.842-1.082-3.771-.355-.774.605-.738 1.73-.707 2.704.01.292.018.57.005.818-.059 1.187.246 10.6.351 11.082.222 1.013 1.655 1.706 2.842 1.467.99-.197.825-2.886.741-4.25a22.24 22.24 0 0 1-.028-.517 48.64 48.64 0 0 0-.05-1.038c-.02-.38-.041-.758-.049-1.04-.024-.856.269-.826.66-.064.626 1.234 2.76 5.442 3.099 6.1.766 1.45 3.55 1.386 3.807-.14Zm-53.714-.273c.485-1.06 3.988-9.208 4.842-12.864.538-2.3-.971-4.115-2.854-3.917-.62.064-1.187.366-1.631.803-1.7 1.676-2.208 4.961-2.316 5.656-.014.091-.021.138-.023.13a48.828 48.828 0 0 1-.161-.943c-.434-2.624-.91-5.504-3.792-5.245-2.181.198-2.59 2.27-2.152 3.673.207.657.444 1.446.705 2.312.754 2.508 1.702 5.66 2.663 8.096.854 2.165 1.702 3.737 2.462 3.865 1.128.192 1.719-.39 2.257-1.566Zm38.575-.617c.24 1.17.895 1.577 1.83 1.304.527-.152.883-.74.837-1.287l-.016-.19c-.073-.885-.308-3.745-.657-5.613l-.039-.21c-.458-2.474-1.556-8.41-3.691-8.98-2.453-.656-3.673 3.836-4.182 5.71l-.069.255c-.433 1.566-.761 3.167-1.035 4.768-.047.266-.097.532-.147.797-.12.639-.239 1.277-.31 1.927-.017.162-.044.35-.071.552-.074.527-.159 1.14-.133 1.578.076 1.333 1.579 1.612 2.356 1.182.491-.274.702-.984.696-1.514-.004-.64.11-1.438.213-2.162.04-.283.079-.554.109-.8l1.877-.064c.325-.011.617-.023.885-.034h.001c.475-.02.877-.036 1.266-.036.035.315.078.783.122 1.257.057.619.115 1.247.158 1.56Zm-2.714-5.578c-.436.01-.875.02-1.28.025.55-2.486 1.445-5.239 1.883-5.256.439-.018 1.585 5.204 1.427 5.21-.54-.015-1.28.003-2.03.02Zm-2.589 11.259c-.082-.652-.205-1.537-.755-1.968-1.029-.797-2.777-.506-4.344 1.054-.889.885-2.257 2.806-2.877 4.197 0 0 .392-2.858-.252-4.022-.234-.425-.924-.524-1.397-.536-2.614-.064-2.731.937-2.684 1.31.047.337.24 6.257.012 8.417l-.055.514c-.069.651-.156 1.473-.214 1.86l-.026.168c-.174 1.142-.229 1.505.195 1.928.474.471 1.971 1.065 2.86.879.426-.087.584-.309.643-.477.178-.512.617-3.77.887-5.775.111-.826.194-1.439.218-1.56.053-.14 1.105-2.2 2.468-3.917 1.292-1.624 1.257 2.736 1.245 3.207-.041 1.799-.123 7.45.082 8.528.269 1.362 1.514 1.548 2.432 1.478 1.234-.099 2.585-.454 2.053-1.63-.586-1.297-.515-5.81-.459-9.363.031-1.948.057-3.608-.032-4.292Zm8.098 16.967-35.119 2.445L128.7 60l35.12-2.445-.749-10.908Zm-28.488 11.275c-1.059.076-1.404-.343-1.468-1.246-.045-.576.209-2.197.403-3.435.083-.527.155-.984.188-1.262.123-.82.631-1.117 1.555-1.187 1.222-.093 2.38.518 2.45 1.501.024.326-.117.67-.368 1.037-.369.355-.252.61.111.785.427.18.661.664.702 1.17.093 1.275-2.018 2.538-3.573 2.637Zm5.742-.838c-.877.064-1.52-.611-1.591-1.52-.157-2.083 1.363-5.052 3.111-5.186.825-.064 1.111 1.071 1.176 1.927.169 2.055-.994 4.65-2.696 4.779Zm7.029-3.05.573 1.03c.321.553.157 1.03-.334 1.1-.43.049-.582-.21-.97-.879l-.088-.151c-.246-.361-.392-.384-.667-.064-.304.35-.557.653-.773.91-.771.92-1.055 1.259-1.425 1.168-.386-.07-.579-.437-.427-.81.1-.205.136-.246 1.426-1.749l.731-.852c.182-.227.182-.425.03-.693a49.148 49.148 0 0 0-.959-1.478c-.298-.425-.246-.873.087-1.048.542-.277.83.177 1.338.975.09.143.187.295.294.457.222.314.403.314.649.035.042-.048.142-.172.27-.33l.001-.001c.338-.418.869-1.074 1.039-1.217.269-.204.614-.21.813-.03.321.274.245.594-.211 1.188-.03.033-.137.166-.282.345-.308.38-.787.972-1.057 1.273-.216.274-.228.535-.058.82Zm6.97-3.72c-.147.047-1.544.198-2.006.233-.415.012-.649.198-.719.6-.028.134-.138.484-.202.688l-.001.002-.027.085-.01.034c-.064.267.07.46.351.454l.108.003c.866.026 1.395.042 1.272.719a.509.509 0 0 1-.45.448c-.141.028-.37.037-.62.046-.479.018-1.034.04-1.187.204-.106.122-.339 1.013-.398 1.35-.099.42.38.42.778.39l1.251-.093c.509-.04.807.158.836.5.012.362-.269.63-.725.7-.9.116-2.672.197-2.976.104-.357-.122-.544-.372-.567-.733-.035-.443.532-2.45.836-3.429l.213-.726c.332-1.133.472-1.61.6-1.928.158-.343.409-.524.772-.553.166-.012.521-.042.924-.077h.002c.757-.065 1.681-.144 1.845-.144.281-.006.532.239.556.553 0 .256-.182.483-.456.57Zm4.011.064a2.77 2.77 0 0 0-1.316.396c-.409.262-.409.495-.011.728l.301.185.001.001c.915.56 1.471.9 1.545 1.92.082 1.118-.953 2.12-2.175 2.207-.807.058-1.76-.43-1.801-1.024-.023-.297.176-.577.468-.594.207-.04.4.053.611.155.225.108.47.227.775.206.479-.035.906-.53.877-.891-.047-.39-.532-.704-1.105-1.024-.661-.379-1.164-.74-1.211-1.316-.082-1.117 1.468-2.107 2.719-2.2.655-.082 1.287.151 1.322.611.054.567-.395.598-.884.632a22.6 22.6 0 0 0-.116.008Zm11.081-21.915h-1.217a.08.08 0 0 0-.081.082v.174a.08.08 0 0 0 .081.082h.334a.08.08 0 0 1 .082.081v1.234a.08.08 0 0 0 .081.082h.223a.08.08 0 0 0 .082-.082v-1.234a.08.08 0 0 1 .081-.081h.334a.08.08 0 0 0 .082-.082v-.174a.08.08 0 0 0-.082-.082Zm2.339 0h-.439a.084.084 0 0 0-.076.053l-.386 1.077h-.006l-.38-1.077c-.011-.035-.041-.053-.076-.053h-.438a.08.08 0 0 0-.082.082v1.571a.08.08 0 0 0 .082.082h.222a.08.08 0 0 0 .082-.082v-1.245h.006l.421 1.274a.08.08 0 0 0 .076.059h.175c.035 0 .064-.024.076-.059l.439-1.274h.005v1.251a.08.08 0 0 0 .082.082h.223a.08.08 0 0 0 .081-.082v-1.571c-.005-.053-.046-.088-.087-.088Zm-24.846-3.987c.123-.122.263-.215.386-.116.053.04.064.116.07.186.035.57.088 1.298.819 1.316.222.005.277.007.333.005l.062-.004c.049-.003.123-.007.271-.013h.005c.628-.03 1.919-.09 1.925-.96.006-1.258-.064-4.343-.076-4.75l-.001-.018v-.02l-.003-.051c-.012-.234-.034-.64.15-.726.156-.074.33-.075.502-.075.247-.001.489-.002.662-.222.321-.42.485-1.455.035-1.845-.183-.157-.418-.154-.646-.152h-.079l-.472.002c-1.1.005-2.2.01-3.3.045l-.219.008a14.25 14.25 0 0 0-.646.033c-.045.003-.093.003-.142.004-.248.005-.522.01-.601.287a2.959 2.959 0 0 0-.064 1.339c.035.21.117.442.31.558.146.084.321.081.493.079.104-.002.207-.003.302.015.445.075.281.465.105.744-.491.798-1.59.833-2.415.652-.999-.215-1.672-.896-2.029-1.845-.514-1.38-.339-2.94.41-4.197.666-1.117 1.853-2.025 3.146-1.24.511.313.796.915 1.067 1.489.057.121.114.241.172.357.123.244.374.448.643.442 0 0 3.059.268 3.076-.855l.005-.294v-.005c.021-1.146.073-3.924-.25-4.847-.094-.273-.568-.326-.837-.35a34.125 34.125 0 0 1-.144-.01c-.609-.049-1.408-.112-1.803.232-.304.268-.234.885-.234.885.059.39-.28.495-.526.198-1.649-2.008-5.14-1.677-6.871.046-.567.565-1.023 1.24-1.391 1.944-.901 1.712-1.31 3.673-1.217 5.6.112 2.252.79 4.738 2.567 6.269.679.582 1.538.943 2.415 1.112 1.351.256 2.848.116 3.807-.978l.009-.012c.053-.07.131-.174.219-.262Zm-20.84-4.633.01.145c.007.097.013.194.025.291.164 1.694.719 3.51 2.093 4.622 1.264 1.019 2.942 1.13 4.444.617 1.603-.547 2.872-1.647 3.766-3.056a8.18 8.18 0 0 0 .731-1.426c.094-.233.17-.483.17-.733 0-.524-.462-.897-.977-.716-.32.11-.564.374-.795.624l-.14.15c-.328.343-.661.68-1.035.972-.486.378-1.047.681-1.655.75-.714.082-1.456-.174-1.801-.82-.181-.343-.205-.64-.222-.949a.37.37 0 0 1 .245-.366c.231-.085.495-.174.764-.265h.001c.452-.154.917-.311 1.258-.457 1.72-.734 3.567-2.002 4.023-4.802.24-1.479-.081-3.405-1.368-4.348-1.21-.89-2.953-.617-4.251-.117-1.421.547-2.631 1.648-3.491 2.887-1.391 2.003-1.935 4.575-1.795 6.997Zm4.082-3.487a1.722 1.722 0 0 1 .052-.465c.24-1.037.813-1.956 1.591-2.678.543-.5 1.497-1.222 2.28-.879.719.309.497 1.444.263 1.997a4.386 4.386 0 0 1-1.672 1.938c-.386.244-.79.483-1.234.617-.292.087-.69.18-.982.023-.217-.11-.287-.326-.298-.553Zm33.645 11.682c-1.497-.465-5.87-1.088-6.742-.465-.462.326-.66.914-.66 1.612.005 1.1.064 11.845.374 13.87.228 1.474 2.514 1.508 4.099 1.054 1.976-.564 7.531-3.626 7.49-10.279-.011-2.893-1.731-4.913-4.561-5.792Zm.345 8.05c-.427 1.089-1.491 2.206-2.847 2.69-.252.087-.527-.1-.532-.344-.041-1.053-.117-5.372.011-6.304.024-.168.187-.279.374-.262.609.059 1.334.297 1.819.53 1.52.716 1.62 2.561 1.175 3.69Zm-24.208-5.337c-.549-.291-1.245-.39-2.339-.35-.468.018-.625.536-.596 1.194.093 2.066.286 6.356.321 7.445.024.692.17.82.626 1.012.743.303 1.602.478 2.292.402.322-.035.48-.309.45-.885 0 0-.21-5.896-.204-6.734 0-1.141-.047-1.816-.55-2.084Zm1.585 21.193c-.743.052-1.661 2.37-1.591 3.324.03.36.158.564.404.547.865 0 1.579-2.363 1.503-3.411-.018-.239-.082-.477-.316-.46Zm-6.315 1.409c.672-.35 1.514-.838 1.04-1.153-.298-.21-.649-.25-1.052-.134-.246.07-.409.524-.374.967.006.279.181.43.386.32Zm-.293 1.635c-.491.07-.573.804-.538 1.229.024.343.152.5.497.407.784-.204 2.018-.774 1.977-1.269-.029-.436-1.281-.495-1.936-.367Zm5.473-27.518c.003 1.015-.802 1.84-1.796 1.843-.995.003-1.803-.819-1.806-1.835-.002-1.016.802-1.841 1.797-1.843.995-.003 1.803.819 1.805 1.835Z" fill="#DEEEFF"/><path d="M246.609 29.994V20l4.303.044c3.974.044 4.358.066 5.146.285 2.89.801 4.478 2.83 4.642 5.935.186 3.654-1.533 6.144-4.839 7-.46.12-1.478.186-3.394.241l-2.737.066-.033 3.215-.022 3.203h-3.066v-9.994Zm8.113.736c1.412-.308 2.409-1.032 2.934-2.14.252-.537.285-.757.285-1.766 0-1.404-.197-2.008-.92-2.776-1.051-1.13-2.014-1.393-5.091-1.393h-2.255v8.228h2.168c1.423 0 2.397-.055 2.879-.153Zm8.77 9.171c.35-.91 9.47-19.736 9.525-19.682.065.066 7.521 15.568 8.966 18.651l.526 1.13-1.434-.033-1.405.033-.04-.066-1.041-2.216-1.051-2.227h-9.109l-1.04 2.227-1.04 2.216-.039.05h-2.854l.036-.083Zm12.306-8.052c-1.27-2.71-2.716-5.75-2.781-5.815-.055-.055-2.989 5.957-3.285 6.725-.022.055 1.424.099 3.252.099h3.284l-.47-1.01Zm36.611-1.843v-9.984h2.737v17.334h8.54v2.633h-11.277v-9.983Zm17.517 0v-9.984h2.847v19.967h-2.847v-9.983Zm15.328 1.316v-8.667h-6.131v-2.633h14.89v2.633h-6.022v17.334h-2.737v-8.667Zm9.481 8.327c.099-.197 2.223-4.63 4.719-9.852 2.485-5.222 4.565-9.534 4.62-9.588.055-.055 9.153 18.727 9.503 19.637l.059.143h-2.84l-1.051-2.216-1.062-2.227h-9.131l-1.051 2.216-1.04 2.227h-2.912l.186-.34Zm12.613-6.89c-.23-.647-3.219-6.79-3.274-6.725-.044.044-.788 1.59-1.664 3.456l-1.588 3.368h3.285c1.993 0 3.263-.044 3.241-.099Zm-73.661 6.956a9.783 9.783 0 0 1-3.919-1.756c-.372-.285-.679-.537-.679-.56 0-.021 3.033-.043 6.744-.043h6.744l-.46.384c-1.105.922-2.638 1.646-4.193 1.964-1.018.208-3.229.22-4.237.01Zm-7.007-5.837c-1.018-2.732-.941-5.825.219-8.327 1.632-3.532 4.861-5.562 8.868-5.551 2.113 0 3.701.428 5.453 1.47.919.538 2.397 2.074 3 3.105.591 1.01 1.116 2.49 1.302 3.675.263 1.744-.032 4.334-.656 5.76l-.219.494H286.91l-.23-.626Zm16.281-2.304c.164-.581.087-3.006-.121-3.763-.701-2.589-2.737-4.575-5.266-5.101-3.449-.724-6.81.757-8.222 3.62-.646 1.317-.843 2.282-.789 3.95.022.724.077 1.382.121 1.459.012.016.054.132.054.132h14.146l.077-.297Z" fill="#DEEEFF"/><path fill-rule="evenodd" clip-rule="evenodd" d="M477.338 20c-2.217.362-4.253 1.666-5.439 3.584-2.318 3.676-2.385 8.665-.231 12.43 1.161 2.082 3.285 3.58 5.674 3.84.004-1.01 0-2.019-.008-3.033-2.747-1.156-3.853-4.328-3.769-7.113.008-2.666 1.173-5.577 3.777-6.671.004-1.01.004-2.023-.004-3.037Zm8.909 6.39c-.828-3.143-3.352-6.041-6.73-6.356a250.553 250.553 0 0 0-.004 3.003c3.415 1.569 4.24 5.864 3.504 9.22-.349 1.977-1.59 3.799-3.487 4.577-.017.997-.021 1.998-.017 2.995a7.278 7.278 0 0 0 5.136-3.058c2.158-2.953 2.473-6.911 1.598-10.382Zm22.223-6.138c.447 0 .894 0 1.342-.002l1.28-.002h.07s.178 0 .178.018c.068 2.725.056 5.453.044 8.18-.006 1.37-.012 2.738-.008 4.106h2.608l.001.044v.002c.017.943.033 1.883.045 2.823l-2.637.012-.002.26a152.482 152.482 0 0 0 0 4.278h-3.317c.03-1.418.03-3.12.017-4.538a668.761 668.761 0 0 0-3.527-.001c-2.031.002-4.063.005-6.093-.024-.21-.79-.421-1.586-.627-2.38 3.262-3.866 6.486-7.766 9.709-11.666l.917-1.11Zm-6.011 11.698-.513.593s4.025.013 6.162 0c-.006-.868-.006-1.736-.006-2.604.001-1.664.001-3.327-.04-4.988-1.092 1.517-2.285 2.955-3.478 4.394-.716.863-1.432 1.725-2.125 2.605Zm-52.903-11.7c-1.676 0-3.352.002-5.028-.002-.004 1.001-.004 1.998-.004 3 .908.002 1.816 0 2.725-.003 1.735-.005 3.47-.01 5.204.023-.897 1.321-2.01 2.46-3.123 3.597a47.308 47.308 0 0 0-1.853 1.968c.189.678.378 1.355.559 2.032.315.025.636.041.958.058 1.775.092 3.608.187 4.868 1.629.437.615.202 2.024-.071 2.7-.85 1.548-2.869 1.868-4.442 1.456-1.38-.217-2.436-1.175-3.437-2.083l-.265-.24c-.669.64-1.338 1.28-2.011 1.915.005.09.01.227.015.364l.015.363c1.775 1.67 4.063 2.957 6.562 2.953 2.351.173 4.921-.79 6.217-2.839 1.014-1.493 1.026-3.428.673-5.136-.724-2.238-3.054-3.323-5.22-3.647.993-1.275 2.127-2.42 3.261-3.566.662-.67 1.325-1.338 1.959-2.033l-.011-1.249-.01-1.25c-2.514-.012-5.028-.01-7.541-.01Z" fill="#DEEEFF"/><path d="M656.876 34.55a4.55 4.55 0 0 1-4.55-4.55 4.549 4.549 0 0 1 4.55-4.551 4.549 4.549 0 0 1 4.55 4.55 4.55 4.55 0 0 1-4.55 4.55Zm0-14.041c-5.984 0-10.506 4.12-10.506 9.492 0 5.37 4.522 9.492 10.506 9.492s10.506-4.121 10.506-9.492-4.522-9.492-10.506-9.492ZM646.143 20.815h-19.49v5.28h6.766v13.09h5.958v-13.09h6.766v-5.28ZM606.605 20v19.185h5.787v-8.4L624.795 40V20.814h-5.788v8.231L606.605 20ZM594.537 34.55a4.55 4.55 0 0 1-4.55-4.55 4.549 4.549 0 0 1 4.55-4.551 4.549 4.549 0 0 1 4.55 4.55 4.55 4.55 0 0 1-4.55 4.55Zm0-14.041c-5.984 0-10.506 4.12-10.506 9.492 0 5.37 4.522 9.492 10.506 9.492s10.506-4.121 10.506-9.492-4.522-9.492-10.506-9.492Z" fill="#DEEEFF"/></svg>