<svg fill="none" xmlns="http://www.w3.org/2000/svg" viewBox="0 0 98 24"><path d="M26.352.646v22.396h6.755v-9.805l14.478 10.756V1.597h-6.757v9.608L26.352.646Z" fill="#111"/><path fill-rule="evenodd" clip-rule="evenodd" d="M72.77 12.32c0-6.27 5.278-11.08 12.264-11.08 6.985 0 12.263 4.81 12.263 11.08 0 6.27-5.278 11.08-12.263 11.08-6.986 0-12.265-4.81-12.265-11.08Zm6.952-.001a5.311 5.311 0 1 0 10.623 0 5.31 5.31 0 0 0-5.311-5.312 5.31 5.31 0 0 0-5.312 5.312Z" fill="#111"/><path d="M49.754 1.598h22.75V7.76h-7.898v15.281h-6.954V7.761h-7.898V1.598Z" fill="#111"/><path fill-rule="evenodd" clip-rule="evenodd" d="M0 12.32C0 6.05 5.28 1.24 12.264 1.24c6.985 0 12.265 4.81 12.265 11.08 0 6.27-5.28 11.08-12.265 11.08S0 18.59 0 12.32Zm6.953-.001a5.311 5.311 0 1 0 10.623 0 5.31 5.31 0 0 0-5.312-5.312 5.31 5.31 0 0 0-5.311 5.312Z" fill="#111"/></svg>