<svg width="120" height="24" fill="none" xmlns="http://www.w3.org/2000/svg"><path d="M11.871.643C4.922.643 0 5.598 0 12.322S4.922 24 11.871 24c6.95 0 11.872-4.954 11.872-11.678C23.743 5.598 18.82.643 11.87.643Zm0 5.148c3.668 0 6.274 2.67 6.274 6.53 0 3.861-2.606 6.531-6.274 6.531-3.667 0-6.273-2.67-6.273-6.53 0-3.86 2.606-6.531 6.273-6.531ZM40.927 8.002a.2.2 0 0 0-.2-.2h-4.619a.2.2 0 0 0-.2.2v8.373c0 2.011-1.094 2.928-2.59 2.928-1.512 0-2.59-.917-2.59-2.928V8.002a.2.2 0 0 0-.2-.2h-4.634a.2.2 0 0 0-.2.2v8.808c0 4.954 3.41 7.19 7.624 7.19 4.199 0 7.609-2.236 7.609-7.174V8.002ZM57.661 8.002a.2.2 0 0 0-.2-.2h-6.983a.2.2 0 0 1-.2-.2v-4.2a.2.2 0 0 0-.2-.2h-4.635a.2.2 0 0 0-.2.2v4.2a.2.2 0 0 1-.2.2H42.5a.2.2 0 0 0-.2.2v4.055c0 .11.09.2.2.2h2.543c.11 0 .2.09.2.2v5.06c0 3.957 1.914 6.483 6.145 6.483 1.362 0 3.212-.548 3.724-.709a.195.195 0 0 0 .137-.188v-3.729c0-.465-.507-.752-.927-.555-.582.274-1.212.484-1.808.484-1.27 0-2.236-.611-2.236-2.429v-4.417c0-.11.09-.2.2-.2h6.983a.2.2 0 0 0 .2-.2V8.002Z" fill="#0A213B"/><path d="M66.805 8.002a.2.2 0 0 0-.2-.2H62.58a.2.2 0 0 1-.2-.2v-.91c0-1.368.547-1.995 1.657-1.995.894 0 1.594.262 2.293.607.095.047.21.014.264-.078l2.001-3.4a.197.197 0 0 0-.053-.259C67.323.685 65.73 0 63.363 0c-3.684 0-6.017 2.332-6.017 6.58v16.802c0 .11.09.2.2.2h4.635a.2.2 0 0 0 .2-.2V12.457c0-.11.09-.2.2-.2h4.024a.2.2 0 0 0 .2-.2V8.002ZM83.479 8.002a.2.2 0 0 0-.2-.2h-4.62a.2.2 0 0 0-.2.2v8.373c0 2.011-1.093 2.928-2.589 2.928-1.512 0-2.59-.917-2.59-2.928V8.002a.2.2 0 0 0-.2-.2h-4.635a.2.2 0 0 0-.2.2v8.808c0 4.954 3.41 7.19 7.625 7.19 4.198 0 7.609-2.236 7.609-7.174V8.002ZM95.11 7.367c-1.838 0-3.284.576-4.286 1.822-.127.158-.41.074-.41-.129V8.002a.2.2 0 0 0-.2-.2h-4.427a.2.2 0 0 0-.2.2v15.38c0 .11.09.2.2.2h4.635a.2.2 0 0 0 .2-.2v-8.294c0-2.042 1.159-2.991 2.558-2.991 1.56 0 2.493 1.045 2.493 2.911v8.374c0 .11.09.2.2.2h4.635a.2.2 0 0 0 .2-.2v-10.16c0-3.651-2.445-5.855-5.598-5.855ZM109.834 7.367c-4.23 0-7.351 3.668-7.351 8.3 0 4.665 3.121 8.333 7.335 8.333 1.871 0 3.212-.676 4.154-1.674.132-.14.382-.05.382.14v.916c0 .11.09.2.2.2h4.458a.2.2 0 0 0 .2-.2V.618a.2.2 0 0 0-.2-.2h-4.618a.2.2 0 0 0-.2.2V8.76c0 .187-.241.277-.374.146-.932-.921-2.224-1.539-3.986-1.539Zm1.191 4.697c1.978 0 3.378 1.528 3.378 3.62 0 2.09-1.4 3.619-3.378 3.619-2.011 0-3.362-1.56-3.362-3.62 0-2.058 1.351-3.619 3.362-3.619Z" fill="#0A213B"/></svg>