<svg xmlns="http://www.w3.org/2000/svg" viewBox="0 0 1080 1030.7" xml:space="preserve" class="hidden sm:block duration-200 h-24"><path d="M479.9 892.4c-12.7.9-28.4 40.7-27.2 57.1.5 6.2 2.7 9.7 6.9 9.4 14.8 0 27-40.6 25.7-58.6-.3-4.1-1.4-8.2-5.4-7.9zm-108 24.2c11.5-6 25.9-14.4 17.8-19.8-5.1-3.6-11.1-4.3-18-2.3-4.2 1.2-7 9-6.4 16.6.1 4.8 3.1 7.4 6.6 5.5zm-5 28.1c-8.4 1.2-9.8 13.8-9.2 21.1.4 5.9 2.6 8.6 8.5 7 13.4-3.5 34.5-13.3 33.8-21.8-.5-7.5-21.9-8.5-33.1-6.3z"/><path d="m848.5 801.4-600.6 42 12.8 187.4 600.6-42-12.8-187.4zM361.3 995.1c-18.1 1.3-24-5.9-25.1-21.4-1.1-14.1 8.2-64.7 10.1-80.7 2.1-14.1 10.8-19.2 26.6-20.4 20.9-1.6 40.7 8.9 41.9 25.8.4 5.6-2 11.5-6.3 17.8-6.3 6.1-4.3 10.5 1.9 13.5 7.3 3.1 11.3 11.4 12 20.1 1.6 21.9-34.5 43.6-61.1 45.3zm98.2-14.4c-15 1.1-26-10.5-27.2-26.1-2.7-35.8 23.3-86.8 53.2-89.1 14.1-1.1 19 18.4 20.1 33.1 2.9 35.3-17 79.9-46.1 82.1zm120.2-52.4 9.8 17.7c5.5 9.5 2.7 17.7-5.7 18.9-7.9.9-10.3-4.3-18.1-17.7-4.2-6.2-6.7-6.6-11.4-1.1-23.8 27.6-29.5 37.7-37.6 35.7-6.6-1.2-9.9-7.5-7.3-13.9 2-4.1 2.5-4.4 36.9-44.7 3.1-3.9 3.1-7.3.5-11.9-1.3-2.2-13.5-21.4-16.4-25.4-5.1-7.3-4.2-15 1.5-18 10.9-5.6 15.8 6.2 27.9 24.6 3.8 5.4 6.9 5.4 11.1.6 2.6-3 18.4-23.2 22.4-26.6 4.6-3.5 10.5-3.6 13.9-.5 5.5 4.7 4.2 10.2-3.6 20.4-1.6 1.8-16.1 20.2-22.9 27.8-3.7 4.7-3.9 9.2-1 14.1zm119.2-63.9c-2.5.8-26.4 3.4-34.3 4-7.1.2-11.1 3.4-12.3 10.3-.6 2.9-3.4 11.6-4.1 13.9-1.1 4.6 1.2 7.9 6 7.8 15.9.5 25.8.3 23.6 12.4-.5 4.3-3.7 7.1-7.7 7.7-7 1.4-26.9 0-30.9 4.3-1.8 2.1-5.8 17.4-6.8 23.2-1.7 7.2 6.5 7.2 13.3 6.7l21.4-1.6c8.7-.7 13.8 2.7 14.3 8.6.2 6.2-4.6 10.8-12.4 12-15.4 2-45.7 3.4-50.9 1.8-6.1-2.1-9.3-6.4-9.7-12.6-.6-7.6 9.1-42.1 14.3-58.9 8.4-28.7 11.3-39.1 13.9-45.6 2.7-5.9 7-9 13.2-9.5 8.2-.6 43.1-3.8 47.4-3.8 4.8-.1 9.1 4.1 9.5 9.5 0 4.4-3.1 8.3-7.8 9.8zm68.6 1.1c-7.9.3-15.4 2.6-22.5 6.8-7 4.5-7 8.5-.2 12.5 18.7 11.7 30.2 16.8 31.6 36.2 1.4 19.2-16.3 36.4-37.2 37.9-13.8 1-30.1-7.4-30.8-17.6-.4-5.1 3-9.9 8-10.2 7.3-1.4 13.6 6.9 23.7 6.2 8.2-.6 15.5-9.1 15-15.3-.8-6.7-9.1-12.1-18.9-17.6-11.3-6.5-19.9-12.7-20.7-22.6-1.4-19.2 25.1-36.2 46.5-37.8 11.2-1.4 22 2.6 22.6 10.5 1 10.5-8 10.3-17.1 11zM957 489h-20.8c-.8 0-1.4.6-1.4 1.4v3c0 .8.6 1.4 1.4 1.4h5.7c.8 0 1.4.6 1.4 1.4v21.2c0 .8.6 1.4 1.4 1.4h3.8c.8 0 1.4-.6 1.4-1.4v-21.2c0-.8.6-1.4 1.4-1.4h5.7c.8 0 1.4-.6 1.4-1.4v-3c0-.8-.6-1.4-1.4-1.4zm40 0h-7.5c-.6 0-1.1.4-1.3.9l-6.6 18.5h-.1l-6.5-18.5c-.2-.6-.7-.9-1.3-.9h-7.5c-.8 0-1.4.6-1.4 1.4v27c0 .8.6 1.4 1.4 1.4h3.8c.8 0 1.4-.6 1.4-1.4V496h.1l7.2 21.9c.2.6.7 1 1.3 1h3c.6 0 1.1-.4 1.3-1l7.5-21.9h.1v21.5c0 .8.6 1.4 1.4 1.4h3.8c.8 0 1.4-.6 1.4-1.4v-27c-.1-.9-.8-1.5-1.5-1.5zm-424.9-68.5c2.1-2.1 4.5-3.7 6.6-2 .9.7 1.1 2 1.2 3.2.6 9.8 1.5 22.3 14 22.6 7.6.2 3.8.1 11.4-.2 10.7-.5 32.9-1.5 33-16.5.1-21.6-1.1-74.6-1.3-81.6-.1-3.4-1.1-12.3 2.5-14 6.5-3.1 14.9 1.3 19.9-5.1 5.5-7.2 8.3-25 .6-31.7-3.5-3-8.1-2.6-12.4-2.6-21.5.1-43 .1-64.5.8-4.9.2-9.9.3-14.8.7-4.7.3-11.1-.7-12.7 5-2.1 7.5-2.5 15.4-1.1 23 .6 3.6 2 7.6 5.3 9.6 4 2.3 9.3.8 13.6 1.6 7.6 1.3 4.8 8 1.8 12.8-8.4 13.7-27.2 14.3-41.3 11.2-17.1-3.7-28.6-15.4-34.7-31.7-8.8-23.7-5.8-50.5 7-72.1 11.4-19.2 31.7-34.8 53.8-21.3 10.6 6.5 15.5 20.3 21.2 31.7 2.1 4.2 6.4 7.7 11 7.6 0 0 52.3 4.6 52.6-14.7.2-14.6 1.9-70.9-4.2-88.4-1.6-4.7-9.7-5.6-14.3-6-10.6-.8-26-2.6-33.3 3.8-5.2 4.6-4 15.2-4 15.2 1 6.7-4.8 8.5-9 3.4-28.2-34.5-87.9-28.8-117.5.8-9.7 9.7-17.5 21.3-23.8 33.4-15.4 29.4-22.4 63.1-20.8 96.2 1.9 38.7 13.5 81.4 43.9 107.7 11.6 10 26.3 16.2 41.3 19.1 23.1 4.4 48.7 2 65.1-16.8.9-1.2 2.3-3.1 3.9-4.7zm-356.4-79.6c.2 2.5.3 5 .6 7.5 2.8 29.1 12.3 60.3 35.8 79.4 21.6 17.5 50.3 19.4 76 10.6 27.4-9.4 49.1-28.3 64.4-52.5 4.9-7.8 9.2-15.9 12.5-24.5 1.6-4 2.9-8.3 2.9-12.6 0-9-7.9-15.4-16.7-12.3-6.6 2.3-11.3 8.4-16 13.3-5.6 5.9-11.3 11.7-17.7 16.7-8.3 6.5-17.9 11.7-28.3 12.9-12.2 1.4-24.9-3-30.8-14.1-3.1-5.9-3.5-11-3.8-16.3-.1-2.8 1.5-5.3 4.2-6.3 10.6-3.9 25.3-8.4 34.6-12.4 29.4-12.6 61-34.4 68.8-82.5 4.1-25.4-1.4-58.5-23.4-74.7-20.7-15.3-50.5-10.6-72.7-2-24.3 9.4-45 28.3-59.7 49.6-23.8 34.4-33.1 78.6-30.7 120.2zm69.8-59.9c-.1-2.7.3-5.6.9-8 4.1-17.8 13.9-33.6 27.2-46 9.3-8.6 25.6-21 39-15.1 12.3 5.3 8.5 24.8 4.5 34.3-5.9 13.7-16.1 25.3-28.6 33.3-6.6 4.2-13.5 8.3-21.1 10.6-5 1.5-11.8 3.1-16.8.4-3.7-1.9-4.9-5.6-5.1-9.5zm575.4 200.7c-25.6-8-100.4-18.7-115.3-8-7.9 5.6-11.3 15.7-11.3 27.7.1 18.9 1.1 203.5 6.4 238.3 3.9 25.3 43 25.9 70.1 18.1 33.8-9.7 128.8-62.3 128.1-176.6-.2-49.7-29.6-84.4-78-99.5zm5.9 138.3c-7.3 18.7-25.5 37.9-48.7 46.2-4.3 1.5-9-1.7-9.1-5.9-.7-18.1-2-92.3.2-108.3.4-2.9 3.2-4.8 6.4-4.5 10.4 1 22.8 5.1 31.1 9.1 26 12.3 27.7 44 20.1 63.4zm-414-91.7c-9.4-5-21.3-6.7-40-6-8 .3-10.7 9.2-10.2 20.5 1.6 35.5 4.9 109.2 5.5 127.9.4 11.9 2.9 14.1 10.7 17.4 12.7 5.2 27.4 8.2 39.2 6.9 5.5-.6 8.2-5.3 7.7-15.2 0 0-3.6-101.3-3.5-115.7 0-19.6-.8-31.2-9.4-35.8z"/><ellipse transform="matrix(1 -.00237 .00237 1 -1.119 1.02)" cx="429.7" cy="472" rx="30.8" ry="31.6"/><path d="M452.8 722.5c-20.3-1.9-49.1-5.6-77.2-20.9-27.6-15.1-52.4-36.7-72.1-61.7-.8-1-8.8-10.8-8.4-11.3 20.5-25 41.4-50 58.7-77.3 11.3-17.9 18.6-38.1 17.5-59.5-.4-8.1-2.3-17.1-8.3-22.9-7.9-7.7-18.7-5.3-26.2 1.7-4 3.7-7.1 8.3-10.1 12.8-16 23.5-32.9 46.3-52.3 67.1-14.7 15.8-30.5 30.4-45.9 45.4-.8.8-2.3.1-2.2-1.1 0 0 12.1-110 8.4-131.5-2.7-15.7-33.1-35-53.9-28.9-15.7 4.6-22.5 53.2-26.2 123.5-.4 6.9-7.4 181.9-3.7 191 8.1 20.1 35.5 23.9 50.9 21.5 21.3-3.2 28.3-5.8 29.5-28.8 1.1-19.7 1-36.8 2.1-47.9.2-2.2 1.2-4.1 2.8-5.6 4-3.8 12.2-11.5 16.3-15.5.5-.5 1.4-.5 1.9.2 20.6 26.3 44.1 53.8 70.3 72.9 26.3 19.3 60.6 41.6 94.7 30.5 12.4-4 23.4-12.6 30-23.9 2.3-4.6 14.3-28.7 3.4-29.8zm606.8-294.9c4.6-27.8 21.1-222.5 20.4-258.2-.5-24.3-21.7-32.7-44.5-34.1-26.3-1.6-31.4 21.6-31 31.5.6 15.4 2.4 74.2 2.4 93.7.1 24.8 5.5 56.4-4 39.7 0-.1-33.7-82.1-61.3-126.3-14.4-23-48.6-18.6-64.5-6.1-17.2 13.5-11 42.1-12 60.5-1 20.4 4.2 182.1 6 190.4 3.8 17.4 28.3 29.3 48.6 25.2 19.5-3.9 12.8-64.6 12.2-81.9-.3-9.7-1.4-26-1.7-35.7-.4-14.7 4.6-14.2 11.3-1.1 10.7 21.2 47.2 93.5 53 104.8 13.1 24.9 60.7 23.8 65.1-2.4zM141 422.9c8.3-18.2 68.2-158.2 82.8-221 9.2-39.5-16.6-70.7-48.8-67.3-10.6 1.1-20.3 6.3-27.9 13.8-32.9 32.6-39.7 100.6-40 99.4-8.8-48.4-12.3-111.3-67.6-106.3-37.3 3.4-44.3 39-36.8 63.1 13.8 44 35.5 122.5 57.6 178.8 14.6 37.2 29.1 64.2 42.1 66.4 19.3 3.3 29.4-6.7 38.6-26.9zm659.7-10.6c4.1 20.1 15.3 27.1 31.3 22.4 9-2.6 15.1-12.7 14.3-22.1s-5-64.7-11.5-99.7c-7.4-40-26.2-147.8-63.8-157.9-44-11.8-64.8 73.7-72.7 102.5-7.4 26.9-13 54.4-17.7 81.9-2.7 15.6-6.1 31-7.8 46.8-1.1 10.1-4.1 26.2-3.5 36.6 1.3 22.9 27 27.7 40.3 20.3 8.4-4.7 12-16.9 11.9-26-.1-15.3 3.7-35.8 5.5-50.9l32.1-1.1c15.4-.5 26.4-1.2 36.8-1.2 1.4 12.5 3.5 38.9 4.8 48.4zM789 316.1c-14.6-.4-37.8.6-56.6.8 9.4-42.7 24.7-90 32.2-90.3 7.5-.3 27.1 89.4 24.4 89.5zm-79 193.8c-1.4-11.2-3.5-26.4-12.9-33.8-17.6-13.7-47.5-8.7-74.3 18.1-15.2 15.2-38.6 48.2-49.2 72.1 0 0 6.7-49.1-4.3-69.1-4-7.3-15.8-9-23.9-9.2-44.7-1.1-46.7 16.1-45.9 22.5.8 5.8 4.1 107.5.2 144.6-1.2 11.1-3.3 32.2-4.6 40.8-3.3 21.9-4.7 28.4 2.9 36 8.1 8.1 33.7 18.3 48.9 15.1 7.3-1.5 10-5.3 11-8.2 4.3-12.4 17.5-118.9 18.9-126 .9-2.4 18.9-37.8 42.2-67.3 22.1-27.9 21.5 47 21.3 55.1-.7 30.9-2.1 128 1.4 146.5 4.6 23.4 25.9 26.6 41.6 25.4 21.1-1.7 44.2-7.8 35.1-28-15.5-34.5-4.1-201.4-8.4-234.6z"/><g><path d="M432.7 115.6c-.5-5.3-.8-42.9 1.1-85.6.1-1.5-.3-3.2-1.3-4.8-2-3.1-5.3-4.4-10.7-4.4-10.2.3-12.3.8-17 .6-16.6-.8-23.7-3.4-24.5-9.4-1.2-8.6 5-12 16.8-12l45.3.3c30.5 0 37.1-.1 43.6.9 7.8 1.2 14.3 5 13.9 9.7-.5 6.3-4.1 10.6-13.9 10.4-10.3-.1-6.9-.3-17.5-.5-7.1-.3-10.7 2.8-11 9.4.1 9.9-1.2 88.8-2.7 91.1-1.6 4.5-6.4 7.1-12.3 6.6-7.1-.8-9.5-7.5-9.8-12.3zm82.1 2.1c-2.8-14.2-2.4-95.3.9-107.2.9-3.1 3.5-6.3 6.9-6.7C533.4 2.3 537.3 8.3 537 14c0 3.1-.6 35.5-.9 41.2.1 5.1 3 8.2 8.6 8.5H555c14.7 0 15.2 1.4 15.3-13.6.4-8.8.5-15.6.7-26.7.4-8 2.9-14.4 8.4-15 8.2-1 14.1 2.1 14.6 10.4.7 24.2-.4 51 0 73.4.6 18.8.9 27.3 0 28.7-1.8 4-5.4 5-10 5.2-8.1.3-10.8-5.6-12-21.9-.7-10.2-.1-18.5-7.4-18.5-3.6-.3-12 0-21.7 0-4.7 0-7.1 2.3-6.7 6.5.2 10.2 1.8 23.2.3 27.1-1.7 4.3-5.7 6.3-11.3 6.3-4.8-.1-9.4-2.8-10.4-7.9zm107.3-6.8c-2-7.9-1.9-41.8-1.1-58.3.7-28.1.5-36.1 1.5-42.4 1.2-5.7 4.9-8.5 11.3-8.5 8.5 0 44.7-.3 49.2-.3 7 0 14.6 3.7 14.6 9.9 0 4.7-2.7 8.6-7.3 9.7-2.4.6-27.1 1.4-35.3 1.4-7.4-.3-10.8 2.6-10.1 9.4.1 2.8.6 10.8.6 13.1.2 4.5 2.7 8.8 7.8 9 18.7 0 30.8 1.6 30.3 11.3-.2 4.3-4.6 7.2-8.6 7.4-7 .9-27.5-1.9-30.5 2-1.3 2-1.2 17.1-.6 22.7.2 7.1 8.9 7.7 16 7.7h22.3c9.1 0 17.7 2 17.6 9.7-.1 6.5-5.9 10.1-13.9 10.7-15.8.9-45.1.3-51.1-1.6-8.2-2.4-11.1-6.6-12.7-12.9z" style="fill:#020203"/></g></svg>