<svg fill="none" xmlns="http://www.w3.org/2000/svg" viewBox="0 0 48 48">
  <path
    opacity=".3"
    d="M29 19c0-6.06-4.94-11-11-11S7 12.94 7 19c0 4.94 2.98 7.78 4.7 9h12.6c1.72-1.22 4.7-4.06 4.7-9Z"
    fill="#003EDB"
  />
  <path
    d="M14 40h8c0 2.2-1.8 4-4 4s-4-1.8-4-4Zm-4-2h16v-4H10v4Zm23-19c0 7.64-5.32 11.72-7.54 13H10.54C8.32 30.72 3 26.64 3 19 3 10.72 9.72 4 18 4c8.28 0 15 6.72 15 15Zm-4 0c0-6.06-4.94-11-11-11S7 12.94 7 19c0 4.94 2.98 7.78 4.7 9h12.6c1.72-1.22 4.7-4.06 4.7-9Zm13.74-4.26L40 16l2.74 1.26L44 20l1.26-2.74L48 16l-2.74-1.26L44 12l-1.26 2.74ZM38 12l1.88-4.12L44 6l-4.12-1.88L38 0l-1.88 4.12L32 6l4.12 1.88L38 12Z"
    fill="#003EDB"
  />
</svg>
