<svg fill="none" xmlns="http://www.w3.org/2000/svg" viewBox="0 0 48 48">
  <path
    opacity=".3"
    d="M21.98 16.32c.02-.1.02-.2.02-.32 0-2.2-1.8-4-4-4-.12 0-.22 0-.32.02l4.3 4.3ZM18 30c-5.4 0-11.6 2.58-12 4.02V36h24v-.34l-4.22-4.22C23.52 30.62 20.66 30 18 30Z"
    fill="#003EDB"
  />
  <path
    d="M30 16c0-2.84-1-5.46-2.66-7.52C28.18 8.2 29.06 8 30 8c4.42 0 8 3.58 8 8s-3.58 8-8 8h-.36l-1.54-1.54c1.2-1.88 1.9-4.1 1.9-6.46Zm15.66 24H46v-6c0-4.36-7.16-6.94-12.68-7.74 2.2 1.5 3.9 3.42 4.46 5.88L45.66 40ZM18 12c-.12 0-.22 0-.32.02l-3.2-3.2a7.992 7.992 0 0 1 10.7 10.7l-3.2-3.2c.02-.1.02-.2.02-.32 0-2.2-1.8-4-4-4Zm.34 12H18c-4.42 0-8-3.58-8-8v-.34L1.38 7.02 4.2 4.2l39.6 39.6-2.82 2.82L34 39.66V40H2v-6c0-5.32 10.66-8 16-8 .74 0 1.6.06 2.5.16L18.34 24ZM18 30c-5.4 0-11.6 2.58-12 4.02V36h24v-.34l-4.22-4.22C23.52 30.62 20.66 30 18 30Z"
    fill="#003EDB"
  />
</svg>
