<svg width="48" height="48" fill="none" xmlns="http://www.w3.org/2000/svg">
  <rect width="48" height="48" rx="24" fill="#79DCF2" />
  <g clip-path="url(#a)">
    <path
      d="M28 18.667c0-1.894-.667-3.64-1.773-5.014.56-.186 1.146-.32 1.773-.32a5.332 5.332 0 0 1 5.333 5.334A5.332 5.332 0 0 1 28 24h-.24l-1.027-1.027A7.99 7.99 0 0 0 28 18.667Zm10.44 16h.227v-4c0-2.907-4.774-4.627-8.454-5.16 1.467 1 2.6 2.28 2.974 3.92l5.253 5.24ZM20 16c-.08 0-.147 0-.213.013l-2.134-2.133a5.33 5.33 0 0 1 7.134 7.133l-2.134-2.133a1.08 1.08 0 0 0 .014-.213C22.667 17.2 21.467 16 20 16Zm.227 8H20a5.332 5.332 0 0 1-5.333-5.333v-.227L8.92 12.68l1.88-1.88 26.4 26.4-1.88 1.88-4.653-4.64v.227H9.333v-4c0-3.547 7.107-5.334 10.667-5.334.493 0 1.067.04 1.667.107L20.227 24ZM20 28c-3.6 0-7.733 1.72-8 2.68V32h16v-.227l-2.813-2.813C23.68 28.413 21.773 28 20 28Z"
      fill="#007397"
    />
  </g>
  <defs>
    <clipPath id="a">
      <path fill="#fff" transform="translate(8 8)" d="M0 0h32v32H0z" />
    </clipPath>
  </defs>
</svg>
